<svg viewBox="0 0 575.01 704.47" xmlns="http://www.w3.org/2000/svg"><path d="m121.86 647.67c-11.25 7.42-26.22.89-37.62-6.3-24.24-15.37-49.24-39.59-44.24-67.88 2.52-14.42 12.47-26.25 22-37.33l36.77-42.51c11.55-13.35 23.75-28.37 23.72-46 0-9.36-3.56-18.33-7.42-26.86-24.1-53.23-62.53-99-86.58-152.25s-30.95-121 6-166.19c14-17.07 32.9-29.3 52.11-40.14 19.7-11.12 40.53-21.23 63-24.13 45.42-5.87 91.06 18.45 136.26 11 22.9-3.78 43.64-15.43 65.61-22.91 24.25-8.27 49.9-11.41 75.43-13.17 37.57-2.6 79.09-1 107.26 24 18.36 16.3 28.07 40.18 34.54 63.87 5.39 19.68 8.95 40.64 3.81 60.38-10.9 41.8-57.51 67.75-65.63 110.22-5.41 28.37 7.89 56.48 18.94 83.17 14.82 35.82 26.21 73.85 25.46 112.61s-15 78.52-44.42 103.75c-11.86 10.17-25.86 17.81-36.64 29.12-8 8.45-14 18.64-21.1 27.86a133.81 133.81 0 0 1 -76.12 48.35c-26.47 5.9-54 3.55-81 1.17l-194.78-17.15" fill="#f5f4f4"/><path d="m493.8 669c1.37-30.7-209.38-64.13-310.78-51.25-35.9 4.56-61.6 24.85-88.79 27.62-49.61 5.06-88.67-6.27-94 18.68-8.28 38.63 229.65 40 289.66 40s202.02 7.15 203.91-35.05z" fill="#f5f4f4"/><path d="m355.05 614.75s-6.46 10.58-7.77 22.37-26.37 12.78-26.37 12.78l-3.64-24.43s9-1.21 15.18-20.21 22.6 9.49 22.6 9.49z" fill="#f08177"/><path d="m353.72 640.79c4.53 12.82 11.69 23.61 17.89 25.63s16.21 10.28 13 19.19c-4 11.19-40.46-.62-46.32-6.45s-13.49-13.6-29.39-14.56-14.06-17.87-9.76-23.58c4.95-6.55 18.55-17.95 20.06-18.44s-1.64 15.82 7.83 21.67 2.68-12.24 9.57-16.73 14.59-2 15.69 1.6-1.58 3.17 1.43 11.67z" fill="#010101"/><path d="m384.61 685.61c.06-.15.08-.31.13-.47-35.34 8-44.18-13.47-62.58-21.09-14.37-6-20.42-18.44-22.42-23.77-.2.25-.42.5-.6.74-4.3 5.71-6.15 22.61 9.76 23.58s23.53 8.73 29.39 14.56 42.3 17.64 46.32 6.45z" fill="#010101"/><path d="m370.64 505.13c-9.43-9.3-31.67-38.47-46.78-58.69a129.86 129.86 0 0 0 -31.11-29.7c-22.3-15.14-60.06-43.45-60.06-43.45l63.63-60.29s40.86 35.55 63.48 67.74 63.93 105.87 59.79 134.76-50.85 98.91-50.85 98.91c-12.39 13.13-45-15.5-45-15.5s1.24-8.45 19.9-43.77c17.26-32.62 41.92-35.28 27-50.01z" fill="#bcc8d7"/><path d="m378.55 513.34a32.56 32.56 0 0 0 10.31-4.79c.23-.16 0-.54-.22-.38a31.93 31.93 0 0 1 -10.21 4.74.22.22 0 0 0 .12.43z" fill="#8b9caf"/><path d="m379.52 518.05a22.62 22.62 0 0 0 11.42 2.72c1.28-.06 3.23-.83 2.79-2.5s-2.62-1.69-3.91-1.58c-1.93.17-4.39.93-5.92-.71-.2-.2-.51.11-.32.32 1.21 1.29 3.08 1.25 4.7 1a10.62 10.62 0 0 1 3.23-.16c1.19.21 2.56 1.29 1.36 2.5-.83.82-2.27.69-3.34.65a22.85 22.85 0 0 1 -3.29-.37 23.18 23.18 0 0 1 -6.5-2.28c-.25-.13-.47.25-.22.38z" fill="#8b9caf"/><path d="m333.92 585.39a51.84 51.84 0 0 0 27.64 19.73 49.91 49.91 0 0 0 9.54 1.82c.28 0 .28-.41 0-.44a51.37 51.37 0 0 1 -30.55-14 49.4 49.4 0 0 1 -6.25-7.29c-.16-.23-.55 0-.38.23z" fill="#8b9caf"/><path d="m117.86 602.57s-6.78 30.11-12.48 35.27 1.9 20.34 3.53 20.34 21.16-10.85 21.16-10.85-2.45-18.72 8.68-33.64-20.89-11.12-20.89-11.12z" fill="#f08177"/><path d="m332.32 390.82c-7.73-38.66-33-82.61-33-82.61l-94.15-5.1s9.7 45.53 2 65.06-27.05 67.83-33.97 93.83-8.54 37.43-16.28 44.76-48.42 89.12-48.42 89.12 13.43 23.6 43.13 23.2c0 0 32.15-63.49 42.33-84.65 11.16-23.21 23.26-46 35.93-68.45 6.84-12.11 13.87-24.16 21.67-35.69a143.73 143.73 0 0 1 9.23-12.46c4.41-5.2 10.32-8.74 15.84-12.67a.81.81 0 0 1 .43-.2.88.88 0 0 1 .58.35c1 1.07 4.07.93 5.06 2" fill="#bcc8d7"/><path d="m230.69 338.46c-.94 11.76-4.95 24.21-15.33 30.94a23.83 23.83 0 0 1 -8.49 3.44c-.28.05-.16.48.12.42a26 26 0 0 0 14.15-8.2 37.13 37.13 0 0 0 8.25-15.89 61.49 61.49 0 0 0 1.74-10.71c0-.29-.42-.29-.44 0z" fill="#8b9caf"/><path d="m234.14 342.34c-.76 11.2-5 22.9-15 29a23 23 0 0 1 -8.11 3.07c-.28 0-.16.47.12.42a25.15 25.15 0 0 0 13.64-7.46 34.26 34.26 0 0 0 8.16-15 51.43 51.43 0 0 0 1.62-10c0-.28-.42-.28-.44 0z" fill="#8b9caf"/><path d="m328.89 350.7c-4.7.39-9.62-.06-13.87-2.23a15.88 15.88 0 0 1 -8-8.89c-.09-.26-.52-.15-.43.12 2.25 6.7 8.91 10.49 15.62 11.34a31.93 31.93 0 0 0 6.7.1c.28 0 .28-.47 0-.44z" fill="#8b9caf"/><path d="m84.49 649.23c12.85-5.11 7.32-18.45 13.29-19.26s17.91-.54 16.55 19.26c0 0 12.21 1.63 15.74-5.15 0 0 1.9 11.93 1.35 17.36 0 0 7.87 14.11 1.9 21.16s-21.7-1.63-31.2 1.9-32.12 12.86-49.37 3.5c-13.57-7.3 11.93-30.9 31.74-38.77z" fill="#010101"/><path d="m265.86 412.46c2.29-2.87 6-4.07 9.11-5.79 1.71-1 3.24-2.2 4.85-3.3a59.58 59.58 0 0 1 5.18-3.15 47 47 0 0 1 6.68-2.9c.27-.09.16-.52-.11-.42a49.44 49.44 0 0 0 -11.2 5.58c-1.71 1.13-3.32 2.45-5.09 3.5-1.6.94-3.3 1.69-4.94 2.56a14.67 14.67 0 0 0 -4.79 3.61c-.18.22.13.54.31.31z" fill="#8b9caf"/><path d="m166.32 496.57a49 49 0 0 0 8.73 8.84c.22.18.54-.13.31-.31a48.41 48.41 0 0 1 -8.65-8.75c-.17-.22-.56 0-.39.22z" fill="#8b9caf"/><path d="m164.91 501.41a40.41 40.41 0 0 0 7.79 15.71c.18.22.49-.09.31-.31a39.89 39.89 0 0 1 -7.68-15.52.22.22 0 0 0 -.42.12z" fill="#8b9caf"/><path d="m116.15 588.84a41.71 41.71 0 0 0 26.76 16 40.7 40.7 0 0 0 9 .38c.28 0 .28-.47 0-.45a41.19 41.19 0 0 1 -29.29-9.66 39.23 39.23 0 0 1 -6.12-6.5c-.17-.22-.55 0-.38.23z" fill="#8b9caf"/><path d="m107.47 680.24c-27 2.56-34.56 15.18-58.38.39a6.52 6.52 0 0 0 3.66 7.4c17.29 9.33 39.88 0 49.37-3.53s25.23 5.15 31.2-1.9-1.9-21.16-1.9-21.16 3.46 16.22-23.95 18.8z" fill="#010101"/><path d="m162.75 45.12c2.73-1.74 5.88-2.69 8.81-4.06s5.8-3.33 7.11-6.29.48-7-2.46-8.39c-1.08-.51-2.39-.65-3.2-1.53a4.77 4.77 0 0 1 -.92-2.71q-.68-5.43-1.36-10.88c-.51-4.08-1.45-8.81-5.13-10.65a6.49 6.49 0 0 0 -7.93 2 2.89 2.89 0 0 1 -1.11 1.16c-.68.27-1.42-.14-2.11-.36a4.49 4.49 0 0 0 -5.54 3.2c-.11-1.8-2.73-2-4.45-1.43a17.41 17.41 0 0 0 -7.92 4.63c-3.69 4.12-6.9 10.29-5.67 15.68s4.13 12.21 7.94 15.84c3.17 3 1.36 9 4.3 12.19s8.12 3.64 11.76 1.59c3.89-2.2 3.76-7.38 7.88-9.99z" fill="#f08177"/><path d="m498.05 123.09c-1.22-3-3.24-5.61-4.84-8.43s-2.8-6.1-2.16-9.28 3.71-6 6.9-5.44c1.17.22 2.33.87 3.5.62a4.76 4.76 0 0 0 2.33-1.68l7.44-8.11c2.79-3 6.31-6.36 10.39-5.72a6.5 6.5 0 0 1 5.32 6.24 2.87 2.87 0 0 0 .24 1.6c.39.61 1.23.71 1.93.93a4.51 4.51 0 0 1 2.67 5.84c1.13-1.41 3.37 0 4.46 1.42a17.48 17.48 0 0 1 3.79 8.39c.62 5.51-.34 12.42-4.48 16.12s-10.47 7.6-15.71 8.33c-4.34.62-6.32 6.54-10.6 7.47s-8.76-1.74-10.54-5.54c-1.91-4.06 1.21-8.22-.64-12.76z" fill="#f08177"/><path d="m516.34 134.9c-8.93 9.55-22.91 33.08-22.91 33.08l-13.69-20.07s9.27-5.43 20-21.67 21.02 3.18 16.6 8.66z" fill="#f08177"/><path d="m524.93 93.07-7.72-7.25s-10.71 8.56-13.13 13 8.74 6.97 20.85-5.75z" fill="#f08177"/><path d="m521.55 94-5 5.74-2.55 3.98-8.5-2.1-5 6.7 3.36 3.37 9.42 7 6.15 2 3.25-.8 1.65-2s2.39 3.63 3.58 3.35c13.16-3.09 11.71-11.5 11.71-11.5l-2.21-6.24-8.61-5.5-3.39-6.36z" fill="#f08177"/><g fill="#d26859"><path d="m506.23 102a33.87 33.87 0 0 1 9.87 3.39 15.34 15.34 0 0 1 6.9 6.61 9.48 9.48 0 0 1 1 4.85 3.53 3.53 0 0 1 -1 2.37 4 4 0 0 1 -2.41 1 11.78 11.78 0 0 1 -5.38-1.29 28.84 28.84 0 0 1 -4.11-2.18 72.11 72.11 0 0 1 -8.73-6.85c-.16-.14-.39.09-.23.24a75.87 75.87 0 0 0 8.34 6.61 30.3 30.3 0 0 0 4.66 2.51 12.7 12.7 0 0 0 5.21 1.31 4.13 4.13 0 0 0 3.53-2 7 7 0 0 0 .2-4.74 13.4 13.4 0 0 0 -5.93-7.7 32 32 0 0 0 -11.76-4.49c-.2 0-.29.28-.08.32z"/><path d="m514 103.9c3.1-4.68 6.41-9.57 11.5-12.26.19-.1 0-.38-.17-.28-5.14 2.71-8.48 7.65-11.62 12.37-.12.18.17.34.29.17z"/><path d="m520.36 107.58a21 21 0 0 1 5.21-5.06 39.88 39.88 0 0 1 6.16-3.18c.2-.09 0-.37-.16-.29a39.14 39.14 0 0 0 -6.42 3.35 21.77 21.77 0 0 0 -5.08 5c-.13.17.16.34.29.17z"/><path d="m524.33 114.4a32.53 32.53 0 0 1 7.49-6 10.82 10.82 0 0 1 4.3-1.67 3.18 3.18 0 0 1 1.59.21c.33.16 1.5.69 1.43 1.16 0 .21.29.3.32.09.13-.85-1.51-1.61-2.16-1.75a6.64 6.64 0 0 0 -4.23.94 31.15 31.15 0 0 0 -9 6.82c-.14.15.09.39.24.23z"/><path d="m524.18 118a6 6 0 0 0 2.43 2.3c1.95.83 4.22 0 6-.78.2-.09 0-.38-.16-.29-1.74.79-4 1.58-5.83.73a5.72 5.72 0 0 1 -2.18-2.13c-.13-.17-.41 0-.29.17z"/><path d="m516.28 99.65c-2.9 1.68-6.31 3.23-9.72 2.27a3.84 3.84 0 0 1 -2-1.15c-.64-.82-.21-1.71.38-2.41 1.14-1.34 2.41-2.59 3.61-3.88.15-.16-.08-.39-.23-.24l-2.32 2.48a11.64 11.64 0 0 0 -1.83 2.13c-.74 1.35.17 2.52 1.42 3.08 3.65 1.62 7.69-.15 10.87-2a.16.16 0 1 0 -.17-.28z"/></g><path d="m314.58 158.28a15.49 15.49 0 0 1 -2.81 3.89 13.3 13.3 0 0 1 -2.94 2.67 12.66 12.66 0 0 1 -3.13 1.2 80.88 80.88 0 0 1 -8.46 1.76l-1.32.18a35.61 35.61 0 0 1 -13.88-.46c-4.48-1.23-8.71-4-10.89-8.11-.8-1.54-1.31-3.22-2.07-4.78-1.36-2.83-3.58-5.1-5-7.89 10-.5 11.71-34.61 11.71-34.61s24.44 14.69 30.81 21.48c-.16.91-.31 1.71-.4 2.39-.05.33-.09.62-.11.91s-.05.4-.05.6a18.73 18.73 0 0 0 0 3.89 16.6 16.6 0 0 0 .29 1.81 25 25 0 0 0 3 7.57 4 4 0 0 0 1.07 1.29 5 5 0 0 0 1.07.49c1 .37 2.09.73 3.12 1.09a5.13 5.13 0 0 1 -.01 4.63z" fill="#f08177"/><path d="m331.38 84.08c0 1.4-.1 2.94-.19 4.61-.12 2.47-.34 5.17-.65 8-.05.54-.11 1.12-.18 1.7a108.35 108.35 0 0 1 -1.94 11c-.44 1.85-.93 3.7-1.51 5.52-3.31 10.44-9 19.35-18.87 21-15.83 1.56-31.73-23.4-32.26-23.82-2.18.94-12.4-2.51-9.84-11.82a7 7 0 0 1 7.39-5.47 6.87 6.87 0 0 1 4.16 2.6c-.42-4.9.32-21.33.32-21.33l24.06-13.46 29.45 13.48s.16 3.16.06 7.99z" fill="#f08177"/><path d="m276.76 108.78a.67.67 0 0 0 .11-.37 25.77 25.77 0 0 0 0-5.69 4.61 4.61 0 0 0 -1.43-3.14 4.5 4.5 0 0 0 -2.35-.83 6.49 6.49 0 0 0 -2.56.1c-3.59 1-2.63 5.75-.64 7.83 1.5 1.56 4.35 2.79 6.54 2.26a.62.62 0 0 0 .33-.16z" fill="#d26859"/><circle cx="295.86" cy="97.64" fill="#111" r=".44"/><path d="m303.59 116.26a12.44 12.44 0 0 1 6.67.15c.67.24 1.31.56 2 .78 1.38.45 2.89.47 4.22 1 2.36 1 4.8 5.39 3.13 7.79-1.39 2-4.41 1.91-6.64 1s-4.24-2.52-6.63-2.93-5.08.43-7.25-.73a2.25 2.25 0 0 1 -1.25-3.11 6.33 6.33 0 0 1 3.74-3.37 15 15 0 0 1 2.01-.58z" fill="#fff"/><ellipse cx="303.89" cy="96.44" fill="#010101" rx="3.04" ry="3.53"/><ellipse cx="325.4" cy="99.45" fill="#010101" rx="3.53" ry="3.04" transform="matrix(.06557729 -.99784749 .99784749 .06557729 204.84 417.64)"/><path d="m315.35 98.62v2.77s.09 1.83.16 2.75a18.7 18.7 0 0 0 .4 2.7 5.61 5.61 0 0 0 1 2.44l.15.19-.2.09c-1.57.74-3.14 1.44-4.74 2.11q2.26-1.26 4.58-2.43l-.06.28a6.08 6.08 0 0 1 -1.16-2.58 18.79 18.79 0 0 1 -.37-2.77 30.25 30.25 0 0 1 .24-5.55z" fill="#d26859"/><path d="m301.69 100.2a4.26 4.26 0 0 1 -2.28-3.67.09.09 0 0 0 -.17 0 4.43 4.43 0 0 0 2.37 3.81c.1 0 .18-.1.08-.14z" fill="#d26859"/><path d="m326.82 103.34a1.64 1.64 0 0 1 -1.6 1 2.57 2.57 0 0 1 -1.81-1c-.07-.08-.19 0-.12.12a2.73 2.73 0 0 0 2 1.06 1.82 1.82 0 0 0 1.66-1.08c0-.1-.12-.14-.16 0z" fill="#d26859"/><path d="m306.19 136c-.05.33-.09.62-.11.91s-.05.4-.05.6a18.73 18.73 0 0 0 0 3.89c-14.23-2.94-19.77-9.23-23-20.05 5.44 12.97 20.51 14.49 23.16 14.65z" fill="#c97547" opacity=".5"/><path d="m326.28 67.1s7.18 9.63 1.6 6.17-26.8-5.73-34.95-1.5-13.87 26-14.65 31.72c1-8.41-5-9.09-7.91-8.23a6.14 6.14 0 0 0 -2.72 2s-.81-24.06 2.11-37.52c2.95-9.42 19.15-18.41 42.3-13.6 21.79 4.52 21.14-2.61 14.22 20.96z" fill="#aa5b38"/><path d="m339.53 50.31a2.46 2.46 0 0 0 -.29.34c-.76-4.38-2.26-9-5.87-11.56s-9.78-1.71-11.17 2.5a9.24 9.24 0 0 0 -18.15-2.4 9.68 9.68 0 0 0 -18.67 3.67 6.8 6.8 0 1 0 -12.92 4.22c-3.35-3.62-10-2.25-12.73 1.83s-2.3 9.66-.21 14.12a8.47 8.47 0 0 0 2.73 3.56c-1.89-1.34-4.74-.4-6 1.52a8.53 8.53 0 0 0 -.77 6.69 16 16 0 0 0 7.32 10c-2.37-.22-4.23 2.6-3.65 4.91s2.9 3.87 5.25 4.29c7 1.25 10.83-2.38 13.75-8.3 3.94-8 9.09-21.58 20.1-21.59a24.49 24.49 0 0 1 13.93 4.55c2.73 2 5.13 4.36 8.11 5.94 6.84 3.62 16 9.25 23.94 6.9a10.21 10.21 0 0 0 6.31-4.65c1.26-2.37.93-5.68-1.21-7.3a11.81 11.81 0 0 0 4.53-13.61c-.7-1.89-2.08-3.7-4-4.17s-4.36 1-4.21 3a8.65 8.65 0 0 0 -2.13-4.18 3.12 3.12 0 0 0 -3.99-.28z" fill="#aa5b38"/><path d="m214.35 149.39c24.36-6.45 42.06-1.29 51.41-3.07 5.12 6.79 13.32 15.05 23.46 16 11.27 1 18.39-5.47 22-10.22 6.75 2.85 34.42-1.74 49.6 3 8.27 2.57 31.95 24 63 21.67 28.9-2.19 47.82-31.67 65.59-39.2l17.59 13.25s-32.1 59.12-78.1 75.39c-38.07 13.46-70.9-2.21-85.59-7.21-2.09 3.8-4.06 7.68-6 11.57a263.28 263.28 0 0 0 -10.71 24.12c-4.61 12.25-7.47 24.5-6.32 37.68a31.5 31.5 0 0 0 .57 4.11c.39 1.75 1 3.44 1.46 5.18 1.66 6.38 1.64 13 2.62 19.53a32.12 32.12 0 0 0 1.14 5.41c.48 1.46 2.42 3.45.88 4.6-7.24 5.38-16.78 6.43-25.8 6.39a72.26 72.26 0 0 1 -10-.64c-7.2-1.06-13.75-2.86-21.07-2.75a119.59 119.59 0 0 0 -20.29 2.11c-9.2 1.73-18.32 4.36-27.69 4.51-7.6.12-19.71-1.79-24.36-8.8-1.43-2.16-1-5.84-1.06-8.47l-.24-7c-.07-2.25.85-4 1.41-6.2a3.35 3.35 0 0 0 .13-.77 3.57 3.57 0 0 0 -.25-1.12c-2.15-6.32-1.8-12.89-1.85-19.47-.05-7.17 0-14.34.1-21.51.18-10.12.51-20.27 1.51-30.35.63-6.42 1.1-13.79 4-19.69.06-.01-13.39-61.1 12.86-68.05z" fill="#010101"/><path d="m313.82 154.47c-1.4 2.82-4.17 4.52-6.85 6a47.66 47.66 0 0 1 -9.29 3.92c-6 1.75-12.49 1.94-18.35-.46a19.92 19.92 0 0 1 -7.86-5.7c-.22-.28-.61.11-.38.38 3.83 4.67 9.74 7.16 15.68 7.61 6.86.51 13.67-1.7 19.69-4.85 3-1.58 6.26-3.43 7.84-6.6.15-.31-.32-.59-.48-.27z" fill="#a7a6a6"/><path d="m268.45 155.73c-1-1.67-2-3.28-3.16-4.85-.2-.28-.68 0-.47.28a57.58 57.58 0 0 1 3.18 4.84.27.27 0 0 0 .47-.28z" fill="#a7a6a6"/><path d="m420.21 178a13.31 13.31 0 0 0 -2.84 4.46 17.53 17.53 0 0 0 -1.31 5.13c0 .08.14.1.15 0a19.15 19.15 0 0 1 1.46-5.09 30.52 30.52 0 0 1 2.65-4.43.07.07 0 0 0 -.11-.09z" fill="#a7a6a6"/><path d="m321.32 266c-.32 1.32-.76 2.65-1.15 3.95s-.89 2.68-1.41 4a55.62 55.62 0 0 1 -3.83 7.59c-.1.17.16.31.26.15a39.87 39.87 0 0 0 4-7.4c.53-1.3 1-2.63 1.41-4q.31-1 .57-2c.17-.73.24-1.46.37-2.2 0-.12-.16-.17-.18-.05z" fill="#a7a6a6"/><path d="m198.09 310.14a27.89 27.89 0 0 0 3.55 4.5c.66.71 1.34 1.39 2 2.05.37.34.73.67 1.11 1a7.26 7.26 0 0 0 1.07.85.12.12 0 0 0 .14-.18 11.61 11.61 0 0 0 -1-.94c-.35-.32-.7-.63-1-1-.7-.66-1.38-1.34-2-2.05-1.3-1.39-2.45-2.9-3.68-4.35 0-.06-.15 0-.11.09z" fill="#a7a6a6"/><path d="m211.83 150.49c1.34 1.19 2.75 2.31 4.15 3.44l2.08 1.65c.68.54 1.34 1.13 2.07 1.6.1.06.22-.09.13-.18-.63-.61-1.36-1.14-2-1.69l-2.14-1.71c-1.37-1.1-2.75-2.19-4.17-3.21-.06 0-.13.05-.08.1z" fill="#446991"/><path d="m360 155.24c-2.33.36-4.64.73-6.94 1.2q-1.66.33-3.33.69a30.27 30.27 0 0 0 -3.53.86c-.15 0-.14.32 0 .29 1.12-.14 2.25-.47 3.36-.71l3.44-.74c2.33-.47 4.67-1 7-1.39.13 0 .08-.22-.05-.2z" fill="#a7a6a6"/><path d="m140.47 46.63c-.82 13-11.62 38.16-11.62 38.16l27.15-2.79s-2.38-10.42 2.09-29.25-16.66-13.06-17.62-6.12z" fill="#f08177"/><path d="m225.46 147.59c-4.56.21-49.3 2.25-56.53-1 0 0-3.07-18.61-5.42-37.53l-40.11 1.3c-2.23 25.77 2.7 60.58 13.55 73.19 7.43 8.63 84.17 29.95 122.84 26.22l-33.49-61.52z" fill="#010101"/><path d="m129.3 68a425.76 425.76 0 0 0 -5.9 42.37l40.11-1.3c-1.73-14-3.07-28.21-2.45-35.1 0 .03-23.06-9.66-31.76-5.97z" fill="#010101"/><path d="m168.75 147.48a16.89 16.89 0 0 1 -5 11.08.28.28 0 0 0 .39.39 17.46 17.46 0 0 0 5.16-11.47c0-.35-.53-.35-.55 0z" fill="#a7a6a6"/><path d="m168.5 147.28a18.11 18.11 0 0 1 -11.62 7.25c-.34.06-.2.59.15.53a18.65 18.65 0 0 0 11.94-7.5c.2-.29-.27-.56-.47-.28z" fill="#a7a6a6"/><path d="m308.23 89.76s-4.25-6.12-8-7.19-1.67-4.62 4-2.06 7.38 5.68 7.35 7.62-1.98 3.41-3.35 1.63z" fill="#1f1e1c"/><path d="m322.82 92s5.69-3 9-2.32 3.11-2.86-2.25-3.17-7.91 1.39-8.67 2.88.17 3.39 1.92 2.61z" fill="#1f1e1c"/><path d="m263.62 83.72a10.75 10.75 0 0 1 -6.85-2.56 10 10 0 0 1 -3.3-6.64 10.83 10.83 0 0 1 0-2.13 19.81 19.81 0 0 1 .48-2.16c0-.14-.16-.24-.23-.1a8.32 8.32 0 0 0 -.72 3.87 10.14 10.14 0 0 0 6.26 9.31 9.43 9.43 0 0 0 4.38.73.15.15 0 0 0 0-.29z" fill="#aa5b38"/><path d="m314.84 69.2a2.18 2.18 0 0 0 .16 2.39 18.24 18.24 0 0 0 1.7 2.55 25.86 25.86 0 0 0 4.07 4.23 31.38 31.38 0 0 0 10.4 5.63 34.85 34.85 0 0 0 12 1.65c4.2-.18 8.76-1.18 11.85-4.25 2.9-2.88 4.19-8 1.56-11.47a.26.26 0 0 0 -.43 0c-.25.44-.44.9-.65 1.35a.13.13 0 0 0 .22.13c.29-.4.6-.8.86-1.22h-.43c2.19 3.06 1.4 7.3-.86 10.1-2.6 3.23-7 4.45-10.94 4.79a33.05 33.05 0 0 1 -21.71-5.8 26.59 26.59 0 0 1 -4.64-4.21 24.53 24.53 0 0 1 -2-2.58c-.53-.81-1.68-2.17-1-3.13.09-.12-.11-.27-.2-.16z" fill="#aa5b38"/><path d="m283.15 44.28a14.59 14.59 0 0 1 7.3-11.47c3.82-2.15 9.19-2.38 12.56.77a6.77 6.77 0 0 1 2 3.34 11.55 11.55 0 0 1 .32 2.49 13.93 13.93 0 0 0 .07 2.42.16.16 0 0 0 .3 0 7.45 7.45 0 0 0 .13-2.26 14.17 14.17 0 0 0 -.22-2.25 7.64 7.64 0 0 0 -1.57-3.4 9.39 9.39 0 0 0 -5.91-3.07c-4.87-.7-9.63 1.82-12.48 5.7a13.5 13.5 0 0 0 -2.65 7.73.1.1 0 0 0 .2 0z" fill="#aa5b38"/><path d="m348.66 67.21a.64.64 0 0 0 .21.89 1 1 0 0 0 1.2-.12 12.77 12.77 0 0 0 2.55-2.64 14.88 14.88 0 0 0 3.05-6.62 9.82 9.82 0 0 0 -1.09-6.53 9.32 9.32 0 0 0 -4.79-4.09 6.87 6.87 0 0 0 -3.39-.34c-.89.14-2.41.73-2 1.92a.2.2 0 0 0 .38-.11c-.17-1 1.55-1.31 2.26-1.35a6.5 6.5 0 0 1 2.51.34 8.58 8.58 0 0 1 4.2 3.26c2.34 3.37 1.83 7.65-.08 11.09a17.15 17.15 0 0 1 -2 2.87c-.35.41-.73.81-1.11 1.19-.21.19-.41.39-.62.57a1.27 1.27 0 0 1 -.44.28c-.24.08-.76-.08-.54-.45a.16.16 0 0 0 -.28-.16z" fill="#aa5b38"/><path d="m289 51.2c-1.4 2.15-.36 5 1.59 6.42 2.48 1.83 6 1.25 8.61 0a7 7 0 0 0 3.47-3.26c.11-.26-.23-.48-.38-.23-2.34 4.14-10.7 6.28-13 1a4.07 4.07 0 0 1 .08-3.66c.14-.24-.23-.45-.38-.22z" fill="#853f23"/><path d="m327.55 57.41a4.45 4.45 0 0 0 5 4.54 3.83 3.83 0 0 0 2.34-1.05c.12-.13 0-.34-.18-.25a5.59 5.59 0 0 1 -2.11.87 4.07 4.07 0 0 1 -2.38-.35 4.34 4.34 0 0 1 -2.36-3.76.17.17 0 0 0 -.33 0z" fill="#853f23"/><path d="m316.75 67.69c.3 5 4.61 8.93 8.85 11a19.32 19.32 0 0 0 14.55.89 20 20 0 0 0 3.85-1.83 11.55 11.55 0 0 0 3.22-2.59c.12-.16-.12-.38-.28-.27-.45.3-.85.68-1.28 1a17.5 17.5 0 0 1 -1.6 1.11 18.71 18.71 0 0 1 -23.14-2.28 11.34 11.34 0 0 1 -3.77-7c0-.26-.42-.26-.4 0z" fill="#853f23"/><path d="m283.64 72a7.15 7.15 0 0 1 4.59 6.3c.34 3.31-1.27 6.33-3.36 8.8-1.29 1.53-2.83 2.81-4.18 4.29-.17.19.06.55.29.37a28.42 28.42 0 0 0 4.09-4 17.07 17.07 0 0 0 3-4.65 9.61 9.61 0 0 0 -.58-8.74 5.9 5.9 0 0 0 -3.75-2.76.19.19 0 0 0 -.1.36z" fill="#853f23"/><path d="m270.4 66.89q.09 0 0-.06c.08 0 .19.11.24.17a1.54 1.54 0 0 1 .23.58 4.77 4.77 0 0 1 .15 1.3 4.63 4.63 0 0 1 -.81 2.52 5 5 0 0 1 -4.57 2c-.14 0-.16.2 0 .24a4.76 4.76 0 0 0 5.1-2.12 5.09 5.09 0 0 0 .77-2.84c0-.63-.14-2.18-1-2.24s-.23 1.31.18.72c.11-.16-.15-.36-.27-.21z" fill="#853f23"/><path d="m384.21 108.59c.77-.68 1.5-1.38 2.22-2.12s1.39-1.42 2.09-2.12q2.13-2.14 4.32-4.24 4.37-4.19 8.94-8.16c1.71-1.49 3.45-3 5.2-4.4l-.64-.17 2.88 14a.38.38 0 0 0 .64.17 194 194 0 0 1 21.77-22.17q3.3-2.86 6.72-5.57l-.67-.27a100.26 100.26 0 0 0 3.06 16.1.4.4 0 0 0 .66.17q6.18-7.29 12.65-14.35t13.12-13.79q1.88-1.91 3.77-3.78c1.29-1.28 2.59-2.53 3.79-3.89a.27.27 0 0 0 -.38-.38c-2.45 2-4.65 4.38-6.89 6.64s-4.47 4.55-6.67 6.85q-6.57 6.88-12.89 14-3.57 4-7.06 8.14l.66.17a97.69 97.69 0 0 1 -3-15.89.4.4 0 0 0 -.67-.28 193.89 193.89 0 0 0 -22.74 21.18q-2.94 3.21-5.74 6.57l.64.17-2.88-14a.39.39 0 0 0 -.64-.17q-9.33 7.69-17.9 16.28c-.8.8-1.6 1.61-2.39 2.43a32.16 32.16 0 0 0 -2.26 2.55.23.23 0 0 0 .32.32z" fill="#010101"/><path d="m181 72.41a79.94 79.94 0 0 1 12.08-12.79c1.3-1.1 2.63-2.15 4-3.17l-.42-.17a140 140 0 0 0 7.29 23.37q1.29 3.13 2.73 6.21a.31.31 0 0 0 .52 0 108.31 108.31 0 0 1 12.8-14.38c1.35-1.26 2.72-2.48 4.13-3.67l-.52-.13q2.39 14.57 5.39 29.02c.57 2.71 1.16 5.4 1.76 8.1a.34.34 0 0 0 .62.08l12.13-17.31h-.51c2.76 6.52 5.49 13 8.24 19.55a.36.36 0 1 0 .66-.28q-4.16-9.81-8.31-19.61c-.11-.26-.46-.18-.59 0l-12.12 17.31.62.08q-3.24-14.4-5.81-28.94-.74-4.08-1.4-8.17c0-.25-.36-.27-.52-.13a107.75 107.75 0 0 0 -13.77 13.89q-1.72 2.1-3.35 4.28h.52a140.27 140.27 0 0 1 -8.36-22.75c-.6-2.21-1.14-4.43-1.64-6.66a.27.27 0 0 0 -.41-.17 79.23 79.23 0 0 0 -13 12.33c-1.08 1.27-2.11 2.58-3.1 3.91-.15.21.19.4.34.2z" fill="#010101"/><path d="m157.08 5.21 10.57-1.49s3.63 13.2 3 18.23-11.08.58-13.57-16.74z" fill="#f08177"/><path d="m159.27 8 .73 7.5-.19 4.69 8.13 3.2.21 8.35-4.68.79-11.67.21-6.13-2-2.18-2.52-.16-2.62s-4 1.57-4.84.65c-8.9-10.11-2.86-16.11-2.86-16.11l5.37-3.74 10.08.54 6.42-3.21z" fill="#f08177"/><path d="m167.25 23a33.34 33.34 0 0 0 -10.66-3 14.63 14.63 0 0 0 -9.79 2c-2.26 1.51-4.77 4.5-2.88 7.22a7 7 0 0 0 3.68 2.41 25 25 0 0 0 5.4 1.03 61.12 61.12 0 0 0 12.75-.39c.21 0 .21-.35 0-.33a77.61 77.61 0 0 1 -10.22.56 29.38 29.38 0 0 1 -5.21-.59 14.73 14.73 0 0 1 -4.62-1.59c-1.46-.89-2.6-2.54-2-4.3a7.91 7.91 0 0 1 2.94-3.63 13.76 13.76 0 0 1 9.12-2.21 32.26 32.26 0 0 1 11.3 3.07c.19.09.36-.19.17-.28z" fill="#cf7d6a"/><path d="m160 20.31c.18-5.65.3-11.58-2.3-16.76-.1-.19-.38 0-.29.17 2.58 5.12 2.44 11 2.26 16.59 0 .21.32.21.33 0z" fill="#cf7d6a"/><path d="m152.74 19.64a21.26 21.26 0 0 0 -1.28-7.1 39.19 39.19 0 0 0 -3.23-6.32c-.11-.19-.4 0-.29.16a38.81 38.81 0 0 1 3.21 6.25 21.18 21.18 0 0 1 1.26 7c0 .22.34.22.33 0z" fill="#cf7d6a"/><path d="m145.57 22.81a30.82 30.82 0 0 0 -3.47-10.92 6.27 6.27 0 0 0 -2.82-3c-.58-.22-2.34-.57-2.71.17-.09.19.19.36.29.17.2-.41 1.31-.22 1.66-.17a2.72 2.72 0 0 1 1.35.58 9.9 9.9 0 0 1 2.63 3.73 32 32 0 0 1 2.75 9.55c0 .21.35.12.32-.09z" fill="#cf7d6a"/><path d="m143.2 25.54a5.76 5.76 0 0 1 -3 .48c-2-.4-3.36-2.32-4.32-4a.16.16 0 1 0 -.28.16 8.84 8.84 0 0 0 3.52 3.82 4.35 4.35 0 0 0 2.91.25c.43-.11.84-.27 1.26-.41.2-.07.11-.39-.09-.32z" fill="#cf7d6a"/><path d="m160 15.69c1.19 2.64 2.69 5.3 5.22 6.87a5.86 5.86 0 0 0 3.61 1.08 2 2 0 0 0 1.78-2.23 25.83 25.83 0 0 0 -.31-2.63c-.14-1-.27-2-.4-3 0-.2-.36-.21-.33 0 .13 1 .25 1.93.38 2.89a26.27 26.27 0 0 1 .33 2.65 1.7 1.7 0 0 1 -1.21 1.94 4 4 0 0 1 -2.27-.29c-3.28-1.22-5.15-4.43-6.52-7.45-.09-.2-.37 0-.28.16z" fill="#cf7d6a"/></svg>