<svg viewBox="0 0 437.77 544.15" xmlns="http://www.w3.org/2000/svg"><path d="m66.47 124.53s25-43.09 90.85-34.84 58.64 45.84 104.27 44 95.29-28.43 135.82 23.79c47 60.58-33.33 112.1-1.42 149.12 57.17 66.32 0 144.5-127.67 129.66-105.88-12.26-106.83-29.56-168.32-8.65s-117.31-56.31-95-116.78 79.07-37.4 52.48-86.78 8.99-99.52 8.99-99.52z" fill="#c8cde0"/><path d="m382.52 458.29s28.15 23.77 45.39 33.68c13.92 8-1 15.52-23.81 12.49-27.33-3.62-29.08-14.56-38.82-13.23s-.05-38.23 17.24-32.94z" fill="#d27878"/><path d="m410 479.92s-.91 18.34-8.34 18.34-14.09-4.05-36.33-7c-6.1-.81 1.77 8 4.35 12.36s34.48 27.89 63.6 3.6c15.59-13.07-13.44-19.96-23.28-27.3z" fill="#362c4d"/><path d="m364.34 475.59s13.89 34.12 24.56 50.9c8.61 13.54-8.07 13.3-26.9 0-22.52-15.9-22.42-16.58-28.23-29.74-12.25-27.75 17.74-33.92 30.57-21.16z" fill="#d27878"/><path d="m380.94 509s-11.67 14.31-18.26 10.85-10.59-10.13-28.91-23.09c0 0-3.54 15.09 2.52 20.25 13.32 11.37 13.18 33.43 50.24 25.44 19.92-4.29-.24-22.37-5.59-33.45z" fill="#362c4d"/><path d="m302.41 269s20.82-3.28 25.77-20.3-44.31-51.49-57.34-54.57 10.76 77.54 31.57 74.87z" fill="#362c4d"/><path d="m190 39.26s-20.24 3.82-29.77 26.74c-7.23 17.41 3 31.83-14.39 51.68s-17.67 49 17.77 51.47c22 1.54 32.42 18 51.84 13.51s19.51-7.17 38.16-6.41c21.79.9 32.39-3.78 39.41-18.22 11.67-24.05-9-36.08-8.7-57.63.35-22.52-14.5-86.4-94.32-61.14z" fill="#362c4d"/><path d="m203.13 116.86s-.64 54-2.16 61.9-65.14 12.67-82 26 48.08 45.09 78.49 66.29c23.32 16.25 92.94-72.58 73.35-76.91-20.6-4.54-31-7.23-31-16.25 0-14.73 5.49-33.57 5.49-33.57s-39.45-25-42.17-27.46z" fill="#cb5d6d"/><path d="m183.65 76.79s-14.4 88.83 36 92.75c34.68 2.7 53.23-55 45.36-83s-59.62-30.34-81.36-9.75z" fill="#d27878"/><ellipse cx="248.62" cy="120.02" fill="#2f1f35" rx="3.95" ry="3.08" transform="matrix(.0781111 -.99694466 .99694466 .0781111 109.55 358.5)"/><ellipse cx="206.34" cy="121.28" fill="#2f1f35" rx="3.95" ry="3.08" transform="matrix(.08 -1 1 .08 69.32 317.52)"/><path d="m260.65 120.79s7-16.23 13.85-8.41-2.88 27.21-10 26.58-7.73-11.62-3.85-18.17z" fill="#d27878"/><path d="m169.87 123s-3.53-17.31 6.58-14.81 13.14 24 6.93 27.55-12.97-5.18-13.51-12.74z" fill="#d27878"/><path d="m194.71 45.15s-25.61 12.47-25.46 41.63c.05 11.35 39.88 14.58 46.87 5.62s7.81-34 7.81-34-.46 29.95 10.89 37.86 42.33 4.53 39.64.9-6.32-48-33.72-57.43-46.03 5.42-46.03 5.42z" fill="#362c4d"/><circle cx="200.52" cy="134.12" fill="#cb5d6d" r="9.08"/><circle cx="248.93" cy="133.76" fill="#cb5d6d" r="9.08"/><circle cx="179.37" cy="26.5" fill="#362c4d" r="26.5"/><g fill="#443a65"><path d="m196.05 92.14c9.48-9.74 7.27-48.39 7.17-50l-3.48.21c.64 10.75.79 40.22-6.19 47.38z"/><path d="m246.92 85.76c.08-.26 7.77-25.43-24-44.56l-1.8 3c29.43 17.72 22.56 40.27 22.49 40.49z"/><path d="m269.46 85.26 3.32-1.07c-.52-1.61-13-39.52-41.68-44.6l-.61 3.41c26.61 4.75 38.85 41.89 38.97 42.26z"/><path d="m175.18 87.92 3.32-1.08c-.07-.23-7.33-23.43 8.51-40.22l-2.54-2.4c-17.29 18.32-9.62 42.67-9.29 43.7z"/><path d="m258.41 172.37c.43-.3 10.39-7.55 8.79-29.68l-3.48.25c1.45 20.18-7.22 26.51-7.31 26.57z"/><path d="m153.24 126.85c-.33.4-8.09 10-.88 30.94l3.3-1.14c-6.58-19.13.19-27.47.26-27.55z"/><path d="m164.72 135.26c-.16.49-3.84 12.25 10.63 29.07l2.65-2.28c-13.19-15.33-10-25.59-10-25.69z"/><path d="m177 41.56a22.17 22.17 0 0 0 7.75-1.65l2.39-1.11-2-1.77c-6.33-5.72-13.61-20.92-13.68-21.08l-3.15 1.5c.28.59 6.28 13.13 12.47 20.12-4 1-12 1.64-17.15-7.32l-3 1.75c4.62 8 11.21 9.71 16.37 9.56z"/><path d="m156.9 118.41a38.08 38.08 0 0 0 8.86-23.75l-3.49.1a35.15 35.15 0 0 1 -8 21.4z"/><path d="m196.49 32.19a38.11 38.11 0 0 0 -7.43-24.19l-2.71 2.21a35.13 35.13 0 0 1 6.65 21.79z"/></g><path d="m215.7 150.87-1.86-2.61c5.72-4.07 10.64-5.49 14.63-4.2a9.7 9.7 0 0 1 5.89 5.73l-3 1a6.45 6.45 0 0 0 -3.89-3.74c-2.95-.88-7.01.43-11.77 3.82z" fill="#261d35"/><path d="m229.59 117.36s11.2 21.32 7.33 21.39-9.81 4.4-11.94-1.28 2.83-23.62 4.61-20.11z" fill="#cb5d6d"/><path d="m200 112.62a35.72 35.72 0 0 1 -4.54-.29l.47-3.17c2.41.36 9.31.75 12.33-1.66l2 2.5c-2.75 2.15-7.04 2.62-10.26 2.62z" fill="#261d35"/><path d="m257.87 112c-5.37 0-11.46-3.46-11.76-3.64l1.59-2.77c2.11 1.21 8.39 4.1 12.09 3l.94 3.06a10 10 0 0 1 -2.86.35z" fill="#261d35"/><path d="m253.07 189s3.77 21.43-17.79 21.69c-32 .39-31.58-22.42-40-28.13s-50.13-11.42-83.89 17-116.47 198 .62 293.52c44.04 35.92 162.17-120.08 184.99-136.46s19.41-90.16-1-121.41c-12.74-19.54-18.69-40-25.16-41s-17.77-5.21-17.77-5.21z" fill="#7b5673"/><path d="m275.41 166.12c.63-.22 15.32-5.9 4-39.7l-3.31 1.11c10.07 30.1-1.76 35.26-1.88 35.31z" fill="#443a65"/><path d="m249.31 319.64s28.31-87.17 80.53-58.25c40 22.16 98.28 173.86 66.89 205.34-3.51 3.52-17.91 9-23.61 8.64-56.58-3.23-123.81-155.73-123.81-155.73z" fill="#6c868b"/><path d="m181.78 299.64s55.53-67.57 108-22.79c34.92 29.86 114.91 169.36 81.22 198.31-2.44 2.1-46.44 20-50 21.46-31.47 12.91-139.22-196.98-139.22-196.98z" fill="#6c868b"/><path d="m183.14 295.14s-71.37 91.86-89.73 141.86c-30.64 83.48 140.53 97.57 174.15 46.44s48.93-121.74 4.25-163.75-88.67-24.55-88.67-24.55z" fill="#6c868b"/><path d="m225.93 171.35a33.33 33.33 0 0 1 -17.25-5.11l1.83-2.62c.6.42 15 10.15 29.51 0l1.83 2.62a27.36 27.36 0 0 1 -15.92 5.11z" fill="#261d35"/><path d="m375.72 475.9c-.43-1.49-43.37-149.85-87.15-198l2.36-2.15c44.29 48.67 87.43 197.74 87.86 199.24z" fill="#261d35"/><path d="m102.77 286.62s53.54-53.56 61.65-47.91 27 30.4 27 30.4-30.56 68.66-42.12 65.89-46.53-32.9-46.53-48.38z" fill="#d27878"/><path d="m191.44 169.63s9.08-21.28 18.16-21.88 19.06 7.44 23.25 15.38-15 12.46-13.93 20.33 5.46 143.76-23.65 156.54-49.47-2.46-60.92-18.38 49.81-146.02 57.09-151.99z" fill="#d27878"/><path d="m264.38 168.15s-9.07-21.5-18.1-20.39-17.28 10.89-19.95 19.48 14.18 8.62 14.61 16.54 73 107.1 104 114.19 41.47-33 21.62-58.47c-12.07-15.5-93.91-66.86-102.18-71.35z" fill="#d27878"/><path d="m74 228.26c-.07-.6-1.72-14.68 7.85-16.7 2.39-.51 2.66-2.46 2.71-6.78s.12-10 7.06-10.24c3.59-.15 4.47-2.2 5.69-5 1.64-3.83 3.68-8.61 13.06-7.62l-.33 3.18c-7-.72-8.25 2.11-9.8 5.7-1.28 3-2.89 6.76-8.49 7-3.57.15-3.93 2.06-4 7.09 0 3.91-.1 8.78-5.24 9.87-6.71 1.41-5.36 13.06-5.34 13.18z" fill="#261d35"/><path d="m353.81 213.49-3.2-.06c.11-7.07-2.82-8-6.54-9.26-3.11-1-7-2.29-7.7-7.85-.45-3.55-2.39-3.73-7.4-3.36-3.9.3-8.76.67-10.29-4.36-2-6.58-13.48-4.19-13.6-4.16l-.67-3.13c.59-.12 14.48-3 17.33 6.36.71 2.34 2.68 2.44 7 2.11s9.93-.76 10.82 6.13c.45 3.56 2.58 4.26 5.52 5.22 3.92 1.3 8.92 2.93 8.73 12.36z" fill="#261d35"/><path d="m287.22 52.11h-3.2c.12-7.07-2.82-8-6.54-9.26-3.11-1-7-2.29-7.7-7.85-.45-3.55-2.39-3.74-7.4-3.36-3.9.3-8.76.67-10.29-4.36-2-6.58-13.48-4.19-13.6-4.16l-.67-3.13c.59-.13 14.48-3 17.33 6.36.71 2.34 2.68 2.43 7 2.11s9.93-.76 10.82 6.13c.46 3.56 2.58 4.26 5.52 5.22 3.95 1.25 8.88 2.88 8.73 12.3z" fill="#261d35"/><path d="m106.08 514.34c-3.34 0-14-.66-15.15-9-.34-2.41-2.26-2.82-6.57-3.16s-9.93-.78-9.74-7.73c.09-3.59-1.9-4.61-4.65-6-3.72-1.9-8.33-4.26-6.73-13.55l3.15.54c-1.2 7 1.55 8.38 5 10.17 2.92 1.49 6.54 3.34 6.39 8.94-.09 3.58 1.79 4.07 6.8 4.46 3.9.31 8.75.7 9.49 5.9 1 6.81 12.67 6.22 12.79 6.22l.18 3.19c-.04 0-.41.02-.96.02z" fill="#261d35"/><path d="m420.79 419.25-2.28-2.25c5-5 3.5-7.77 1.65-11.22-1.55-2.88-3.47-6.47-.15-11 2.11-2.88.84-4.36-3.05-7.54-3-2.47-6.8-5.55-4.44-10.25 3.09-6.15-6.87-12.34-7-12.4l1.67-2.72c.52.31 12.55 7.81 8.16 16.55-1.1 2.18.26 3.61 3.6 6.35s7.72 6.3 3.6 11.9c-2.12 2.89-1.06 4.87.4 7.59 2.05 3.74 4.45 8.27-2.16 14.99z" fill="#261d35"/><path d="m146.07 271.11-3-1.08c2.62-7.34 11.46-30.86 11.54-31.1l3 1.13c-.1.24-8.92 23.73-11.54 31.05z" fill="#cb5d6d"/><path d="m283.06 467.1s-24.54 46.56-88.28 44.24c0 0 49.37-52.83 44.18-123.47.04 0 41.92 69.2 44.1 79.23z" fill="#576c7e"/></svg>