<svg id="Layer_1" data-name="Layer 1" xmlns="http://www.w3.org/2000/svg" xmlns:xlink="http://www.w3.org/1999/xlink" viewBox="0 0 302.72 235.2"><defs><linearGradient id="linear-gradient" x1="174.77" y1="165.62" x2="202.08" y2="421.46" gradientUnits="userSpaceOnUse"><stop offset="0.01"/><stop offset="0.08" stop-opacity="0.69"/><stop offset="0.21" stop-opacity="0.32"/><stop offset="1" stop-opacity="0"/></linearGradient><linearGradient id="linear-gradient-2" x1="2631.48" y1="460.28" x2="2751.85" y2="556.42" gradientTransform="matrix(-1.09, 0, 0, 1, 3152.05, -359.14)" gradientUnits="userSpaceOnUse"><stop offset="0" stop-color="#fff"/><stop offset="1" stop-color="#cbcbcb"/></linearGradient><linearGradient id="linear-gradient-3" x1="244.95" y1="113.63" x2="214.28" y2="215.44" xlink:href="#linear-gradient"/><linearGradient id="linear-gradient-4" x1="2690.68" y1="421.99" x2="2690.61" y2="430.04" gradientTransform="matrix(-1.09, 0, 0, 1, 3143.35, -384.16)" xlink:href="#linear-gradient-2"/><linearGradient id="linear-gradient-5" x1="2698.92" y1="422.95" x2="2699.37" y2="428.84" gradientTransform="matrix(-1.09, -0.01, -0.01, 1, 3156.12, -330.49)" xlink:href="#linear-gradient-2"/><linearGradient id="linear-gradient-6" x1="-1512.98" y1="157.17" x2="-1613.51" y2="242.81" gradientTransform="translate(1590.6)" gradientUnits="userSpaceOnUse"><stop offset="0.01"/><stop offset="0.13" stop-opacity="0.69"/><stop offset="0.25" stop-opacity="0.32"/><stop offset="1" stop-opacity="0"/></linearGradient><linearGradient id="linear-gradient-7" x1="-9.47" y1="231.98" x2="141.92" y2="92.09" gradientTransform="matrix(1, 0, 0, 1, 0, 0)" xlink:href="#linear-gradient-6"/><linearGradient id="linear-gradient-8" x1="112.46" y1="163.82" x2="132.46" y2="142.38" xlink:href="#linear-gradient"/><linearGradient id="linear-gradient-9" x1="100.89" y1="123.79" x2="131.07" y2="377.48" xlink:href="#linear-gradient"/><linearGradient id="linear-gradient-10" x1="152.41" y1="187.18" x2="99.83" y2="202.51" xlink:href="#linear-gradient"/><linearGradient id="linear-gradient-11" x1="100.89" y1="147.28" x2="131.07" y2="400.96" xlink:href="#linear-gradient"/><linearGradient id="linear-gradient-12" x1="89.23" y1="160.3" x2="153.21" y2="185.33" xlink:href="#linear-gradient"/><linearGradient id="linear-gradient-13" x1="118.61" y1="157.99" x2="154.71" y2="107.84" xlink:href="#linear-gradient"/><linearGradient id="linear-gradient-14" x1="2958.4" y1="196.62" x2="3038.64" y2="244.33" gradientTransform="matrix(-1, 0, 0, 1, 3250.14, -25.02)" xlink:href="#linear-gradient"/><linearGradient id="linear-gradient-15" x1="2989.63" y1="192.45" x2="2946.76" y2="229.2" gradientTransform="matrix(-1, 0, 0, 1, 3250.14, -25.02)" xlink:href="#linear-gradient"/><linearGradient id="linear-gradient-16" x1="3002.72" y1="170.62" x2="2992.01" y2="137.53" gradientTransform="matrix(-1, 0, 0, 1, 3258.84, 0)" xlink:href="#linear-gradient"/><linearGradient id="linear-gradient-17" x1="2978.3" y1="168.75" x2="2962.43" y2="202.61" gradientTransform="matrix(-1, 0, 0, 1, 3258.84, 0)" xlink:href="#linear-gradient"/><linearGradient id="linear-gradient-18" x1="2974.43" y1="210.71" x2="3004" y2="217.36" gradientTransform="matrix(-1, 0, 0, 1, 3250.14, -25.02)" xlink:href="#linear-gradient"/><linearGradient id="linear-gradient-19" x1="2995.43" y1="151.64" x2="2937.08" y2="182.77" gradientTransform="matrix(-1, 0, 0, 1, 3258.84, 0)" xlink:href="#linear-gradient"/></defs><title>9</title><path d="M141.77,59.07c-17,14.18-30.64,32.2-48.71,44.95-16.7,11.79-36.85,18.87-51.22,33.4a66.2,66.2,0,0,0,.08,93.16c17.18,17.32,42.59,23.84,66.94,25.13s48.79-1.92,73.15-.61c23.05,1.24,46,6.52,69,4.76s47.39-12.59,56.49-33.8c10.06-23.47-1.47-49.88-9.42-74.15A262.36,262.36,0,0,1,286.24,95.4c-2.76-28.74-7.83-68.65-44-70.24A149.18,149.18,0,0,0,141.77,59.07Z" transform="translate(-8.7 -25.02)" fill="#68e1fd" opacity="0.18" style="isolation:isolate"/><path d="M245.55,229.38c-54.61,7-109.94,1.62-165,1.78-4,0-9.45,1.66-8.82,5.59,32,7.56,65.23,8.15,98.13,8.71l59.87,1c13.69.23,27.39.46,41-.31,5.09-.29,10.31-.76,14.9-3,12.89-6.3,6.5-14.59-4.62-16C269.26,225.67,257.24,227.88,245.55,229.38Z" transform="translate(-8.7 -25.02)" fill="url(#linear-gradient)"/><path d="M165.86,76.89v148.2c0,6.41,5.68,11.59,12.68,11.58l67.76-.1c7,0,12.68-5.22,12.68-11.62V76.74c0-6.41-5.68-11.6-12.68-11.58l-67.76.1C171.54,65.27,165.86,70.48,165.86,76.89Zm6.46.1c0-3.95,3.5-7.16,7.82-7.16l9.55,0v.88a4.8,4.8,0,0,0,5,4.57l36.43-.06a4.82,4.82,0,0,0,5-4.58v-.88l9.86,0c4.32,0,7.82,3.19,7.82,7.14V224.65c0,3.95-3.5,7.15-7.82,7.16l-65.84.11c-4.32,0-7.82-3.19-7.82-7.14Z" transform="translate(-8.7 -25.02)" fill="#68e1fd"/><path d="M162.67,79.93V228.14c0,6.41,5.68,11.59,12.68,11.58l67.77-.11c7,0,12.68-5.21,12.68-11.62V79.79c0-6.41-5.68-11.6-12.68-11.59l-67.77.11C168.35,68.32,162.67,73.53,162.67,79.93Zm6.47.11c0-4,3.49-7.16,7.81-7.17h9.55v.88a4.79,4.79,0,0,0,5,4.56l36.42,0a4.82,4.82,0,0,0,5-4.59v-.87l9.87,0c4.31,0,7.81,3.19,7.81,7.14V227.7c0,3.94-3.5,7.15-7.81,7.16L177,235c-4.32,0-7.81-3.19-7.81-7.14Z" transform="translate(-8.7 -25.02)" fill="#fff"/><path d="M169.14,80V227.82c0,4,3.49,7.15,7.81,7.14l65.85-.1c4.31,0,7.81-3.22,7.81-7.16V79.91c0-4-3.5-7.15-7.81-7.14l-9.87,0v.87a4.82,4.82,0,0,1-5,4.59l-36.42,0a4.79,4.79,0,0,1-5-4.56v-.88H177C172.63,72.88,169.14,76.09,169.14,80Z" transform="translate(-8.7 -25.02)" fill="none" stroke-miterlimit="10" stroke-width="0.45" stroke="url(#linear-gradient-2)"/><path d="M169.14,80V227.82c0,4,3.49,7.15,7.81,7.14l65.85-.1c4.31,0,7.81-3.22,7.81-7.16V79.91c0-4-3.5-7.15-7.81-7.14l-9.87,0v.87a4.82,4.82,0,0,1-5,4.59l-36.42,0a4.79,4.79,0,0,1-5-4.56v-.88H177C172.63,72.88,169.14,76.09,169.14,80Z" transform="translate(-8.7 -25.02)" fill="#68e1fd"/><rect x="173.9" y="93.26" width="58.45" height="14.28" fill="#fff" opacity="0.28"/><rect x="173.9" y="72.18" width="58.45" height="14.28" fill="#fff" opacity="0.28"/><path d="M212.12,126.09V127L243,149.46s.57,5.29,1.4,5.92a21.5,21.5,0,0,0,4.07,1.6v3.51l7.37,5.11,2.33.8V159l-10.08-8-3.15-3.6-1.22,1Z" transform="translate(-8.7 -25.02)" fill="url(#linear-gradient-3)"/><polygon points="196.06 50.05 208.57 50.03 208.57 49.01 196.06 49.03 196.06 50.05" fill="url(#linear-gradient-4)"/><ellipse cx="201.45" cy="74.42" rx="1.36" ry="1.25" transform="translate(-9.41 -23.06) rotate(-0.56)" fill="url(#linear-gradient-5)"/><path d="M8.7,159.52c.06,2.51,1.31,4.82,2.54,7,5.62,9.93,11.93,19.72,20.65,27.09,12.8,10.84,29.58,15.51,45.78,19.89-1.45-.71-3.2-8.17-3.84-9.81-1.25-3.22-2.42-6.46-3.63-9.69-1.9-5.11-5.9-9.22-9.79-13a77.62,77.62,0,0,0-31.22-18.32A73.76,73.76,0,0,0,8.7,159.52Z" transform="translate(-8.7 -25.02)" fill="#68e1fd"/><path d="M8.7,159.52c.06,2.51,1.31,4.82,2.54,7,5.62,9.93,11.93,19.72,20.65,27.09,12.8,10.84,29.58,15.51,45.78,19.89-1.45-.71-3.2-8.17-3.84-9.81-1.25-3.22-2.42-6.46-3.63-9.69-1.9-5.11-5.9-9.22-9.79-13a77.62,77.62,0,0,0-31.22-18.32A73.76,73.76,0,0,0,8.7,159.52Z" transform="translate(-8.7 -25.02)" fill="url(#linear-gradient-6)"/><path d="M72.08,165.08c-1.32-9.24-2.68-18.62-6.4-27.18s-10.17-16.36-18.92-19.62Q46.39,138.14,46,158c-.14,7.65-.27,15.44,1.92,22.77C51.76,193.6,65.12,208.67,78,212.91c1.91-6.17-1.29-15.51-2.2-21.92Z" transform="translate(-8.7 -25.02)" fill="#68e1fd"/><path d="M72.08,165.08c-1.32-9.24-2.68-18.62-6.4-27.18s-10.17-16.36-18.92-19.62Q46.39,138.14,46,158c-.14,7.65-.27,15.44,1.92,22.77C51.76,193.6,65.12,208.67,78,212.91c1.91-6.17-1.29-15.51-2.2-21.92Z" transform="translate(-8.7 -25.02)" fill="url(#linear-gradient-7)"/><path d="M121.91,146.22c-.45,0-.73-.48-.84-.92a2,2,0,0,0-.54-1.2c-.18-.14-.44-.23-.51-.45a.61.61,0,0,1,0-.3,3.56,3.56,0,0,1,1.9-2.36c.48.42,1.21.41,1.67.85a5.62,5.62,0,0,1,1.1,1.86l4.48,10.64,1.4,3.32a8.27,8.27,0,0,1,.89,3.41,2.85,2.85,0,0,1-1.86,2.75,2.64,2.64,0,0,1-2.21-.52,5.11,5.11,0,0,1-1.42-1.86c-1.16-2.34-1.33-5-1.68-7.63S123.69,148.14,121.91,146.22Z" transform="translate(-8.7 -25.02)" fill="#ffbbab"/><path d="M121.48,154.58a1,1,0,0,0-.79-.21.83.83,0,0,0-.37.27,4.72,4.72,0,0,0-1,4.15,3.28,3.28,0,0,0,.82,1.68,4.71,4.71,0,0,0,1.63.93l4.82,1.92a2.15,2.15,0,0,0,1.18.22,1.66,1.66,0,0,0,1-.8,3.87,3.87,0,0,0,.4-3.28C128.27,156.65,123.79,155.94,121.48,154.58Z" transform="translate(-8.7 -25.02)" fill="#ffbbab"/><path d="M116.44,148.12l3.83,3.64,2.79,2.65c.63.6,1.43,1.14,1.69,2a5.39,5.39,0,0,1-.32,3.64,16.07,16.07,0,0,0-1.31,3.81c0-.48-1.53-1.59-1.87-1.86-.74-.58-1.52-1.09-2.26-1.66s-1.66-1.16-1.92-1.9A6.76,6.76,0,0,1,117,157l-.49-7.7Z" transform="translate(-8.7 -25.02)" fill="#68e1fd"/><path d="M116.44,148.12l3.83,3.64,2.79,2.65c.63.6,1.43,1.14,1.69,2a5.39,5.39,0,0,1-.32,3.64,16.07,16.07,0,0,0-1.31,3.81c0-.48-1.53-1.59-1.87-1.86-.74-.58-1.52-1.09-2.26-1.66s-1.66-1.16-1.92-1.9A6.76,6.76,0,0,1,117,157l-.49-7.7Z" transform="translate(-8.7 -25.02)" fill="url(#linear-gradient-8)"/><path d="M171.26,195.12a9.78,9.78,0,0,0-2.88,6.94,9.66,9.66,0,0,0,.84,4,9.8,9.8,0,0,0,6.46,5.54v2.25H57.42a11.75,11.75,0,0,1,0-23.49H175.68v2.25A9.78,9.78,0,0,0,171.26,195.12Z" transform="translate(-8.7 -25.02)" fill="#68e1fd"/><path d="M175.68,211.56v2.25H57.42a11.72,11.72,0,0,1-11.13-8c4.49.79,32.93,5.32,48.76-3.71l74.17,4A9.8,9.8,0,0,0,175.68,211.56Z" transform="translate(-8.7 -25.02)" fill="url(#linear-gradient-9)"/><path d="M171.26,195.12a9.82,9.82,0,0,0,4.42,16.44v.33h-70.8a9.82,9.82,0,1,1,0-19.64h70.8v.32A9.78,9.78,0,0,0,171.26,195.12Z" transform="translate(-8.7 -25.02)" fill="#fff"/><path d="M157.53,208.56a3,3,0,0,0,1.34.24l7,.17a1.75,1.75,0,0,0,.56-.06,1.1,1.1,0,0,0,.59-1.13,2.86,2.86,0,0,0-2.37-2.37,20.43,20.43,0,0,0-3.59-.22,3.14,3.14,0,0,1-2.51-1.26c-.55-.69-1.21-1.4-2.12-.74C155,204.28,156.17,207.83,157.53,208.56Z" transform="translate(-8.7 -25.02)" fill="#ffbbab"/><path d="M122.42,176.9s19.55-.61,24.41,1.43,12.41,25.52,12.41,25.52l-4.08,1.56s-6.94-14.62-9.22-15.93-26.71-6.11-26.71-6.11S117.36,181.94,122.42,176.9Z" transform="translate(-8.7 -25.02)" fill="#473f47"/><path d="M122.42,176.9s19.55-.61,24.41,1.43,12.41,25.52,12.41,25.52l-4.08,1.56s-6.94-14.62-9.22-15.93-26.71-6.11-26.71-6.11S117.36,181.94,122.42,176.9Z" transform="translate(-8.7 -25.02)" fill="url(#linear-gradient-10)"/><path d="M171.26,218.6a9.79,9.79,0,0,0-2.88,7,9.65,9.65,0,0,0,.84,3.95,9.77,9.77,0,0,0,6.46,5.54v2.25H57.42a11.74,11.74,0,1,1,0-23.48H175.68v2.24A9.87,9.87,0,0,0,171.26,218.6Z" transform="translate(-8.7 -25.02)" fill="#68e1fd"/><path d="M175.68,235v2.25H57.42a11.72,11.72,0,0,1-11.13-8c4.49.79,32.93,5.32,48.76-3.7l74.17,3.95A9.77,9.77,0,0,0,175.68,235Z" transform="translate(-8.7 -25.02)" fill="url(#linear-gradient-11)"/><path d="M171.26,218.6A9.82,9.82,0,0,0,175.68,235v.33h-70.8a9.82,9.82,0,1,1,0-19.64h70.8v.32A9.87,9.87,0,0,0,171.26,218.6Z" transform="translate(-8.7 -25.02)" fill="#fff"/><path d="M152.17,215.42a3.56,3.56,0,0,1,1.13.18,1,1,0,0,1,.68.84,1.14,1.14,0,0,1-.58.91c-.32.2-.68.32-1,.53a6.22,6.22,0,0,1-.85.6,2.57,2.57,0,0,1-1.64-.07,21.69,21.69,0,0,0-7.49-.47,3.06,3.06,0,0,1-.74,0,2.18,2.18,0,0,1-1.49-1.5,10.67,10.67,0,0,1-.44-4.74,1.06,1.06,0,0,1,.13-.5.87.87,0,0,1,.37-.29c2.38-1.18,3.68,1.17,5.42,2.31A13.25,13.25,0,0,0,152.17,215.42Z" transform="translate(-8.7 -25.02)" fill="#ffbbab"/><path d="M109.16,178.12s-.59,8.88,7.34,11.56c5.5,1.85,11.82,1.51,17.51,1,1-.09,2.1-.33,3.12-.32,2,0,1.59,1.32,1.57,3q0,6.38-.11,12.75a15,15,0,0,0,.93,6.56l5.85-1.56a111.13,111.13,0,0,1,1.06-18.41c.38-2.64.95-5.94-.82-8.19a13.63,13.63,0,0,0-6.53-4.23l-15.84-5Z" transform="translate(-8.7 -25.02)" fill="#473f47"/><path d="M120.57,137.35c.29.49.89.78,1.09,1.33s-.22,1.32-.46,2c-.32.91-.22,1.93-.54,2.85a1.09,1.09,0,0,1-.32.52,1.32,1.32,0,0,1-.49.19,7.11,7.11,0,0,1-2.06.12.6.6,0,0,0-.4,0,.57.57,0,0,0-.18.35,11,11,0,0,0,.08,5.26c.15.56.31,1.26-.11,1.66a1,1,0,0,1-.53.27c-1.31.32-2.57-.65-3.46-1.66a15.33,15.33,0,0,1-2-3,2.85,2.85,0,0,1-.35-1A3.36,3.36,0,0,1,111,145a22.31,22.31,0,0,0,.68-4.38c.1-1.89,0-3.86.68-5.61a3,3,0,0,1,1.15-1.47,3.8,3.8,0,0,1,2-.33,5.39,5.39,0,0,1,3.82,1.25C119.64,134.79,120.2,136.74,120.57,137.35Z" transform="translate(-8.7 -25.02)" fill="#ffbbab"/><path d="M122.42,176.9a8.07,8.07,0,0,1-3.06,1.67c-.8.28-1.62.54-2.45.8a25.73,25.73,0,0,0-3.44,1.31c-1.18.39-2.06.68-2.73.88a19.11,19.11,0,0,1-1.84.55,1.43,1.43,0,0,1,.19-.09s-.4-1.77-1-4.25c-1-4.56-2.68-11.49-3.49-14.08a14.71,14.71,0,0,1-.29-5c.41-5.5,2.59-12.68,6.59-12.22,0,0,5.66,2.93,7.37,5.21,1.56,2.11,3.64,3.7,3.66,6.55.05,4-1.62,7.75-1.3,11.89a3.76,3.76,0,0,0,.44,1.73c.48.75,1.43,1.11,1.9,1.86A2.7,2.7,0,0,1,122.42,176.9Z" transform="translate(-8.7 -25.02)" fill="#68e1fd"/><path d="M116.16,176.11a4.44,4.44,0,0,1,.75,3.26,2,2,0,0,1-.6,1,3.64,3.64,0,0,1-1.63.68,20.84,20.84,0,0,1-3.94.51c-.47,0-.94,0-1.41,0a7.28,7.28,0,0,0-1.21-3.81c-1-4.56-2.68-11.49-3.49-14.08a14.71,14.71,0,0,1-.29-5,12.3,12.3,0,0,0,1.66-2.76c.3-.78.8-1.63,1.64-1.69s1.33.56,1.79,1.14c2.86,3.65,4.95,8.16,7.46,12.08a1,1,0,0,1,.21.58.89.89,0,0,1-.39.53c-1.08.9-2.23,2-2.35,3.38S115.34,174.8,116.16,176.11Z" transform="translate(-8.7 -25.02)" fill="url(#linear-gradient-12)"/><path d="M113.3,171.66a5.15,5.15,0,0,0,.8,1.5,5.07,5.07,0,0,0,3.43,1.42,43.62,43.62,0,0,0,4.42.23c1,0,2.58-.48,3.42.32.2.2.35.44.56.63a2.8,2.8,0,0,0,1.94.57,15,15,0,0,0,4.48-.6.34.34,0,0,0,.24-.55,8.36,8.36,0,0,0-1.3-2.43,3.1,3.1,0,0,0-2.39-1.19,7.7,7.7,0,0,0-1.41.3,10,10,0,0,1-4.18-.28,12.23,12.23,0,0,1-4.49-1.54,3.51,3.51,0,0,1-.91-1.14,19.14,19.14,0,0,1-1.5-3.73c-.15-.5-.37-1.07-.87-1.24a1.43,1.43,0,0,0-1.08.19,5.37,5.37,0,0,0-2.72,2.81C111.37,168.21,112.79,170.41,113.3,171.66Z" transform="translate(-8.7 -25.02)" fill="#ffbbab"/><path d="M113.12,153.9s3.57,9.66,4.27,10.37-6.88,5-6.88,5-4.94-9.4-4.71-13.47S110.33,150.06,113.12,153.9Z" transform="translate(-8.7 -25.02)" fill="#68e1fd"/><path d="M118.75,134.31a3.91,3.91,0,0,1-1.25,2.42c-.67.63-1.5,1.05-2.19,1.66a2.72,2.72,0,0,0-1.1,2.38,1.24,1.24,0,0,0-1.5.49,1,1,0,0,0,.16,1,1.24,1.24,0,0,0,1,.42,3.91,3.91,0,0,0-1.77,1.42c-1.11,1.65-2.4,2.89-2,5.09.3,1.47,1.09,2.8,1.51,4.24a8.82,8.82,0,0,1-9,11.27c-2.66-.15-5.43-1.88-5.86-4.51-.48-3,2.08-5.65,2.37-8.66.15-1.63-.37-3.31,0-4.9.55-2.2,2.66-3.56,4.26-5.16,3.43-3.45,3.45-9.15,8.86-10.6C114.76,130.26,119,131,118.75,134.31Z" transform="translate(-8.7 -25.02)" fill="#fc682d"/><polygon points="120.65 150.08 126.96 134.03 143.64 134.03 135.25 153.31 109.7 152.35 110.52 150.8 120.65 150.08" fill="#68e1fd"/><polygon points="120.65 150.08 126.96 134.03 143.64 134.03 135.25 153.31 109.7 152.35 110.52 150.8 120.65 150.08" fill="url(#linear-gradient-13)"/><path d="M165,205a2.45,2.45,0,0,0-2.41.32c-.34.34-.51.81-.85,1.15a2.73,2.73,0,0,1-1.7.58,11.44,11.44,0,0,1-2.92-.16,1,1,0,0,0-.48,0,.67.67,0,0,0-.41.65,2,2,0,0,0,.22.78,2.18,2.18,0,0,0,.73,1,2.14,2.14,0,0,0,1.09.23,54.44,54.44,0,0,0,7.77-.18,2.8,2.8,0,0,0,1.76-.68C169.24,207.21,166.12,205.36,165,205Z" transform="translate(-8.7 -25.02)" fill="#68e1fd"/><path d="M148.8,214c-.34,0-.68,0-1,0a1.14,1.14,0,0,0-.37,0,1.25,1.25,0,0,0-.57.48c-.33.42-.63,1-1.13,1.21a5,5,0,0,1-1.43.35,10.84,10.84,0,0,1-3.31-.23,1,1,0,0,0-.48,0,.66.66,0,0,0-.41.65,2,2,0,0,0,.22.78,2.15,2.15,0,0,0,2.17,1.57h4.08c1.26,0,2.52,0,3.78-.05a10.22,10.22,0,0,0,2.52-.36,2.74,2.74,0,0,0,1.45-.91,1.32,1.32,0,0,0,0-1.61,2,2,0,0,0-.9-.49l-2.65-.92a9.42,9.42,0,0,0-1.55-.44Z" transform="translate(-8.7 -25.02)" fill="#68e1fd"/><path d="M251.86,148.2l-.07,0a4,4,0,0,1-.83-.82,9.31,9.31,0,0,0-2.59-2.25c-.41-.24-1-.43-1.32-.07-.11.12-.16.29-.28.4-.28.26-.73.09-1.05-.11s-.73-.42-1.06-.22a.78.78,0,0,0-.3.65,3.47,3.47,0,0,0,.54,1.63,21.81,21.81,0,0,0,1.64,2.76,1.66,1.66,0,0,0,1.51.84,5.62,5.62,0,0,1,2.72.7,1.11,1.11,0,0,0,.57.29c.61.06.82-1.82.92-2.25.05-.21.32-.91.22-1.12S252.06,148.31,251.86,148.2Z" transform="translate(-8.7 -25.02)" fill="#ffbbab"/><polygon points="259.12 160.14 260.09 208.16 266.6 208.16 268.48 170 272.58 208.16 280.04 209.41 281.75 158.57 259.12 160.14" fill="#68e1fd"/><polygon points="259.12 160.14 260.09 208.16 266.6 208.16 268.48 170 272.58 208.16 280.04 209.41 281.75 158.57 259.12 160.14" fill="url(#linear-gradient-14)"/><polygon points="275.58 207.41 275.58 162.9 281.75 158.57 279.67 208.16 275.58 207.41" fill="url(#linear-gradient-15)"/><path d="M250.1,153.72l.14.12s0,0,0,0c1.39,1.2,12.32,10.61,14,10.06a51.45,51.45,0,0,0,6.52-3.53l.55-.33V146.82L264.45,155l-12.13-7.15Z" transform="translate(-8.7 -25.02)" fill="#68e1fd"/><path d="M250.24,153.84s0,0,0,0c1.39,1.2,12.32,10.61,14,10.06a51.45,51.45,0,0,0,6.52-3.53,9.72,9.72,0,0,0,.07-1.62c0-1.17.41-4-1.39-3.32-1.46.56-2.52,2.45-4,3.16a3.2,3.2,0,0,1-1.65.78c-1,.06-1.8-.75-2.5-1.46a29.74,29.74,0,0,0-8.45-6.08.85.85,0,0,0-.45-.12.82.82,0,0,0-.45.3C251.38,152.63,250.81,153.24,250.24,153.84Z" transform="translate(-8.7 -25.02)" fill="url(#linear-gradient-16)"/><path d="M285.62,142.68a57.41,57.41,0,0,1,5.07,2.87c3.48,2.23,2.86,3.26,2.22,7.11a151.64,151.64,0,0,0-2,24.9,21.78,21.78,0,0,1-.43,6c-.36,1.24-1.19,2.28-1.29,3.59-5.37.74-17.66,3.5-21.34-2-3.52-5.28,2.82-24,1.64-32.38s9.62-9.27,9.62-9.27Z" transform="translate(-8.7 -25.02)" fill="#68e1fd"/><path d="M278.22,181.17l9.73,6.57,1.59-2a35.81,35.81,0,0,0,1.3-10.4c-.23-5.24,0-3.37,0-3.37l-13.69,8.66Z" transform="translate(-8.7 -25.02)" fill="url(#linear-gradient-17)"/><path d="M273.37,134.56a11.56,11.56,0,0,0,.1,1.66,10.46,10.46,0,0,0,1.33,3.23,2.49,2.49,0,0,0,.7.9,2.71,2.71,0,0,0,2,.16,1.11,1.11,0,0,1,.48,0c.38.15.43.67.41,1.08l-.11,1.91a1.22,1.22,0,0,0,.13.76,1,1,0,0,0,.51.33,4.1,4.1,0,0,0,4.11-.93,2.88,2.88,0,0,0,.64-.87,3.49,3.49,0,0,0,.24-1c.23-1.83,0-3.68.17-5.51a18,18,0,0,0,.13-4.57,5,5,0,0,0-2.94-3.72,7.48,7.48,0,0,0-4.83.11,22.89,22.89,0,0,0-2.25.76,1.49,1.49,0,0,0-.87.63c-.29.59,0,1.44,0,2.07C273.39,132.57,273.37,133.57,273.37,134.56Z" transform="translate(-8.7 -25.02)" fill="#ffbbab"/><path d="M286.2,127.72c-1.44-2.16-4.8-2.2-7.14-2.51a1.91,1.91,0,0,1-.94-.31A.63.63,0,0,1,278,124l-1.78,1,0-1.32a16,16,0,0,1-1.93,1.31l0-1.18a5,5,0,0,0-1.74,5.31c.57,2,3.59,2.21,5.28,2.12a8.18,8.18,0,0,1,1.4,0,2,2,0,0,1,1.22.6,4.4,4.4,0,0,1,.61,2.09.26.26,0,0,0,.05.12.32.32,0,0,0,.09,0c.52.06,1-.55,1.48-.34a.76.76,0,0,1,.39.65,1.89,1.89,0,0,1-.13.94,1,1,0,0,0-.12.37.76.76,0,0,0,.06.25l.33.91a1.46,1.46,0,0,0,.57.83,1.35,1.35,0,0,0,1.25-.25,2,2,0,0,0,.67-.55,1.94,1.94,0,0,0,.24-.66,30.45,30.45,0,0,0,.54-6.88A3.86,3.86,0,0,0,286.2,127.72Z" transform="translate(-8.7 -25.02)" fill="#963637"/><path d="M283.92,141.81s1.49,1,1.45,2.17-8.12,23.9-8.12,23.9-.18-21.79,0-22.8a16.63,16.63,0,0,1,1.09-2.86S281.57,144.56,283.92,141.81Z" transform="translate(-8.7 -25.02)" fill="#fff"/><polygon points="272.58 118.84 273.12 120.6 272.21 121.37 271.77 133.72 268.56 142.85 268.48 133.57 271.24 121.31 270.23 119.58 271.56 118.84 272.58 118.84" fill="#212741"/><path d="M275.3,176a21.19,21.19,0,0,0,3.22,3.27l.74.59a1.89,1.89,0,0,0,.95.44,1.68,1.68,0,0,0,.7-.17,151.08,151.08,0,0,0,13.81-6.19c1.89-1,3.95-2.23,4.35-4.31a6.59,6.59,0,0,0-.05-2.17,62.88,62.88,0,0,0-4.09-15.31c-.57-1.39-1.27-4.07-2.76-5a0,0,0,0,1,0,0l-.18-.09-.21-.1c-2-.72-3.74,1.28-4.29,3a13.54,13.54,0,0,0,.23,7.46,45.3,45.3,0,0,1,1.71,7.35,2,2,0,0,1-.1,1,2.3,2.3,0,0,1-.77.78Z" transform="translate(-8.7 -25.02)" fill="#68e1fd"/><path d="M275.3,233.18l-.35,3.54-2.23.41-1-.88L270,237.6h-6.69s-1.7-2.93,2-3.93l3.69-1Z" transform="translate(-8.7 -25.02)" fill="#212741"/><path d="M288.36,233.18l-.35,3.54-2.23.41-1-.88-1.7,1.35h-6.69s-1.7-2.93,2-3.93l3.69-1Z" transform="translate(-8.7 -25.02)" fill="#212741"/><polygon points="268.48 170 265.49 167.57 263.38 207.65 266.6 208.16 268.48 170" fill="url(#linear-gradient-18)"/><path d="M278.52,179.27l.74.59a1.89,1.89,0,0,0,.95.44,1.68,1.68,0,0,0,.7-.17,151.08,151.08,0,0,0,13.81-6.19c1.89-1,3.95-2.23,4.35-4.31a6.59,6.59,0,0,0-.05-2.17,62.88,62.88,0,0,0-4.09-15.31c-.57-1.39-1.27-4.07-2.76-5a0,0,0,0,1,0,0l-.18-.09-.21-.1a4.48,4.48,0,0,0-4.29,3s7.12,14.56,6.81,16.76S279.05,176,279.05,176Z" transform="translate(-8.7 -25.02)" fill="url(#linear-gradient-19)"/><path d="M272,177.22a2.83,2.83,0,0,0-1.07.53,1.07,1.07,0,0,0-.34,1.08,4.34,4.34,0,0,0,.41.64c.19.34.22.77.39,1.12a2.54,2.54,0,0,0,1.49,1.08c1.78.64,3.95.73,5.39-.5,1-.89,3.14-4.58.83-5.14a9.05,9.05,0,0,0-2.92.3A25.91,25.91,0,0,0,272,177.22Z" transform="translate(-8.7 -25.02)" fill="#ffbbab"/><polygon points="203.72 100.74 203.42 101.07 246.78 127.66 247.1 126.94 203.72 100.74" fill="#fff"/><path d="M244.38,146a1.34,1.34,0,0,1,.15-.95,1.14,1.14,0,0,1,.92-.37,1.34,1.34,0,0,1,.49.05c.36.13.57.49.8.8a1.54,1.54,0,0,0,.25.26,1.74,1.74,0,0,0,.41.2,2.36,2.36,0,0,1,.58.27,2.56,2.56,0,0,1,.68.78,4.46,4.46,0,0,1,.43.77,2.76,2.76,0,0,1,.17,1.1.56.56,0,0,1-.09.36.53.53,0,0,1-.36.17,2.48,2.48,0,0,1-1.56-.4c-.47-.28-.89-.65-1.33-1A3,3,0,0,1,244.38,146Z" transform="translate(-8.7 -25.02)" fill="#ffbbab"/></svg>