<svg viewBox="0 0 409.99 574.1" xmlns="http://www.w3.org/2000/svg"><path d="m409.92 40.06c-2.14-.66-3.86.63-5.66 1.34q-49.86 19.5-99.68 39.09c-2.36.93-5 2.76-6.36-1.28-.31-1.11-.57-2.24-.93-3.33-5.05-15.3-11.14-30.23-15.63-45.72 5.2.23 9.52-2.44 14.17-4.16 20.28-7.53 40.64-14.87 60.95-22.36 2.77-1 5.86-1.4 8.14-3.58 14.17 0 28.34.06 42.5-.06 2.15 0 2.59.41 2.57 2.57-.13 12.49-.07 24.99-.07 37.49zm-104.2 29.44c-1.45.31-2.72 1-2.64 2.81a3.43 3.43 0 0 0 3.38 3.5c1.62.17 2.39-.89 2.38-2.41a3.6 3.6 0 0 0 -3.12-3.9z" fill="#39374f"/><path d="m364.92.06c-2.28 2.18-5.37 2.55-8.14 3.58-20.31 7.49-40.67 14.83-60.95 22.36-4.65 1.72-9 4.39-14.17 4.16l-1.45-2.16c-1-3.48 1.45-4.15 3.88-5q28.44-10.45 56.91-21a44 44 0 0 0 4-1.93z" fill="#484864"/><path d="m159.75 339c10.8.11 21.61.29 32.42.33h47.44c11.29 0 14.8 3.94 13.09 15.1-5.33 34.85-10.84 69.66-16.19 104.51q-8.22 53.49-16.27 107c-1.64 5.12-4.83 8.15-10.52 8.13q-36.9-.11-73.79-.13a195.11 195.11 0 0 1 -1.12-22.67c6.57 1.54 7.85.59 8-5.87.4-20.13.27-40.26.81-60.4 1-37.59 1.07-75.21 1.45-112.82.12-11.57 1.28-9.9-10.08-10.08.11-7.53-.58-15.09 1-22.56l4.19-.43h.39.39a78.64 78.64 0 0 0 18.79-.11zm17.5 23.12c-10.29 0-10.31 0-11.13 10.2-.18 2.32-.09 4.66-.21 7-.71 14.95-1.41 29.89-2.18 44.84q-1.86 36.36-3.82 72.72-1.31 24.65-2.66 49.3c-.08 1.47-.77 3.49.68 4.18 3.57 1.69 7.53 1 11.24.5 2.72-.41 2.38-3.33 2.56-5.36q3.61-42.24 7.09-84.48c2.45-29.81 4.81-59.64 7.26-89.45.78-9.44.85-9.43-8.83-9.43zm15.33 189.05c7.37 0 7.29 0 8.34-7.12q3.57-24.44 7.29-48.83 9.72-63.86 19.54-127.69c.57-3.71-.19-5.77-4.51-5.46a87.24 87.24 0 0 1 -10.48 0c-3.25-.17-4.61.82-5 4.37-2.08 18.83-4.54 37.62-6.76 56.44q-7.2 60.9-14.32 121.82c-.78 6.49-.91 6.47 5.9 6.49z" fill="#59595b"/><path d="m135.94 339.57c-1.55 7.47-.86 15-1 22.56l.1.24c-2-.07-4-.11-6-.21-3.11-.15-4.09 1.46-3.89 4.34 1.62 23.08.67 46.22 1.39 69.33 1.13 36.25 1 72.53 1.49 108.8.08 6.51.24 6.64 6.85 6.42l-.12.25a195.11 195.11 0 0 0 1.17 22.7q-37.41 0-74.8.12c-5.71 0-8.86-3.05-10.51-8.16 0-1-.08-1.91-.11-2.87l-.57-1q-4.24-28.09-8.5-56.16-9.81-64.26-19.66-128.52c-1.51-9.84-3.17-19.67-4.77-29.5 5.67-.61 9.25-4 11.81-8.8 9.32.07 18.63.12 27.94.2a8.75 8.75 0 0 0 4.32-1c4.09 2.46 8.48.89 12.74.94l26.78-.25c3.36 1.05 6.76.73 10.16.22zm-42.09 22.57h-1.5c-8.9 0-8.58 0-7.78 8.68 2 21.18 3.59 42.39 5.36 63.59q2.2 26.58 4.41 53.16c1.51 17.89 3.25 35.76 4.49 53.66.72 10.3.71 10.64 11 9.95h.5c2.6.11 3.48-1.18 3.34-3.7-.69-12.62-1.27-25.24-1.93-37.86q-2.42-46.82-4.86-93.64c-.77-14.78-1.33-29.57-2.44-44.32-.73-9.54-1.1-9.52-10.59-9.52zm-40.82 0a48.81 48.81 0 0 1 -5 0c-4.28-.45-5.61 1.29-4.95 5.51 3.49 22.33 6.81 44.69 10.23 67 5.47 35.81 11 71.61 16.42 107.43 1.61 10.69.63 8.89 11.05 9.09h1c2.43 0 3.18-1.27 2.9-3.53-.71-5.77-1.34-11.55-2-17.33-2.91-23.75-5.86-47.5-8.68-71.31-3.48-29.2-6.82-58.43-10.33-87.64-1.12-9.23-1.28-9.21-10.67-9.21z" fill="#696b6c"/><path d="m184.49 80.63c-.9-2.41.4-4.08 1.81-5.82 7.56-9.29 15.85-18.11 22.36-28.09 5.11-7.83 11.44-9.58 19.94-9.95 15.44-.68 30.83-2.45 46.24-3.76 5.85 14.23 10.81 28.77 15.42 43.43-2.21 2.69-4.54 5.3-6.62 8.09a27.28 27.28 0 0 1 -15.25 10.47c-14.51 3.9-26.11 12.8-37.39 22.12-2.84 1.43-4.56 4.17-7 6 0-4.39-2.44-7.44-6.49-7.15s-3.23 4.61-3.51 7.59c-.1 1 .16 2 .12 3-.06 1.35 1.54 3.17-.26 3.93-1.62.68-2.42-1.28-3.31-2.4-.62-.77-1.15-1.61-1.72-2.43-.3-1.8-.61-3.61-.91-5.42 1.81-9.35 8.76-15 15-21.22 3-1 3.71-4.09 5.39-6.22a13.78 13.78 0 0 0 -1.77-18.67c-1.41-1.3-2.94-2.28-4.88-2-6.87 1.1-13.35 2.87-16.77 9.87-2.63.83-3.3 3.06-3.82 5.38a125 125 0 0 1 -16.58-6.75z" fill="#f1be94"/><path d="m10.86 347.14c-9.4-3.33-12.86-10.07-9.69-19.65 5.4-16.09 11.1-32.07 16.67-48.1 2-5.81 3.93-11.67 6.1-17.42 1-2.69.28-3.93-2.37-4.72-3.51-1.05-7-2.31-10.37-3.63-5.72-2.21-7.7-5.65-5.78-11.34q8.75-26 18-51.89c2.23-6.23 5.73-7.63 12.27-5.77a80.32 80.32 0 0 1 9.46 3.2c3.42 1.45 4.71 0 5.76-3.07q10.9-31.89 22-63.7c3.52-10.09 11.32-13.8 20.66-9.91-4.44 4.07-4.88 10-6.73 15.19-8.46 23.58-16.41 47.35-24.63 71-5.77 16.67-11.72 33.18-17.52 49.79-7.93 22.73-16 45.43-23.6 68.27-3.52 10.54-8.02 20.78-10.23 31.75zm17.42-103.34c2 .21 2.41-1.25 2.93-2.72 3.84-11 7.75-22 11.58-33 .87-2.5 2-4.88-2.12-6.19-3.88-1.24-5.64-.47-6.9 3.42-3.39 10.44-7.13 20.76-10.7 31.14-1.55 4.55.45 7.33 5.21 7.35z" fill="#696b6c"/><path d="m10.86 347.14c2.21-11 6.71-21.21 10.23-31.75 7.63-22.84 15.67-45.54 23.6-68.27 5.8-16.61 11.75-33.16 17.52-49.77 8.22-23.67 16.17-47.44 24.63-71 1.85-5.16 2.29-11.12 6.73-15.19 8.1 4 10.64 10.33 7.49 19.5q-14.57 42.27-29.31 84.47-20.05 57.77-40.07 115.6c-1 2.79-3 5.21-2.86 8.38-2.56 4.78-6.14 8.19-11.81 8.8-2.1.16-4.2.31-6.15-.77z" fill="#59595b"/><path d="m159 236.14-6.45 78c-3.43.37-6.92-1.28-10.3.33-1.35-1.39-1.55-3.28-2.1-5-3.35-10.63-6.64-21.29-10-31.93-.47-1.5-.36-3.82-2.09-4.09s-2.43 2-3.48 3.2c-2.48 2.91-4.72 6-7.33 8.84a14.12 14.12 0 0 0 -3.82 9.38c-.82 13.79-1.86 27.57-2.82 41.35l-9.43-.47c.46-10.26.93-20.52 1.44-31.84-7.29 7.84-12.5 16-19.35 22.68l-7-5.81c7.3-10.54 15.85-20.1 23.95-30a16.21 16.21 0 0 0 4.15-10.29c.24-7.65 1.16-15.28 1.44-22.93.14-4 2.53-3.51 5.06-3.32s5.57-.29 5 4.06a65.15 65.15 0 0 0 -.27 12.36c3.85-4.86 10.9-7.77 7.54-16.38-1.5-3.86 3.49-2.8 5.46-4 2.13-1.28 3.52-.34 4.28 2.21 2.92 9.89 6 19.73 9.14 29.55.53 1.67.6 3.61 2.75 5.52 1.41-18.36 2.78-36.13 4.15-53.9-.17-1.44.68-1.75 1.87-1.67 2.96 1.01 8.03-2.3 8.21 4.15z" fill="#efedef"/><path d="m208.77 125.66c.57.82 1.1 1.66 1.72 2.43.89 1.12 1.69 3.08 3.31 2.4 1.8-.76.2-2.58.26-3.93 0-1-.22-2-.12-3 .28-3-.6-7.29 3.51-7.59s6.51 2.76 6.49 7.15l-5 6.77 5.52 2.48c-3.24 8.75-6.74 17.39-10.75 25.81-5.57-2.16-11.21-4.15-16.67-6.55a9.06 9.06 0 0 0 -7.49-.27c-9.46 3.51-20.72.75-25.45-8-3.79-7-9.61-9.37-15.93-12-2.76-1.14-5.49-2.35-8.24-3.53 2.64-9 6.69-17.44 10.4-26 5.67 2.28 11.38 4.48 17 6.88a8.72 8.72 0 0 0 7 .21c11.15-4.08 23.1.66 28 11.33a9 9 0 0 0 6.44 5.41z" fill="#efedef"/><path d="m150.82 232c-1.19-.08-2 .23-1.87 1.67-1.94-.75-3.84-1.64-5.82-2.21s-2.42-1.79-1.95-3.59c2-4.68 4.11-9.34 6.1-14 3-7.12 3-7.26-4.15-10.17-9.93-4-19.52-8.89-29.89-11.79.32-2.25.8-4.43 2.58-6 6.45 2.11 7.66 1.66 11.47-4.13q3.7-5.62 7.49-11.2c.78-1.15 1.27-3 3.34-2 7.94 3.65 16.54 5.82 24 10.65a.92.92 0 0 0 -.2.78c-1 .8-1 2-1.23 3.11-2.36 5.44-4.69 10.9-7.08 16.34-2.09 4.77 2.55 3.86 4.43 5.17s3.72 1.74 4.82-1.34c1.84-5.13 4-10.13 6.07-15.18l2.07-.11c7.53 3.73 7.53 3.73 9.83-1.93 6.75 3.09 6.75 3.09 5.18 10.72q-.95 4.59-1.86 9.2c-1.18 6-.23 7.73 5.54 10.3a8.13 8.13 0 0 1 -2.66 6c-4.79-3-10.23-4.63-15.4-6.81-1.06-.44-2.46-1.08-2.94.49-1.48 4.87-4.35 2.81-6.9 1.42-3-1.62-4.66-1.26-5.83 2.25-1.4 4.23-3.4 8.26-5.14 12.36z" fill="#f0942a"/><path d="m222.91 99c-6.29 6.17-13.24 11.87-15 21.21-1.62.44-1.85-.81-2.39-1.84-5.78-11-16.5-17.07-28.33-13.86-6.45 1.76-11.2-.12-16.4-2.32-7.12-3-7.07-3.11-4-10.38.45-1.07.65-2.26 1.19-3.27 2.67-5 3.69-10.84 7.11-15.53l19.45 7.6a126.09 126.09 0 0 0 16.58 6.76 5.36 5.36 0 0 0 3.36 1.39c5.39 2.36 10.79 4.69 16.15 7.1 1.23.6 3.54.6 2.28 3.14z" fill="#d21b26"/><path d="m189.7 216.24c-5.77-2.57-6.72-4.32-5.54-10.3q.92-4.6 1.86-9.2c1.57-7.63 1.57-7.63-5.18-10.72-4.77-4.49-11-5.78-17-7.65-.47-.15-1.19.48-1.8.75-7.42-4.83-16-7-24-10.65-2.07-.95-2.56.89-3.34 2q-3.79 5.56-7.49 11.2c-3.81 5.79-5 6.24-11.47 4.13 3.08-9.57 7.29-18.69 11.38-27.85l1.72.14c23.22 10 46.56 19.78 70.12 29a3.55 3.55 0 0 0 2.55 1.34z" fill="#e2e0e0"/><path d="m113.24 191.89c10.37 2.9 20 7.77 29.89 11.79 7.18 2.91 7.15 3 4.15 10.17-2 4.7-4.06 9.36-6.1 14-11.78-4-23-9.29-34.54-13.9-1.71-.68-2.31-1.7-1.52-3.46 2.76-6.15 4.77-12.67 8.12-18.6z" fill="#cfcfd1"/><path d="m150.82 232c1.74-4.12 3.74-8.15 5.15-12.38 1.17-3.51 2.84-3.87 5.83-2.25 2.55 1.39 5.42 3.45 6.9-1.42.48-1.57 1.88-.93 2.94-.49 5.17 2.18 10.61 3.77 15.4 6.81-1.48 6.65-5 12.53-7.22 18.89-1 2.82-2.83 1.95-4.78 1.16-5.33-2.15-10.43-4.89-16.08-6.2-.14-6.43-5.21-3.12-8.14-4.12z" fill="#cfcfd1"/><path d="m128.92 158.13-1.72-.13c3.61-10.31 7.25-20.61 12.77-30.11 2.75 1.18 5.48 2.39 8.24 3.53 6.32 2.63 12.14 5 15.93 12 4.73 8.74 16 11.5 25.45 8a9.06 9.06 0 0 1 7.49.27c5.46 2.4 11.1 4.39 16.67 6.55-3.16 10.44-7.91 20.23-12.16 30.23a3.59 3.59 0 0 1 -2.56-1.34c5.2-7.06 6.64-15.8 10.42-23.51 1.19-2.43-1.23-3.49-3.11-4.2-3.87-1.45-8-2.17-11.5-4.65-1.23-.88-2.46-.08-3.74.37-11.21 4-25.83-1.18-31.58-11.59-2.24-4.07-5-6.56-9.43-7.63a60 60 0 0 1 -6.54-2.35c-2.44-.93-4-.36-5.09 2.23-3.08 7.47-6.35 14.89-9.54 22.33z" fill="#b7242f"/><path d="m290.26 76.44c-4.61-14.66-9.57-29.2-15.42-43.43-.66-4.29 3.08-3.85 5.37-5l1.45 2.13c4.49 15.49 10.58 30.42 15.63 45.72.36 1.09.62 2.22.93 3.33-3.92 2.74-6.56 1.81-7.96-2.75z" fill="#e2e0e0"/><path d="m142.21 314.49c3.38-1.61 6.87 0 10.3-.33l.33 3.43c-.93 2.32-.58 4.81-1 7.19-.62 3.83 1.13 4 4 2.88q1.94 5.68 3.88 11.36a78.64 78.64 0 0 1 -18.84.12c-.06-.35-.12-.69-.19-1q.78-11.85 1.52-23.65z" fill="#f0942a"/><path d="m165 73c-3.42 4.69-4.44 10.49-7.11 15.53-.54 1-.74 2.2-1.19 3.27-3.06 7.27-3.11 7.37 4 10.38 5.2 2.2 9.95 4.08 16.4 2.32 11.83-3.21 22.55 2.83 28.33 13.86.54 1 .77 2.28 2.39 1.84.3 1.82.61 3.63.91 5.43a9 9 0 0 1 -6.41-5.37c-4.86-10.67-16.81-15.41-28-11.33a8.72 8.72 0 0 1 -7-.21c-5.62-2.4-11.33-4.6-17-6.88 2.92-9.52 7.4-18.42 11-27.66.68-1.69 1.77-3 3.68-1.18z" fill="#b7242f"/><path d="m76.26 320.79 7 5.81c-2.33 4.83-6.73 8.1-9.43 12.65-4.26-.05-8.65 1.52-12.74-.94 5.32-5.61 9.25-12.42 15.17-17.52z" fill="#f0942a"/><path d="m224.5 132.41-5.5-2.48 5-6.77c2.46-1.87 4.18-4.61 7-6a67.44 67.44 0 0 1 -6.5 15.25z" fill="#b7242f"/><path d="m155.87 327.66c-2.86 1.16-4.61.95-4-2.88.38-2.38 0-4.87 1-7.19a31.21 31.21 0 0 1 3 10.07z" fill="#e2e0e0"/><path d="m49.94 562.07.57 1z" fill="#398399"/><path d="m305.72 69.5a3.6 3.6 0 0 1 3.12 3.9c0 1.52-.76 2.58-2.38 2.41a3.43 3.43 0 0 1 -3.38-3.5c-.08-1.84 1.19-2.5 2.64-2.81z" fill="#484864"/><g fill="#242022"><path d="m177.25 362.14c9.68 0 9.61 0 8.83 9.44-2.45 29.81-4.81 59.64-7.26 89.45q-3.47 42.26-7.09 84.48c-.18 2 .16 5-2.56 5.36-3.71.55-7.67 1.19-11.24-.5-1.45-.69-.76-2.71-.68-4.18q1.33-24.66 2.66-49.3 1.93-36.36 3.82-72.72c.77-14.95 1.47-29.89 2.18-44.84.12-2.33 0-4.67.21-7 .82-10.19.88-10.19 11.13-10.19z"/><path d="m192.58 551.19c-6.81 0-6.68 0-5.91-6.46q7.2-60.9 14.32-121.82c2.22-18.82 4.68-37.61 6.76-56.44.4-3.55 1.76-4.54 5-4.37a87.24 87.24 0 0 0 10.48 0c4.32-.31 5.08 1.75 4.51 5.46q-9.83 63.84-19.54 127.69-3.72 24.4-7.29 48.83c-1.04 7.13-.91 7.14-8.33 7.11z"/><path d="m135 362.13c11.36.18 10.2-1.49 10.08 10.08-.38 37.61-.44 75.23-1.45 112.82-.54 20.14-.41 40.27-.81 60.4-.13 6.46-1.41 7.41-8 5.87l.12-.25q0-27.45 0-54.91.06-66.88.13-133.77z"/></g><path d="m142.21 314.49q-.75 11.81-1.49 23.61c-.19.35-.39.7-.59 1l-4.19.43-25.19-.35c0-1-.1-2-.16-3 1-13.78 2-27.56 2.82-41.35a14.12 14.12 0 0 1 3.82-9.38c2.61-2.79 4.85-5.93 7.33-8.84 1-1.23 1.78-3.47 3.48-3.2s1.62 2.59 2.09 4.09c3.34 10.64 6.63 21.3 10 31.93.53 1.78.73 3.67 2.08 5.06z" fill="#4692b0"/><path d="m140.13 339.14c.2-.34.4-.69.59-1 .07.35.13.69.19 1h-.39z" fill="#696b6c"/><path d="m93.85 362.14c9.49 0 9.86 0 10.58 9.5 1.11 14.75 1.67 29.54 2.44 44.32q2.44 46.82 4.86 93.64c.66 12.62 1.24 25.24 1.93 37.86.14 2.52-.74 3.81-3.34 3.7h-.5c-10.28.69-10.27.35-11-9.95-1.24-17.9-3-35.77-4.49-53.66q-2.23-26.55-4.4-53.14c-1.77-21.2-3.4-42.41-5.36-63.59-.8-8.7-1.12-8.68 7.78-8.68z" fill="#393738"/><path d="m53 362.15c9.36 0 9.52 0 10.63 9.25 3.54 29.21 6.88 58.44 10.37 87.6 2.83 23.77 5.78 47.52 8.66 71.27.7 5.78 1.33 11.56 2 17.33.28 2.26-.47 3.55-2.9 3.53-.33 0-.67 0-1 0-10.42-.2-9.44 1.6-11.05-9.09-5.38-35.82-10.95-71.62-16.42-107.43-3.42-22.35-6.74-44.71-10.23-67-.66-4.22.67-6 4.95-5.51a48.81 48.81 0 0 0 4.99.05z" fill="#393738"/><path d="m135.07 362.37q-.07 66.88-.13 133.77 0 27.47 0 54.91c-6.61.22-6.77.09-6.85-6.42-.44-36.27-.36-72.55-1.49-108.8-.72-23.11.23-46.25-1.39-69.33-.2-2.88.78-4.49 3.89-4.34 1.98.1 3.97.14 5.97.21z" fill="#393738"/><path d="m73.82 339.25c2.7-4.55 7.1-7.82 9.43-12.65 6.85-6.71 12.06-14.84 19.35-22.68-.51 11.32-1 21.58-1.44 31.84l-.56 3.24z" fill="#4692b0"/><path d="m100.6 339 .56-3.23 9.43.47c.06 1 .11 2 .16 3-3.39.48-6.75.76-10.15-.24z" fill="#f0942a"/><path d="m222.91 99c1.26-2.56-1-2.56-2.34-3.14-5.36-2.41-10.76-4.74-16.15-7.1.16-2.25.31-4.51.47-6.77 3.42-7 9.9-8.78 16.76-9.86 1.94-.3 3.47.68 4.88 2a13.78 13.78 0 0 1 1.77 18.67c-1.68 2.13-2.37 5.2-5.39 6.2z" fill="#e6b28b"/><path d="m204.89 82c-.16 2.26-.31 4.52-.47 6.77a5.36 5.36 0 0 1 -3.36-1.39c.53-2.31 1.2-4.54 3.83-5.38z" fill="#4692b0"/><path d="m28.28 243.8c-4.76 0-6.76-2.79-5.21-7.31 3.57-10.38 7.31-20.7 10.7-31.14 1.26-3.89 3-4.66 6.9-3.42 4.11 1.31 3 3.69 2.12 6.19-3.83 11-7.74 22-11.58 33-.52 1.43-.91 2.88-2.93 2.68z" fill="#4692b0"/><path d="m162.08 179.12c.61-.27 1.33-.9 1.8-.75 6 1.87 12.19 3.16 17 7.65-2.3 5.66-2.3 5.66-9.83 1.93.32-1.33.65-2.67 1.23-5.06-1.9 2.06-3.06 3.28-3.35 5.11-2 5.05-4.23 10.05-6.07 15.18-1.1 3.08-2.86 2.72-4.82 1.34s-6.52-.4-4.43-5.17c2.39-5.44 4.72-10.9 7.08-16.34a3.27 3.27 0 0 0 1.23-3.11.92.92 0 0 1 .16-.78z" fill="#efedef"/><path d="m168.89 188c.29-1.83 1.45-3.05 3.35-5.11-.58 2.39-.91 3.73-1.23 5.06z" fill="#e2e0e0"/><path d="m161.88 179.9a3.27 3.27 0 0 1 -1.23 3.11c.18-1.13.21-2.31 1.23-3.11z" fill="#e2e0e0"/><path d="m128.92 158.13c3.19-7.44 6.46-14.86 9.54-22.35 1.07-2.59 2.65-3.16 5.09-2.23a60 60 0 0 0 6.54 2.35c4.41 1.07 7.19 3.56 9.43 7.63 5.75 10.41 20.37 15.55 31.58 11.59 1.28-.45 2.51-1.25 3.74-.37 3.48 2.48 7.63 3.2 11.5 4.65 1.88.71 4.3 1.77 3.11 4.2-3.78 7.71-5.22 16.45-10.42 23.51-23.55-9.2-46.89-18.96-70.11-28.98z" fill="#d21b26"/></svg>