<svg viewBox="0 0 635.65 661.59" xmlns="http://www.w3.org/2000/svg"><path d="m236.93 47.61c40.34-41.13 103.89-57.67 159.29-41.46s100.28 64.49 112.51 121c3.74 17.29 4.8 35.65 13.5 51.05 13.26 23.48 40.51 34.27 64.45 46.58s48.86 32.15 49 59.08c.09 20.89-15.3 38.72-32.48 50.47s-36.97 19.59-53.2 32.67c-34.44 27.75-47.21 73.65-68.77 112.31-24.68 44.24-63.85 81.39-111.75 97.69-37 12.57-68.66 8.45-104-2.87-38.05-12.17-79.73-9.34-117.32-24.42-46.16-18.54-79.25-60.23-102.11-104.39-34.36-66.4-49.86-142.26-45.26-216.82 3.62-58.64 21.21-145.02 89.65-161.5 31.05-7.46 46.48 14.79 74.35 18.89 34.4 5.11 49.66-15.36 72.14-38.28z" fill="#f5f4f4"/><path d="m82.22 583.1c-1.54 44.55 234.33 93.07 347.78 74.38 40.18-6.62 68.94-36.06 99.37-40.09 55.53-7.34 99.25 9.1 105.23-27.11 9.27-56.07-257-58-324.18-58s-226.08-10.42-228.2 50.82z" fill="#f5f4f4"/><path d="m213.88 212.52a27.33 27.33 0 0 1 -.68 10.07 31.39 31.39 0 0 1 -4.25 9.26c-3.49 5.37-8.21 10.42-9.34 17a12 12 0 0 0 1.83 9.15s.15 0 .12 0c-3.83-5.48-1.61-12.29 1.61-17.47 1.72-2.77 3.73-5.34 5.54-8.05a33.07 33.07 0 0 0 4.38-8.95 27.29 27.29 0 0 0 .92-10.93s-.14-.05-.13 0z" fill="#8a4b20"/><path d="m170.22 361.72c-14.05-42.58-27-86.88-28.23-132-1.08-38.92 8.12-79.93 33.15-110.54 32.17-39.34 81.86-51.92 130.74-53.56a289.8 289.8 0 0 1 36.09 1c25.42 2.33 50.25 8.68 73.14 20.11 46.73 23.33 70.85 61.7 75.48 113.37.52 5.77.82 11.56 1 17.36a505.48 505.48 0 0 1 -17.29 145.09" fill="#5c5f7f"/><path d="m186.83 579.72 2.95 19.01h13.57v-25.62" fill="#31344f"/><path d="m461.17 579.72-2.96 19.01h-13.57v-25.62" fill="#31344f"/><path d="m540.73 431.33c-6.53 31.27-14.44 62.29-23.4 92.92-6.75 23.11-14.12 51.09-38.41 60.69-9.18 3.63-24.79 5.8-35 6.21a8.52 8.52 0 0 1 -1 .07c-36 1.21-71.18 1.27-106.43 1-37-.29-74.08-1-112.3-1.09-17.15-.06-42.68 1.18-55.81-13.29-6.73-7.42-8.58-13.77-11.89-23.23-19.76-56.77-37.71-114.72-43.64-174.55-.76-7.84-1.27-16.07 1.85-23.33 15.59-36.18 67.19-39.05 100.57-43.86 57-8.19 114.84-11.8 172.38-7.88a651.19 651.19 0 0 1 86.35 11.72c19.86 4.08 52.66 14.73 66.72 31.27a38.33 38.33 0 0 1 6.79 12.31c8.55 25.43-1.51 45.71-6.78 71.04z" fill="#5c5f7f"/><path d="m540.74 353a23.11 23.11 0 0 0 -11.13-5.43 64.52 64.52 0 0 0 -12.47-1.45 42.08 42.08 0 0 0 -19.53 4.35c-12.26 6.09-21.12 17.41-27.71 29.11-7.29 13-12 27-16.16 41.23q-9.3 31.51-15.92 63.74c-2.14 10.42-3.94 20.9-5.91 31.35-1.93 10.18-4.15 20.34-7.68 30.1-.9 2.47-1.85 4.93-2.88 7.35-.09.21.21.39.31.18 8.69-18.51 11-39.28 14.84-59.15q6.11-31.68 14.8-62.77c4.3-15.37 8.69-30.84 15.72-45.22 6-12.27 14-24.42 25.44-32.22a42.92 42.92 0 0 1 18.25-7.17 48.61 48.61 0 0 1 11.05-.1 44.67 44.67 0 0 1 13 2.63 19.5 19.5 0 0 1 5.82 3.65c.12.11.29-.06.17-.17z" fill="#010101"/><path d="m210.85 433.07c30.54-.67 61.08-1 91.63-.67s61.08 1.19 91.59 2.64q25.68 1.23 51.34 3c.32 0 .32-.48 0-.5q-45.71-3.21-91.52-4.58t-91.62-1.05c-17.14.13-34.28.44-51.42 1a.08.08 0 1 0 0 .16z" fill="#010101"/><path d="m474.52 321.24c-10.35.06-19.38 6.46-26.06 13.86-7.23 8-12.51 17.55-16.82 27.39-2.42 5.55-4.68 11.21-6.54 17-.06.16.19.22.26.07 2-5 3.8-10.1 5.9-15.07a135.92 135.92 0 0 1 6.88-14.16c5.09-9 11.64-17.77 20.35-23.52a29.84 29.84 0 0 1 16-5.35.1.1 0 0 0 0-.2z" fill="#010101"/><path d="m121 353.19c3.37-3.1 7.74-4.62 12.18-5.44a65.73 65.73 0 0 1 12.44-1.13 41.9 41.9 0 0 1 19.55 5.16c12.07 6.58 20.65 18.2 27 30.08 7.18 13.34 11.69 27.74 15.9 42.23q9 31.07 15.47 62.82c2.07 10.19 3.79 20.45 5.76 30.67a179.56 179.56 0 0 0 7.73 29.3c.85 2.26 1.81 4.48 2.84 6.67.1.21.4 0 .31-.18-8.35-19.43-10.91-40.53-14.93-61.11q-6.28-32.16-15.23-63.7c-4.29-15.13-8.76-30.27-15.92-44.34-6.17-12.11-14.39-24-26.06-31.4a42.5 42.5 0 0 0 -18.42-6.47 54.4 54.4 0 0 0 -11.48.27 37.83 37.83 0 0 0 -12.36 3 19.14 19.14 0 0 0 -5 3.4c-.12.11.06.28.18.17z" fill="#010101"/><path d="m187.07 321.38c10.44.08 19.47 6.73 26.15 14.23 7.06 7.94 12.23 17.34 16.46 27 2.42 5.55 4.49 11.22 6.63 16.88 0 .06.13 0 .1 0a172.74 172.74 0 0 0 -12.92-29.69c-5.16-9-11.79-17.77-20.62-23.43a29.9 29.9 0 0 0 -15.8-5.07 0 0 0 0 0 0 .08z" fill="#f1b4a5"/><path d="m425.42 385q8.2 13.9 16.45 27.8c1.55 2.61 3.07 5.23 4.67 7.82 0 .07.15 0 .11-.07-5.35-9.34-11-18.54-16.49-27.78l-4.66-7.82c0-.05-.11 0-.08.05z" fill="#f1b4a5"/><path d="m395.6 160.62c8.22 1.34 15.48 6 21.13 11.95 6.3 6.67 10.46 15 13.66 23.51 1.87 5 3.46 10.08 5.1 15.16a.11.11 0 0 0 .21-.06c-2.7-9.24-5.61-18.54-10.24-27-4.08-7.46-9.65-14.26-16.91-18.82a33.7 33.7 0 0 0 -12.9-4.88c-.11 0-.16.14 0 .16z" fill="#010101"/><path d="m448 219.78a8 8 0 0 0 -7.29 2 12.62 12.62 0 0 0 -4 7.78 59.49 59.49 0 0 0 -.27 10.51l.21 11.41.07 3.22a16.82 16.82 0 0 0 .09 2.75c.16.86.9 2.42 2 1.71.17-.11 0-.37-.15-.27-.71.37-1.16-.53-1.35-1.08a7.82 7.82 0 0 1 -.18-2.37l-.09-5-.18-10.17c-.11-5.67-1-12.77 3.13-17.37 2-2.21 4.94-3.68 7.92-2.9a.11.11 0 1 0 .06-.22z" fill="#010101"/><path d="m448.82 259.15c3.14-.33 6.33-.54 9.44-1 .17 0 .13-.3 0-.29-3.13.17-6.27.66-9.4 1-.2 0-.2.35 0 .33z" fill="#010101"/><path d="m439.18 285.51q.58 13 .31 26t-1.4 26.13c-.43 4.87-1.08 9.73-1.5 14.6 0 .14.23.18.25 0 .69-4.22 1-8.53 1.42-12.79s.72-8.69 1-13q.74-13.07.59-26.15-.09-7.41-.46-14.81a.09.09 0 0 0 -.18 0z" fill="#010101"/><path d="m346.09 377.13q14.71.62 29.43.88t29.31.17q8.31 0 16.6-.22a.08.08 0 0 0 0-.16q-14.73.3-29.45.25t-29.31-.47q-8.3-.22-16.58-.57c-.08 0-.08.11 0 .12z" fill="#f1b4a5"/><path d="m279.18 141.5a83.7 83.7 0 0 1 31.82-12.5 87.44 87.44 0 0 1 34.41.93 82.71 82.71 0 0 1 9.12 2.66c3.11 1.11 6.1 2.45 9.09 3.86.13.06.24-.12.11-.19a73 73 0 0 0 -16.14-6 85.39 85.39 0 0 0 -17.05-2.59 87.53 87.53 0 0 0 -34.14 5 82.24 82.24 0 0 0 -17.34 8.68c-.09.06 0 .2.08.15z" fill="#010101"/><path d="m263 154.56c-1.35-1.83.34-4.74 2.56-4.64a.07.07 0 0 0 0-.14c-1.84-.21-3.32 1.77-3.2 3.48a2.67 2.67 0 0 0 .51 1.38c.06.07.19 0 .13-.08z" fill="#f1b4a5"/><path d="m443.89 591.15a8.52 8.52 0 0 1 -1 .07c-36 1.21-71.18 1.27-106.43 1a213.82 213.82 0 0 1 -24-21c-13.33-13.83-24.29-30.5-28.44-49.24-2.1-9.47-2.42-19.26-4.39-28.75-4-19.48-16-37-32.1-48.58a72.28 72.28 0 0 0 -25.67-11.65c-3.83-.89-6.25 1.92-8-3-1.43-3.89 3.13-7.72 5.68-9.82 9.5-7.9 19.28-15.94 31-19.95 13.8-4.72 28.88-3.35 43.25-1.06 20.88 3.29 42 8.58 59.45 20.47 13.2 9 23.72 21.32 33.88 33.63 6.38 7.71 12.79 15.58 16.8 24.73 8.83 20.24 5.07 43 10 64 2.33 9.78 7.43 14.21 12.94 22.09 6.14 8.74 11.55 17.98 17.03 27.06z" fill="#262a4c" opacity=".45"/><path d="m215.29 144.42s-1.18-2-8.57 1-20.72 21.58-18.02 45.93-2.87 44.61-11.26 62.37c-4 8.47 125-7.08 125-7.08s-12.71-3.19-13-20.89-3.54-40.29-6.79-53.07-5-28.75-32.21-34.4c-23.5-4.89-35.44 2.21-35.15 6.14z" fill="#a55e2b"/><path d="m212.64 210.8c1.31 8.5-5 15.77-10.19 21.75-4.64 5.4-10 11.54-10.17 19.06 0 .11.33.13.33 0 .18-8.21 6.37-14.64 11.39-20.52 4.78-5.59 10.17-12.48 9-20.32 0-.1-.34-.12-.32 0z" fill="#8a4b20"/><path d="m212.57 202.59a37.09 37.09 0 0 1 .94 27.08c-2.7 7.56-8.56 15.2-6.68 23.65 0 .1.34.12.31 0-1.95-9.14 4.83-17.19 7.31-25.52a37.12 37.12 0 0 0 -1.57-25.22c0-.1-.36-.1-.31 0z" fill="#8a4b20"/><path d="m412.85 600.85c-3.51 1.18-7.48-.78-9.73-3.73s-3.15-6.69-3.89-10.32c-4.82-23.46-6-48.39-17.82-69.19-1.24-2.17-2.51-5.11-.77-6.9a5.62 5.62 0 0 1 3.62-1.23c19.16-1.85 58.95-13.75 51.92 17.8-2.56 11.47-7.55 22.34-10.24 33.82-2.08 8.83-2.7 36.27-13.09 39.75z" fill="#f08177"/><path d="m412.85 600.85c-3.51 1.18-7.48-.78-9.73-3.73s-3.15-6.69-3.89-10.32c-4.82-23.46-6-48.39-17.82-69.19-1.24-2.17-2.51-5.11-.77-6.9a5.62 5.62 0 0 1 3.62-1.23c19.16-1.85 58.95-13.75 51.92 17.8-2.56 11.47-7.55 22.34-10.24 33.82-2.08 8.83-2.7 36.27-13.09 39.75z" fill="#c97547" opacity=".5"/><path d="m409.28 338.71c4.65-12.81 2-27.46-4.69-39.36s-16.9-21.38-27.74-29.64c-1.27-1-3.29-1.85-4.25-.57a2.22 2.22 0 0 0 .83 2.61c3-3.56 6.11-11.84 9.85-14.63 1.57-1.17 3.62-1.41 5.57-1.62l14-1.48a5.89 5.89 0 0 0 3.76-1.31c1.38-1.42.92-3.93-.45-5.38s-3.37-2.08-5.27-2.67c-10-3.08-19.58-5-29.26-9.25a224.41 224.41 0 0 0 -64.63-17.41c-22.06-2.53-47.79-4.7-69.87-2.64-9.5.89-18.82 3.19-28 5.69-19.41 5.26-34.55 12-48.06 27.41-12.25 14-20.67 31.13-25.94 48.86-2.77 9.31-4.77 19.29-2.28 28.68s10.67 17.87 20.38 17.8c2.66 0 5.29-.65 7.94-.54 3.78.15 9.5 1.75 13.16 3 2.39.83 7.54 5.1 9.61 5.1 6.38 5 11.38 12.23 19 14.9 10.42 3.65 21.46-2.34 32.32-4.31 9-1.63 18.18-.46 27.25.46a510.29 510.29 0 0 0 111.53-.86c8.14-1 16.48-2.19 23.62-6.21s8.82-8.92 11.62-16.63z" fill="#010101"/><path d="m333.53 268.45c-13.68 1.4-27.48.27-41.22.73s-27.88 2.71-39.49 10.09c-3.22 2-7.93 8.63-4.18 12.31 1.33 1.31 3.38 1.47 5.24 1.54a309.9 309.9 0 0 0 54.88-2.81c13.63-1.91 30.95 1.56 41.68-9.24a3.63 3.63 0 0 0 1.31-2.41c0-1.38-1.41-2.28-2.65-2.87a47.82 47.82 0 0 0 -28.33-3.93" fill="#fff"/><path d="m420.58 590.57c3.95 7.14 10.32 12.73 17.43 16.73 5.8 3.27 12.33 5.71 16.69 10.75s5.22 14-.35 17.62c-3.48 2.29-8.05 1.69-12.14.87a176.85 176.85 0 0 1 -31.84-9.65c-5.14-2.1-10.47-4.7-13.35-9.44-2.35-3.86-2.72-8.57-4.23-12.83-7.22-20.35-36-23.4-48.82-40.73-1.18-1.59-10.38-8.28-10.17-10.24.19-1.71 7.13-4 8.23-5.31 10.87-13 41.51-38.7 60.47-22.39 16.38 14.05 8.21 46.79 18.08 64.62z" fill="#f08177"/><path d="m458.36 392.74c8.22 26.75 1.91 55.55-4.45 82.82-3.08 13.23-1.56 29.53-7.64 41.87-4 8-6.71 5.49-15.28 5.84a75.81 75.81 0 0 0 -26.37 5.9c-9.68 4.09-18.4 10.15-27.88 14.7-14.05 6.75-29.46 10-44.71 13.3a12.49 12.49 0 0 1 -5.59.34c-2.08-.52-3.74-2.06-5.28-3.56-10.86-10.61-20.33-20.94-26.4-34.82-11.45-26.2-8.52-67.39-40.67-76.15-10.45-2.85-21.69-3.89-30.83-9.68-10.11-6.41-16.15-17.88-18.59-29.6s-1.72-23.83-1-35.78c.46-7.49 63.76-21 71.69-22.76a438.55 438.55 0 0 1 77-10.25c21.05-.91 52.14-5.31 69.57 8.79 15.58 12.63 30.45 29.6 36.43 49.04z" fill="#f5a467"/><path d="m362.49 253.15c16.2-3 29.67-13.32 46.33-7.5 12.59 4.4 25 15.92 21.66 30.46-1.82 7.91-10.24 12.58-18.25 13.93-29.75 5-59.19-21.67-88.2-13.38-3.88 1.11-7.56 2.81-11.38 4.11a34.83 34.83 0 0 1 -5.86 1.53c-1.41.22-4 1-5.07-.19a2.15 2.15 0 0 1 -.49-2 3.59 3.59 0 0 1 .63-1.17 14.61 14.61 0 0 1 5.95-4.37c1.13-.5 2.3-.92 3.47-1.32a21 21 0 0 0 3.23-1.67 42.45 42.45 0 0 1 -14.23 4.74c-1.57-3.08 2.11-6.21 5.38-7.33.59-.2 1.52-.19 1.91-.72-1.29-.16-2.69.48-3.93.74a33.4 33.4 0 0 1 -4.66.61 4.13 4.13 0 0 1 -1.57-.1 1.5 1.5 0 0 1 -1.07-1.07c-.17-.82 1.86-2.25 2.46-2.81a17.07 17.07 0 0 1 12.86-4.55h-10.49c-.21-1.94 1.72-3.38 3.48-4.22 17.59-8.38 38.66-.22 57.84-3.72z" fill="#f08177"/><path d="m226.91 213.79a2.91 2.91 0 0 1 0 .48c0 .16 0 .35.07.57.06.64.13 1.59.22 2.74.06.7.1 1.5.16 2.36v.26a17.86 17.86 0 0 0 9.5 14.56 25.11 25.11 0 0 0 2.39 1.15c.67.32 1.34.61 2 .86s1.24.48 1.88.7a42.65 42.65 0 0 0 6.34 1.69c.64.1 1.28.19 2 .26s1.56.16 2.39.19a2.35 2.35 0 0 0 1.21-.26l.38-.19.35-.22a11.9 11.9 0 0 0 2.58-2.62 20.6 20.6 0 0 0 4.4-13 29.16 29.16 0 0 1 .45-5.29z" fill="#f08177"/><path d="m226.91 213.79a2.91 2.91 0 0 1 0 .48c0 .16 0 .35.07.57.06.64.13 1.59.22 2.74.06.7.1 1.5.16 2.36v.26a17.86 17.86 0 0 0 9.5 14.56 4.45 4.45 0 0 0 .64.35c.57.29 1.14.55 1.75.8s1.34.61 2 .86 1.24.48 1.88.7a42.65 42.65 0 0 0 6.34 1.69c.64.1 1.28.19 2 .26s1.56.16 2.39.19a2.35 2.35 0 0 0 1.21-.26l.38-.19.35-.22a11.9 11.9 0 0 0 2.58-2.62 20.6 20.6 0 0 0 4.4-13 29.16 29.16 0 0 1 .45-5.29z" fill="#c97547" opacity=".5"/><path d="m276.94 184.92c-3-20-25.94-32.17-44.53-28.22s-28.79 23-22.79 42.53c4.69 15.26 16.79 30.31 44.86 30.38 12.93.02 24.93-28.11 22.46-44.69z" fill="#f08177"/><path d="m196.52 197.69c-1.23 5.29 5.24 14.28 10.2 15.08s9.65-2.93 7.54-9.12c-1.77-5.19-1.79-10.24-6.75-11s-9.75-.25-10.99 5.04z" fill="#f08177"/><path d="m209.63 199.14a6.48 6.48 0 0 0 -2.29-2.43 3.83 3.83 0 0 0 -3.55-.2 3.44 3.44 0 0 0 -1.74 3.55c.36 2 1.07 4.69 2.69 6.23 1.24 1.18 6.37 2.58 7.36.3.9-1.97-1.38-5.69-2.47-7.45z" fill="#c97547" opacity=".5"/><path d="m251.11 186.9a29.48 29.48 0 0 0 1 5.63 11.19 11.19 0 0 0 1.09 2.59 3.47 3.47 0 0 0 2 1.68l.69.13a2.78 2.78 0 0 1 .73.22 2.26 2.26 0 0 1 .67.35 2.57 2.57 0 0 1 .59.5 3 3 0 0 1 .74 2.84 3.41 3.41 0 0 1 -1.87 2.23 6.43 6.43 0 0 1 -2.82.55 6.77 6.77 0 0 0 2.71-.76 3.14 3.14 0 0 0 1.62-2.1 2.68 2.68 0 0 0 -.71-2.46 1.88 1.88 0 0 0 -.51-.42 1.94 1.94 0 0 0 -.59-.3 2.18 2.18 0 0 0 -.65-.18l-.72-.13a3.92 3.92 0 0 1 -2.28-1.92 10.18 10.18 0 0 1 -1.06-2.72 22.19 22.19 0 0 1 -.63-5.73z" fill="#e86241"/><path d="m236.85 196.43c.8 1.78.32 3.56-1.07 4s-3.18-.7-4-2.48-.32-3.56 1.07-4 3.15.7 4 2.48z" fill="#1a1e1e"/><path d="m264.79 191c.47 1.8-.22 3.43-1.53 3.65s-2.76-1.05-3.23-2.84.22-3.43 1.54-3.65 2.75 1.05 3.22 2.84z" fill="#1a1e1e"/><path d="m268.32 177.72c-2.35-2.9-11.11-5.43-13.43-1.18-.18.34.25.67.61.42a7.85 7.85 0 0 1 6.59-1.46 18.76 18.76 0 0 1 6 2.43c.15.09.37-.08.27-.21z" fill="#1a1e1e" stroke="#1a1e1e" stroke-miterlimit="10" stroke-width=".29"/><path d="m223.06 191.44c-.68-3.45 3.47-11 8.54-9.82.4.09.37.6-.09.68a8 8 0 0 0 -5.84 3.51 15.48 15.48 0 0 0 -2.25 5.58c0 .16-.33.21-.36.05z" fill="#1a1e1e" stroke="#1a1e1e" stroke-miterlimit="10" stroke-width=".29"/><path d="m242.35 212.7a10.73 10.73 0 0 1 5-3.85 14 14 0 0 1 4.32-.58c1.92 0 4 .21 5.4 1.54 1.94 1.87 2.55 5.95.53 7.94s-5.44 2.5-7.87 3.2c-3.09.88-7.62-.3-8.48-3.9a5.45 5.45 0 0 1 1.1-4.35z" fill="#fff"/><path d="m231 156.46s-12 27.82-23.44 36.15l-4.92-14.53 10.34-23.34 20.02-7.62 29.57 6.88 16.25 20.64 5.32 37.11s-20.1 52.09-7.69 63.64c0 0-19.79-16-11.22-37.35s15.07-46.93 4.43-63.64-38.66-17.94-38.66-17.94z" fill="#a55e2b"/><g fill="#8a4b20"><path d="m229.83 156.31q-2.36 5.91-4.73 11.81c-1.45 3.64-2.79 7.37-4.55 10.87a33.49 33.49 0 0 1 -6.23 8.25c-2.75 2.84-5.71 5.27-9.92 4.62-.22 0-.11.14 0 .17a9.8 9.8 0 0 0 8.12-2.7 35.36 35.36 0 0 0 7.4-8.6 85.72 85.72 0 0 0 4.92-11.19q2.64-6.6 5.27-13.18c0-.09-.27-.16-.32-.05z"/><path d="m228 161.38-6.16 9.39c-1.9 2.89-3.73 5.85-5.85 8.58-4.08 5.24-9.9 9.38-16.79 9.23-.18 0 .06.19.16.19 6.64.07 12.32-3.61 16.4-8.63a101.89 101.89 0 0 0 6-8.63q3.28-5 6.56-10c.06-.08-.23-.23-.29-.14z"/><path d="m278.83 187.94a84.62 84.62 0 0 1 -4.27 37.06c-2.26 6.53-5.55 12.56-6.83 19.42-1.18 6.36-1.28 13.2 1.1 19.3a23.78 23.78 0 0 0 12.47 13.08c.09 0 .39 0 .22-.11a23.81 23.81 0 0 1 -12.2-12.6c-2.6-6.34-2.49-13.51-1.18-20.14s4.46-12.44 6.67-18.74a86.89 86.89 0 0 0 4-17.22 78.92 78.92 0 0 0 .29-20c0-.1-.32-.2-.3-.09z"/><path d="m230.92 156.53a11.42 11.42 0 0 0 3.55.31c2.28.08 4.55.2 6.82.46a40.41 40.41 0 0 1 18.12 6.28c7.54 5.1 12.23 13.13 14.6 21.78a43.81 43.81 0 0 1 .91 20.48c-1.53 7.65-4.53 14.85-7.31 22.11-3 7.82-5.66 16.52-3.23 24.88a21.25 21.25 0 0 0 13.11 13.94c.11 0 .38 0 .18-.11a21.36 21.36 0 0 1 -12.87-13.56c-2.36-7.61-.35-15.68 2.29-22.93s5.8-14.46 7.64-22.07a45.65 45.65 0 0 0 1.42-11 45 45 0 0 0 -1.39-10.1c-2.07-8.56-6.24-16.7-13.29-22.19a38.79 38.79 0 0 0 -17.7-7.33 67.29 67.29 0 0 0 -8.26-.78c-1.39-.06-3.2.17-4.53-.32-.18-.07-.24.07-.06.14z"/><path d="m257 161.38c5.6 1 10.49 5.79 14.08 9.92a35.74 35.74 0 0 1 4.8 6.83c1.5 2.91 2.11 6.26 2.76 9.44a183.43 183.43 0 0 1 2.67 23.61 101.14 101.14 0 0 1 .52 12.3 38.36 38.36 0 0 1 -2.69 11.8c-1.63 4.2-3.87 8.08-5.78 12.14-1.77 3.8-3.13 8-1.88 12.11 0 .11.35 0 .32-.06-1.22-4.08.05-8.15 1.78-11.88s3.92-7.53 5.53-11.48a39.52 39.52 0 0 0 3-11.51 84.07 84.07 0 0 0 -.4-13c-.58-8.28-1.14-16.59-2.85-24.73a33 33 0 0 0 -2.76-9 36 36 0 0 0 -4.69-6.61c-3.68-4.22-8.68-9-14.4-10-.22 0-.12.14 0 .17z"/></g><path d="m224.43 256.68a18.93 18.93 0 0 0 7.64 5.78c10 4.4 21.51 2.11 24.44 1.47s5.59-.81 12.58-5c.9-.55 1.72-1.09 2.48-1.64 5.11-3.63 7.18-7.18 9.26-10.89 2.39-4.26.26-9.57.26-9.57s-.09 1.11-.16 1.69a13.32 13.32 0 0 1 -2.32 3.85 13.36 13.36 0 0 0 -2.38 2.89 27.44 27.44 0 0 1 -2.66 4c-.79.71-2.89.49-5.71 1.2s-3.65 2.93-4.14 3.52a7.91 7.91 0 0 1 -6.89 2.54c-3.87-.54-3.86-.16-5.27 0s-.42 2.18-.63 3.23a6.61 6.61 0 0 1 -1.46 2.91c-.6.63-1.67.22-2.26-.13s-.74-1.77-.88-2.83-.58-1.09-1.54-1.64-2.26-.19-3.29-.12a23.09 23.09 0 0 1 -4.18-.75l-1.31.21c-1.32.21-.75 1.8-1.82 2.91a1.52 1.52 0 0 1 -2.39.13c-.6-.44-.2-2-.68-3.14a8.72 8.72 0 0 0 -2.68-3.1c-1.18-.94-6.78-4.12-6.78-4.12a13.18 13.18 0 0 0 2.77 6.6z" fill="#f08300"/><path d="m278.71 237.3s1.47 4.11.69 6.28-2.5 3.49-3.7 5.31-3.57 2.16-5.17 2.44-3.62 4-6.74 5a40.38 40.38 0 0 1 -9.19 1.51c-1.43 0-2.18-.7-2.54.52s-2.73 5.71-4.73 5-2.2-3.52-2.73-3.72-5.69.17-7.1-.32-1.45.21-2.18.89-3.66 1.72-5-.89-1.3-3.31-3.11-4.07-3.76-1.23-4.57-2.63 0-5.64 0-5.64 10.77 4.72 12.28 4.84 30.54-5.64 30.78-5.78 5.93-6.32 6.45-6.37 6.56-2.37 6.56-2.37z" fill="#f39323"/><path d="m220.75 248.58c.75 1.68 4.83 4.22 6.9 5.09a6.51 6.51 0 0 1 3.71 4.66 3.8 3.8 0 0 0 1 2.52c.62.86 1.13 0 1.72-.74s1.18-2.08 2.27-2.52 1.37-.26 3 .24 4.27.16 5.37.25 1.43 1.35 1.67 2.57.85 2.53 1.79 2.47 1.94-1.45 2.47-2.6-.27-3 .84-4 4.23-.15 6.15-.06a7 7 0 0 0 4.91-1.81c1.35-1.15 3-3.07 4.46-3.95s4.25-.57 6-1.18 2.71-3.29 3.44-4.84a7 7 0 0 1 2.3-2.6 7.53 7.53 0 0 0 2.12-3.9 14.11 14.11 0 0 0 -.46-4.94 51.46 51.46 0 0 0 -2.17-5.31c-1.15-2.34-3.73-4.62-5.8-6s-6.65-2.42-16.79-3.29-19 4.38-22.93 6.17-10.75 8.56-12.45 12.76-.27 9.33.48 11.01zm21.62-6.3a11.33 11.33 0 0 1 4.31-4.22c2.87-1.51 7-1.59 8.7-1.52s4.17 2.52 4.17 2.52 1.81-.73-2.8 2.5-11.29 2.65-12.15 2.38a8.28 8.28 0 0 1 -2.23-1.66z" fill="#97341a"/><path d="m255.48 230.5a6.3 6.3 0 0 1 2.8 2c1.47 1.69 2.46 3 2.16 4.36a9.91 9.91 0 0 1 -.64 2l-.25.16s-1.9-1.72-2.06-1.81a9.2 9.2 0 0 0 -5-.83c-2.28.44-6 1.52-7.25 2.49a23.34 23.34 0 0 0 -3.15 3.46 7.15 7.15 0 0 1 -1.75-3.19c-.14-1.46-.05-2.88.82-3.32s2-.18 3-.55 1-1.21 2-2a10.2 10.2 0 0 1 3.6-1.84c1.52-.43 5.72-.93 5.72-.93z" fill="#f08300"/><path d="m260.29 237.38s-.76-2.42-4.5-3.61-9.21 1.43-11.12 2.79a8.21 8.21 0 0 0 -3.52 4.75l1 1.06a9.32 9.32 0 0 1 4.4-4.27c2.91-1.13 5.73-2.18 7.79-1.92a9.34 9.34 0 0 1 5.27 2.56 7.78 7.78 0 0 0 .68-1.36z" fill="#f39323"/><path d="m271.11 221c5.71 1.66 9.09 8.33 10 13.76.44 2.52.35 5.06-1.46 7a17.82 17.82 0 0 0 -3 3.39 18.16 18.16 0 0 1 -2 3.6c-2.24 2.51-5.92.91-8.39 2.83-1.16.91-1.85 2.31-3 3.27a8.65 8.65 0 0 1 -3.65 1.84 9 9 0 0 1 -3.46.09 21.48 21.48 0 0 0 -2.53-.4 2.55 2.55 0 0 0 -2.4 1.64 6.59 6.59 0 0 0 .09 1.46c-.06 1.43-.9 3.46-2.44 3.83-2.23.54-2.52-1.69-2.85-3.2-.51-2.34-2.95-1.82-4.74-1.8a8 8 0 0 1 -1.83-.2c-1.25-.28-2.12-.88-3.3-.08s-1 2.28-2 3.18a1.47 1.47 0 0 1 -1.47.17 2.21 2.21 0 0 1 -1.44-1.14 16.44 16.44 0 0 1 -.23-2.19 6 6 0 0 0 -1.79-2.74c-2.18-2-5.36-2.47-7.42-4.69a11.05 11.05 0 0 1 -2.76-7.44c0-5.89 4-11 8.24-14.66a41.43 41.43 0 0 1 20.6-9.65c7.9-1.31 15.69-.25 23.27 2.12.43.14 0 .77-.34.65-12.66-4-26.28-3.69-37.83 3.43-5.22 3.22-10.68 8-12.59 14a11.9 11.9 0 0 0 .37 8.57c1.38 3 3.79 4.08 6.55 5.47 2.19 1.11 4 2.73 4.49 5.23.1.51 0 1.32.26 1.77a1 1 0 0 0 1.9 0 9 9 0 0 1 1.51-2.64c1.58-1.38 3.63 0 5.39.16s4.59-.73 5.66 1.33a12.5 12.5 0 0 1 .44 2.19c.1.33.39 1.14.76 1.28a2.8 2.8 0 0 0 2.14-.61 3.78 3.78 0 0 0 .75-2.43c0-1.53-.2-2.84 1.53-3.49a5.36 5.36 0 0 1 2.64-.08c1.87.28 3.52.63 5.38.05a8.74 8.74 0 0 0 4.28-3.2 7.18 7.18 0 0 1 2.29-2.1 9.79 9.79 0 0 1 3.47-.73 5.8 5.8 0 0 0 3.94-1.44 7.84 7.84 0 0 0 1.19-2 12.11 12.11 0 0 1 2-3.32c1.17-1.22 2.61-2.16 3.08-3.88.89-3.19-.43-7.23-1.86-10.08-1.59-3.18-4.27-6.5-7.79-7.52-.44-.12 0-.75.34-.65z" fill="#7d3010"/><path d="m260.08 235.05s.61-3.86-1.68-5.4a11.5 11.5 0 0 0 -10.12-1.42c-3.81 1.45-9.17 4.46-10 6s1.5 6.61 3.53 8.2a10.13 10.13 0 0 1 -1.25-2.59c-.11-.84-.57-3 .13-3.68s2-.64 3.11-.78 1.56-.3 2.08-1.13.51-1.33 1.49-1.81a31.74 31.74 0 0 1 7-1.9c1.53-.05 1.64 0 2.1.36s3.61 4.15 3.61 4.15z" fill="#882812"/><path d="m256.09 230.21c3.38 2.45 6.72 6.51 2.89 10.17a17 17 0 0 1 -7.68 3.69c-2.33.56-5 1-7.31 0a6.79 6.79 0 0 1 -4-4.85c-.29-1.49-.33-3.45 1.35-4 1.91-.66 2.61.8 4.36-1.6a3.42 3.42 0 0 1 1.27-1.32 18.41 18.41 0 0 1 9-2.13c.48 0 .22.67-.17.67a19.79 19.79 0 0 0 -7.32 1.47 3.24 3.24 0 0 0 -1.73 1.21c.39-.53-.91 1.45-.69 1.19a2.43 2.43 0 0 1 -.86.76c-1.43.75-4-.29-4.54 1.67s.95 4.46 2.48 5.59c3.64 2.7 9.64.7 13.21-1.23 2.33-1.26 4.76-3.62 3.31-6.41a14 14 0 0 0 -4-4.29c-.35-.26.17-.82.49-.58z" fill="#7d3010"/><path d="m274.47 229.93s2.21 5.57.06 10.38-8 8.22-12 9.84-16.07 4.25-21.65 3.86-12.05-2.78-13.9-5.2-2-7.24 1.35-8.09 6.08.67 8.19 2.82 9.15 5 11.87 4.57 15-2.6 18.07-6.81-.69-8.34.35-10.47 5.83-3.83 7.66-.9z" fill="#a63f27"/><path d="m254.23 221.64s1.63 2.37 0 3.24-10.1 1.84-13.39 3.66-7.57 6-8.18 8.16-4.41 2.31-5.44.74-2.53-3.8 4.34-9 17.98-10.44 22.67-6.8z" fill="#a63f27"/><path d="m248.92 257.08s.5 4.05.07 4.68a.92.92 0 0 1 -1.46.09c-.2-.33-.47-2.18-.72-2.93a2.36 2.36 0 0 0 -1.61-1.77c-.86-.15-1.4-1.15.41-1.48s3.16-.04 3.31 1.41z" fill="#882812"/><path d="m220.35 242c.08-3.33 3.34-8.38 3.34-8.38 1.21-1.34 1.42-1.17 2.14-.44s-1.94 6.43-2.55 8.35-.49 5 3.23 8a14.81 14.81 0 0 1 2.48 2.37 17.84 17.84 0 0 1 3.85 2.3c1 1 .74 2.9.54 4s-.34 2.25-.81 2-.5-1.65-.54-2.6-1.9-3.81-3.49-4.53a20.35 20.35 0 0 1 -4.63-2.6c-1.66-1.3-3.64-5.13-3.56-8.47z" fill="#882812"/><path d="m233.61 259.57a25.29 25.29 0 0 0 5.67-4.31 29.61 29.61 0 0 0 -15.6.41 41.17 41.17 0 0 0 9.1-4.11c.91-.55 3-1.41 3.57-2.32.73-1.16-.74-2.7-1.74-3.14a5.89 5.89 0 0 0 -4.31.08c-1.38.49-2.66 1.25-4 1.8a14.46 14.46 0 0 1 -5.24 1l7.57-4.12a18.08 18.08 0 0 0 3.52-2.27 4 4 0 0 0 1.19-1.59 1.86 1.86 0 0 0 -.34-1.88 2.33 2.33 0 0 0 -1.84-.51 12.57 12.57 0 0 0 -5.49 2.19c-2.75 1.64-5.52 3-7.56 5.53 2.11-2.19 4.24-4.26 6.43-6.37 1.08-1 2.21-2.41 1.83-3.87a3 3 0 0 0 -3.49-1.85 8 8 0 0 0 -3.71 2.16c-1.4 1.21-2.75 2.49-4.05 3.81a18.85 18.85 0 0 1 -3.42 2.5 54.76 54.76 0 0 0 -7.25 6.09c-4.65 4.57-8.71 9.7-12.94 14.65s-8.9 10.1-14.35 14c-13.35 9.64-30.15 12.18-37.49 28.23-5.55 12.13-5.81 29.05 7 36.72 7 4.17 16.17 1.33 22.68-3.52 24.2-18 25.36-57.71 51.43-72.9 5.42-3.16 11.77-4.93 16.66-8.9a5.93 5.93 0 0 0 1.4-1.47 2.25 2.25 0 0 0 .25-1.95c-.43-1.08-1.81-1.42-3-1.4-4 .06-7.58 2.48-11.51 3.2l.39.23" fill="#f08177"/><path d="m240 304.06c6.29-3.4 13.47-4.66 20.48-5.57a195.82 195.82 0 0 1 23.08-1.61h6.56s4.38.17 6.56.12c.26 0 .34-.43.07-.46a55.54 55.54 0 0 0 -5.76-.4q-3-.09-6-.07-5.88 0-11.74.4t-11.78 1.13a103.6 103.6 0 0 0 -10.64 1.79 41.65 41.65 0 0 0 -11.12 4.2.25.25 0 0 0 .25.43z" fill="#959595"/><path d="m324.89 250.12c0 .37-.3.49-.62.53a1 1 0 0 1 -.93-.42 10.82 10.82 0 0 1 -1.29-2.27c-.9-1.7-1.77-3.42-2.8-5a.19.19 0 0 0 -.33.19c1 2.24 2.17 4.39 3.32 6.54.37.69.88 1.54 1.75 1.62a1.19 1.19 0 0 0 1.31-1.15.21.21 0 0 0 -.41 0z" fill="#959595"/><path d="m203.68 287.89a27.43 27.43 0 0 1 4.61-2.58 20.32 20.32 0 0 1 2.48-.88c.44-.13.88-.24 1.32-.34a3.93 3.93 0 0 0 1.23-.33.26.26 0 0 0 -.06-.48 3.08 3.08 0 0 0 -1.2.13c-.47.1-.93.21-1.39.35a21.34 21.34 0 0 0 -2.58.91 19.29 19.29 0 0 0 -4.73 2.8c-.23.19.07.59.32.42z" fill="#959595"/><path d="m368.09 391.72c6.62 4.28 8.91 12.51 11.91 19.28 3.53 7.87 8.3 15.18 11.31 23.29a43.48 43.48 0 0 1 1.94 6.7 39.32 39.32 0 0 1 .67 7.18.14.14 0 0 0 .28 0 32.4 32.4 0 0 0 -1.9-12.52 81.65 81.65 0 0 0 -5.16-11.78c-2-3.94-4.17-7.82-6.06-11.83-1.69-3.6-3-7.35-4.8-10.93-1.88-3.83-4.31-7.46-8-9.76a.2.2 0 0 0 -.21.35z" fill="#ef8642"/></svg>