<svg viewBox="0 0 395.61 509.26" xmlns="http://www.w3.org/2000/svg"><path d="m386.81 288.46s-32.1 27-61.48 32.37c-20.54 3.73-114.16-114.2-91.5-118.24 45.57-8.13 137.52 11.55 152.98 85.87z" fill="#7b5673"/><path d="m159 239.61s-45.5-35.25-87.25 4.18c-26 24.54-81.15 89.74-70.38 156.12 6.49 39.99 154.13 130.74 159.63 87.27s9.37-253.89-2-247.57z" fill="#cb5d6d"/><circle cx="194.23" cy="31.18" fill="#362c4d" r="31.18"/><path d="m221.69 53.4s13.69 3.77 22.62 26.15c6.79 17 2.53 31.05 19.17 50.54s16.49 47.77-17.92 49.69c-21.36 1.2-31.69 17-50.48 12.42s-18.82-7.21-36.92-6.72c-21.15.57-31.38-4.1-38-18.21-11-23.48 9.25-34.87 9.2-55.79-.03-21.88 15.23-83.64 92.33-58.08z" fill="#362c4d"/><path d="m209.17 130.61s-.85 55.84 0 63.63 49.88 21.62 65.11 35.85-34.86 38.71-65.93 56.82c-23.82 13.89-106.86-70.36-87.41-71s53.33-13.74 52.45-28-1.39-27.29-1.39-27.29 34.35-27.84 37.17-30.01z" fill="#d27878"/><path d="m226.78 90s12.78 86.36-36.18 89.49c-33.68 2.16-50.91-54.11-42.9-81.15s58.3-28.63 79.08-8.34z" fill="#d27878"/><path d="m154.07 131.75s-6.55-15.84-13.33-8.34 2.44 26.43 9.36 25.91 7.64-11.17 3.97-17.57z" fill="#d27878"/><path d="m225.59 131.71s1.39-14.83 9-8.23-1.3 25.79-8.24 26.13-3.62-11.09-.76-17.9z" fill="#d27878"/><path d="m216.47 59.14s24.67 12.43 24.15 40.72c-.21 11-38.89 13.62-45.55 4.83s-7.07-33.1-7.07-33.1 0 29.05-11.07 36.57-41.13 3.84-38.47.35 6.78-46.44 33.48-55.26 44.53 5.89 44.53 5.89z" fill="#362c4d"/><circle cx="211.65" cy="147.94" fill="#cb5d6d" r="8.81"/><circle cx="164.82" cy="147.94" fill="#cb5d6d" r="8.81"/><g fill="#3f345c"><path d="m214.8 104.45c-8.88-9.37-11.43-44.3-11.54-45.78l2.66-.19c0 .35 2.59 35.45 10.82 44.14z"/><path d="m165.62 97.73a29.27 29.27 0 0 1 .19-14.56c1.88-7.57 7.49-18.57 23.54-27.93l1.34 2.3c-29 16.95-22.59 39.18-22.52 39.4z"/><path d="m143.08 96.94-2.53-.85c.53-1.55 13.09-38 40.75-42.47l.43 2.63c-26.06 4.25-38.52 40.33-38.65 40.69z"/><path d="m228.78 100.29-2.58-.66c.06-.23 5.62-22.88-9.72-39.58l2-1.81c16.3 17.76 10.52 41.07 10.3 42.05z"/><path d="m256.65 161.32a58.27 58.27 0 0 0 -11-34.23l2.06-1.69c.47.57 11.56 14.29 11.6 35.91z"/><path d="m233.42 173.36-1.42-2.23c.09-.06 8.84-6.29 5.22-26.21l2.62-.48c3.92 21.81-5.99 28.63-6.42 28.92z"/><path d="m157.34 179.16c-.45-.19-11.17-5-14-26.14l2.65-.36c2.64 19.49 12.35 24 12.45 24.05z"/><path d="m135.56 173.91c-.59-.23-14.45-5.81-3.15-38.11l2.52.88c-10.45 29.86 1.44 34.68 1.56 34.72z"/><path d="m199.39 42.48.9-2.22c3.34-8.3-5-25.87-5.06-26l2.4-1.16c.34.71 7.62 16.1 5.8 25.85 2.82-.86 7.64-2.85 9.48-6.82 1.44-3.11.82-7-1.84-11.52l2.31-1.35c3.13 5.34 3.78 10.05 2 14-3.26 7-13.16 8.78-13.58 8.86z"/><path d="m188.69 42a10 10 0 0 1 -5.54-5.73c-3.61-9 2.84-24 3.12-24.64l2.44 1.06c-.06.15-6.28 14.59-3.08 22.6a7.35 7.35 0 0 0 4.09 4.25z"/></g><path d="m159.68 120.89h-.05v-2.16c1.56 0 5.93-.24 7.84-1.45l1.15 1.82c-2.72 1.73-8.32 1.79-8.94 1.79z" fill="#2f1f35"/><path d="m216.17 121.24a31 31 0 0 1 -5.75-.65l.48-2.11c1.49.34 5.84 1 8 .26l.74 2a10.47 10.47 0 0 1 -3.47.5z" fill="#2f1f35"/><circle cx="164.82" cy="128.35" fill="#2f1f35" r="4.43"/><circle cx="212.68" cy="127.31" fill="#2f1f35" r="4.43"/><path d="m150.1 142-2.76-.79c1-3.58-2.88-8.1-4.47-9.55l1.92-2.13c.29.27 7.05 6.47 5.31 12.47z" fill="#cb5d6d"/><path d="m227.6 139.28-2.86-.3c.62-6.11 4.3-8.29 4.46-8.38l1.43 2.49-.72-1.25.74 1.24c-.11.06-2.58 1.63-3.05 6.2z" fill="#cb5d6d"/><path d="m191.19 121.77s6.64 17 3.53 17.7-10.72 1.3-11.67 0 4.95-22.85 8.14-17.7z" fill="#c74b66"/><path d="m136.19 184.43c-.27-.06-27.29-6.18-26.81-34.83.29-17.57 8.65-27.06 15.36-34.68 4-4.55 7.18-8.15 7.43-12.18l2.86.17c-.3 5-3.93 9.14-8.13 13.91-6.4 7.27-14.37 16.32-14.65 32.83-.44 26.31 24.29 31.91 24.54 32z" fill="#362c4d"/><path d="m265.39 175.34-.25-2.86a13.93 13.93 0 0 0 8.93-5.25c3.25-4.29 4.13-10.65 2.61-18.9-2.29-12.41-8.05-17.2-14.72-22.75-5.9-4.9-12.58-10.46-17.33-22.22l2.66-1.07c4.48 11.09 10.59 16.17 16.51 21.08 6.8 5.66 13.23 11 15.7 24.44 1.68 9.11.61 16.25-3.18 21.21a16.54 16.54 0 0 1 -10.93 6.32z" fill="#362c4d"/><path d="m244.17 150.24a1.7 1.7 0 0 1 -.41-.05c-1.74-.44-3.11-.79 4.26-50.11 2.32-15.51-.61-27.54-8.69-35.77-16.24-16.51-48.13-12.5-48.45-12.45l-.38-2.86c1.37-.17 33.65-4.22 50.88 13.3 8.75 8.9 11.94 21.75 9.48 38.2-6.11 40.92-5.8 46.78-5.56 47.6a1.19 1.19 0 0 0 -1-.72 1.33 1.33 0 0 0 -.8.13l2.53.92c-.49 1.48-1.27 1.81-1.86 1.81z" fill="#362c4d"/><path d="m166.32 201.25s13.33 40 46.48 29.55c16.83-5.29 7-32 7-32 72.53.45 87.66 73.69 89.41 89.13 6.92 61 35.87 72.78 28.37 167.9-1.21 15.29-166.18 43.42-227.72 5.5-18.21-11.19-9.3-114.53 17.54-211.33 6.14-22.08 24.77-49.4 38.92-48.75z" fill="#7b5673"/><path d="m171.34 54.58c-10-4.1-15.42-9.6-16.21-16.34-1.62-13.73 16.87-27.24 17.66-27.79l1.68 2.33c-.18.13-17.91 13.07-16.49 25.12.67 5.64 5.53 10.35 14.45 14z" fill="#362c4d"/><path d="m178.43 152.6s9-12.86 16.81-7 9.66 14.08-2.77 16.55-17.32-5.79-14.04-9.55z" fill="#f7ece9"/><path d="m9.88 310.89c-2.47 6.77 83.72 31.77 96.4 20.61s60-130.25 60-130.25c-81.96 7.54-123.94 20.61-156.4 109.64z" fill="#7b5673"/><path d="m176 239.63s-1.54-95.77 18-87 59.1 59.48 55.22 69.37-73.13 30.25-73.22 17.63z" fill="#e4b273"/><path d="m62.29 319.07s150.62-12.87 154.63-5.7-4.17 84.31-4.17 84.31 87.3 52.47 84 61-152.13 63.13-167.14 47.95-54.6-58.76-63-71.47-10.7-102.79-4.32-116.09z" fill="#362c4d"/><path d="m234.37 450.54c-20.31-4.22-52.75-12-53.79-14s27.42-8.8 46.42-13.12c4.15-.95 7.85-1.78 10.68-2.41-.77-.78-1.56-1.56-2.41-2.32-29.95-27-116.53-3.19-116.53-3.19-27.34 5.84-38.6 61.16 44.35 65.34 50.28 2.54 77.1-10.92 83.77-27.93-2.86-.45-7.28-1.29-12.49-2.37z" fill="#ebc699"/><path d="m168.82 471.29c-65.44-3.3-56.55-47-35-51.56 0 0 68.31-18.8 91.94 2.52.43.38.81.78 1.22 1.17 4.15-.95 7.85-1.78 10.68-2.41-.77-.78-1.56-1.56-2.41-2.32-29.95-27-116.53-3.19-116.53-3.19-27.34 5.84-38.6 61.16 44.35 65.34 50.28 2.54 77.1-10.92 83.77-27.93-2.87-.45-7.27-1.29-12.48-2.37-6.08 12.8-27.14 22.68-65.54 20.75z" fill="#e4b273"/><path d="m133.83 419.73c-21.56 4.61-30.45 48.26 35 51.56 38.4 1.93 59.46-8 65.55-20.75-20.31-4.22-52.75-12-53.79-14s27.41-8.8 46.41-13.12c-.41-.39-.79-.79-1.22-1.17-23.64-21.32-91.95-2.52-91.95-2.52z" fill="#ebc699"/><path d="m149.19 458a13.67 13.67 0 0 1 -12.94-5.12c-5.43-6.76 8.9-8.2 14.88-6.21s5.68 12.33-1.94 11.33z" fill="#cb5d6d"/><path d="m170.28 431.58s-5.33 3-10.36-2.7 5.38-9.85 10.11-9 6.05 11.27.25 11.7z" fill="#cb5d6d"/><path d="m184.42 466.61s-5.32 3-10.36-2.71 5.39-9.84 10.12-9 6.04 11.27.24 11.71z" fill="#cb5d6d"/><path d="m172.3 450.91s-5.32 3-10.36-2.7 5.39-9.85 10.12-9 6.04 11.27.24 11.7z" fill="#cb5d6d"/><path d="m208.33 460.31s-5.32 3-10.36-2.7 5.39-9.85 10.12-9 6.04 11.26.24 11.7z" fill="#cb5d6d"/><path d="m132.39 426.58a13.7 13.7 0 0 1 13.44 3.63c6.16 6.1-7.92 9.15-14.08 7.85s-7.04-11.59.64-11.48z" fill="#cb5d6d"/><path d="m189.44 414.15a13.7 13.7 0 0 1 13.44 3.63c6.16 6.1-7.92 9.15-14.08 7.85s-7.04-11.63.64-11.48z" fill="#cb5d6d"/><path d="m175.9 223.4s65.69-17.24 64.72-22.66-41.73-52.62-51.37-54.09-13.34 67.35-13.35 76.75z" fill="#ebc699"/><path d="m249.7 208.63s-12.7-19.82-18.14-18.73 6.65 20.56 6.65 20.56-10.63-18.87-13.6-13.38 4.88 22.81 4.88 22.81-11.26-25.33-13.8-15.67c-3.64 13.84 9.9 25.28 16 35.32s84.54 111.39 120.7 106.46 61.22-41.12 26.89-66.51c-18.04-13.39-122.85-64.62-129.58-70.86z" fill="#cb5d6d"/><path d="m193.8 163s7.76-2.15 8.27 3.85-5.79 11.46-10.27 6.14-3.41-8.92 2-9.99z" fill="#cb5d6d"/><path d="m204.09 201.25s7.76-2.14 8.27 3.85-5.79 11.47-10.27 6.14-3.4-8.92 2-9.99z" fill="#cb5d6d"/><path d="m205.72 182.06s4.15-7.14 9.57-1.45 5.19 15.21-2.71 12.75-10.1-6.76-6.86-11.3z" fill="#cb5d6d"/><path d="m188.46 202.07s-7.91 2.37-8-5.48 6.61-14.66 10.69-7.46 2.78 11.87-2.69 12.94z" fill="#cb5d6d"/><path d="m74.28 328.54c-1.47-8.31 11-37.37 12.47-40.66l2.64 1.12c-3.8 8.71-13.4 32.7-12.28 39z" fill="#362c4d"/></svg>