<svg viewBox="0 0 193.66 495.2" xmlns="http://www.w3.org/2000/svg"><path d="m31 222.06c1.54-8.67-1.73-16.2-6.32-23a40 40 0 0 1 -6.63-20.58 2.38 2.38 0 0 0 -1.53-2.56 33.09 33.09 0 0 0 .76 22.08c2.53 6.68 1.74 9.95-4.19 14.64 4-7.35 1-12.89-2.47-18.1-12-18.26-13.71-37.6-5.73-57.64 11.05-27.74 13.11-57.21 17.11-86.32a85.92 85.92 0 0 1 7.83-25.67c7.56-15.6 21.56-21.38 37.53-23.81 13.49-2.1 26.91-1.1 40.21 1.59 2.48.5 4.59-.26 6.85-.63 29-4.71 52 11.48 57.56 40.57 1.43 7.51 2.5 15.1-.89 22.47a14.8 14.8 0 0 1 -11.06.53c-11.78-3.52-22.13-9.69-31.94-16.94-2.9-2.14-5.52-4.83-9.3-5.53h.28l-1.07-1.1.1.08-1.27-1c-1.36-.27-1.55-2.21-3.34-2.18a33.73 33.73 0 0 1 -10.1 16.61 67 67 0 0 1 -17.92 11.6c-8.92 4.04-17.95 7.83-26.92 11.83-2.38 1-4.25 2.24-4.4 5.33-.31 6.28-1.64 12.49-1 18.82-3.44-3.84-4.1-8.92-5.94-13.47-2.11-5.18-4.49-10.07-9.89-12.59-7.85-3.68-13-.14-12.2 8.39a15.12 15.12 0 0 0 1.41 5.77c3.2 5.77 3.68 11.93 3.59 18.33-.07 4.44.74 8.71 5.54 10.77 4.44 1.91 8 .53 11.16-3.35a23.49 23.49 0 0 1 1.21 2.52c6.46 19.31 18 34.32 36.81 43 2 .91 2.35 2.26 2.57 4.29.77 7.27-1.79 12.88-7.65 17.1-1.29.32-2.79 0-3.73 1.31-3.56-.35-6 2.59-9.34 3-2.59-2.24-4.81-.6-7.07.67-2.08 1.16-1.22 2.66-.52 4.16-6.8 3.58-12.38 8.68-17.67 14.15a47.41 47.41 0 0 1 -6.88-28.3c-2.54 3-2.3 6.16-2 9.48.69 8.16 4.36 15.74 4.62 24-1.79 3.38-2.17 7.68-6.17 9.68z" fill="#956044"/><path d="m62.56 315.15c.07-.72.14-1.45.2-2.17 3-.54 5.86-.41 8.31 1.61 1.22 1 2.49 1.79 4.07 1.28 5.48-1.76 10.86.22 16.22.61a338.51 338.51 0 0 0 40.29.12c1.88-.09 3.47-.69 4.9 1.11a2.83 2.83 0 0 0 4.74-.09c2.07-2.73 4.7-2.75 7.57-2.5a20.16 20.16 0 0 1 -.69 7.42c-4.76 18.36-4 37.3-5.82 56-2.45 25-4.19 50-9.24 74.64-2.17 6-6.62 4.81-11.1 3.52 1.79-9 1.75-18.21 1.6-27.25-.17-10.38-2.28-20.72-3.49-31.09q-3-25.17-5.84-50.35c-.5-4.25-1.36-8.68 5.21-8.63h-16c6.21 1.11 4.06 6.52 5.36 10-1.79 1-1.47 2.82-1.58 4.43-2.51 35.55-4.58 71.14-11.39 106.23-2.77 5-4.4 5.41-12.09 3.38 2-2.11 2.08-4.75 2.24-7.42 1.09-18-1.14-35.73-3.16-53.5-2.17-19.06-4.77-38.06-6.61-57.14-.54-5.51.35-6.82-7.46-6.1-4.56-4.05-6-9.44-6.44-15.21a1.21 1.21 0 0 0 -.08-1.95c0-1.35 0-2.7 0-4.05a2.18 2.18 0 0 0 .28-2.9z" fill="#348b94"/><path d="m142.51 265.2c-3 12.46 1.59 24.05 4.06 35.89.2 1 .36 1.93.54 2.9-1.68 1.71-3.26 1-4.89-.13-2-1.32-4.2-1.06-5.36.7-2.22 3.36-5.53 3.36-8.75 3.44-7 .19-14 0-20.94.1a128.87 128.87 0 0 1 -25.72-1.92c-1.45-.28-2.77-.37-3.45-2.18-1.21-3.21-3.29-3.5-6.31-1.77-2.59 1.5-5.51 1.9-6.61-2.16 1.22-5.15 2.27-10.34 3.69-15.43 1.56-5.58 1.9-11.06 0-16.6 6.81-6.47 12-14.22 17.31-21.89 2.79-.78 4.68 1.33 6.92 2.24 1.47.6 2.7 1.45 3.59-.68 2.49-5.95 5-11.87 7.53-17.8l8.93.29c.71 4.4 1.39 8.8 2.16 13.18.24 1.33 0 3.56 2.26 3 2.91-.73 6.44-.14 8.41-3.31 6.54 1.87 8.91 7.16 10.67 13-5.77.26-11.18-1.27-16.43-3.42-1.72-.7-3.24-1.56-5.15-.51-3.63 2-7.61 2-11.64 2.08-6.32.13-12.41-1.24-18.82-2.75.79 2.42 2.55 3.18 4.13 3.83a35.42 35.42 0 0 0 17.52 2.24c5.9-.63 11.62-1.78 17.65.13a36.44 36.44 0 0 0 14.29 1.44z" fill="#348b94"/><path d="m170.9 66.05c.16 16.47-.09 32.93.92 49.39.7 11.37 3.55 21.84 9.7 31.52 5.43 8.54 9.36 17.66 7.63 28.22-1 6-4 11.22-7 16.43-3.32 5.91-7.14 11.62-5.88 20-4.3-4.61-4.16-8.7-2.47-13.17a33.65 33.65 0 0 0 .9-22.31c-.78.41-1.28.56-1.27.68.56 12.08-6.9 21.19-11.57 31.33l-6.3-5.41c1.92-7.77 5-15.5 1.37-23.46-.28 7.49-.59 14.89-4 21.81l-4.17-1.31c-1.22-2.58-1.93-5.72-5.85-5.34l-9.76-6.43c-1.48-2.12-3.85-2.75-6.07-3.64a23.45 23.45 0 0 0 -5.09-7c0-2.43 0-4.85 0-7.28 18.79-4.21 30-16.32 35.17-34.35 4.21-14.56 4.2-29.56 3.8-44.55a13.23 13.23 0 0 0 -10.72-9.18c-3.76-.39-7.53-.58-11.3-.87-1-2.45.73-3.25 2.47-3.92a15.11 15.11 0 0 1 9.2-.46c3.73.89 6.55 3.51 10.45 5.3v-8c4.94-.68 8.36-3.12 9.84-8z" fill="#956044"/><path d="m41.45 207.21c5.29-5.47 10.87-10.57 17.67-14.15 1.08 1.46 2.22 2.88 3.24 4.38q8.88 13.19 17.71 26.41a53 53 0 0 1 -6.35 15.65c-1.9 3.29-4.48 6.64-8.83 7.41-.3-1.44-.56-2.89-.9-4.32-.52-2.18 0-5.6-2.21-6.07-2.68-.57-3.52 2.83-4.8 4.85a1.74 1.74 0 0 0 -.16.47c-4.92 4.1-7.3 9.94-10.44 15.26l-1.39.64c-2.28-4.68-6.45-3.66-10.32-3.34-5.12.42-9.1 3.69-13.6 5.68 1.43-10.94 5-21.32 8.41-31.74.46-1.42 1-2.81 1.49-4.21 0-.71.06-1.41.08-2.12v.05c4-2 4.37-6.3 6.16-9.7 2.13-1.1 3.12-3.18 4.24-5.15z" fill="#d96563"/><path d="m148.81 199.73 4.19 1.27 2.62 1.65 6.3 5.41c14.15 15.46 22.45 33.85 27.28 54a29.55 29.55 0 0 0 2.24 4.95c2.77 6.11 3.48 12.17-.85 17.88-7 9.25-19.84 7.39-26.78-3.81a12.53 12.53 0 0 1 5.37 1.82 8.23 8.23 0 0 0 8.81 2.65c7.1-1.77 10.12-10.34 6.09-19.4-2.81-6.33-8.6-9-14.87-7.39a11 11 0 0 1 -7.35-2.91c-.27-.3-.53-.61-.79-.91l.08.06c-1.37-3.73-3.7-6.87-6.09-10-.06-2.36.19-4.76-1.18-6.9-.76-6.52-4.17-11.62-8.69-16.12q1.81-11.08 3.62-22.25z" fill="#c15959"/><path d="m45 257.74 1.4-.64c6.8-.31 11.85-4.27 16.92-8.17l1.58-2c4.35-.77 6.93-4.12 8.83-7.41a53 53 0 0 0 6.35-15.65c.31-2.23 1.92-3.49 3.53-4.75 2.6-1.33 5.24-2.58 7.79-4 3.42-1.93 6.41-1.91 8.87 1.52 1.81 2.31 3.2 5 5.85 6.54.35 2-.62 3.58-1.94 5a10.33 10.33 0 0 1 -5.5-1.27c-1.31-.79-1.46-3.83-3.32-2.83-2.06 1.1-5 2.31-4.3 5.79.3 4.43-2.24 7.86-4.18 11.46-.87 1.61-2.09 3-.78 4.87-5.29 7.67-10.5 15.42-17.31 21.89a82 82 0 0 1 -21.93 12c-1 .18-2.06-.06-2.8.85-2.29.35-4.57.78-6.87 1.05a8.72 8.72 0 0 1 -9.93-8.58c-.13-6.12 4.74-12.65 10.74-14.65z" fill="#fbcfa6"/><path d="m169.16 283a12.53 12.53 0 0 0 -5.37-1.82c-8-4.11-15.53-8.85-21.28-15.95l-4.4-6.15-1.55-3c-1.76-5.8-4.13-11.09-10.67-13-1.46-3.41-3-6.82-1.78-10.68 1.54-.37 3.59-.34 3.61-2.5 0-2.56-2.35-3.7-3.91-5.28-1.26-1.28-2.49-1.5-3.46.36a8.22 8.22 0 0 1 -7.22 2 4.27 4.27 0 0 1 -.71-4.1c3-1.46 3.72-4.74 5.8-6.93a4 4 0 0 1 .77-.07c3.09 1.8 6.65 2.69 9.44 5.09 3.07 2.63 3.85 1 3.67-2.13a6.82 6.82 0 0 1 6 5.82c.53 2.89 1.21 5.71 3.73 7.64v.95c0 .12-.11.25-.08.35a3.4 3.4 0 0 0 .29.57v-.06c1.51 6.54 6.86 10.24 11 14.84 2.19 2.73 4.68 5 8.09 6.17l-.08-.06c.26.3.52.61.79.91a11 11 0 0 0 7.35 2.91 35.33 35.33 0 0 1 4.18 1.53c4.84 2.49 8.19 11.44 6.44 17-1.41 4.37-4.81 6.18-10.65 5.59z" fill="#fbcfa6"/><path d="m65.07 300.06c1.1 4.06 4 3.66 6.61 2.16 3-1.73 5.1-1.44 6.31 1.77.69 1.82 2 1.91 3.46 2.19a128.87 128.87 0 0 0 25.72 1.92c7-.12 14 .09 20.94-.1 3.22-.08 6.53-.08 8.75-3.44 1.16-1.76 3.39-2 5.36-.7 1.63 1.09 3.21 1.84 4.89.13 5.37 1.78 6.17 6.84 1.75 11.13-2.87-.25-5.5-.23-7.57 2.5a2.83 2.83 0 0 1 -4.74.09c-1.43-1.8-3-1.2-4.9-1.11a338.51 338.51 0 0 1 -40.29-.12c-5.36-.39-10.74-2.37-16.22-.61-1.58.51-2.85-.27-4.07-1.28-2.45-2-5.33-2.15-8.31-1.61-5.22-3.48-4.14-9.52 2.31-12.92z" fill="#3c9ca7"/><path d="m137 468.14c3.5 3.75 7.14 7.39 10.42 11.33 1.64 2 3.46 4.47 1.89 7.23-1.4 2.47-4.22 2.4-6.7 2.36-9.26-.12-17.89-3.07-26.48-6.13-2.32-.83-2.77-2.58-2.59-4.77.31-3.81.64-7.6 2.16-11.17l2.53-2.23c1.44 3.79 4.72 3.39 7.8 3.38 2.7 0 3-2 3.22-4l2.81-.13z" fill="#724333"/><path d="m68.8 339.24c7.81-.72 6.92.59 7.46 6.1 1.84 19.08 4.44 38.08 6.61 57.14 2 17.77 4.25 35.53 3.16 53.5-.16 2.67-.27 5.31-2.24 7.42-2.12-.23-2-1.85-2-3.33 3.1-23.21-.2-46-4.17-68.82-3.06-17.32-6.76-34.53-8.82-52.01z" fill="#337377"/><path d="m44.05 280.88c.74-.91 1.83-.67 2.8-.85-5 7.54-14.49 11.82-21.15 9.52-9-3.12-12.88-13.32-8.44-22.53 1.14-2.37 2.53-4.63 3.81-6.94 4.5-2 8.48-5.26 13.6-5.68 3.87-.32 8-1.34 10.32 3.34l-7 1c-3.08-2.68-5.48.09-7.74 1.32-5.89 3.19-8 11.83-5.1 19.59 1.52 4.13 5.84 6.1 11.7 5.37 3.03-.35 5.24-2.02 7.2-4.14z" fill="#c15959"/><path d="m170.9 66.05c-1.48 4.88-5 7.32-9.84 8-18.42-4.38-30.34-17.65-42.27-30.9 3.78.7 6.4 3.39 9.3 5.53 9.81 7.25 20.16 13.42 31.94 16.94a14.8 14.8 0 0 0 11.06-.53 1.19 1.19 0 0 1 -.19.96z" fill="#724333"/><path d="m81.75 460.07c.07 1.48-.08 3.1 2 3.33 7.69 2 9.32 1.57 12.09-3.38 2.16 1.88.43 5 2.19 7-1 1.31-2.79 1.84-3.34 3.55a2.16 2.16 0 0 0 -2.54.42l-10.7.08h-2.3l-1.05-4c2.09-1.86-1.05-6.47 3.65-7z" fill="#b9c4cb"/><path d="m132.08 464-2.81.13-11.13.14c-3.19-4.34-2.86-9.2.76-11.19-.13 2.21.7 3.59 3.11 3.6 4.48 1.29 8.93 2.48 11.1-3.52 2.23 3.84 1.01 7.37-1.03 10.84z" fill="#b9c4cb"/><path d="m31.05 222c0 .71-.05 1.41-.08 2.12-1.97-.77-1.12-1.45.08-2.12z" fill="#956044"/><path d="m62.56 315.15a2.18 2.18 0 0 1 -.26 2.85c.09-.93.17-1.89.26-2.85z" fill="#3c9ca7"/><path d="m62.28 322.08a1.21 1.21 0 0 1 .08 1.95c-.03-.65-.05-1.3-.08-1.95z" fill="#3c9ca7"/><path d="m118.79 43.16c11.93 13.25 23.85 26.52 42.27 30.9v8c-3.9-1.79-6.72-4.41-10.45-5.3a15.11 15.11 0 0 0 -9.2.46c-1.74.67-3.47 1.47-2.47 3.92-3.85 3.07-7.68 6.17-9.87 10.76-7.2 7.12-6.84 16.06 1 25.71 4.87 6 4.71 7.63-1.22 12.51l-1.85.88-.89.21.27.45.67-.6a3.49 3.49 0 0 0 3-.92l1.89-.24c8.39-1.09 12.19-6.09 9.72-13.05-1-2.79-2.71-5.31-3.69-8.1-1.19-3.4-2.48-7.06 1.73-9.6.65 3.76 3.83 2.16 5.94 2.83 4.24.33 8.13 0 9.59-5 3.38-.53 3.38-4.3 5.65-5.9.4 15 .41 30-3.8 44.55-5.2 18-16.38 30.14-35.17 34.35h-11.91c-8.3-7-8.38-17-9.24-27.43-5.07 7-4.87 14.26-4.73 21.52-5.93-1.6-10.59-5.37-15.38-9-9.8-7.34-16.5-17-21.4-28.09-3.38-7.61-4.88-15.74-6.06-23.93-.66-6.33.67-12.54 1-18.82.15-3.09 2-4.3 4.4-5.33 9-3.92 18-7.75 26.9-11.82a67 67 0 0 0 17.92-11.6 33.73 33.73 0 0 0 10.1-16.61c1.79 0 2 1.91 3.34 2.18l1.27 1-.1-.08c0 .68.36 1.09 1.09 1.09zm-25.36 58.84c3.43-.3 7.42 1.22 9.68-3 5.44-.53 6.71-2.13 7-7.41.27-4.49-2.22-7.77-4-11.39 3.7-2.6.08-3.51-1.26-4.31-8.56-5.07-27.23-.49-32.85 7.91-1.13 1.68-1.62 3 1 3.45 0 2.45 0 4.92.2 7.36a4.61 4.61 0 0 0 3.18 4c1.81.67 3.23.4 3.88-1.65 1.71 4.37 5.11 5.62 9.46 5.09zm9.89 37.65c9.77-1.12 18.85-.79 27 5.09-.35-1.72 4.16-3.62.45-5.52-6.8-3.49-14.28-4-21.77-2.79-1.85.29-4.4.15-5.68 3.22z" fill="#fbcfa6"/><path d="m53.17 103.11c1.18 8.19 2.68 16.32 6.06 23.93 4.9 11 11.6 20.75 21.4 28.09 4.79 3.59 9.45 7.36 15.38 9a20.63 20.63 0 0 0 7.88 9.29 74.67 74.67 0 0 1 9.29 6.55c3.3 2.78 6.26 6 6 10.81-2.45.45-4.76 1.7-7.36 1.25.29-2.08 1.37-4.59-1.37-5.64-5.76-2.22-9.64-6.22-11.94-13.1-1.39 7.53.43 12.18 6.37 14.81 2.17 1 3.54 2.44 3.07 5-10.15-.79-19.78-3.17-28.22-9.21 5.86-4.22 8.42-9.83 7.65-17.1-.22-2-.59-3.38-2.57-4.29-18.84-8.69-30.35-23.7-36.81-43a23.49 23.49 0 0 0 -1.16-2.5c-3.13 3.88-6.72 5.26-11.16 3.35-4.8-2.06-5.61-6.33-5.54-10.77.09-6.4-.39-12.56-3.59-18.33a15.12 15.12 0 0 1 -1.41-5.77c-.83-8.53 4.35-12.07 12.2-8.39 5.4 2.52 7.78 7.41 9.89 12.59 1.84 4.51 2.5 9.59 5.94 13.43zm-10.94 3.71c.87-3.26 1.21-6.29-.91-8.82-2-2.38-4.16-2.54-6.32-.17a2.16 2.16 0 0 0 0 2.76c.48.81 1.18 1.31 2 .49 3.61-3.78 3.74-.62 4.24 2a37.68 37.68 0 0 0 .99 3.74z" fill="#f7bc8f"/><path d="m138.11 224.61a6.82 6.82 0 0 0 -6-5.82l-1.78-.75-1.25-1 .08.06-1-.88c-3-.88-5.9-5.55-9.15-.34a4 4 0 0 0 -.77.07c-.65-3.55-3.15-1.87-5-1.65-2.45.3-1.92 2.11-1.6 3.76s.52 3.21.78 4.82a4.27 4.27 0 0 0 .71 4.1c0 1.09 0 2.18-.07 3.26l-8.93-.29c0-.59 0-1.19 0-1.78 1.32-1.39 2.29-2.92 1.94-5 .61-1.33 1.13-2.71 1.86-4 1.69-2.87.42-4.06-2.22-5.44-3.67-1.92-4 1.33-5.49 2.87-2.46-3.43-5.45-3.45-8.87-1.52-2.55 1.43-5.19 2.68-7.79 4-4.7-10.8-10.9-20.78-16.89-30.87 3.3-.45 5.78-3.39 9.34-3a14 14 0 0 0 6.49 5.79c9.71 5 20.13 7 31 7.23-7.68 4.81-8.58 6.74-5.67 13.26 1.39-3.37 3.85-5.33 6.53-7a34.1 34.1 0 0 0 11.34-11.6c3.81.3 3.87-5 7.49-5l9.81 6.42c-1.42 10.18-2.53 20.34-4.89 30.3z" fill="#d96563"/><path d="m66.71 188.23c6 10.09 12.19 20.07 16.89 30.87-1.61 1.26-3.22 2.52-3.53 4.75q-8.85-13.2-17.71-26.41c-1-1.5-2.16-2.92-3.24-4.38-.7-1.5-1.56-3 .52-4.16 2.26-1.27 4.48-2.9 7.07-.67z" fill="#337377"/><path d="m113.46 198.24c-10.83-.24-21.25-2.24-30.96-7.24a14 14 0 0 1 -6.45-5.82c.94-1.3 2.44-1 3.73-1.31 8.44 6 18.07 8.42 28.22 9.21.09.61 0 1.47.32 1.77 1 .83 1.13-.48 1.61-.87a24.45 24.45 0 0 0 1.94-2c2.6.45 4.91-.8 7.36-1.25.32 4.27-2.32 6.19-5.77 7.51z" fill="#c15959"/><path d="m41.45 207.21c-1.12 2-2.11 4-4.28 5.15-.26-8.23-3.93-15.81-4.62-24-.28-3.32-.52-6.53 2-9.48a47.41 47.41 0 0 0 6.9 28.33z" fill="#b9c4cb"/><path d="m119.07 43.15c-.73 0-1-.41-1.09-1.09z" fill="#724333"/><path d="m118.08 42.14-1.27-1z" fill="#724333"/><path d="m118.9 453.06c3-21.69.48-43.08-3.35-64.43-2.34-13.07-4.47-26.18-6.7-39.27-1.3-3.5.85-8.91-5.36-10h16c-6.57 0-5.71 4.38-5.21 8.63q2.93 25.18 5.84 50.35c1.21 10.37 3.32 20.71 3.49 31.09.15 9 .19 18.25-1.6 27.25-2.41-.03-3.24-1.41-3.11-3.62z" fill="#337377"/><path d="m92.19 471a2.16 2.16 0 0 1 2.54-.42c4.88 5 10.36 9.38 14.52 15 1.52 2.08 3.41 4.53 1.86 7.27-1.4 2.47-4.24 2.37-6.72 2.32-9.26-.2-18-2.93-26.51-6.17a3.56 3.56 0 0 1 -2.59-3.82c.39-4.95.37-10 3.86-14.14h2.34c-.36 4.47 2.53 4.83 6 5.05 3.92.27 4.62-2.02 4.7-5.09z" fill="#724333"/><path d="m104.17 228.12v1.78c-2.51 5.93-5 11.85-7.53 17.8-.89 2.13-2.12 1.28-3.59.68-2.24-.91-4.13-3-6.92-2.24-1.31-1.88-.09-3.26.78-4.87 1.94-3.6 4.48-7 4.18-11.46a5.28 5.28 0 0 0 3.62-2.38c.9-1.45 2-1.69 3.22-.48-4.56 4.3-6.49 10.21-9.41 15.51a1.25 1.25 0 0 0 .58 1.7 1.24 1.24 0 0 0 2-.62c2.45-5.53 6.43-10.36 7.49-16.52l.12-.17a10.33 10.33 0 0 0 5.46 1.27z" fill="#f7bc8f"/><path d="m113.06 230.19c0-1.08 0-2.17.07-3.26a8.22 8.22 0 0 0 7.22-2c1.76 2.22.3 6.07 3.76 7.42-1.19 3.86.32 7.27 1.78 10.68-2 3.17-5.5 2.58-8.41 3.31-2.26.57-2-1.66-2.26-3-.77-4.34-1.45-8.75-2.16-13.15z" fill="#f8f7f5"/><path d="m136.56 256 1.55 3a36.44 36.44 0 0 1 -14.29-1.44c-6-1.91-11.75-.76-17.65-.13a35.42 35.42 0 0 1 -17.52-2.24c-1.58-.65-3.34-1.41-4.13-3.83 6.41 1.51 12.5 2.88 18.82 2.75 4-.08 8-.08 11.64-2.08 1.91-1.05 3.43-.19 5.15.51 5.25 2.2 10.66 3.73 16.43 3.46z" fill="#337377"/><path d="m160.91 91.11c-2.27 1.6-2.27 5.37-5.66 5.9-.05-.85-.11-1.71-.17-2.56l1.5-1.9c-3.36-2.17-6.85-3.89-11-3.45-3.63.38-6.13 2-6.6 5.89-.75.21-1.54.42-1.63 1.38-.11 1.22.81 1.52 1.72 1.81l.7 1c-4.21 2.54-2.92 6.2-1.73 9.6 1 2.79 2.7 5.31 3.69 8.1 2.47 7-1.33 12-9.72 13.05.55-.63 1.07-1.28 1.64-1.87 5.54-5.66 5.53-7.22-.11-13-.57-.6-1.17-1.18-1.76-1.77a14.38 14.38 0 0 1 -4.08-14.6c.57-2.24 1-4.53 1.41-6.81 2.19-4.59 6-7.69 9.87-10.76 3.77.29 7.54.48 11.3.87a13.23 13.23 0 0 1 10.63 9.12z" fill="#f7bc8f"/><path d="m113.46 198.24c3.45-1.32 6.09-3.27 5.77-7.5.21-4.84-2.75-8-6-10.81a74.67 74.67 0 0 0 -9.29-6.55 20.63 20.63 0 0 1 -7.94-9.29c-.14-7.26-.34-14.53 4.73-21.52.87 10.43.95 20.43 9.27 27.43 2.86 4.31 7.75 5.29 12 7.29a23.45 23.45 0 0 1 5.09 7c.35 3-.49 5.82-1.42 8.62a34.1 34.1 0 0 1 -11.34 11.6c-2.68 1.63-5.14 3.59-6.53 7-2.92-6.51-2.02-8.46 5.66-13.27z" fill="#f8f7f5"/><path d="m138.11 224.61c2.36-10 3.47-20.12 4.85-30.23 3.92-.37 4.63 2.77 5.85 5.35q-1.83 11.18-3.64 22.35c-1.1 3.39-1.28 7.08-3.33 10.17-2.52-1.93-3.2-4.75-3.73-7.64z" fill="#337377"/><path d="m155.6 202.69-2.6-1.69c3.4-6.92 3.71-14.32 4-21.81 3.59 8 .52 15.73-1.4 23.5z" fill="#b9c4cb"/><path d="m122 177.29c-4.26-2-9.15-3-12-7.29h12z" fill="#f7bc8f"/><path d="m125.66 192.94c.93-2.8 1.77-5.61 1.42-8.62 2.22.89 4.59 1.52 6.07 3.64-3.62-.03-3.68 5.28-7.49 4.98z" fill="#c15959"/><path d="m63.31 248.93c-5.07 3.9-10.12 7.86-16.92 8.17 3.13-5.32 5.51-11.16 10.43-15.26 1.04 3.39 3.7 5.3 6.49 7.09z" fill="#b4d9dc"/><path d="m63.31 248.93c-2.79-1.79-5.45-3.7-6.49-7.09a1.74 1.74 0 0 1 .16-.47c1.28-2 2.12-5.42 4.8-4.85 2.22.47 1.69 3.89 2.21 6.07.34 1.43.6 2.88.9 4.32z" fill="#956044"/><path d="m169.16 283c5.82.62 9.24-1.19 10.65-5.64 1.75-5.53-1.6-14.48-6.44-17a35.33 35.33 0 0 0 -4.18-1.53c6.27-1.58 12.06 1.06 14.87 7.39 4 9.06 1 17.63-6.09 19.4a8.23 8.23 0 0 1 -8.81-2.62z" fill="#aa4e4c"/><path d="m153 248.9c-4.13-4.6-9.48-8.3-11-14.84 4.63-.59 7.6 3.53 11.81 4.14 1.37 2.14 1.12 4.54 1.18 6.9z" fill="#348b94"/><path d="m153.86 238.2c-4.21-.61-7.18-4.73-11.81-4.14v.06a4.9 4.9 0 0 0 -.21-.92c0-.32 0-.64 0-.95 2-3.09 2.23-6.78 3.33-10.17 4.52 4.5 7.93 9.6 8.69 16.12z" fill="#d96563"/><path d="m153 248.9 2-3.8c2.39 3.1 4.72 6.24 6.09 10-3.37-1.16-5.86-3.47-8.09-6.2z" fill="#b4d9dc"/><path d="m161.84 255.92c-.27-.3-.53-.61-.79-.91.26.3.52.61.79.91z" fill="#b4d9dc"/><path d="m44.05 280.88c-2 2.11-4.17 3.79-7.16 4.16-5.86.73-10.18-1.24-11.7-5.37-2.87-7.76-.79-16.4 5.1-19.59 2.26-1.23 4.66-4 7.74-1.32-6.07 2-10.9 8.53-10.78 14.59a8.72 8.72 0 0 0 9.93 8.58c2.3-.27 4.58-.7 6.87-1.05z" fill="#aa4e4c"/><path d="m100.26 216.61c1.5-1.54 1.82-4.79 5.49-2.87 2.64 1.38 3.91 2.57 2.22 5.44-.73 1.26-1.25 2.64-1.86 4-2.65-1.58-4.04-4.26-5.85-6.57z" fill="#f8f7f5"/><path d="m97.89 227c-1.27-1.21-2.32-1-3.22.48a5.28 5.28 0 0 1 -3.62 2.38c-.71-3.48 2.24-4.69 4.3-5.79 1.86-1 2 2 3.32 2.83l-.11.17a1.69 1.69 0 0 1 -.67-.07z" fill="#d96563"/><path d="m119 215.83c3.25-5.21 6.13-.54 9.15.34.33.3.67.59 1 .88l-.08-.06 1.25 1 1.78.75c.18 3.14-.6 4.76-3.67 2.13-2.79-2.35-6.35-3.24-9.43-5.04z" fill="#f7bc8f"/><path d="m112.42 222.83c-.26-1.61-.48-3.22-.78-4.82s-.85-3.46 1.6-3.76c1.83-.22 4.33-1.9 5 1.65-2.1 2.19-2.86 5.47-5.82 6.93z" fill="#f8f7f5"/><path d="m124.11 232.37c-3.46-1.35-2-5.2-3.76-7.42 1-1.86 2.2-1.64 3.46-.36 1.56 1.58 3.92 2.72 3.91 5.28-.02 2.13-2.07 2.13-3.61 2.5z" fill="#d96563"/><path d="m141.88 233.2a4.9 4.9 0 0 1 .21.92 3.4 3.4 0 0 1 -.29-.57c-.03-.1.05-.23.08-.35z" fill="#348b94"/><g fill="#f7bc8f"><path d="m118.25 464.76a.77.77 0 0 1 -.11-.51l11.13-.14c-.19 2-.52 4-3.22 4-3.05.04-6.36.44-7.8-3.35z"/><path d="m92.19 471c-.08 3.09-.78 5.38-4.74 5.13-3.43-.22-6.32-.58-6-5.05z"/><path d="m106.1 80.25c1.81 3.62 4.3 6.9 4 11.39-.31 5.28-1.58 6.88-7 7.41a18.49 18.49 0 0 0 -3.7-6.92c-3.66-4.53-8.4-5.4-14.69-2.73-2.93 1.25-5.28 3.7-9.63 3.73l5 3.3a.68.68 0 0 1 .26.55c-.65 2-2.07 2.32-3.88 1.65a4.61 4.61 0 0 1 -3.18-4c-.22-2.44-.15-4.91-.2-7.36 3.57-.49 6.5-2.37 9.28-4.45 5.13-3.83 10.84-4.48 16.94-3.49 2.23.35 4.52.61 6.8.92z"/></g><path d="m106.1 80.25c-2.28-.31-4.57-.57-6.84-.94-6.1-1-11.81-.34-16.94 3.49-2.78 2.08-5.71 4-9.28 4.45-2.66-.46-2.17-1.77-1-3.45 5.62-8.4 24.29-13 32.84-7.86 1.3.8 4.92 1.71 1.22 4.31z" fill="#956044"/><path d="m80 96.43-5-3.3c4.35 0 6.7-2.48 9.63-3.73 6.29-2.67 11-1.8 14.69 2.74-1.9 1.82-2.8-2.64-4.71-.75 3.79 4 3.48 6.59-1.27 10.61l-3.67.07c-4.31-2-4.82-5.61-3.77-9.88-2.78.81-4.17 2.7-5.9 4.24z" fill="#424547"/><path d="m138.94 95c.47-3.91 3-5.51 6.6-5.89 4.19-.44 7.68 1.28 11 3.45l-1.5 1.9c-2.06-1.09-3.73-3.38-6.54-2.08 2.59 4.85 2.12 6.41-2.87 9.64-2.11-.67-5.29.93-5.94-2.83l-.7-1z" fill="#424547"/><path d="m129.07 91.85c-.46 2.28-.84 4.57-1.41 6.81a14.38 14.38 0 0 0 4.08 14.6c.59.59 1.19 1.17 1.76 1.77 5.64 5.81 5.65 7.37.11 13-.57.59-1.09 1.24-1.64 1.87l-1.89.24-1.2-.1c5.93-4.88 6.09-6.53 1.22-12.51-7.87-9.62-8.23-18.53-1.03-25.68z" fill="#ec9472"/><path d="m103.32 139.65c1.28-3.07 3.83-2.93 5.66-3.22 7.49-1.21 15-.7 21.77 2.79 3.71 1.9-.8 3.8-.45 5.52-8.13-5.88-17.21-6.21-26.98-5.09z" fill="#ec9472"/><path d="m93.43 102c4.75-4 5.06-6.57 1.27-10.61 1.91-1.89 2.81 2.57 4.71.75a18.37 18.37 0 0 1 3.7 6.91c-2.26 4.17-6.25 2.65-9.68 2.95z" fill="#f8f7f5"/><path d="m145.67 102c5-3.23 5.46-4.79 2.87-9.64 2.81-1.3 4.48 1 6.54 2.08.06.85.12 1.71.17 2.56-1.45 5-5.34 5.34-9.58 5z" fill="#f8f7f5"/><path d="m80 96.43c1.73-1.54 3.12-3.43 6-4.24-1 4.27-.54 7.91 3.77 9.88-4.35.53-7.75-.72-9.46-5.09a.68.68 0 0 0 -.31-.55z" fill="#f8f7f5"/><path d="m128.88 130.07 1.2.1a3.49 3.49 0 0 1 -3 .92v-.06z" fill="#f7bc8f"/><path d="m127.09 131.09-.67.6-.27-.45.85-.24z" fill="#f7bc8f"/><path d="m111.87 192a24.45 24.45 0 0 1 -1.94 2c-.48.39-.65 1.7-1.61.87-.35-.3-.23-1.16-.32-1.77.47-2.59-.9-4.07-3.07-5-5.94-2.63-7.76-7.28-6.37-14.81 2.3 6.88 6.18 10.88 11.94 13.1 2.74 1.01 1.66 3.52 1.37 5.61z" fill="#f8f7f5"/><path d="m42.23 106.82a37.68 37.68 0 0 1 -1.06-3.69c-.5-2.67-.63-5.83-4.24-2-.79.82-1.49.32-2-.49a2.16 2.16 0 0 1 0-2.76c2.16-2.37 4.33-2.21 6.32.17 2.19 2.48 1.85 5.51.98 8.77z" fill="#ec9472"/><path d="m130.32 218-1.25-1z" fill="#fbcfa6"/><path d="m129.15 217.05c-.34-.29-.68-.58-1-.88.32.3.66.59 1 .88z" fill="#fbcfa6"/><path d="m97.89 227a1.69 1.69 0 0 0 .67.07c-1.07 6.16-5 11-7.5 16.52a1.24 1.24 0 0 1 -2 .62 1.25 1.25 0 0 1 -.58-1.7c2.92-5.35 4.85-11.26 9.41-15.51z" fill="#956044"/><path d="m138.94 95 .09 3.19c-.91-.29-1.83-.59-1.72-1.81.09-.97.88-1.18 1.63-1.38z" fill="#fbcfa6"/></svg>