<svg viewBox="0 0 569.28 415.33" xmlns="http://www.w3.org/2000/svg"><path d="m239.8 258.19c.28 7.32.66 14.63.8 21.95.05 2.6 2 3.21 3.57 4.32 15.21 10.83 22.3 25.94 23.29 44.25v1.5c-.05 3.1-1.4 5.18-4.7 5.23-3.06.05-4.4-1.86-4.67-4.74-.39-4.14-.51-8.29-1.49-12.38a43 43 0 0 0 -14.6-23.56c-1.33 3.42.32 6.51.7 9.58 6.83 55.12-30 102.86-84.82 109.67-51.7 6.43-100.85-32.57-106.56-84.26a96.63 96.63 0 0 1 12.57-60.41c1.79-3.1 2.39-4.58-2-6.13-14.13-5-18.27-16.78-19.09-30.39-.13-2.15.07-4.33.12-6.49h9.47c-.17 5.17-.38 10.33 1.16 15.37 2.22 7.28 6.88 11.87 14.34 13.82 2.38.63 3.51.29 4.7-1.91 16.55-30.54 34.43-60.35 50.1-91.37 11.34-22.45 36.24-35.32 62.48-32 24.22 3.09 46 23.11 49.94 47.26 1.91 11.78 1.66 23.91 2.37 35.87.12 2 .21 4 .3 6 .75 10.61.46 21.28 1.83 31.85v1 2zm-104.49-43.81c3.35-.61 6.17.9 9.15.91 1.11 0 2.62.5 2.74-1.2s-1.44-1.55-2.54-1.73c-6.21-1-12.42-2.15-18.65-3-4.87-.67-10.12 2.5-12.2 7a11.6 11.6 0 0 0 2.9 14.07c7.17 5.73 13.08 12.73 19.79 18.91.95.88 1.76 3.22 3.43 1.75 2.11-1.87-.56-2.81-1.48-3.77-4.17-4.36-8.5-8.57-13-13.11 10.74-3.65 13.45-9.35 9.86-19.83zm9.69-25.46c-6-3.16-10.4-2.11-12.4 2.38a7.53 7.53 0 0 0 4.27 10.18c4.09 1.66 7.6-.1 9.43-4.84-2.75 1-5.48 1.25-6.51-2-1.21-3.84 2.05-4.59 5.21-5.72zm44.54.76c-4.86-3.82-9.55-3.4-12.07.5a7.79 7.79 0 0 0 2.53 10.82c4 2.35 8.12.9 10.25-3.79-3 .28-6.18.25-6.37-3.6-.14-3.05 2.12-4.12 5.66-3.93zm-3.12-25.9c-.94-.44-1.29-.76-1.51-.68-12.7 4-23.84.56-34.1-7.11-.82-.61-1.81-1.35-2.47-.12s.55 1.77 1.33 2.35c8.43 6.16 17.64 10 28.3 8.86 2.81-.3 5.86-.56 8.45-3.3zm-41 2a41.66 41.66 0 0 0 20.58 10.55 28.84 28.84 0 0 0 16.17-1.11c.81-.29 1.71-.71 1.51-1.63-.31-1.46-1.38-.91-2.34-.61-11.65 3.57-21.87.2-31.47-6.39-.95-.68-1.78-2.14-4.48-.81z" fill="#403227"/><path d="m443.44 171.29a291 291 0 0 0 15.18 27.31 5.73 5.73 0 0 0 2.47 4.76c3.15 5.81 6.39 11.57 9.38 17.45 1.33 2.62 2.55 2.81 4.84 1.09a11.86 11.86 0 0 1 9.47-2c2.75.51 4.35.33 4.69-3a7.33 7.33 0 0 1 4.6-6.07c2.57-1.06 3-2.43 2.21-4.93-.49-1.49-.27-3.21-.37-4.83l20.45-.1c.76 5.48-.61 9.91-6 12.37-1.43.65-1.58 1.4-1.27 3.09 1.43 7.77-1.25 11.69-9.27 13.47-2.05.46-2.31 1.2-2.17 2.92.56 7.13-2.48 12.29-9 15.14-2.57 1.13-1.6 2.36-.79 3.83 3.87 7 7.89 13.88 11.61 20.94a96.42 96.42 0 0 1 -61.74 138.85c-1.12.28-2.28.43-3.42.64-1.27-1.45-2.92-1.22-4.6-1.18-5.49.14-11 .39-16.46.22-20.59-.65-39.62-6.09-56.11-18.92-18.6-14.47-29.51-33.8-35.52-56.26-.64-2.39 0-5.53-3.16-6.8-1.76-9.88-.61-19.71.81-29.89-5.31 1.51-9.72.69-13.18-3.46-1.3-1.57-3.12-.64-4.7-.77-5.24-.43-9.78-4.35-9.58-9.53.13-3.52-.74-5-4.09-5.56-1.2-.2-2.25-1.32-3.36-2l-.42-1.06 4-.54h.36l7.77.37c4.18-.75 8.38-.3 12.57-.26 1.62 3.54 5 2.68 7.86 3.4 3.47.86 4.81.32 4.31-3.32 5.69-.48 3.74 3.85 3.86 6.51.15 3.44.83 6.4 4.48 7.44s6.17-.5 7.43-4c.62-1.69 1.1-1.67 2.8-1 5 2.09 7.31.88 8.95-4.22.39-1.2 0-2.42 2.23-2.29 6.34.4 4.17-4.73 4.43-7.84s.54-7.29-5-6.08c-.73.16-1.25.31-1.47-.59-1.77-7.11-6.36-6.21-11.48-3.57 0-4.78-1.55-8.14-6.51-7.9-4.66.23-6 3.57-5.8 7.7.12 2.34-.22 4.05-3.16 3.56.05-2.64-.24-5.33.22-7.89.77-4.39-.84-6.1-5.14-5.57l.21-29.52c2.1 0 4.2 0 6.29-.19 1.18-.08 2.83.5 3.25-1.25.56-2.36-1.64-1.82-2.78-2.38l.93-24.17zm-50.62 37c2-2.29 1.95-4.49-.3-6.6-1.15-4.07-4.25-4.89-7.77-4.16a7.11 7.11 0 0 0 -6 7.06c-.15 3.46 1.58 6.34 4.92 7.34 3.75 1.16 7.33.76 9.15-3.6zm41.59-20.2c-5.36-2.32-9.53-.77-11 4.09a7.64 7.64 0 0 0 5.48 9.58c4.55 1.27 8.22-1.67 9.34-7.48.84-3.28-.35-5.45-3.82-6.15zm-2.53 33.48-17.76 4.66c-1.12.3-2.22.67-3.35.91-1.74.37-2.27.9-1 2.61 6 8 15.48 7.35 20-1.47a14.45 14.45 0 0 0 2.11-6.67z" fill="#e03071"/><path d="m325.53 182.21c3.05-24.28 16.87-40 39-49 1.5 1.81 3.29 1 5 .56a56.94 56.94 0 0 1 32.84.49 55.64 55.64 0 0 1 33.28 27.93 22.49 22.49 0 0 0 -3.49.14c-18.76 3.52-37.5 7.12-56.26 10.62-16.74 3.14-33.56 6.18-50.37 9.26z" fill="#e03071"/><path d="m516.36 201.06-20.44.1c-6.82.1-6.95.1-7 6.56 0 4.07-1.48 7-5.69 7.29-4 .29-5.86-2.43-6.36-6.17-.1-.73.2-1.65-.81-2-4.69 3.23-8.68 3.09-9.73-1.08s-3.13-2.52-5.28-2.37a5.73 5.73 0 0 1 -2.47-4.76c.06-1.49.14-3 .2-4.48.2-5.11 1.35-5.92 6.47-4.55.74-7.72 3-9.22 10-6.31 2.24.94 1.63-.94 1.89-1.58 1.3-3.2 3.54-5 7-4.26s5.12 3.23 4.77 6.61c-.45 4.25 1.24 5.22 5.29 5.14 13.66-.26 27.32-.11 41-.11 2 0 4.17.46 4-2.79-.28-4.28.27-8.54 5.59-8.89 5.13-.33 6.6 3.57 6.64 8.14 6.62-3.63 8.2-3.21 11.14 3.38.81 1.81 1.31.54 2 .38 3.38-.77 4.59 1.06 4.75 4 .08 1.49 0 3 0 4.5-.08 5.5-1.14 6.33-6.5 5.14-.67 8.08-4.42 10-11 5.63a19.58 19.58 0 0 1 -1.82 4c-1.62 2.16-3.89 3.19-6.59 2.22-3.06-1.1-4.13-3.47-4.25-6.64-.26-7.47-.34-7.51-7.78-7.47-5.06.05-10.04.25-15.02.37z" fill="#4b2d3a"/><path d="m308.62 276.7c-4.19 0-8.39-.49-12.57.26l-7.77-.37a4.53 4.53 0 0 1 -.3.46l-.46-.45.4-.06-4 .54-.37.26-.49-.06c-7.91-.22-8-.22-8.36 7.49-.17 3.61-2 5.76-5.29 6.18-3.69.47-5.88-1.77-6.72-5.28a19.27 19.27 0 0 1 -.25-3c-6.29 3.84-7.34 3.6-11-3.33-.91-1.72-1.55-.43-2.23-.24-2.21.58-4-.37-4.27-2.29a28.61 28.61 0 0 1 .07-9.9c.78-3.33 3.81-2.19 6.29-1.43 0-3.21.15-6.17 3.61-7.64 3-1.28 5.1.16 7.22 2.25.53-1.6 1-3.12 1.52-4.63 2.31-1.71 4.66-3.18 7.66-1.64 2.46 1.26 3.77 3.33 3.3 6-.82 4.76 1.54 5.73 5.54 5.15 1.13-.16 2.28-.18 3.42-.26 5.39.09 10.79.75 16.16-.28a100.83 100.83 0 0 0 21.83.09c2.94.49 3.28-1.22 3.16-3.56-.21-4.13 1.14-7.47 5.8-7.7 5-.24 6.48 3.12 6.51 7.9 5.12-2.64 9.71-3.54 11.48 3.57.22.9.74.75 1.47.59 5.53-1.21 5.26 2.87 5 6.08s1.91 8.24-4.43 7.84c-2.2-.13-1.84 1.09-2.23 2.29-1.64 5.1-3.92 6.31-8.95 4.22-1.7-.7-2.18-.72-2.8 1-1.26 3.48-3.83 5-7.43 4s-4.33-4-4.48-7.44c-.12-2.66 1.83-7-3.86-6.51a54.42 54.42 0 0 0 -12.18-.1z" fill="#4b2d3a"/><path d="m325.53 182.21c16.81-3.08 33.63-6.12 50.44-9.26 18.76-3.5 37.5-7.1 56.26-10.62a22.49 22.49 0 0 1 3.49-.14 5.47 5.47 0 0 0 3.58-1c5.69-1.28 8.7 1.68 7.95 7.79-.29 2.42-2.48 1.66-3.81 2.35l-118.9 22.29c-4.76 2.06-5.27-1.1-6-4.58-.79-3.75-.5-6.18 4.17-5.95a9.32 9.32 0 0 0 2.82-.88z" fill="#7e264b"/><path d="m264.62 47.27c0-14.28.15-28.57 0-42.84 0-3.57 1.11-4.56 4.51-4.42 5.8.24 11.63.25 17.43 0 3.17-.13 3.94 1.06 3.88 4-.17 7.64-.07 15.28-.07 22.92-2.56.6-1.91 2.68-1.94 4.37-.08 5.24-.07 10.48-.09 15.71z" fill="#e03071"/><path d="m288.3 47c0-5.23 0-10.47.1-15.71 0-1.69-.62-3.77 1.94-4.37 2.49 1.44 1.45 3.87 1.46 5.86q.07 89.63-.09 179.25c0 4.75 1.07 6.3 6 6 8.62-.48 17.28-.27 25.93-.34 1.14.56 3.34 0 2.78 2.38-.42 1.75-2.07 1.17-3.25 1.25-2.09.15-4.19.14-6.29.19l-4.63.06-7.5-.14h-5.36l-6.7-.06c-1.37-.45-3.11.36-4.14-1.22 0-.68-.09-1.36-.14-2l-.07-4.8c0-1.8 0-3.59-.05-5.39q0-6.28 0-12.58c0-1.8 0-3.6 0-5.4v-12.54l.05-5.4q-.06-6.28-.13-12.56c0-.41.05-.82.07-1.23.05-1 .09-2 .14-3.06 0-.36 0-.73-.05-1.1q-.06-6.3-.11-12.59v-4.58-13.39c0-1.53.05-3.06.07-4.59q0-6.28.07-12.57l.06-6.22c0-3.91-.07-7.82-.11-11.73 0-1.81 0-3.61 0-5.42q0-6.28 0-12.56c0-1.8 0-3.61 0-5.41q0-6.3 0-12.61z" fill="#452c18"/><path d="m283.57 264.74c-1.14.08-2.29.1-3.42.26-4 .58-6.36-.39-5.54-5.15.47-2.7-.84-4.77-3.3-6-3-1.54-5.35-.07-7.66 1.64.73-3.49-4-1.42-4.11-4l2.93-.37h12.31 4.78 24.83 8.09 4.16c4.3-.53 5.91 1.18 5.14 5.57-.46 2.56-.17 5.25-.22 7.89a100.83 100.83 0 0 1 -21.83-.09c-5.14-5.67-10.45-5.58-16.16.25z" fill="#f9f3f6"/><path d="m318.47 329.37c3.16 1.27 2.52 4.41 3.16 6.8 6 22.46 16.92 41.79 35.52 56.26 16.49 12.83 35.52 18.27 56.11 18.92 5.48.17 11-.08 16.46-.22 1.68 0 3.33-.27 4.6 1.18-.66 2.64-2.94 2.43-4.84 2.58-57.42 4.5-97.8-25.18-111.68-78.72-.55-2.17-2.25-4.82.67-6.8z" fill="#543528"/><path d="m239.66 251.24c-1.37-10.57-1.08-21.24-1.83-31.85l26.76-.16-.06.48c-.85.3-1.79.47-2.15 1.49-2.51-2.15-5 .63-7.55 0-3.08-2.18-4.52-1.34-4.5 2.39.05 9.16.06 18.32.08 27.48l.16.33h-8z" fill="#db326f"/><path d="m39.66 226.15-6.88.11c-1-2-2.9-1.15-4.42-1.19-6.62-.19-13.24-.23-19.86-.33 2.26-3.32.22-7.07 1-10.54l30.78.32.1 2.69c-1.84 2.84-.83 5.93-.72 8.94z" fill="#d7d2ce"/><path d="m439.3 161.15a5.47 5.47 0 0 1 -3.58 1 55.64 55.64 0 0 0 -33.28-27.93 56.94 56.94 0 0 0 -32.84-.49c-1.74.46-3.53 1.25-5-.56.17-2.12 1.83-2.55 3.44-3 26.77-7 53 1.8 70.14 27.68a14.23 14.23 0 0 1 1.12 3.3z" fill="#543528"/><path d="m288.17 123.53v13.39h-23.69q0-6.67 0-13.34z" fill="#db326f"/><path d="m288.22 141.5q.06 6.28.11 12.59l-2 1-22.41-.09c1.5-4.45.54-9 .59-13.53z" fill="#db326f"/><g fill="#df3271"><path d="m288.27 52.42q0 6.31 0 12.61l-23.68.16v-12.87z"/><path d="m288.23 70.44q0 6.28 0 12.56l-23.63.1q0-6.42 0-12.83z"/><path d="m288.27 195.4q0 6.28 0 12.58l-23.62.15-.06-12.85z"/><path d="m288.31 106.37q0 6.28-.07 12.57l-23.73.08.18-12.9z"/><path d="m288.17 159.48q.06 6.28.13 12.56c-7.86.68-15.72.29-23.58.23q-.08-6.45-.13-12.89l22-.28z"/><path d="m288.25 177.44v12.56l-23.62.18v-12.82z"/><path d="m288.26 88.42c0 3.91.07 7.82.11 11.73-1.17 1.19-2.69 1-4.15 1l-19.62-.1q.06-6.45.1-12.88z"/></g><path d="m254.85 221.22c2.52.63 5-2.15 7.55 0q0 14.92.07 29.84l-2.93.37-2-.33c-.33-.53-.67-.5-1 0l.1.35-2-.36z" fill="#e03071"/><path d="m40.41 217.21c0-.9-.07-1.8-.1-2.69 2.48-.06 4.95-.17 7.43-.17 11.75 0 11.75 0 12.11 11.65l-7.41.34h-9.44l-1.51-.34c-.34-2.91 1.11-6.07-1.08-8.79z" fill="#ef8e4f"/><path d="m59.85 226c-.36-11.61-.36-11.62-12.11-11.65-2.48 0-5 .11-7.43.17l-30.78-.32h.06l-.21-1.08c1.16-1.87 3-1 4.52-1 9.13-.1 18.26-.12 27.39 0 2.55 0 4.44-.19 5-3.17.5-2.48 2.43-3.57 4.8-3.39 2.16.17 4.09 1.57 4.11 3.68 0 3.14 1.79 3 3.82 2.81 2.47-.26 3.68.44 3.45 3.22a64.7 64.7 0 0 0 0 8.47c.12 2.13-.69 2.77-2.62 2.26z" fill="#543528"/><path d="m264.6 101.08 19.62.1c1.46 0 3 .16 4.15-1l-.06 6.22-23.62-.25a20.18 20.18 0 0 0 -2.43-.31c-1.62 0-2.9-.13-2.94-2.32s1.12-2.41 2.81-2.32c.87.02 1.65-.09 2.47-.12z" fill="#872b50"/><path d="m288.26 88.42-23.56-.22c-1.63-1-4.54 1.1-5.18-1.62-1.14-4.9 3.08-2.76 5.11-3.48l23.64-.1c0 1.81-.01 3.61-.01 5.42z" fill="#872b50"/><path d="m264.63 190.18 23.62-.18v5.4l-23.69-.12c-2.1-.61-6.18 1.34-5.08-3.48.65-2.8 3.52-.75 5.15-1.62z" fill="#872b50"/><path d="m288.25 177.44-23.62-.08c-1 0-1.93-.16-2.89-.12-1.52.07-2.43-.29-2.42-2.1s.63-2.69 2.55-2.57a16.32 16.32 0 0 0 2.85-.3c7.86.06 15.72.45 23.58-.23-.02 1.8-.03 3.6-.05 5.4z" fill="#872b50"/><path d="m264.64 208.13 23.62-.15c0 1.8 0 3.59.05 5.39l-21.76-.12-1.95-.09c-1.64-.93-4.79 1.43-5.17-2.07-.49-4.57 3.38-2.09 5.21-2.96z" fill="#872b50"/><path d="m288.27 52.42-23.7-.1c-2.08-.6-6.16 1.4-5.07-3.43.62-2.73 3.48-.77 5.12-1.62l23.69-.27c-.02 1.83-.03 3.63-.04 5.42z" fill="#872b50"/><path d="m288.23 70.44-23.6-.17c-1.67-.91-4.79 1.37-5.21-2-.55-4.55 3.32-2.21 5.18-3l23.68-.27c-.01 1.83-.03 3.64-.05 5.44z" fill="#872b50"/><path d="m288.22 141.5-23.71-.08a26.67 26.67 0 0 0 -3-.08c-1.85.16-2.2-.81-2.18-2.39s.74-2 2.14-1.93c1 0 2-.06 3-.1h23.73c.01 1.53.02 3.08.02 4.58z" fill="#7e264b"/><path d="m264.51 119 23.73-.08c0 1.53 0 3.06-.07 4.59h-23.71a29.26 29.26 0 0 0 -3-.08c-1.91.14-2.12-1-2.13-2.48s.78-2 2.18-1.91c1.02.12 2.01.01 3-.04z" fill="#7e264b"/><path d="m286.57 159.1-22 .28a6.39 6.39 0 0 1 -1-.1c-1.58-.45-4.42 1.27-4.2-2.34s2.93-1.5 4.52-2l22.45.18 2 .06c-.05 1-.09 2-.14 3.06z" fill="#7e264b"/><path d="m9.53 214.2c-.81 3.47 1.23 7.22-1 10.54-1.28.62-3.07-.2-4 1.43-4.91-1-4.72-4.82-4.33-8.45s2.92-4.81 6.33-4.4c1 .54 1.63 2.05 3.08.91z" fill="#d54823"/><path d="m4.51 226.17c.92-1.63 2.71-.81 4-1.43 6.62.1 13.24.14 19.86.33 1.52 0 3.41-.86 4.42 1.19-5.51 2.17-11.24.68-16.86.84-3.78.11-7.78 1.21-11.42-.93z" fill="#452c18"/><path d="m298.35 143.26c.44-1.39-.61-3.5 1.56-3.25s1.15 2.38 1.26 3.7.48 3.31-1.25 3.23c-2.65-.13-.64-2.72-1.57-3.68z" fill="#726357"/><path d="m301.27 60.19c-.31 1.19.52 3.29-1.34 3.24-2.74-.08-1.17-2.53-1.37-3.9-.16-1.11-.65-3.23 1.31-3s1.13 2.32 1.4 3.66z" fill="#726357"/><path d="m301.25 101.58c-.3 1.31.72 3.57-1.45 3.57s-1.19-2.3-1.25-3.55-.88-3.11 1-3.29c2.45-.23 1.39 2.01 1.7 3.27z" fill="#726357"/><path d="m298.44 87.63c.43-1.14-.81-3.16 1.14-3.29 2.4-.17 1.55 2.07 1.58 3.34s.81 3.58-1.41 3.52-.82-2.37-1.31-3.57z" fill="#726357"/><path d="m298.44 129.68c.48-1.19-1-3.42 1.38-3.52 1.87-.07 1.43 1.91 1.36 3.11s.82 3.55-1.18 3.73c-2.38.23-1.14-2.1-1.56-3.32z" fill="#726357"/><path d="m298.43 115.72c.49-1.18-1-3.51 1.38-3.49 2.17 0 1.29 2.28 1.37 3.59s.62 3.15-1.2 3.24c-2.41.12-1.1-2.13-1.55-3.34z" fill="#726357"/><path d="m40.41 217.21c2.19 2.72.74 5.88 1.08 8.83l-1.83.11c-.11-3.01-1.12-6.1.75-8.94z" fill="#452c18"/><path d="m264.6 213.16 1.95.09c-.7 2-.58 4.23-1.94 6-.02-2.05-.01-4.07-.01-6.09z" fill="#db326f"/><path d="m254.67 251.07 2 .36c-2 3.23-4 0-6 0l-.16-.33z" fill="#f9f3f6"/><path d="m239.8 258.19-.12-4a6.17 6.17 0 0 0 3.3 2.37z" fill="#f9f3f6"/><path d="m239.66 251.24 2.89.2c-.36 2.41-1.71 1.29-2.88.8 0-.33 0-.66-.01-1z" fill="#f9f3f6"/><path d="m9.59 214.23c-1.45 1.14-2.12-.37-3.08-.91l2.87-.17z" fill="#d7d2ce"/><path d="m256.52 251.08c.34-.48.68-.51 1 0z" fill="#db326f"/><path d="m283.58 277.34.37-.26.42 1.06z" fill="#e5dfdb"/><path d="m135.31 214.38c3.59 10.48.88 16.18-9.9 19.81 4.54 4.54 8.87 8.75 13 13.11.92 1 3.59 1.9 1.48 3.77-1.67 1.47-2.48-.87-3.43-1.75-6.71-6.18-12.62-13.18-19.79-18.91a11.6 11.6 0 0 1 -2.9-14.07c2.08-4.48 7.33-7.65 12.2-7 6.23.85 12.44 2 18.65 3 1.1.18 2.64.15 2.54 1.73s-1.63 1.2-2.74 1.2c-2.94.01-5.76-1.5-9.11-.89zm-10.51 16.43a9.6 9.6 0 0 0 9.41-9.13 9.32 9.32 0 1 0 -9.41 9.13z" fill="#f9f3f6"/><path d="m145 188.92c-3.16 1.13-6.42 1.88-5.21 5.68 1 3.29 3.76 3 6.51 2-1.83 4.74-5.34 6.5-9.43 4.84a7.53 7.53 0 0 1 -4.27-10.18c2-4.45 6.4-5.5 12.4-2.34z" fill="#f9f3f6"/><path d="m189.54 189.68c-3.5-.19-5.8.88-5.65 3.92.19 3.85 3.35 3.88 6.37 3.6-2.13 4.69-6.27 6.14-10.25 3.79a7.79 7.79 0 0 1 -2.54-10.81c2.53-3.9 7.21-4.32 12.07-.5z" fill="#f9f3f6"/><path d="m186.42 163.78c-2.59 2.74-5.64 3-8.45 3.3-10.66 1.13-19.87-2.7-28.3-8.86-.78-.58-1.91-1.26-1.33-2.35s1.65-.49 2.47.12c10.26 7.67 21.4 11.14 34.1 7.11.22-.1.57.24 1.51.68z" fill="#e5dfdb"/><path d="m145.39 165.78c2.7-1.33 3.53.13 4.52.81 9.6 6.59 19.82 10 31.47 6.39 1-.3 2-.85 2.34.61.2.92-.7 1.34-1.51 1.63a28.84 28.84 0 0 1 -16.21 1.11 41.66 41.66 0 0 1 -20.61-10.55z" fill="#e5dfdb"/><path d="m461.09 203.36c2.15-.15 4.27-1.67 5.28 2.37s5 4.31 9.73 1.08c1 .38.71 1.3.81 2 .5 3.74 2.34 6.46 6.36 6.17 4.21-.3 5.67-3.22 5.69-7.29 0-6.46.14-6.46 7-6.56.09 1.62-.13 3.34.36 4.83.8 2.5.36 3.87-2.21 4.93a7.33 7.33 0 0 0 -4.6 6.07c-.34 3.29-1.94 3.47-4.69 3a11.86 11.86 0 0 0 -9.47 2c-2.29 1.72-3.51 1.53-4.84-1.09-3.03-5.94-6.27-11.7-9.42-17.51z" fill="#f9f3f6"/><path d="m431.88 221.61a14.45 14.45 0 0 1 -2.07 6.71c-4.56 8.82-14.07 9.47-20 1.47-1.27-1.71-.74-2.24 1-2.61 1.13-.24 2.23-.61 3.35-.91z" fill="#f9f3f6"/><path d="m438.24 194.32c-1.12 5.81-4.79 8.75-9.34 7.48a7.64 7.64 0 0 1 -5.48-9.58c1.46-4.86 5.63-6.41 11-4.09-2.75 1.08-5 2.75-3.22 5.93 1.92 3.38 4.6 2.47 7.04.26z" fill="#f9f3f6"/><path d="m392.82 208.33c-1.78 4.36-5.4 4.76-9.13 3.64-3.34-1-5.07-3.88-4.92-7.34a7.11 7.11 0 0 1 6-7.06c3.52-.73 6.62.09 7.77 4.16-2.23-1-4.23-.65-5.57 1.45a3.55 3.55 0 0 0 .19 4.15c1.52 2.07 3.53 2 5.66 1z" fill="#f9f3f6"/><path d="m316.64 251.09h-4.16q-.12-14.73-.26-29.46l4.63-.06z" fill="#7e264b"/><path d="m438.24 194.32c-2.44 2.21-5.12 3.12-7.05-.26-1.82-3.18.47-4.85 3.22-5.93 3.47.7 4.66 2.87 3.83 6.19z" fill="#543528"/><path d="m392.82 208.33c-2.13 1-4.14 1.07-5.68-1a3.55 3.55 0 0 1 -.19-4.15c1.34-2.1 3.34-2.42 5.57-1.45 2.25 2.11 2.27 4.27.3 6.6z" fill="#543528"/><path d="m308.62 276.7a54.42 54.42 0 0 1 12.17.08c.5 3.64-.84 4.18-4.31 3.32-2.9-.72-6.24.14-7.86-3.4z" fill="#e5dfdb"/><path d="m287.92 276.54-.4.06.46.45a4.53 4.53 0 0 0 .3-.46s-.16-.06-.36-.05z" fill="#e5dfdb"/><path d="m283.57 264.74c5.71-5.83 11-5.92 16.16-.28-5.37 1.03-10.73.37-16.16.28z" fill="#db326f"/><path d="m264.61 219.25c1.36-1.77 1.24-4 1.94-6l21.76.12c0 1.6.05 3.2.07 4.8l-.69 2.05-.16 30.85h-8c0-9.27 0-18.54 0-27.81 0-1.71.57-3.89-2.39-3.89s-2.46 2.11-2.46 3.86c0 9.27.05 18.54.09 27.81h-7.46c0-9.06 0-18.12.08-27.17 0-2.15 0-4-2.85-4.16z" fill="#df3271"/><path d="m312.22 221.63q.13 14.73.26 29.46h-8.09l.33-29.58z" fill="#db326f"/><path d="m299.65 251.07h-8c0-6.81-.08-13.62.11-20.42.09-3.08-1-6.32.9-9.23l6.7.06q.15 14.8.29 29.59z" fill="#db326f"/><path d="m299.65 251.07q-.15-14.79-.29-29.58h5.36l-.33 29.58z" fill="#872b50"/><path d="m292.66 221.43c-1.91 2.91-.81 6.15-.9 9.23-.19 6.8-.09 13.61-.11 20.42h-4.12q.09-15.42.16-30.85h.83c1.03 1.56 2.77.77 4.14 1.2z" fill="#7e264b"/><path d="m288.52 220.21h-.83l.69-2.05c.05.69.1 1.37.14 2.05z" fill="#872b50"/><path d="m286.57 159.1 1.67-.85c0 .41 0 .82-.07 1.23z" fill="#872b50"/><path d="m288.38 155.19-2-.06 2-1c-.03.33-.02.7 0 1.06z" fill="#872b50"/><path d="m274.78 251.05c0-9.27-.09-18.54-.09-27.81 0-1.75-.43-3.86 2.46-3.86s2.38 2.18 2.39 3.89v27.81z" fill="#872b50"/><path d="m264.55 219.73c2.81.12 2.86 2 2.85 4.16-.07 9.05-.06 18.11-.08 27.17h-4.85q0-14.92-.07-29.84c.36-1.02 1.3-1.22 2.15-1.49z" fill="#872b50"/><path d="m254.67 251.07h-4.24c0-9.16 0-18.32-.08-27.48 0-3.73 1.42-4.57 4.5-2.39z" fill="#7e264b"/><path d="m124.8 230.81a9.51 9.51 0 0 1 -9.22-9.26 9.32 9.32 0 1 1 18.63.13 9.6 9.6 0 0 1 -9.41 9.13z" fill="#403227"/></svg>