<svg viewBox="0 0 606.56 544.8" xmlns="http://www.w3.org/2000/svg" xmlns:xlink="http://www.w3.org/1999/xlink"><linearGradient id="a" gradientTransform="matrix(-.9 -.44 -.44 .9 -1020.85 -266.64)" gradientUnits="userSpaceOnUse" x1="-1235.15" x2="-1364.97" y1="-266.63" y2="-31.06"><stop offset="0" stop-color="#fff" stop-opacity="0"/><stop offset="1" stop-color="#fff" stop-opacity=".45"/></linearGradient><path d="m41.39 311.57c15.36-5.41 32-12.3 39.19-26.93 9.46-19.31-2.27-42.3-16.4-58.51s-31.71-31.35-36.36-52.34c-6.66-30.08 16.06-58.71 40.52-77.44 53.38-40.88 121.71-59.52 189-59.74s133.6 17 196 42.1c43 17.3 86.5 40.14 111.46 79.17 19 29.64 25.17 65.55 28.36 100.59 3.72 40.91 2 87-27 116.07-19.48 19.51-48.32 27.89-66.6 48.53-7.33 8.28-12.9 18.47-22.24 24.39-9.76 6.19-22 6.65-33.53 6.93l-201.85 4.8c-62.34 1.49-131.45 2.5-184.93-34.65-46.88-32.54-92.82-85.79-15.62-112.97z" fill="#f5f4f4"/><path d="m15.72 474.12c-1.36 39.15 205.92 81.79 305.64 65.37 35.31-5.82 60.59-31.69 87.33-35.23 48.79-6.46 87.21 8 92.47-23.83 8.14-49.27-225.86-50.95-284.88-50.95s-198.7-9.17-200.56 44.64z" fill="#efeff0"/><path d="m359.17.29c44.11 1.83 88.3 12.37 129.53 29.92 27.22 11.58 53.86 26.31 75.6 48.21s38.33 51.71 41.63 84.5c6.86 68.3-43.38 111.19-92.75 132.12-29.23 12.38-61.71 31.72-67.35 66.55-2.25 13.91.34 28.36-1.83 42.28-3 19.43-15.22 35.86-29.93 46.36s-31.81 15.77-48.83 19.77c-64 15.05-130 13.67-195.27 12.23-45.08-1-91.21-2.21-133.31-20.52-7.74-3.37-15.72-7.7-20.21-15.6-30.22-42.89 57.27-71.41 77.72-75.79 35.61-7.63 73.13-16.3 100.14-43.72 13.77-14 24.45-35 20.11-55.37-2.93-13.76-12-24.52-19.63-35.72-18.06-26.54-28.42-58.06-31.48-89.91-4.6-47.78 16-103.12 62.71-123 40.84-17.29 89.04-24.14 133.15-22.31z" fill="#010101"/><path d="m209.37 513a62.43 62.43 0 0 1 -14.45 17c-2.42 2-5.11 3.84-8.19 4.37s-6.64-.6-8.12-3.36c-2.06-3.84.62-8.39 3-12a143.39 143.39 0 0 0 17-35.07c1.5-4.61 3-9.64 6.91-12.5 2.48-1.81 5.58-2.48 8.58-3.1 13.5-2.78 28.42-5.29 40.36 1.58 15.7 9-8.57 18.15-16 19.69-16.04 3.33-21.1 9.47-29.09 23.39z" fill="#f08177"/><path d="m210.16 513.82a192.56 192.56 0 0 0 7.91 18.54c1.89 3.85 3.51 9.35-.07 11.69-2.57 1.67-6 .26-8.59-1.33a67.9 67.9 0 0 1 -19.31-17.72c-3.92-5.35-7.15-11.38-12.3-15.57-5.38-4.38-12.34-6.3-18.26-9.94-18.1-11.11-6-32.29 12.46-23.23 7.67 3.77 17.83 7 24.37 12.33 7.57 6.16 10.56 16.41 13.79 25.23z" fill="#f08177"/><path d="m168.27 353.31c-1.23 3.41-5.48 6.74-7.89 9.29-8.47 8.95-19 14.31-30.73 17.72l-22 6.37c-9.77 2.84-19.58 5.7-28.88 9.84-11.47 5.11-35.26 16.24-37.08 30.36-.47 3.66-1.38 7.47-.14 10.94 1.71 4.78 3.61 9.78 7.06 13.51 25.85 28 60.72 42.24 96.63 53.37a8.24 8.24 0 0 0 4.26.52 7.93 7.93 0 0 0 3.41-2.18 77.5 77.5 0 0 0 20.26-31c-7.39-4.76-25.09-19.28-31.92-24.8 2.17 1.75 16-1.74 19.06-2.37 14.35-2.91 27.95-9 41-15.52 12-6 21.91-7.74 35.07-4 10.26 2.89 24.75 11.48 34 16.82 5.53 3.21 20.46 10.2 24.68 10.51-14.17-1.05-27.82 5.13-41.94 6.73a65.93 65.93 0 0 1 -10.7.33c-1.76 3.44-2.85 5.07-3.44 8.89.45-.18.21-1.13.09-.65a54.61 54.61 0 0 0 -.47 24.2c1.82 8.83 2.47 10.11 10.26 12.15 13.85 3.64 30.87 2.9 45.1 2.63 29.69-.56 59.75-6.32 85.78-21.14 22.34-12.72 18.84-34.66 6-51-20.44-26.06-55.11-41.85-84.07-56.6-4-2-8.4-4-11.87-6.9a16.45 16.45 0 0 1 -4.14-4.73c-.38-.7-3-5.74-3-5.88.35-4.38.51-5-.23-7.23-31-11.74-66.55-14.46-99.08-8.06-6.09 1.14-10.25 3.95-15.08 7.88z" fill="#782a3d"/><path d="m263.77 364.44a38.61 38.61 0 0 0 5.89 11.06 29.8 29.8 0 0 0 4.48 4.64 18.43 18.43 0 0 0 4.18 2.75 28.09 28.09 0 0 0 8.82 2 52.81 52.81 0 0 0 10.74-.1c3.17-.35 6.64-.9 9.42-2.55a.09.09 0 1 0 -.09-.16 24.08 24.08 0 0 1 -8.11 2.33 53.34 53.34 0 0 1 -10.34.38 33.31 33.31 0 0 1 -9.29-1.67 21.58 21.58 0 0 1 -8.47-6.32 37.58 37.58 0 0 1 -7.05-12.41c0-.1-.21-.06-.17.05z" fill="#010101"/><path d="m272.71 384.22c1.55 4 6.28 5.53 10.15 6.23a0 0 0 0 0 0-.09 29.2 29.2 0 0 1 -6.12-2.06 8.55 8.55 0 0 1 -3.93-4.12c0-.08-.16 0-.13 0z" fill="#010101"/><path d="m222.91 361.38c-.07 4.16.24 8.37.5 12.52s.63 8.42 1.07 12.62c.49 4.65.89 9.33 1.63 14 .21 1.26.44 2.53.76 3.78a8.47 8.47 0 0 0 .9 2.43.09.09 0 1 0 .15-.09 8 8 0 0 1 -.81-2.17c-.29-1.06-.49-2.13-.68-3.21-.44-2.51-.74-5-1-7.59-.66-6.11-1.3-12.23-1.72-18.36q-.24-3.47-.4-6.94c-.11-2.31-.13-4.63-.29-6.94a0 0 0 1 0 -.09 0z" fill="#010101"/><path d="m224.89 389.43a10.74 10.74 0 0 1 -5.6-1.77 7.05 7.05 0 0 1 -3.29-4.66c-.39-2.12-.54-4.32-.73-6.47s-.33-4.23-.43-6.35c0-1.23-.1-2.45-.12-3.68s0-2.45-.08-3.67a0 0 0 0 0 -.09 0 54.23 54.23 0 0 0 .1 7c.1 2.32.26 4.65.47 7a52 52 0 0 0 .78 6.59 7 7 0 0 0 2.92 4.22 10.39 10.39 0 0 0 6 2 0 0 0 0 0 0-.09z" fill="#010101"/><path d="m188.69 361.48c-1.81 3.68-3.59 7.49-6.49 10.47a15.27 15.27 0 0 1 -5.39 3.61 29.9 29.9 0 0 1 -5.58 1.44 113.14 113.14 0 0 1 -20.94 1.84 39.57 39.57 0 0 1 -10.4-1.22.06.06 0 1 0 0 .12c2.82 1.08 6.1 1.2 9.08 1.29a99.43 99.43 0 0 0 11.45-.4c3.39-.29 6.77-.69 10.12-1.27 3.88-.67 7.71-1.6 10.75-4.24 3.52-3 5.67-7.41 7.55-11.57 0-.08-.08-.15-.12-.07z" fill="#010101"/><path d="m178.09 381.81c-4.75 3.9-11 2.93-16.6 2.07-.06 0-.09.08 0 .09 5.46 1 12.16 1.93 16.69-2.1 0 0 0-.1-.06-.06z" fill="#010101"/><path d="m152.52 456.82c-4.11-3.82-8.45-7.43-12.81-11s-8.52-6.86-13-10a63.44 63.44 0 0 0 -13.71-7.01c-4.82-1.82-9.78-3.2-14.7-4.71a91.71 91.71 0 0 1 -16.11-6.3c-.1-.05-.18.09-.09.14 8.86 4.89 18.92 6.89 28.4 10.17a66.81 66.81 0 0 1 14.13 6.65 151.92 151.92 0 0 1 13.37 9.92c4.92 3.94 9.66 8.08 14.43 12.2a0 0 0 1 0 .06-.06z" fill="#010101"/><path d="m294 452.7c4.33 0 8.68-.05 13-.13s8.4-.22 12.58-.64a68.51 68.51 0 0 0 12.22-2.27c4-1.16 7.86-2.85 11.88-4 4.45-1.26 9.24-1.79 13.66-.16.09 0 .12-.11 0-.14-7.86-3-16 1-23.39 3.43-8.13 2.7-16.7 3.36-25.22 3.57-4.93.12-9.86.08-14.78.23a.05.05 0 1 0 0 .1z" fill="#010101"/><path d="m249 464.21a14 14 0 0 0 -2.31 6.68 50.67 50.67 0 0 0 -.49 7 38.09 38.09 0 0 0 2.39 13.74 25.63 25.63 0 0 0 3.71 6.69c0 .05.13 0 .09-.07a32.51 32.51 0 0 1 -5.28-12.48 45.27 45.27 0 0 1 -.39-13.6c.31-2.73.77-5.55 2.4-7.85 0-.07-.07-.14-.12-.07z" fill="#010101"/><path d="m161.39 470.78a54.18 54.18 0 0 1 -10.93 21.51 56.6 56.6 0 0 1 -4.64 4.91 0 0 0 1 0 .06.06 52.71 52.71 0 0 0 15.61-26.45.05.05 0 0 0 -.1 0z" fill="#010101"/><path d="m161.06 270.51s-29.79-.47-35.66-5.16l8.92-6.1 21.58 2.81z" fill="#caaea5"/><path d="m244 135.3c1.3-1.57 4.2-7.87 4.49-10 1.52-11.12 5.84-22.42 3.94-33.46-1.16-6.78-6.9-13.94-12.54-16.71a20.76 20.76 0 0 0 -5.89-1.61c-7.49-1.23-15.42-1.85-22.39 1.46a46.07 46.07 0 0 0 -9.26 6.47 20.32 20.32 0 0 0 -4.12 4.21c-3 4.51-2.48 10.9-4.93 15.79-.63 1.26-2.44 1.93-3 3.2-1.75 3.71-.51 8.66.28 12.77s2.08 8.11 2.28 12.3c.12 2.33-.07 4.83 1 6.81a8.33 8.33 0 0 0 2.17 2.4 21.17 21.17 0 0 0 14.41 4.8 40.85 40.85 0 0 0 7-1.21l12.51-2.91a42.88 42.88 0 0 0 8.4-2.57c3-1.4 3.38.96 5.65-1.74z" fill="#aa5b38"/><path d="m193.33 117.37a10.29 10.29 0 0 0 -2.31-2.11 3.51 3.51 0 0 0 -3-.41c-1.44.56-2.08 2.26-2.25 3.81-.38 3.47.77 6.92 1.9 10.23a14.13 14.13 0 0 0 1.25 2.94c1.5 2.47 4.34 3.84 7.17 4.38" fill="#ee7368"/><path d="m234.79 94.24a57.14 57.14 0 0 1 6.74 19.16 5.88 5.88 0 0 1 3.37-4.2 4.76 4.76 0 0 1 5 1.15c1.75 1.9 1.47 4.84 1.06 7.38-.46 2.82-1 5.77-2.81 8a16.62 16.62 0 0 1 -4.69 3.57 43.21 43.21 0 0 1 -2.69 13.48c2.52 11.59 4.25 23.11 5.74 34.87a7.28 7.28 0 0 0 .8 2.95 2.47 2.47 0 0 0 2.57 1.26c-11.26 5.89-21.64 15.81-34.05 13.1-2.95-.65-8.59-9.66-11.15-11.27a13.07 13.07 0 0 1 -5.66-6.84 7.28 7.28 0 0 0 4.11-5.51 27.74 27.74 0 0 0 0-7.34 84.93 84.93 0 0 1 -.09-10.09c-5.43-6.47-10.65-13-12.08-21.37a45.82 45.82 0 0 1 -.5-7.12c-.12-8.28 0-16.64 1.86-24.7a15 15 0 0 1 2.68-6.18c2.34-2.86 6.2-3.88 9.82-4.62 5.21-1.06 10.54-1.85 15.83-1.31s11.51 1.01 14.14 5.63z" fill="#f08177"/><path d="m212.58 123a33 33 0 0 1 -.6 9.46c-.24 1.13-.6 2.29 0 3.37a5.72 5.72 0 0 0 2.55 2.08.1.1 0 0 0 .1-.18 5.76 5.76 0 0 1 -2.53-2.35 3.62 3.62 0 0 1 0-2.16c.16-.69.3-1.39.42-2.09a33 33 0 0 0 .32-8.13c0-.19-.3-.19-.28 0z" fill="#e86241"/><path d="m238.67 144.9a46.75 46.75 0 0 1 -9 12.85 12.22 12.22 0 0 1 -6.79 3.78 15.21 15.21 0 0 1 -7.88-1.1 49.22 49.22 0 0 1 -8.09-4.64c-.21-.14-.4.2-.2.34 4.41 3.14 9.54 6.33 15.18 5.94a11.56 11.56 0 0 0 7-3 37.84 37.84 0 0 0 5.35-6 46.16 46.16 0 0 0 4.73-8c.06-.15-.15-.28-.22-.13z" fill="#e86241"/><path d="m238.86 156.38a134.45 134.45 0 0 1 -5 13.74c-1.68 3.83-3.81 7.51-7.14 10.14-.1.07 0 .24.13.17a20 20 0 0 0 6-7.41 74.76 74.76 0 0 0 4.09-10.09q1.11-3.24 2.08-6.52a.06.06 0 0 0 -.11 0z" fill="#e86241"/><path d="m223.42 108.49a9.82 9.82 0 0 1 7.07-1.43 18 18 0 0 1 7 3c.34.23.78-.31.45-.58-4.23-3.39-10.28-5.29-14.92-1.58-.31.25.1.8.43.56z" fill="#38150e"/><path d="m227.3 118.68a7.92 7.92 0 0 0 .26 2.24 1.8 1.8 0 0 0 2.63 1.06 4.26 4.26 0 0 0 1.86-2.65 7 7 0 0 0 .12-.8h-.21-.51c-.71 0-1.43-.13-2.14-.22s-1.14-.16-1.69-.26h-.08-.11a.32.32 0 0 1 -.09 0 4.73 4.73 0 0 0 -.04.63z" fill="#38150e"/><path d="m207.4 109.26c-2.06-1.66-4.55-3.4-7.33-3.21s-4.62 2.17-6.57 3.76c-.25.2.07.58.34.43 2-1.07 3.71-3.07 6.12-3.33 2.58-.28 5 1.36 6.91 2.88.37.3.9-.22.53-.53z" fill="#38150e"/><path d="m245.38 167.38c-3.41 7.48-9.17 13.23-17.19 15.06-2.28.52-5.48 7.88-6.64 9.91-2.45-3.17-6-11.44-9.74-12.8s-7.78-3.18-9.58-6.76a310.39 310.39 0 0 1 -32.23 9.69c-9.46 2.34-19.72 4.65-26.12 12-5 5.81-6.74 13.74-8.24 21.3l-9.48 47.59 3.82 1.05a84.67 84.67 0 0 0 9.67 2.12 39.56 39.56 0 0 0 7.67.67c5.19-.21 10.58-2.39 15.39-.43.67 17.79-2.85 35.41-2.79 53.21 0 6.6.67 6.73-.47 13.23-1 5.48-2.91 8.3-2.72 13.86.16 4.72 2.87 8.15 6.13 11.57 10.57 11.06 28.52 13.16 43.82 13.49 12.62.28 25.42 1.65 38.38-1.22 10.82-2.41 20.86-7.44 31.55-10.35 1.15-.31 3.14-.1 4-.87a5.75 5.75 0 0 0 2.36-3.42c1-5.16.37-10.49-.08-15.74-.69-8.08-.8-6.5-.48-14.61.12-3.05.31-6.11.27-9.16-.11-7.57-1.62-15-2.18-22.59s3.6-12.52 7.18-19.19c-.67-2.9-.85-9.21.12-12 6.05-1.43 8.91-.72 15.12-.44s12.9-.33 17.72-4.26c-.26-9.2-.29-18.77-1.84-27.84a176 176 0 0 0 -4.47-18.53 79.65 79.65 0 0 0 -3.34-10c-4.66-10.76-13.94-19.28-24.79-23.72-12.5-5.2-28.42-5.3-40.82-10.82z" fill="#f6dacf"/><path d="m223.1 116.71a24.41 24.41 0 0 0 4.24 1.49h.11.14.17a19.49 19.49 0 0 0 3.85.53.18.18 0 0 0 .14 0 3.46 3.46 0 0 0 .45 0h.11a13.39 13.39 0 0 0 2.18-.15c.34-.06.69-.13 1-.22s.73-.09.57-.42a.51.51 0 0 0 -.26-.22 1.47 1.47 0 0 0 -1-.14 14.6 14.6 0 0 1 -2.46.36h-.72c-.71 0-1.43-.13-2.14-.22s-1.14-.16-1.69-.25h-.07-.11a.19.19 0 0 1 -.1 0 14.4 14.4 0 0 1 -3.6-1.1c-.37-.06-1.63-.04-.81.34z" fill="#38150e"/><path d="m223.09 116.8a23.79 23.79 0 0 0 6.6 2 19.17 19.17 0 0 0 3.12.21 11.13 11.13 0 0 0 1.91-.18 4.49 4.49 0 0 0 1.24-.3c.38-.21.17-.56-.14-.73a1.72 1.72 0 0 0 -1.28-.09 13.85 13.85 0 0 1 -5.33.09 24.91 24.91 0 0 1 -3.23-.63c-.72-.2-1.37-.53-2.08-.75a1.8 1.8 0 0 0 -.77-.1c-.49 0-.43.32 0 .52.09 0 .09-.15 0-.19-.34-.18.27-.13.4-.12a3.69 3.69 0 0 1 .9.31 14.65 14.65 0 0 0 2.65.79 20.7 20.7 0 0 0 4.76.61 13.12 13.12 0 0 0 2.65-.3 2 2 0 0 1 .95-.09.69.69 0 0 1 .38.25c.26.26.2.15 0 .27a4 4 0 0 1 -1 .23 15.68 15.68 0 0 1 -5.55-.07 24.17 24.17 0 0 1 -6.11-1.88c-.16-.09-.16.12-.07.15z" fill="#38150e"/><path d="m203.59 119.65a.19.19 0 0 1 -.1 0h-.11-.07c-.55.09-1.11.18-1.69.25s-1.43.19-2.14.22h-.72a5.19 5.19 0 0 0 .12.79 4.27 4.27 0 0 0 1.86 2.66 1.81 1.81 0 0 0 2.63-1.07 7.88 7.88 0 0 0 .26-2.24c0-.18-.02-.39-.04-.61z" fill="#38150e"/><path d="m207.91 118.1a24.83 24.83 0 0 1 -4.25 1.49h-.11a.61.61 0 0 1 -.13 0h-.18a20.28 20.28 0 0 1 -3.85.54.2.2 0 0 1 -.13 0 3.62 3.62 0 0 1 -.46 0h-.11a12.17 12.17 0 0 1 -2.17-.14c-.35-.06-.7-.14-1-.22s-.72-.1-.56-.43a.54.54 0 0 1 .25-.22 1.52 1.52 0 0 1 1-.14 14.6 14.6 0 0 0 2.46.36h.72c.71 0 1.43-.13 2.14-.22s1.14-.15 1.69-.25h.08.11.09a14.83 14.83 0 0 0 3.6-1.1c.36-.06 1.62-.05.81.33z" fill="#38150e"/><path d="m207.88 118a21.21 21.21 0 0 1 -10.64 2.11 10 10 0 0 1 -1.35-.21 2.27 2.27 0 0 1 -.5-.12s-.13 0-.16 0 .14-.42.28-.49c.42-.23 1.15.09 1.6.16s1 .12 1.46.16a17.69 17.69 0 0 0 4.81-.45 18 18 0 0 0 2.82-.75 7.4 7.4 0 0 1 1.15-.45c.18 0 .93-.12.52.09-.07 0 0 .24.07.19s.45-.3.16-.48c-.57-.35-1.67.34-2.15.52a19.22 19.22 0 0 1 -3.1.76 20.29 20.29 0 0 1 -3.65.4c-.51 0-1-.06-1.54-.12s-1.12-.26-1.67-.3c-.3 0-1.43.19-1.11.76.1.18.35.2.52.25a12.52 12.52 0 0 0 1.6.3 17.11 17.11 0 0 0 3.2 0 23.36 23.36 0 0 0 7.73-2.09c.07-.08.07-.24-.05-.24z" fill="#38150e"/><path d="m252.13 102.36a2.8 2.8 0 0 1 -.24.33c-1.65 2.08-5.15 1.9-6.79 4.14a12.92 12.92 0 0 1 -1 1.58 2.62 2.62 0 0 1 -2.55.57 5.51 5.51 0 0 1 -2.28-1.47c-3.58-3.52-4.61-9.08-3.53-14-3.7 3.16-10 3.88-14.73 3.73-4.31-.14-8.86-1-12.77.85-2.41 1.11-4.28 3.12-6.51 4.56-7.29 4.74-19.82 2.42-21.77-7.22a7.33 7.33 0 0 1 2.29-7.08c-.19 1.25-.12 2.94 1.1 3.28 1 .28 1.93-.67 2.37-1.6.92-1.93.94-4.15 1.41-6.23 1.75-7.92 10.64-14.94 18.37-16.36 4-.75 7.52-2.39 11.9-2.36 10.29.08 21.41 2.32 28.29 10.62a34.35 34.35 0 0 1 7.43 17.8c.24 2.5.49 6.57-.99 8.86z" fill="#aa5b38"/><path d="m254.56 187.27s0 0 0 0z" fill="#010101"/><path d="m217.28 94.51c-5.74-1.66-11.28 1.89-15.41 5.49-2.11 1.86-4.33 4-7.16 4.66-3.18.74-6.23-.94-8.74-2.74a7.34 7.34 0 0 1 -3.13-4.11 7.58 7.58 0 0 1 .55-4.78c.06-.16-.17-.22-.26-.1-1.62 2.14-1 5.6.61 7.56a14 14 0 0 0 3.54 2.81 12.8 12.8 0 0 0 4.43 1.85c2.89.51 5.48-.77 7.7-2.5 2.49-1.93 4.66-4.2 7.38-5.83 3.12-1.86 6.8-3 10.42-2.11.16 0 .23-.2.07-.24z" fill="#87452b"/><path d="m237.46 92.74c-1.47-.36-1.72 2.25-1.81 3.16a13.36 13.36 0 0 0 .73 5.78 20.07 20.07 0 0 0 6.53 8.94c.09.08.22 0 .13-.13-1.06-1.17-2.19-2.26-3.18-3.51a20.68 20.68 0 0 1 -2.57-4.13 14.58 14.58 0 0 1 -1.27-5 10.94 10.94 0 0 1 .11-2.56c.11-.7.3-2.4 1.29-2.31.15 0 .18-.23 0-.26z" fill="#87452b"/><path d="m228.38 86.31c-.62 1.46-2.35 1.93-3.81 1.77-1.67-.19-3.22-.94-4.88-1.19a14.11 14.11 0 0 0 -8.69 1.58c-5.26 2.8-9.32 8.51-15.54 9.29a8.15 8.15 0 0 1 -7.86-3.18.1.1 0 1 0 -.17.1c1.22 2.26 3.84 3.33 6.3 3.46 3 .16 5.81-1.15 8.25-2.78 2.72-1.83 5.11-4.13 7.89-5.89a14.31 14.31 0 0 1 10.45-2.23c1.78.35 3.55 1.26 5.41 1a3.21 3.21 0 0 0 2.77-1.94c0-.06-.08-.09-.1 0z" fill="#b76548"/><path d="m240.81 93.06a7.32 7.32 0 0 0 .45 2.25 21 21 0 0 0 .79 2.31 22.13 22.13 0 0 0 2.33 4.24 18.92 18.92 0 0 0 7.11 6.3.08.08 0 0 0 .08-.13 31.26 31.26 0 0 1 -3.82-2.84 22 22 0 0 1 -5.34-7.52 19.58 19.58 0 0 1 -.81-2.26 23.52 23.52 0 0 0 -.6-2.41.09.09 0 0 0 -.18 0z" fill="#b76548"/><path d="m248.62 80a7.57 7.57 0 0 1 4.71-2.89c.65-.12 1.29-.08 1.94-.15a.08.08 0 0 0 0-.16 4.46 4.46 0 0 0 -1.89 0 7.35 7.35 0 0 0 -1.94.58 7.12 7.12 0 0 0 -3 2.51c-.07.11.1.25.19.14z" fill="#aa5b38"/><path d="m248.39 79.55a18.07 18.07 0 0 0 1.61-4.55 22.22 22.22 0 0 0 .37-2.31 8.94 8.94 0 0 0 0-2.31.05.05 0 0 0 -.1 0c-.13.7-.12 1.44-.2 2.15a23.06 23.06 0 0 1 -.39 2.47 27.72 27.72 0 0 1 -1.44 4.44c0 .09.11.15.15.07z" fill="#aa5b38"/><path d="m248.92 79.16a36.54 36.54 0 0 0 -5.81-7 36 36 0 0 0 -6.79-5.24 29.66 29.66 0 0 0 -15.53-4.3 30.91 30.91 0 0 0 -8.6 1.37c-2.36.72-4.68 1.61-7 2.38a66.7 66.7 0 0 0 -7.49 2.79 14.75 14.75 0 0 0 -5.7 3.84c-2.23 2.84-3.47 6.51-4.47 9.93-.27.91-.52 1.82-.76 2.74a11.72 11.72 0 0 1 -.92 2.65 3.05 3.05 0 0 1 -1.85 1.68 2 2 0 0 1 -2.28-.71.18.18 0 0 0 -.31.18 2.29 2.29 0 0 0 2.71.94 3.93 3.93 0 0 0 2.46-2.55c.61-1.53.92-3.19 1.38-4.77a44.19 44.19 0 0 1 1.8-5.09 22.21 22.21 0 0 1 2.46-4.48 9.39 9.39 0 0 1 2.49-2.25 32.64 32.64 0 0 1 7.14-3.31c2.36-.85 4.76-1.56 7.13-2.39a42.24 42.24 0 0 1 8.4-2.27 28.93 28.93 0 0 1 16.5 2.7 35.53 35.53 0 0 1 8 5.49 59.73 59.73 0 0 1 6.89 7.76c.06.08.18 0 .13-.1z" fill="#aa5b38"/><path d="m249.07 79.59c3.17 3.32 3.88 8 4.11 12.4.06 1.14.09 2.29.12 3.44a15.15 15.15 0 0 0 .28 3.08c.26 1 .71 2 1 3a5.66 5.66 0 0 1 0 3.26 14 14 0 0 1 -4.3 6.9c-.07.06 0 .18.09.12a11.93 11.93 0 0 0 4.11-5.6 7.8 7.8 0 0 0 .7-3.32 10.11 10.11 0 0 0 -.78-2.91 10.87 10.87 0 0 1 -.73-3.56c0-1.21-.07-2.42-.12-3.63a35.47 35.47 0 0 0 -.85-6.89 13.26 13.26 0 0 0 -3.5-6.43.11.11 0 0 0 -.16.16z" fill="#aa5b38"/><path d="m249.15 79.9c.57.9 1.23 1.74 1.8 2.64s1 1.71 1.45 2.6a29.69 29.69 0 0 1 2.23 6c.83 3.28 1.38 6.89 4.41 8.91.09.06.2-.08.12-.14-3.06-2.39-3.43-6.22-4.41-9.69a30.07 30.07 0 0 0 -2.15-5.49 20.83 20.83 0 0 0 -3.28-5c-.08-.09-.24 0-.17.13z" fill="#aa5b38"/><rect fill="#5e4f74" height="53.88" rx=".96" transform="matrix(-1 0 0 -1 444.16 484.43)" width="31.41" x="206.37" y="215.27"/><rect fill="#291a39" height="53.88" rx=".96" transform="matrix(-1 0 0 -1 442.07 484.43)" width="29.32" x="206.37" y="215.27"/><circle cx="220.87" cy="225.41" fill="#5e4f74" r="3.46"/><path d="m237.48 268.25 121.83-248.98-310.43 14.18 160.21 235.16z" fill="url(#a)"/><path d="m314.09 258.18a390.61 390.61 0 0 1 .8 41.77c-.17 4.71-.44 9.51-2.17 13.9s-5.17 8.35-9.74 9.5-9.25-.6-13.24-3c-7.17-4.29-12.84-10.64-18.23-17-9.69-11.45-17.39-25.28-26.29-37.35-.84-1.14-3.52 0-5.22-1.55-3.28-3-5.11-6.44-3.58-10.62-1.88-.78-3.75-2.13-5.63-2.9a7.37 7.37 0 0 1 -3.27-2.1c-.79-1.06-.82-2.79.28-3.51a3.94 3.94 0 0 1 -4.17-3c-.25-1.88 1.88-3.77 3.58-2.94a8.77 8.77 0 0 1 -3.4-2.35 3.06 3.06 0 0 1 -.09-3.83 4.2 4.2 0 0 1 2.46-1 29.26 29.26 0 0 1 6.41-.23 10 10 0 0 1 -3.51-2.43 3.34 3.34 0 0 1 -.33-4c.94-1.22 2.73-1.28 4.26-1.17a63.13 63.13 0 0 1 12.2 2.07 6.25 6.25 0 0 1 2.37 1c1.81 1.49 1.51 4.27 1.3 6.6a31.57 31.57 0 0 0 1.62 13 5.83 5.83 0 0 0 2.19 3c11.86 8 21.2 15.35 32 22.85.2-3.18.48-6.63.69-9.81a15.25 15.25 0 0 1 1.17-5.92c2.06-4.14 7.45-5.56 12-4.84s8.7 3.07 13.08 4.58c.96.41 1.49.99 2.46 1.28z" fill="#f08177"/><path d="m286 273a87.42 87.42 0 0 1 16 9.94c.1.07.22-.09.13-.17a71.53 71.53 0 0 0 -15.92-10c-.18-.08-.34.19-.16.27z" fill="#e86241"/><path d="m234.57 232.29c2 .53 4.05.93 6 1.64a5.39 5.39 0 0 1 3.77 3.9.09.09 0 0 0 .18 0 5.07 5.07 0 0 0 -3.27-3.92 17.73 17.73 0 0 0 -2.95-.93l-3.64-.89a.11.11 0 0 0 -.06.22z" fill="#e86241"/><path d="m227.93 239.58a37 37 0 0 1 9.16.79c2.64.65 5.45 2.34 5.79 5.29 0 .15.26.15.24 0-.29-2.76-2.61-4.56-5.1-5.35a22.22 22.22 0 0 0 -4.72-.82 38.52 38.52 0 0 0 -5.37-.12c-.13 0-.13.22 0 .21z" fill="#e86241"/><path d="m229 245a13.88 13.88 0 0 1 7.5 1.54c2.27 1.08 4.68 2.69 4.83 5.46a.11.11 0 0 0 .22 0c.12-2.72-2.32-4.46-4.49-5.54a14.37 14.37 0 0 0 -8.06-1.7c-.15 0-.15.26 0 .24z" fill="#e86241"/><path d="m320.71 258.26s-3.25 3.14-9.88 4.65c-7.46 1.7-24.28-2.26-26.34-.41s2-16.56 2-16.56l26.44-1.65z" fill="#f6dacf"/><path d="m128.85 262.08a387.43 387.43 0 0 0 -6.91 41.2c-.53 4.68-1 9.47.1 14.06s3.9 9 8.25 10.83 9.24.77 13.53-1c7.72-3.2 14.26-8.65 20.54-14.17 11.25-9.91 17.26-21.23 27.83-31.86 1.94 1.06 7-.6 8.32-1.14a9.93 9.93 0 0 0 5.81-10.85c2-.49 4-1.55 6-2a7.35 7.35 0 0 0 3.55-1.6c.93-.93 1.22-2.63.24-3.51a3.93 3.93 0 0 0 4.56-2.39c.53-1.81-1.3-4-3.1-3.43a8.86 8.86 0 0 0 3.7-1.82 3 3 0 0 0 .65-3.78 4.18 4.18 0 0 0 -2.29-1.32 29.38 29.38 0 0 0 -6.31-1.17 9.83 9.83 0 0 0 3.83-1.89 3.33 3.33 0 0 0 .91-3.88c-.75-1.35-2.51-1.67-4-1.79a63.13 63.13 0 0 0 -12.37.26 6.24 6.24 0 0 0 -2.5.68c-2 1.21-2.12 4-2.26 6.34a31.45 31.45 0 0 1 -3.5 12.66 4.64 4.64 0 0 1 -2.61 2.64c-12.74 3.23-23.22 12.08-35 17.92.27-3.17.5-6.63.76-9.8a15.27 15.27 0 0 0 -.29-6c-1.43-4.4-6.56-6.6-11.19-6.55s-9.06 1.76-13.61 2.62c-1.03.1-1.64.59-2.64.74z" fill="#f08177"/><path d="m154.32 280.55a71.8 71.8 0 0 0 -17.22 7.6.11.11 0 0 0 .11.19 86.74 86.74 0 0 1 17.2-7.49.16.16 0 0 0 -.09-.3z" fill="#e86241"/><path d="m211.29 247.9c-1.21.1-2.43.21-3.64.33a16.74 16.74 0 0 0 -3.23.52 5 5 0 0 0 -3.73 3.36.09.09 0 1 0 .17 0 5.38 5.38 0 0 1 4.19-3.27 56.85 56.85 0 0 1 6.24-.77c.14 0 .15-.24 0-.22z" fill="#e86241"/><path d="m216.85 256.1a29.89 29.89 0 0 0 -10.06-.56c-2.59.4-5.2 1.84-5.9 4.54a.12.12 0 0 0 .23.06c.76-2.83 3.71-4.11 6.39-4.38a35.67 35.67 0 0 1 9.28.55c.13 0 .19-.18.06-.21z" fill="#e86241"/><path d="m215 261.28a14.44 14.44 0 0 0 -8.52.59c-2.23.76-4.7 2.14-5 4.74 0 .12.19.15.22 0 .53-2.64 3-3.9 5.36-4.64a14 14 0 0 1 7.85-.49.12.12 0 0 0 .06-.23z" fill="#e86241"/><path d="m248.57 115.4a2.33 2.33 0 0 0 -2.2-1.17 3.27 3.27 0 0 0 -2.46 1.25c-1.61 1.94-1.63 5.12-.58 7.31 0 0 .17 0 .16 0a8.58 8.58 0 0 1 .15-6.36 3.27 3.27 0 0 1 2.32-2 2.29 2.29 0 0 1 2.35 1.07c0 .07.29 0 .26-.07z" fill="#e86241"/><path d="m246.78 116.72a3.55 3.55 0 0 0 -3.54 1.59 1.91 1.91 0 0 0 -.37 1.24s.13 0 .14 0c.08-.2.12-.41.19-.6a3.26 3.26 0 0 1 .26-.53 3.35 3.35 0 0 1 .82-.94 2.86 2.86 0 0 1 2.31-.59c.07 0 .35-.11.19-.14z" fill="#e86241"/><path d="m129.62 247.75-4.22 17.6a45.37 45.37 0 0 1 17.13 0c8.44 1.88 16.66 2.81 18.53 5.16l3.05-8.92z" fill="#f6dacf"/><g fill="#caaea5"><path d="m295.13 205.14-6.45 9.78c-1.93 2.93-3.95 5.89-4.83 9.33a33.47 33.47 0 0 0 -.55 10.38c.23 3.72.48 7.45.5 11.19q0 3.17-.16 6.32c-.14 2.19-.44 4.35-.69 6.53 0 .13.21.16.24 0a59.35 59.35 0 0 0 .94-11.06c.06-3.77-.11-7.53-.37-11.29a44.45 44.45 0 0 1 .08-10.69c.63-3.58 2.43-6.62 4.39-9.62q3.54-5.4 7.09-10.78a.11.11 0 0 0 -.19-.12z"/><path d="m148.18 209.2c5.42 4.91 7.95 12 9.72 18.89 1 4 1.87 8 2.76 12s1.79 7.86 2.27 11.86a54 54 0 0 1 -.08 13.8c0 .12.17.18.18 0a51.66 51.66 0 0 0 .34-12.3 94.67 94.67 0 0 0 -2.05-11.69c-.92-4.19-1.84-8.4-2.88-12.58a65.88 65.88 0 0 0 -3.32-10.34 28.21 28.21 0 0 0 -6.8-9.86c-.09-.08-.23.05-.14.13z"/><path d="m160.89 243.51a50.69 50.69 0 0 0 -3.69-5.38 20.3 20.3 0 0 0 -2.2-2.33 7.51 7.51 0 0 0 -2.37-1.67c-.6-.18-1 .23-.89.82a5.85 5.85 0 0 0 1.31 2.31c1.35 1.71 3.1 3 4.6 4.61a23.09 23.09 0 0 1 4.29 6.66c.06.13.28 0 .23-.1a18.85 18.85 0 0 0 -2.83-5 33.34 33.34 0 0 0 -4-4.08 22.2 22.2 0 0 1 -1.92-2 9.68 9.68 0 0 1 -.9-1.23c-.22-.36-.68-1-.62-1.42.12-1.08 1.4-.05 1.72.18a16.27 16.27 0 0 1 1.31 1.05 19.6 19.6 0 0 1 1.95 2 48.86 48.86 0 0 1 3.89 5.55c0 .08.16 0 .11-.06z"/><path d="m158.24 236.39a38.4 38.4 0 0 0 -12.54-13.89c-.06 0-.12.06-.06.1a42.39 42.39 0 0 1 12.47 13.87c0 .09.18 0 .13-.08z"/><path d="m250.6 358.65a21.06 21.06 0 0 1 -9.48 11.85.08.08 0 0 0 .08.14 20.3 20.3 0 0 0 9.65-11.93.13.13 0 0 0 -.25-.06z"/><path d="m194.65 363.92a30.37 30.37 0 0 1 -4-6.43c0-.06-.15 0-.12.05a24.86 24.86 0 0 0 4 6.48c.06.07.16 0 .1-.1z"/><path d="m194.34 369.7c-5.86-5-10.9-11.19-12.8-18.76a25 25 0 0 1 -.74-6.73.12.12 0 0 0 -.24 0c-.42 8 3.46 15.41 8.77 21.1a49.76 49.76 0 0 0 4.87 4.54c.1.08.25-.06.14-.15z"/><path d="m271.31 362.09a27.88 27.88 0 0 0 7.69-12.61.08.08 0 0 0 -.15 0 29.54 29.54 0 0 1 -7.68 12.49c-.1.1.05.25.16.16z"/><path d="m268 361.13a6.28 6.28 0 0 0 2.2-7.92.11.11 0 0 0 -.18 0 70.57 70.57 0 0 0 -6.35 12.57c0 .07.09.1.12 0a73.25 73.25 0 0 1 6.41-12.49h-.2a6.08 6.08 0 0 1 -2.14 7.6c-.12.08 0 .29.12.21z"/><path d="m176.74 366.2a44.19 44.19 0 0 1 -9.84-17.27c0-.08-.15-.05-.13 0a41.47 41.47 0 0 0 9.86 17.34c.07.07.17 0 .11-.11z"/><path d="m218.11 172.15s0 0 0 0z"/><path d="m221.61 175.18s0 0 0 0z"/></g><path d="m206 269.14a3.68 3.68 0 0 0 -.7-.39 3.21 3.21 0 0 0 -.79-.22c-.12 0-.18.16-.05.19a4.25 4.25 0 0 1 1.43.63c.12.08.24-.12.11-.21z" fill="#e86241"/><path d="m197.44 280.76a7.3 7.3 0 0 1 -8.08-2.06c-2.2-2.54-2.3-6.13-1.3-9.19 0-.06-.09-.11-.11 0a9.1 9.1 0 0 0 1.27 9.37 7.27 7.27 0 0 0 8.28 2c.06 0 0-.14-.06-.12z" fill="#e86241"/><path d="m253 260.56a11.3 11.3 0 0 1 -3.29 3 13.14 13.14 0 0 1 -4.08 1.48c-.09 0-.07.17 0 .16a10.52 10.52 0 0 0 7.52-4.52c.07-.11-.1-.2-.17-.1z" fill="#e86241"/><path d="m246.74 228.62a4.74 4.74 0 0 1 -2.17 5.19.08.08 0 0 0 .08.14 4.85 4.85 0 0 0 2.28-5.39.1.1 0 0 0 -.19.06z" fill="#e86241"/><path d="m243 235.24a7.4 7.4 0 0 1 -.65 3.76c0 .09.08.16.13.08a6.58 6.58 0 0 0 .78-3.84c0-.17-.28-.17-.26 0z" fill="#e86241"/><path d="m240.75 242.15a3.8 3.8 0 0 1 -1.37 3.18c-.06 0 0 .15.08.11a3.6 3.6 0 0 0 1.51-3.29c0-.14-.24-.15-.22 0z" fill="#e86241"/><path d="m237.86 252.77c-.48.19-1 .37-1.42.6-.09 0 0 .18.06.16.49-.15.95-.35 1.42-.54a.11.11 0 0 0 .08-.14.11.11 0 0 0 -.14-.08z" fill="#e86241"/><path d="m200.05 242.19a5.3 5.3 0 0 0 -.71 3.23 4.88 4.88 0 0 0 1.27 3c0 .05.13 0 .09-.07a6 6 0 0 1 -1.14-2.94 5.29 5.29 0 0 1 .69-3.07.12.12 0 0 0 -.2-.12z" fill="#e86241"/><path d="m203.79 251a3.54 3.54 0 0 0 -.24 3.16 1.86 1.86 0 0 0 .6.89s.13 0 .11-.08-.17-.26-.25-.4a2.46 2.46 0 0 1 -.23-.42 3.31 3.31 0 0 1 .19-3c.08-.12-.11-.23-.18-.11z" fill="#e86241"/><path d="m204.53 257.9a6.06 6.06 0 0 0 -.56 1.7 1.69 1.69 0 0 0 .43 1.51c.06.06.17 0 .12-.09a1.91 1.91 0 0 1 -.29-.69 2.21 2.21 0 0 1 0-.77 5.43 5.43 0 0 1 .52-1.53c.07-.15-.14-.27-.21-.13z" fill="#e86241"/><path d="m250.91 174.27c-5.07 8.09-16.66 6.64-22.95 13.24a9.86 9.86 0 0 0 -2.85 5.66c0 .15.24.19.27 0 .77-4.4 4.25-7.37 8.14-9.16 4.18-1.93 8.8-2.78 12.79-5.15a14 14 0 0 0 4.78-4.51c.08-.11-.11-.22-.18-.11z" fill="#caaea5"/><path d="m213.74 187.36a10.59 10.59 0 0 0 -4.73-5.18c-1.18-.72-2.43-1.3-3.67-1.91s-2.62-1.33-4-1.87c-.1 0-.15.12-.07.17 4.2 2.46 10.31 3.83 12.26 8.84 0 .12.23.07.19 0z" fill="#caaea5"/><path d="m222.46 143.32a22.84 22.84 0 0 0 -3.94-.58c-.67 0-1.35 0-2 0a9.94 9.94 0 0 0 -2 .19.12.12 0 0 0 0 .24c.64 0 1.29-.12 1.93-.15s1.3 0 1.94 0a22 22 0 0 1 3.95.55c.16 0 .23-.2.07-.24z" fill="#e86241"/><path d="m219.17 145.44a5.3 5.3 0 0 0 -1.74-.52c-.1 0-.12.15 0 .17a6.76 6.76 0 0 1 1.64.56c.14.07.26-.14.12-.21z" fill="#e86241"/><path d="m231.86 422.1c-2.66.34-5.35.63-8 1.11-.06 0-.05.11 0 .11 2.66-.25 5.33-.7 8-1.08.08 0 .06-.15 0-.14z" fill="#010101"/><path d="m47.66 434.75a8.39 8.39 0 0 1 -1.22 2.31 7 7 0 0 1 -.87.94l-.5.41c-.19.14-.34.3-.53.43a.17.17 0 0 0 .17.3 4.71 4.71 0 0 0 .63-.33 5.89 5.89 0 0 0 .55-.44 6.5 6.5 0 0 0 1-1 6.33 6.33 0 0 0 1.21-2.5.2.2 0 0 0 -.39-.11z" fill="#9a4c28"/><path d="m389.16 455.53a9 9 0 0 1 -3.29 9.08 0 0 0 0 0 0 .06 8.51 8.51 0 0 0 3.32-9.16s-.07 0-.06 0z" fill="#010101"/><path d="m281.35 362.78c-5.25-.81-10.53 1.14-15.17 3.38-2.48 1.21-4.9 2.54-7.38 3.75a33.47 33.47 0 0 1 -7.34 2.63c-2.79.63-5.62 1-8.44 1.41-.07 0-.05.13 0 .12 4.76-.6 9.64-1.18 14.06-3.17 5-2.26 9.73-5.33 15-7a22.52 22.52 0 0 1 9.22-1c.05 0 .06-.08 0-.09z" fill="#010101"/><path d="m241.31 373.46c-6.27 1.73-12.79-.54-19.09.78-.05 0 0 .08 0 .08a48 48 0 0 1 9.81-.12 28.35 28.35 0 0 0 9.28-.64.05.05 0 0 0 0-.1z" fill="#010101"/><path d="m213.21 374.3a82.53 82.53 0 0 1 -11.12.31c-3.73-.17-7.44-.57-11.13-1.05s-7.35-.91-11-1.63a33.65 33.65 0 0 1 -9.65-3.55c-1.62-.89-3.17-1.87-4.7-2.9s-3.09-2.28-4.71-3.29c-.05 0-.12 0-.07.08 1.3 1.09 2.74 2 4.13 3s2.82 1.88 4.29 2.73a34 34 0 0 0 9.27 3.81c3.58.84 7.28 1.25 10.92 1.73s7.5.95 11.27 1.17a59.94 59.94 0 0 0 12.49-.33c.05 0 0-.1 0-.09z" fill="#010101"/><path d="m483 100.54c6-3.47 13.71-5.18 18.41-5.84a45.58 45.58 0 0 1 19.22 2.07c11.18 3.77 20.83 12.23 25.37 23.23a41.58 41.58 0 0 1 .45 30.58c-3.77 9.76-12.33 17.27-22.15 20.89s-20.74 3.56-30.89 1c-7.57-1.87-15.25-5.46-19.3-12.11 5.13 4.43 14.85 3 21.54 1.86 12.6-2.12 25.5-13.11 27.51-25.73 2.06-13-8.16-27.47-21.1-33.17a35.59 35.59 0 0 0 -19.06-2.78z" fill="#f5a467"/><path d="m430.52 208.9-7.37-3.87 1.41 8.2-5.97 5.81 8.24 1.2 3.69 7.47 3.68-7.47 8.24-1.2-5.96-5.81 1.4-8.2z" fill="#f5a467"/><path d="m403.29 118.17-.1-4.64-3.63 2.9-4.44-1.34 1.64 4.34-2.65 3.81 4.64-.21 2.8 3.69 1.23-4.47 4.38-1.53z" fill="#f5a467"/><path d="m454.35 85.32-.1-4.64-3.63 2.9-4.44-1.34 1.64 4.34-2.65 3.81 4.64-.21 2.8 3.69 1.23-4.47 4.38-1.53z" fill="#f5a467"/><path d="m381.83 271.56a1.22 1.22 0 0 0 0-2.44 1.22 1.22 0 0 0 0 2.44z" fill="#fabf71"/><path d="m341.46 154a1.22 1.22 0 0 0 0-2.44 1.22 1.22 0 0 0 0 2.44z" fill="#fabf71"/><path d="m382 53.62a1.22 1.22 0 0 0 0-2.44 1.22 1.22 0 0 0 0 2.44z" fill="#fabf71"/><path d="m399.89 199.11a1.23 1.23 0 0 0 0-2.45 1.23 1.23 0 0 0 0 2.45z" fill="#fabf71"/></svg>