<svg viewBox="0 0 431.09 553.17" xmlns="http://www.w3.org/2000/svg"><path d="m39.12 420.43c0-2.61.13-5.21.23-7.78.65-15.92 1.65-31.94 5.65-47.38 6.6-25.88 21-49 32.49-73.07s20.39-51.12 14.89-77.26c-3-14.5-10.35-27.79-13.91-42.17-13.47-54.1 18.88-106.62 63.78-134.83 36.75-23.05 81.75-31.12 124.85-26.66 37.74 3.9 77.77 19.91 94.88 53.78 26.73 52.92-14.36 120.45 8.83 175 5 11.75 12.74 22.11 18.6 33.46 9.33 18.06 13.72 38.2 17.95 58.08 7.64 35.9 15.11 72.56 11.17 109.05-2.06 19.1-7.8 38.79-21.56 52.2-19.07 18.6-48.44 20.78-75.08 20.17a627.9 627.9 0 0 1 -100.77-10.46c-15.62-2.91-31.4-6.43-47.24-5.1-22.81 1.92-49.19 18.58-72.27 12.31-17.28-4.67-44.61-27.91-53.55-43.12-8.06-13.74-9.23-30.14-8.94-46.22z" fill="#f5f4f4"/><path d="m0 504.26c-1 28.64 183.19 58.56 271.62 45.94 31.31-4.47 53.62-23.55 77.34-26.3 43.27-5 77.45 5.32 82-18 7-36.07-200.74-35.88-253.12-35.52s-176.45-5.48-177.84 33.88z" fill="#f5f4f4"/><path d="m228.63 103s1.35 13.75 3.07 18.79c0 0-17.69 2-23.3.28 0 0 2.16-9.06-.86-25.59z" fill="#f08177"/><path d="m230 114.07c-.47.06-.94.12-1.43.15a26.27 26.27 0 0 1 -18.15-5.8c-.53-.42-1-.86-1.54-1.32a99.61 99.61 0 0 0 -1.38-10.62l21.13 6.52s.56 5.67 1.37 11.07z" fill="#c97547" opacity=".5"/><path d="m249.5 520.77.18 1.33a13.24 13.24 0 0 0 1.15 4.3c1.82 3.46 6.16 4.6 10 5.19s8.17 1.21 10.64 4.24a3.7 3.7 0 0 1 1 2.94 4.68 4.68 0 0 1 -.73 1.55c-1 1.6-2.13 3.28-3.85 4.08a10.34 10.34 0 0 1 -3.83.67c-7.5.33-13.82 1.59-21.2-.63a23.34 23.34 0 0 1 -6.77-2.82c-6.46-4.32-6-10.77-4.73-17.31 1.19-6 .94-13.09.66-19.17a36.31 36.31 0 0 1 .07-7.66 14.89 14.89 0 0 1 1.84-5.05 6.21 6.21 0 0 1 1.78-2.06 6.39 6.39 0 0 1 2.88-.88 14.36 14.36 0 0 1 7.72 1.13 10.47 10.47 0 0 1 4.95 4.62c.83 1.82-.35 3.92-.76 5.74a56.37 56.37 0 0 0 -1 19.79z" fill="#f08177"/><path d="m222 463.67c.3 9.18 2.47 37.91 2.47 37.91s15.88 6 32.69.88c0 0 4.64-23.78 5.46-37.16.55-8.9 6.62-44.05 6.92-81.78l-56.48 1.81c2.94 24.14 8.72 71.55 8.94 78.34z" fill="#bcc8d7"/><path d="m225.34 489.28a52.49 52.49 0 0 0 32.22.28c.27-.08.16-.51-.12-.42a52.46 52.46 0 0 1 -25.07 1.5 53.11 53.11 0 0 1 -6.91-1.79c-.27-.09-.38.34-.12.43z" fill="#8b9caf"/><path d="m261.1 307.12c2.9-5 3.69-8 3.83-9v-.2c.06-1-.25-7.72 1.32-13.53l.58-5.94c.33-3.36.72-6.91 2.74-9.62s6.24-4.08 8.84-1.92a7.17 7.17 0 0 1 2.06 3.4c2.57.8 4 1.84 3.84 5.19-.24 6.81 2.19 13.82 2.16 20.87a77.36 77.36 0 0 1 -3.74 24.25 9.89 9.89 0 0 1 -4.91 6.25c-2.71 1.73-4.82 4.17-7.6 5.85a6.34 6.34 0 0 1 -3.7 1.17 5 5 0 0 1 -4-3.68 14.75 14.75 0 0 1 -.2-5.7l1.26-12.88c-1.35 2.05-2.63 3.52-3.47 3.35s-1.99-2.72.99-7.86z" fill="#f08177"/><path d="m288.48 296.2a3.56 3.56 0 0 1 -.85 2.62 3.1 3.1 0 0 1 -1.14.55c-6.56 2-13.59-2.82-16.63-9s-3.12-13.25-3.35-20.1a340.37 340.37 0 0 0 -4-41.67c-.34-2.18-.75-4.46-2.12-6.2s-4-2.67-5.84-1.44a18.53 18.53 0 0 1 11.12-17.34c5-2.07 8.49-.35 13.39-.07 3.11.18 6.12-1.84 8.85 1.11a11.46 11.46 0 0 1 2.31 5.36c2.85 12.15-.13 23.52-.3 35.79q-.32 25.19-1.44 50.39z" fill="#5c5f7f"/><path d="m186.46 307.12c-2.91-5-3.69-8-3.84-9v-.2c0-1 .26-7.72-1.31-13.53l-.58-5.94c-.33-3.36-.72-6.91-2.74-9.62s-6.24-4.08-8.84-1.92a7.09 7.09 0 0 0 -2.06 3.4c-2.57.8-4 1.84-3.85 5.19.25 6.81-2.18 13.82-2.16 20.87a77.94 77.94 0 0 0 3.74 24.25 9.9 9.9 0 0 0 4.92 6.25c2.71 1.73 4.82 4.17 7.59 5.85a6.37 6.37 0 0 0 3.71 1.17 5 5 0 0 0 4-3.68 14.37 14.37 0 0 0 .2-5.7q-.63-6.43-1.25-12.88c1.35 2.05 2.63 3.52 3.47 3.35s1.98-2.72-1-7.86z" fill="#f08177"/><path d="m159.08 287.5a3.49 3.49 0 0 0 .85 2.61 3.15 3.15 0 0 0 1.13.56c6.57 2 13.6-2.82 16.64-9s3.12-13.25 3.35-20.1a338.41 338.41 0 0 1 4-41.67c1.47-9.39 5.73-22.05 2.45-31.31-3.08-8.68-12.1-16-20.63-18.76a5.89 5.89 0 0 0 -3-.37c-2.56.55-3.42 3.72-3.77 6.32q-2.12 16.13-3.12 32.38c-.6 9.81.53 19.18.67 29q.35 25.17 1.43 50.34z" fill="#5c5f7f"/><path d="m268.81 396.13-7.56.74c-1.77.18-4 .08-5.2 1.66s-1.08 3.76-1.25 5.55c-.25 2.52-.49 5-.74 7.57l-1.47 15c-.39 4-1.47 8.86 1.21 12.27 2.4 3 6.69 3.85 10.35 3.7.28 0 .28-.45 0-.44-3.22.13-6.89-.46-9.31-2.78-3.14-3-2.31-7.65-1.93-11.51q.68-6.94 1.36-13.89c.23-2.31.45-4.63.68-6.94l.34-3.47a23.67 23.67 0 0 1 .38-3 3.56 3.56 0 0 1 1.72-2.59 10 10 0 0 1 3.49-.62l7.93-.78c.28 0 .28-.47 0-.44z" fill="#8b9caf"/><path d="m198 518.14.18 1.33a13.24 13.24 0 0 0 1.15 4.3c1.82 3.46 6.16 4.6 10 5.19s8.17 1.21 10.64 4.24a3.7 3.7 0 0 1 1 2.94 4.68 4.68 0 0 1 -.73 1.55c-1 1.6-2.13 3.28-3.85 4.08a10.34 10.34 0 0 1 -3.83.67c-7.5.33-13.82 1.59-21.2-.63a23.34 23.34 0 0 1 -6.77-2.82c-6.46-4.32-6-10.77-4.73-17.31 1.19-6 .94-13.09.66-19.17a36.3 36.3 0 0 1 .07-7.66 14.89 14.89 0 0 1 1.84-5.05 6.21 6.21 0 0 1 1.78-2.06 6.39 6.39 0 0 1 2.88-.88 14.36 14.36 0 0 1 7.72 1.13 10.47 10.47 0 0 1 5 4.62c.83 1.82-.35 3.92-.76 5.74a56.37 56.37 0 0 0 -1.05 19.79z" fill="#f08177"/><path d="m168.74 463.36c.29 9.17-.53 33.66-.53 33.66s29.53 6.36 46.34 1.23c0 0 4.64-23.77 5.46-37.16.55-8.9 6.63-44 6.93-81.78l-54-12.74c-4.2 25.78-4.42 89.99-4.2 96.79z" fill="#bcc8d7"/><path d="m176.59 485.26a52.86 52.86 0 0 0 25.06 2 53.59 53.59 0 0 0 7.16-1.7.22.22 0 0 0 -.12-.43 52.24 52.24 0 0 1 -25.08 1.5 51.38 51.38 0 0 1 -6.9-1.78c-.27-.09-.39.34-.12.43z" fill="#8b9caf"/><path d="m226.2 391.92-7.56.74c-1.77.18-4 .09-5.2 1.66s-1.07 3.76-1.25 5.55c-.25 2.52-.49 5.05-.74 7.57l-1.47 15c-.38 4-1.47 8.86 1.22 12.27 2.39 3.05 6.68 3.85 10.34 3.7.28 0 .28-.45 0-.44-3.22.13-6.89-.46-9.31-2.77-3.13-3-2.3-7.65-1.93-11.52q.69-6.94 1.36-13.89c.23-2.31.45-4.63.68-6.94l.34-3.47a23.67 23.67 0 0 1 .38-3 3.56 3.56 0 0 1 1.72-2.59 10.26 10.26 0 0 1 3.49-.62l7.93-.78c.28 0 .28-.47 0-.44z" fill="#8b9caf"/><path d="m261.76 169.94-5.16-36.83c-4.89-1.58-9.85-2.94-14.87-4-2.47-.54-5.15-.16-6.53-2.27-.89-1.35-.63-3.11-.43-4.71s.27-3.43-.85-4.59a5.54 5.54 0 0 0 -3.32-1.28 97.23 97.23 0 0 0 -22.68-.59 3.55 3.55 0 0 0 -2.46.9 3.59 3.59 0 0 0 -.68 1.78c-.32 1.68.31 5 0 6.72-4.34 2.48-10.57 2.28-15.49 3.19-4.67.87-9.6 1-13.82 3.2a20.64 20.64 0 0 0 -8.71 9.47 40.27 40.27 0 0 0 -2.62 7.41c-.63 2.38-1.83 4.35-2.2 6.83a308.22 308.22 0 0 0 -3.07 30.92 66.34 66.34 0 0 0 .43 14 25.75 25.75 0 0 0 5.55 12.72c6.78 7.84 17.83 9.34 27.52 9.55 23.48.51 47 1 70.44-.38-.63-17.68-.81-32.53-1.05-52.04z" fill="#5c5f7f"/><path d="m189.83 175.54 5.17-36.83q7.33-2.39 14.87-4.05c2.47-.54 5.15-.16 6.53-2.27.88-1.35.63-3.11.42-4.71-.26-2 .42-2.47.95-4 .64-1.88.31-3.91 1.19-5.79a5.12 5.12 0 0 1 4.21-3.15 130.31 130.31 0 0 1 18.53.87l-.14 3.27a17 17 0 0 0 .6 6.66c2.88 7.75 13.61 7.06 20.16 8.28 4.67.86 9.59 1 13.82 3.2a20.49 20.49 0 0 1 8.7 9.46 49.26 49.26 0 0 1 3.74 12.5 166.46 166.46 0 0 1 2.86 25.09c.17 4.32.16 8.65.16 13 0 9.53-.51 19.12-.51 28.66.76.28 0 1.53-.81 1.55l-31 .67c-23.48.52-47 1-70.44-.38.57-17.67.78-32.52.99-52.03z" fill="#5c5f7f"/><path d="m270.86 318.75c.22-18.52.31-37.23-3.65-55.33-10-4.35-21.4-1.87-32.26-1.13-9.73.66-19.45-.18-29.16-.69-6.87-.35-21.92-3-25.95 2.57-4.6 6.38-4.21 22-4.88 29.66-.88 10-1.16 20.08-1.44 30.13q-.3 10.68-.61 21.37l-.66 23.51c-.12 4-2.77 18.53.61 21.12.82.63 6.75.15 8 .29 3.8.43 7.59 1.05 11.4 1.48a214.17 214.17 0 0 0 22.92 1.46 244.1 244.1 0 0 0 35.81-3c7.23-1.05 16.33-.56 18.57-8.85 2.19-8.13.57-18.87.74-27.19q.34-17.68.56-35.4z" fill="#bcc8d7"/><path d="m229.54 309.25c-.71 10-1.12 20-1.66 30s-1.08 20.14-1.59 30.22c-1 20.15-2 40.3-2.71 60.46-.41 11.31-.84 22.64-1 33.95 0 .22.33.22.34 0 .64-20.16 1.22-40.32 2.11-60.48s1.97-40.29 2.97-60.4c.58-11.24 1.31-22.48 1.71-33.72 0-.11-.17-.11-.18 0z" fill="#8b9caf"/><path d="m236.51 266.62c-.19 3.21 0 6.47 0 9.68v19.23a26.51 26.51 0 0 1 -1 8.91 28.66 28.66 0 0 1 -2.1 4.53c-.78 1.41-1.77 2.73-2.47 4.18-.05.11.09.24.17.13a26.89 26.89 0 0 0 2.26-3.57 33.88 33.88 0 0 0 1.89-3.76 21.82 21.82 0 0 0 1.59-8.6c0-6.52 0-13 0-19.56 0-1.82 0-3.64 0-5.46s.06-3.81 0-5.71a.09.09 0 0 0 -.17 0z" fill="#8b9caf"/><path d="m229.55 311.83c-.51-6.2-1.26-12.4-1.92-18.59s-1.33-12.4-2-18.6c-.37-3.39-.65-6.81-1.13-10.19a.11.11 0 0 0 -.22 0c.23 3.11.64 6.21 1 9.3s.67 6.12 1 9.18q1 9.23 2 18.47c.38 3.47.73 6.95 1.2 10.41a0 0 0 1 0 .08 0z" fill="#8b9caf"/><path d="m276.2 188.82c-.91-2.85-3.08-5.48-6-6.1-3.51-.73-6.87 1.5-9.85 3.51a95.28 95.28 0 0 1 -29.49 13.77c-12.14 3.1-25.45 3.36-36.45 8.91-5 .85-9.59 2.23-13 4.52-4.8 3.22-4.93 8.24-4.71 13.51.24 5.85 1.2 11.68.78 17.55-.49 6.72-1.41 13.4-2.12 20.1-.23 2.15-1.4 5.76.32 7.51s5 2.59 7.17 3.2c13.67 3.89 28.24-1.57 42.41-.53 3.49.26 6.94.91 10.43 1.17a54.71 54.71 0 0 0 13-.71c3.79-.63 8-2.21 11.84-2.23h4.47a3.2 3.2 0 0 0 2.44-.69 1.64 1.64 0 0 0 .37-.84l1.38-.3a5.1 5.1 0 0 0 2.43-1 4.8 4.8 0 0 0 1.18-2.66c1.57-7.58 1.89-15.35 2.2-23.07q1-23.34 1.91-46.67c.09-3.04.2-6.1-.71-8.95z" fill="#5c5f7f"/><path d="m256.8 84.84c3.62-.35 10.18-6.09 11.07-15.75s-10.2-7.41-11.37-4.38c-.35-3.61-17.06-21.78-36.43-9.88 1-2-.68-3.31-3.58-.29-1.69-2.39-5.26-.07-3.33 2.63-5.44.95-14.22 7.36-10.23 27 15.88 15.24 23.81 16.12 23.81 16.12s13.13-4.74 14.52-5.51 15.54-9.94 15.54-9.94z" fill="#151525"/><path d="m256.8 84.84s-6 27.48-12.6 32.77c-5 4-10.9 6.69-18.66 4.38a23.32 23.32 0 0 1 -13.23-10.53 26.81 26.81 0 0 1 -3.62-14c-3.6-1.38-10.1-5.41-5.76-13.3 2.51-4.26 9.62-2.39 10.9 3.32 1.12 2.17 3.37.86 6.09-4s5.09-8.7 5.69-9.12 14.79 12.43 31.19 10.48z" fill="#f08177"/><path d="m234 83s-4.5 1.53-7 .74-2.54 1.7 1.52 2.46 6.09-.19 6.76-1.17.07-2.42-1.28-2.03z" fill="#151525"/><path d="m247.51 87.86s2.23 3.55 4.3 4.26.81 2.64-2.32 1-4-3.4-3.94-4.49 1.23-1.81 1.96-.77z" fill="#151525"/><path d="m241.68 92.86c-.32 1.53-.66 3-1 4.55l-1.15 4.5c-.21.76-.38 1.48-.64 2.27a2.46 2.46 0 0 1 -.7 1 2.43 2.43 0 0 1 -1.14.47 7 7 0 0 1 -4.47-1.25 8.84 8.84 0 0 0 2.17.8 5.17 5.17 0 0 0 2.24.13 2.37 2.37 0 0 0 1-.43 2.07 2.07 0 0 0 .57-.88c.22-.7.39-1.49.59-2.23l1.24-4.5c.37-1.46.82-2.95 1.29-4.43z" fill="#603223"/><path d="m231.13 94a4.43 4.43 0 0 1 -2.68 2.22 3.83 3.83 0 0 1 -1.78 0 5.31 5.31 0 0 1 -.86-.26c-.27-.12-.52-.27-.78-.4a7 7 0 0 0 1.66.5 3.89 3.89 0 0 0 1.7-.08 4.17 4.17 0 0 0 1.53-.77 5.74 5.74 0 0 0 1.21-1.21z" fill="#b16036"/><path d="m242.64 100.17a8.88 8.88 0 0 0 .86 1.33 7.69 7.69 0 0 0 1.06 1.15 6.35 6.35 0 0 0 1.25.93 8.19 8.19 0 0 0 1.45.64 5.43 5.43 0 0 1 -1.52-.5 6 6 0 0 1 -1.33-.91 6.8 6.8 0 0 1 -1.77-2.64z" fill="#b16036"/><path d="m209.81 94a13 13 0 0 0 .42-1.93 7.93 7.93 0 0 0 .1-1.94 4.63 4.63 0 0 0 -.48-1.81 3.18 3.18 0 0 0 -1.28-1.32c-.28-.14-.57-.25-.86-.37l-.93-.19a2 2 0 0 0 -1.61.62 2.75 2.75 0 0 0 -.68 1.71 2.5 2.5 0 0 0 .1.94 1.14 1.14 0 0 0 .59.73 1.14 1.14 0 0 1 -.71-.68 2.43 2.43 0 0 1 -.22-1 3 3 0 0 1 .64-1.95 2.31 2.31 0 0 1 1.93-.82l1 .19c.32.12.65.24 1 .39a3.68 3.68 0 0 1 1.44 1.51 4.39 4.39 0 0 1 .45 2 8.94 8.94 0 0 1 -.9 3.92z" fill="#cd9a92" opacity=".5"/><path d="m229.42 92.11c-.29 1.54-1.43 2.62-2.54 2.41s-1.77-1.64-1.48-3.18.47 1.34 1.58 1.55 2.74-2.32 2.44-.78z" fill="#1a1e1e"/><path d="m246.77 98.9c-.3 1.55-1.3 2.65-2.24 2.47s-1.46-1.58-1.16-3.12.49 1.44 1.43 1.62 2.27-2.51 1.97-.97z" fill="#1a1e1e"/><path d="m258.1 65.56a4.59 4.59 0 0 1 4.43 1.91 3.91 3.91 0 0 1 -.13 4.47c-1.86 2.69-5.48 3.9-8.54 4.49-6.92 1.35-14.11-.21-20.71-2.32-3.26-1-6.51-2.44-8.84-5-.08-.09-.2 0-.13.13 2.11 2.53 5.17 3.92 8.23 4.94a60.71 60.71 0 0 0 11.2 2.69 31.13 31.13 0 0 0 11.22-.36 17.7 17.7 0 0 0 4.76-1.8 8.29 8.29 0 0 0 3.41-3.32 4 4 0 0 0 -.41-4.2 4.74 4.74 0 0 0 -4.49-1.71c-.05 0-.05.08 0 .08z" fill="#353554"/><path d="m261.62 64.87a4.32 4.32 0 0 1 3.64 2.86 6.33 6.33 0 0 1 -.42 5.22 15.2 15.2 0 0 1 -3.31 4.21 11.89 11.89 0 0 1 -4.87 2.84 14.72 14.72 0 0 1 -6.89 0c-.1 0-.15.14 0 .16a14.39 14.39 0 0 0 6.46.25 11.63 11.63 0 0 0 5.28-2.86c2.61-2.35 5.54-6.17 4-9.87a4.49 4.49 0 0 0 -3.82-2.91.06.06 0 0 0 0 .11z" fill="#353554"/><path d="m262.76 62.74c4.87.31 7.69 5.53 7.43 10-.27 4.65-3.57 8.68-7.43 11-2.52 1.52-5.7 2.28-8.36.62-.11-.07-.21.11-.1.18 4.51 3.18 10.49-1.1 13.29-4.68s3.9-8.77 1.51-13a8 8 0 0 0 -6.34-4.24c-.09 0-.08.13 0 .14z" fill="#353554"/><path d="m214.76 58.12c-4.75-1.33-9.47 1.39-12 5.38-2.65 4.25-3.63 10.22-1.47 14.86a9.72 9.72 0 0 0 5.33 5.12c.09 0 .15-.12.07-.15-4.58-2-6.6-6.89-6.26-11.68s2.46-9.71 6.62-12.2a9.87 9.87 0 0 1 7.64-1.21c.07 0 .1-.1 0-.12z" fill="#353554"/><path d="m236.49 112.06a2 2 0 0 0 -.53-1.33 2.92 2.92 0 0 0 -1.31-.9 16.16 16.16 0 0 0 -1.81-.5l-.92-.22a2.48 2.48 0 0 0 -.92-.11c-.18 0-.15.25-.05.33a2.19 2.19 0 0 0 .75.28l.82.24 1.62.47a2.89 2.89 0 0 1 1.23.69 4.18 4.18 0 0 1 .64 1.17c.11.24.43.1.45-.12z" fill="#1a1e1e"/><path d="m182.26 175.09a301.93 301.93 0 0 0 -4.68 37.91 321.91 321.91 0 0 0 0 38.17c.4 6.91 1.35 14-.51 20.84a.17.17 0 0 0 .32.08c1.67-5.91 1.14-12.08.74-18.12q-.61-9.58-.68-19.19a327.69 327.69 0 0 1 2-38.11c.8-7.21 1.77-14.4 3-21.54 0-.08-.11-.12-.12 0z" fill="#1f1f1f"/><path d="m275.82 172a325.75 325.75 0 0 1 .89 39.52c-.47 13.13-1.58 26.23-2.92 39.29-.76 7.4-1.61 14.79-2.43 22.19 0 .16.23.16.25 0 1.49-13.14 3-26.29 4-39.48s1.75-26.18 1.64-39.3c-.06-7.42-.44-14.84-1.14-22.22 0-.19-.31-.19-.29 0z" fill="#1f1f1f"/><path d="m208.49 128.23c2.82 3 6.79 4.29 10.79 4.79a51.57 51.57 0 0 0 6.46.31 37 37 0 0 0 6.13-.34c2-.34 4.43-1.09 5.67-2.89.06-.09-.08-.18-.16-.11a10.53 10.53 0 0 1 -2.44 1.69 11.44 11.44 0 0 1 -2.82.83 35.37 35.37 0 0 1 -6 .37c-3.94 0-8-.1-11.76-1.4a14.4 14.4 0 0 1 -5.63-3.49.17.17 0 0 0 -.24.24z" fill="#1f1f1f"/><path d="m276.1 198.81a71.05 71.05 0 0 1 -5.1 12.41 87.45 87.45 0 0 1 -7.33 11.05c-.1.14.13.32.24.19a51 51 0 0 0 7.64-11.05 58.52 58.52 0 0 0 5-12.48.22.22 0 0 0 -.43-.12z" fill="#1f1f1f"/><path d="m209.28 274.13a13.88 13.88 0 0 1 -8.91-11.84c0-.19-.31-.2-.3 0a13.39 13.39 0 0 0 9.11 12.23c.25.08.34-.3.1-.39z" fill="#1f1f1f"/><path d="m243.26 274.54a8.09 8.09 0 0 0 1.3-1.25 12.23 12.23 0 0 0 1-1.46 10.17 10.17 0 0 0 .73-1.57 5.07 5.07 0 0 0 .4-1.75c0-.14-.22-.22-.28-.08-.22.51-.36 1.05-.56 1.56a11.3 11.3 0 0 1 -.75 1.57 13.23 13.23 0 0 1 -2.11 2.72c-.18.17.08.4.26.26z" fill="#1f1f1f"/><path d="m182.8 175.41a33.46 33.46 0 0 1 2.74-4c.48-.61 1-1.21 1.5-1.79s1.18-1.17 1.7-1.81c.08-.1 0-.28-.15-.19a12.07 12.07 0 0 0 -1.72 1.63 25.09 25.09 0 0 0 -1.66 1.92 30.47 30.47 0 0 0 -2.69 4.13c-.1.18.18.35.28.16z" fill="#1f1f1f"/><g fill="#010101"><path d="m173.68 34.07c-.89 1.87-1.75 3.75-2.61 5.63s-1.73 3.68-2.41 5.58a.11.11 0 0 0 .21.09c1-1.75 1.85-3.63 2.7-5.47s1.72-3.71 2.56-5.57c.13-.3-.31-.56-.45-.26z"/><path d="m205.07 29.25c-1.31 2.87-2.62 5.75-3.86 8.65-.05.11.1.2.16.09 1.36-2.84 2.67-5.71 4-8.58.09-.18-.19-.35-.28-.16z"/><path d="m164.77 58.93c-.85 2.9-1.7 5.79-2.49 8.7a.1.1 0 1 0 .2.06c.93-2.87 1.81-5.76 2.68-8.65.08-.25-.31-.35-.39-.11z"/><path d="m147.63 35.39-1.2 3.74c0 .12.15.17.19.06l1.28-3.72c.06-.18-.22-.25-.27-.08z"/><path d="m311.68 66.46c-1.17 3.34-2.42 6.66-3.43 10.05-.06.2.24.28.32.08 1.31-3.28 2.39-6.67 3.55-10 .1-.28-.35-.4-.44-.12z"/><path d="m337.38 70.1c-.72 3.34-1.46 6.68-2.06 10 0 .12.15.17.18 0 .87-3.3 1.59-6.64 2.33-10 .06-.29-.38-.41-.45-.12z"/><path d="m296.7 59c-1.29 3.71-2.65 7.4-3.83 11.14 0 .11.13.15.17 0 1.44-3.66 2.71-7.39 4-11.09.09-.23-.29-.34-.38-.1z"/><path d="m306.76 115-1.85 5c-.61 1.65-1.28 3.3-1.81 5 0 .12.16.21.22.09.69-1.61 1.27-3.27 1.88-4.91l1.9-5.06c.08-.21-.26-.3-.34-.09z"/><path d="m290.58 100-1.2 3.74a.1.1 0 0 0 .2.06l1.29-3.72c.06-.18-.23-.26-.29-.08z"/><path d="m152.51 83.85c-.83 2.9-1.68 5.79-2.43 8.72 0 .11.14.15.18 0 .92-2.87 1.73-5.78 2.57-8.67a.17.17 0 0 0 -.32-.09z"/><path d="m140.17 61.46a17.23 17.23 0 0 0 -2.45 11.29c0 .11.2.08.19 0a18.65 18.65 0 0 1 2.61-11.06.2.2 0 0 0 -.35-.2z"/><path d="m192.9 1.18c11.91 1 23.64 4.17 35.59 4.14 9.73 0 19.32-2.18 28.95-3.55a179.31 179.31 0 0 1 41.8-1c10.18 1 20.94 3.11 28.29 10.22 3.88 3.77 6.36 10.47 2.57 14.32-4 4.09-10.76 1.3-16.21-.45-14.06-4.51-29.2-.1-43.91 1.21-27.08 2.4-54.26-5.95-81.34-3.53-10.36.92-21 3.38-31 .25a11.6 11.6 0 0 1 -6-3.73c-1.44-1.92-1.75-4.84-.16-6.64 2.56-2.92 7.54-3.37 11.06-4.29a22.67 22.67 0 0 0 3.13-1 36.61 36.61 0 0 0 6-3.75c5.63-3.73 14.71-2.74 21.23-2.2z"/></g></svg>