<svg viewBox="0 0 522.5 490.8" xmlns="http://www.w3.org/2000/svg"><path d="m60.12 53.11s26.41-56.21 109.18-52.98 77.77 50.73 134.27 43.59 115.43-45.47 171.33 15.11c64.88 70.27-29.47 142.86 14.1 185.46 78.13 76.34 15.41 179.59-144.83 174.71-132.9-4-135.92-25.37-210.07 7.17s-151.83-57.49-130.52-135 94.28-54.91 56-113.44.54-124.62.54-124.62z" fill="#c8cde0"/><path d="m97.15 225.69c-.84-.24-20.52-6-20-19.57l2.87.1c-.4 11.35 17.78 16.65 18 16.7z" fill="#443a65"/><path d="m355.23 136.11s-221.1-10.51-231.68 16.89c-21.44 55.49-127.55 321.6-53.31 322.53 22.2.28 210.57 6.3 258.65-14s26.34-325.42 26.34-325.42z" fill="#7b5673"/><path d="m18.59 364.62s42.27-137.47 58.05-164.06 2.36-42.88 12.41-46.1 18.1 13.88 23.33 15.19 56.12-6.91 126.74 8.53c10.55 2.31 25.16-11 26.18-4.31s-22.3 143.39-46.64 179.26-15 59.42-20.91 61.4-14.11-12.12-14.11-12.12-117.26-33.58-132.31-27.75-32.84 16.71-36.55 12.76 3.81-22.8 3.81-22.8z" fill="#eaba77"/><path d="m82 292.19s4.71 17.82 24.72 34.42c15.18 12.6 30.72 7.86 45.2 31.4s23.86 34.12 42 19.87 5.42-26.76 21.73-31.11 29.83-9.46 31.35-30.26-15.74-19.95 6.47-25.18 17.32-29.05-1-50.21-64.39-21.83-83.34-29.23c-21.93-8.59-103.13.81-87.13 80.3z" fill="#362c4d"/><path d="m193 293.84s31.26 12.13 39.73 9.64 5.78-61 30.19-64.55 87.68 23.75 87.68 23.75l-69.6 186.43s-75.22-24.29-74.78-36.84 20.45-57.35 12-66.17-39.22-14.64-39.22-14.64z" fill="#cd5e6d"/><path d="m103.13 295.09s61.86 69.73 101.5 28.1c25.09-26.36-13.06-77.64-41.23-89.1s-63.33 29.82-60.27 61z" fill="#d27878"/><ellipse cx="178.14" cy="269.88" fill="#2f1f35" rx="3.54" ry="4.54" transform="matrix(.67339969 -.73927861 .73927861 .67339969 -141.34 219.83)"/><ellipse cx="150.31" cy="308.72" fill="#2f1f35" rx="3.54" ry="4.54" transform="matrix(.67339969 -.73927861 .73927861 .67339969 -179.13 211.94)"/><path d="m188.85 263.17s-8.94-16.18 1.94-16.85 20.63 19.86 15.53 25.34-14.55-1.08-17.47-8.49z" fill="#d27878"/><path d="m136.25 319.89s-13.43-8.81-13 2.08 22.6 16.27 27.56 10.66-6.9-10.56-14.56-12.74z" fill="#d27878"/><path d="m92.31 273.78s15.09 8.47 19 17.33 27.36 25.9 20.1 26.34-48.56-15.04-39.1-43.67z" fill="#362c4d"/><path d="m88.25 278.46s11.71 45.28 22.63 40.6 34.91-26.84 32-38.36-20.3-20.33-20.3-20.33 16.24 11.46 30.05 7.17 23.45-34.49 18.73-34.6-33.77-16.5-59.19.05-23.92 45.47-23.92 45.47z" fill="#362c4d"/><path d="m357.72 463c-28.56-15.82-93.51-71.57-94.16-72.14l1.47-1.71c.65.56 65.43 56.16 93.79 71.87z" fill="#fff"/><path d="m161.23 446.76s12.55-70.59 39-128.55 20.77-184.33 34.23-191.27 48.21 5.88 105.61 2.38 114.05 4 127.62 4c90.8-.16-21 335.65-43.43 338.5-84.32 10.73-131.07 4.43-177.45 10.3s-98.81 17.88-85.58-35.36z" fill="#6c868c"/><path d="m281.67 479.52s-10.78-44.4 38.48-113.89 34.38-127.45 33.39-157.58-.72-78.89 6.08-82.21 34.32-.6 47 1.29-1.37 41.19 2 95-23.45 146.87-45.55 176.76 3.32 71.31-7.22 77.63-74.18 3-74.18 3z" fill="#576c7e"/><path d="m401.92 474.09s3-39.15 22.76-92.62c27.23-73.61 39.32-140.88 38.32-169.68s-16.56-76.32-10.67-79.44 45.24.59 56.25 2.47-.91 39.36 2.36 90.83-20.6 153.76-28.56 187c-10.22 42.68-12.23 48.62-21.35 54.59s-51.46 17.05-59.11 6.85z" fill="#576c7e"/><path d="m175.3 485s-13.3-25.52 17.26-89c37-76.73 51.7-144.91 50.71-175s3-92 9.48-95.91c14.07-8.4 51.84.74 64.49 2.63s-23 46-19.62 99.8-19.3 140.83-41.39 170.69-7.52 78.68-18.06 85-54.17 12.43-62.87 1.79z" fill="#576c7e"/><path d="m164.61 389.7s6.58-16.7 21.39-23.59c14.12-6.52 40.87 3.45 43.89 12.84s-37.51-2.88-37.51-2.88 35 12.12 32.81 19.31c-2 6.61-32.64.66-32.64.66s30.16 6.67 27.36 13.69-39.12-8-51.92 6.9c-5.94 6.94-8.16-20-3.38-26.93z" fill="#d27878"/><path d="m189.12 401.55-2.2-1.85c.1-.11 9.53-11.54 6.76-23.95l2.81-.62c3.08 13.81-6.94 25.87-7.37 26.42z" fill="#cb5d6d"/><path d="m208.17 206.27s-2.55 17.82 7 31.08c9.07 12.64 37.24 17.17 44.51 10.49s-34-16-34-16 36.39 6.71 38.07-.61c1.54-6.72-28.06-16.68-28.06-16.68s29.53 9.09 30.55 1.6-38-12.32-41.75-31.62c-1.83-8.98-17.06 13.36-16.32 21.74z" fill="#d27878"/><path d="m228.7 234.68-2.13-1.93c8.56-9.45 6-24 5.94-24.16l2.82-.52c.13.65 2.87 16.12-6.63 26.61z" fill="#cb5d6d"/><circle cx="85.91" cy="219.32" fill="#362c4d" r="22.72"/><path d="m162.09 289s22.86 6.92 21.08 10.69-7.34 12.08-9.45 12-19.49-23.56-11.63-22.69z" fill="#c74b66"/><path d="m154.85 316.91-.52-2.1.26 1.05-.27-1.05c.44-.11 4.24-1.23 3.43-5.94l2.12-.36c.94 5.43-2.87 7.87-5.02 8.4z" fill="#2f1f35"/><path d="m181.81 280.6-.18-2.15s4.37-.4 6.07-3.08l1.82 1.15c-2.28 3.59-7.52 4.06-7.71 4.08z" fill="#2f1f35"/><path d="m190.19 308.56c-.12-.22-2.93-5.22-1.11-9.72 1.07-2.62 3.43-4.48 7-5.52l.6 2.07c-2.94.85-4.83 2.28-5.63 4.25-1.44 3.52.95 7.8 1 7.85z" fill="#2f1f35"/><path d="m151.65 256c-20.51 0-29-12.83-29.34-13.38l2.41-1.56c.33.5 8.2 12.26 27.46 12.06v2.88z" fill="#443a65"/><path d="m156.47 240.54c-22.56 0-32.5-11.74-32.94-12.27l2.22-1.83c.11.12 10.89 12.68 35 11.08l.19 2.87c-1.53.1-3.03.15-4.47.15z" fill="#443a65"/><path d="m203.71 229.08c-.16-.16-17.28-15.51-45.73-21.54-28.08-5.93-47.88 14.46-48.08 14.69l-2.08-2c.2-.21 21.11-21.78 50.75-15.52 29.26 6.2 46.37 21.57 47.08 22.23z" fill="#362c4d"/><path d="m161.62 383.55c-10-4.5-13-18.85-15.32-30.38a96.55 96.55 0 0 0 -2.4-10c-1.29-3.88-10.64-6.69-20.54-9.67-14.8-4.44-33.21-10-42-22.75-15.09-22 2.17-64.29 2.91-66.08l2.66 1.1c-.18.43-17.41 42.64-3.21 63.36 8.28 11.87 26.1 17.28 40.46 21.59 11.56 3.47 20.69 6.22 22.45 11.52a99.17 99.17 0 0 1 2.49 10.35c2.23 10.89 5 24.45 13.68 28.34z" fill="#362c4d"/><g fill="#443a65"><path d="m98.68 226.12-1.47-.38c-10.39-2.67-15.68-17.35-15.9-18l2.72-.95c0 .13 4.4 12.21 12.29 15.6a28.47 28.47 0 0 0 -3.9-15.28l2.49-1.42c5.73 10 4.14 18.56 4.07 18.91z"/><path d="m208.24 251.18c-.17-.16-17.19-15.93-27.36-20s-24.37-6.84-24.51-6.87l.53-2.82c.59.11 14.49 2.79 25 7s27.55 19.91 28.26 20.57z"/><path d="m129.81 283.45c-22.54-5-26-35.59-26.15-36.89l2.86-.31c0 .3 3.4 29.81 23.92 34.4z"/><path d="m116 301.89c-20-10.49-20.22-41.65-20.23-43h2.88c0 .31.28 30.75 18.69 40.43z"/><path d="m173.38 366.33c-3.4-6.51-13.87-24-21.23-26.66l1-2.71c9.93 3.6 22.29 27 22.81 28z"/></g><path d="m199 267.56c-6.9-5.59-7.05-12-7.05-12.23h2.87-1.43 1.43c0 .21.2 5.34 6 10z" fill="#cb5d6d"/><path d="m143.22 328.75c-5.6-4.2-8.61-1.88-8.74-1.78l-1.86-2.18c.19-.17 4.77-4 12.32 1.66z" fill="#cb5d6d"/><path d="m183.71 348.89a108.43 108.43 0 0 1 -15.71-8.08l1.49-2.45a107.29 107.29 0 0 0 15.26 7.85z" fill="#443a65"/><path d="m115.19 158.18s-10.9 6.12-11.84 14.91a10.27 10.27 0 0 0 4 2.15c1.35.35 6.68-11.22 12.29-13.34s-4.45-3.72-4.45-3.72z" fill="#362c4d"/><path d="m125.07 163.12s-9.6 8-8.92 16.83a8.32 8.32 0 0 0 4.33 1.38c1.4 0 4.53-12.25 9.66-15.36s-5.07-2.85-5.07-2.85z" fill="#362c4d"/><path d="m174.76 133.72s12.37-1.82 18.5 4.55a4.43 4.43 0 0 1 -1.86 4.15c-1.1.87-12.15-4.78-17.89-3s1.25-5.7 1.25-5.7z" fill="#362c4d"/><path d="m170 143.69s12.5.46 17.36 7.84c0 0 .43 2-2.58 3.74-1.22.69-11.07-6.91-17-6.23s2.22-5.35 2.22-5.35z" fill="#362c4d"/><path d="m113.27 122.88s-2.46-10.85 7.5-16.41 22.31 4 17.15 6.91-4.64-16.38 9.69-15.38 18.68 24.32 12.61 24.41 0-10.18 11-4.37 10 26.12.58 27.52-9.92-9.47-5.75-7 9.55 14.73-5.94 18.61-13.47-9.63-10.58-7.5 10 11.88-5.58 14.88-17-9.2-14.45-8.82 6.47 14.77-9 9.51-13.14-20.36-9.41-21.45 10.72 7.87 2.65 5.22-14.81-18.22-.47-26.13z" fill="#f7ece9"/><path d="m111.52 131.44s-27.52 8.17-16.03 18.56 33.84.87 31-10.84-7.77-11.23-14.97-7.72z" fill="#362c4d"/><path d="m116.85 131.13s3.59-10.29 9.2-9.93-6.16 11.72-6.16 11.72l4.13 9.54s11.63-7.34 14.47-4.39-14.67 8.2-15.68 8.64-5.96-15.58-5.96-15.58z" fill="#362c4d"/><path d="m110.78 134.63s-2.74 2.73-1.92 4.14 4.32-.91 4.32-.91.95 2-3.87 3.06-4.99-4.01 1.47-6.29z" fill="#f7ece9"/><path d="m114.43 143.5s-2.74 2.74-1.92 4.14 4.32-.91 4.32-.91 1 2-3.87 3.06-4.96-4 1.47-6.29z" fill="#f7ece9"/><path d="m227.91 96.58s-12.49.48-17.34 7.87a10.49 10.49 0 0 0 2.59 3.74c1.05.93 11.06-6.94 17-6.27s-2.25-5.34-2.25-5.34z" fill="#362c4d"/><path d="m234.45 105.49s-12.19 2.75-15.61 10.9a8.27 8.27 0 0 0 3.22 3.2c1.22.69 9.62-8.83 15.6-9.26s-3.21-4.84-3.21-4.84z" fill="#362c4d"/><path d="m292.08 102s11.84 4 14.39 12.48a4.42 4.42 0 0 1 -3.55 2.84c-1.37.27-8.63-9.79-14.54-10.84s3.7-4.48 3.7-4.48z" fill="#362c4d"/><path d="m283.28 108.67s10.91 6.11 11.87 14.9c0 0-.55 2-4 2.15-1.39 0-6.7-11.21-12.32-13.32s4.45-3.73 4.45-3.73z" fill="#362c4d"/><path d="m242.3 64.29s2.77-10.78 14.16-11.18 18.05 13.71 12.12 14 3.32-16.67 15.66-9.31 5.53 30.16.08 27.47 4.63-9.07 11.8 1.14-3 27.82-12 24.75-4.51-12.95-1.92-8.85 1.78 17.45-13.77 13.85-7.6-14.72-6-11.51 3.51 15.16-11.75 10.7-10.91-15.92-8.84-14.43-1 16.09-12.3 4.37-2.41-24.11 1.4-23.38 6 11.89 0 5.86-5-22.98 11.36-23.48z" fill="#f7ece9"/><path d="m236.84 71.11s-28.26-5.31-22.74 9.23 29.72 16.21 32.57 4.52-1.82-13.59-9.83-13.75z" fill="#362c4d"/><path d="m241.73 73.26s7.88-7.52 12.71-4.63-10.83 7.62-10.83 7.62l-.67 10.37s13.7-1.22 14.88 2.69-16.79.61-17.9.54 1.81-16.59 1.81-16.59z" fill="#362c4d"/><path d="m234.73 73.61s-3.69 1.19-3.6 2.81 4.26 1.16 4.26 1.16-.09 2.25-4.83 1-2.62-5.88 4.17-4.97z" fill="#f7ece9"/><path d="m233.93 83.17s-3.69 1.19-3.6 2.81 4.26 1.16 4.26 1.16-.09 2.25-4.83 1-2.62-5.88 4.17-4.97z" fill="#f7ece9"/><path d="m362.08 141.7s-12.1-3.17-18.89 2.49a10.39 10.39 0 0 0 1.4 4.33c.73 1.19 12.6-3.42 18.11-1.05s-.62-5.77-.62-5.77z" fill="#362c4d"/><path d="m365.74 152.13s-12.47-.92-18.11 5.89a8.36 8.36 0 0 0 2.16 4c1 1 11.77-5.66 17.62-4.33s-1.67-5.56-1.67-5.56z" fill="#362c4d"/><path d="m421.9 165.52s10.16 7.28 10.14 16.12a4.41 4.41 0 0 1 -4.22 1.7c-1.39-.14-5.41-11.88-10.76-14.61s4.84-3.21 4.84-3.21z" fill="#362c4d"/><path d="m411.54 169.36s8.66 9 7 17.7c0 0-1.11 1.77-4.46.9-1.35-.36-3.16-12.67-7.92-16.32s5.38-2.28 5.38-2.28z" fill="#362c4d"/><path d="m385.23 115s5.77-9.52 16.77-6.6 13.29 18.36 7.54 16.89 8-15 17.69-4.35-3.47 30.46-7.9 26.31 7.06-7.34 10.95 4.51-10.92 25.75-18.68 20.24-.55-13.71.74-9-3.38 17.22-17.21 9.25-3-16.29-2.4-12.75-1 15.52-14.35 6.82-5.81-18.4-4.26-16.38-5.61 15.12-13 .61 4.7-23.77 8.14-22 2.24 13.11-1.72 5.6 1.88-23.44 17.69-19.15z" fill="#f7ece9"/><path d="m378 119.92s-25.5-13.29-24.44 2.23 23.72 24.15 29.85 13.79 2.22-13.53-5.41-16.02z" fill="#362c4d"/><path d="m382.07 123.4s9.73-4.9 13.51-.74-12.58 4.15-12.58 4.15l-3.66 9.73s13.46 2.81 13.46 6.9-16.25-4.3-17.29-4.69 6.56-15.35 6.56-15.35z" fill="#362c4d"/><path d="m375.27 121.7s-3.87.07-4.26 1.65 3.74 2.34 3.74 2.34-.73 2.13-4.9-.48-.85-6.35 5.42-3.51z" fill="#f7ece9"/><path d="m371.73 130.62s-3.87.06-4.26 1.64 3.74 2.35 3.74 2.35-.74 2.13-4.91-.49-.8-6.34 5.43-3.5z" fill="#f7ece9"/></svg>