<svg viewBox="0 0 410.54 459.39" xmlns="http://www.w3.org/2000/svg"><path d="m127.23 227.42s-80.91-67.53-91.77-62.71-38.34 20.78-31 35.83 64.5 86.57 79 82 49.7-49.36 43.77-55.12z" fill="#d27878"/><circle cx="213.37" cy="36.07" fill="#362c4d" r="36.07"/><path d="m245.14 61.78s15.86 4.35 26.17 30.22c7.85 19.65 2.93 35.91 22.17 58.46s19.08 55.26-20.73 57.49c-24.71 1.39-36.66 19.68-58.39 14.36s-21.78-8.34-42.72-7.77c-24.47.66-36.29-4.75-43.94-21.06-12.7-27.14 10.69-40.32 10.64-64.48-.05-25.34 17.6-96.79 106.8-67.22z" fill="#362c4d"/><path d="m230.66 151.09s-1 64.6 0 73.62 58.92 4.67 76.54 21.13-41.56 65.16-77.51 86.07c-27.55 16.06-121.52-89.66-99-90.43s59.58-7.64 58.57-24.14-1.61-31.52-1.61-31.52 39.74-32.21 43.01-34.73z" fill="#d27878"/><path d="m251 104.1s14.79 99.9-41.85 103.52c-39 2.5-58.89-62.6-49.63-93.88s67.42-33.09 91.48-9.64z" fill="#d27878"/><path d="m166.91 152.41s-7.58-18.32-15.42-9.65 2.82 30.58 10.83 30 8.84-12.94 4.59-20.35z" fill="#d27878"/><path d="m249.64 152.37s1.61-17.16 10.47-9.52-1.51 29.84-9.53 30.23-4.24-12.83-.94-20.71z" fill="#d27878"/><path d="m239.09 68.42s28.55 14.38 27.91 47.1c-.24 12.74-45 15.75-52.69 5.59s-8.24-38.29-8.24-38.29.06 33.61-12.8 42.31-47.58 4.44-44.51.4 7.84-53.72 38.73-63.93 51.6 6.82 51.6 6.82z" fill="#362c4d"/><circle cx="233.52" cy="171.14" fill="#cb5d6d" r="10.19"/><circle cx="179.35" cy="171.14" fill="#cb5d6d" r="10.19"/><path d="m237.16 120.84c-10.27-10.85-13.22-51.25-13.34-53l3.08-.22c0 .41 3 41 12.51 51.06z" fill="#3f345c"/><path d="m180.27 113.06c-.09-.29-2.16-7.25.22-16.85 2.18-8.76 8.67-21.47 27.23-32.31l1.56 2.67c-33.59 19.6-26.14 45.32-26.06 45.58z" fill="#3f345c"/><path d="m154.2 112.15-2.92-1c.6-1.79 15.14-43.91 47.13-49.13l.5 3c-30.15 4.98-44.57 46.7-44.71 47.13z" fill="#3f345c"/><path d="m253.34 116-3-.76c.07-.27 6.5-26.47-11.24-45.8l2.28-2.08c18.9 20.64 12.26 47.53 11.96 48.64z" fill="#3f345c"/><path d="m285.58 186.62c-.05-23.92-12.58-39.44-12.71-39.62l2.38-2c.55.66 13.37 16.53 13.42 41.54z" fill="#3f345c"/><path d="m258.71 200.54-1.71-2.54c.1-.08 10.23-7.28 6-30.34l3-.55c4.66 25.21-6.8 33.11-7.29 33.43z" fill="#3f345c"/><path d="m170.7 207.26c-.53-.22-12.93-5.8-16.25-30.25l3.06-.41c3.06 22.55 14.3 27.78 14.41 27.83z" fill="#3f345c"/><path d="m145.5 201.18c-.69-.26-16.72-6.71-3.65-44.09l2.92 1c-12.09 34.55 1.67 40.13 1.81 40.18z" fill="#3f345c"/><path d="m219.34 49.14 1-2.56c3.88-9.61-5.75-29.93-5.85-30.13l2.79-1.34c.39.82 8.81 18.62 6.71 29.9 3.26-1 8.83-3.29 11-7.89 1.66-3.59 1-8.07-2.13-13.32l2.67-1.56c3.62 6.18 4.38 11.62 2.26 16.19-3.78 8.11-15.23 10.16-15.71 10.24z" fill="#3f345c"/><path d="m207 48.58a11.54 11.54 0 0 1 -6.4-6.63c-4.18-10.46 3.28-27.78 3.6-28.51l2.8 1.23c-.07.17-7.26 16.87-3.56 26.14a8.46 8.46 0 0 0 4.74 4.92z" fill="#3f345c"/><path d="m183.79 141.93c-1.65-.67-6.51-2.3-9.1-1.82l-.42-2.21c3.79-.73 10.11 1.84 10.37 1.95z" fill="#261d35"/><path d="m229.56 139.47-1.46-1.71c2.93-2.49 9.68-3.43 10-3.47l.3 2.24c-1.8.23-6.83 1.23-8.84 2.94z" fill="#261d35"/><circle cx="179.35" cy="148.48" fill="#261d35" r="5.12"/><circle cx="234.71" cy="147.27" fill="#261d35" r="5.12"/><path d="m162.17 164.24-2.89-.83c1.47-5.06-5.16-11.14-5.22-11.2l2-2.23c.34.3 8.1 7.41 6.11 14.26z" fill="#cb5d6d"/><path d="m251.81 161.1-3-.3c.71-7 4.89-9.48 5.07-9.58l1.5 2.6-.75-1.3.76 1.29c-.1.08-3.03 1.92-3.58 7.29z" fill="#cb5d6d"/><path d="m209.85 140.86s7.69 19.67 4.09 20.49-12.4 1.5-13.51 0 5.75-26.43 9.42-20.49z" fill="#c74b66"/><path d="m146.49 213.23c-.39 0-39.2-2.73-38.65-35.94.34-20.29 12.79-32.81 22.78-42.86 5.81-5.84 10.83-10.89 11.11-15.57l3 .18c-.35 5.81-5.74 11.23-12 17.51-9.62 9.67-21.59 21.71-21.91 40.79-.21 12.68 5.68 22 17.5 27.85a54.43 54.43 0 0 0 18.33 5z" fill="#362c4d"/><path d="m295.68 202.68-.26-3a16.28 16.28 0 0 0 10.43-6.13c3.79-5 4.82-12.39 3-22-2.65-14.42-9.34-20-17.08-26.42-6.81-5.65-14.52-12.07-20-25.63l2.78-1.13c5.2 12.86 12.29 18.76 19.14 24.46 7.85 6.52 15.26 12.69 18.12 28.17 1.93 10.5.7 18.71-3.65 24.41a19 19 0 0 1 -12.48 7.27z" fill="#362c4d"/><path d="m271.14 173.64a1.88 1.88 0 0 1 -.43 0c-1.78-.45-3.46-.88 5.05-57.79 2.69-18-.71-31.95-10.1-41.5-18.81-19.15-55.81-14.52-56.19-14.47l-.39-3c1.57-.2 38.84-4.87 58.72 15.33 10.08 10.26 13.76 25.09 10.92 44.06-7 46.64-6.72 54-6.44 55.08l.92.33c-.6 1.6-1.44 1.96-2.06 1.96zm-.5-2.92 1.64.6a1.3 1.3 0 0 0 -1-.67 1.35 1.35 0 0 0 -.64.07z" fill="#362c4d"/><path d="m175.09 233.42s3.09 48.94 45.6 34.36c21.58-7.4 23-37.72 23-37.72 13.46-.86 73.72 2.08 84 20.32s9.19 175.2 12.61 196.31-213.48 9.23-240.5 10.55-.33-142.45-5.7-174.11 62.9-50.62 80.99-49.71z" fill="#7b5673"/><path d="m209.56 212.82c-8.83 0-14.88-6.29-15.14-6.56l1.64-1.55c.05.06 5.67 5.85 13.51 5.85h.34c5.55-.12 10.93-3.11 16-8.88l1.69 1.48c-5.49 6.28-11.43 9.53-17.65 9.65z" fill="#cb5d6d"/><path d="m130.56 115.86s4.55-2.92 14.27-3.48c7.7-.45 19.93 2.29 26.69-2.95 8.43-6.51-28.26-7.65-25.52-8.09s36.87-1.14 29.73-6.53-20.11-4.78-26.8-4.62c0 0 30.62-2.57 27.39-6.92s-11.73-4.45-25.39-1-39.12 14.21-40.77 17.93 13.32 17.06 20.4 15.66z" fill="#d27878"/><path d="m285.11 116s-13.61-9.94-23.34-10c-7.72 0-19.79 3.31-26.82-1.56-8.75-6.08 27.83-9.1 25.08-9.4s-36.89.76-30-5 19.84-5.82 26.52-6c0 0-30.71-1-27.71-5.5s11.48-5 25.3-2.37 36.25 14.18 38.08 17.83.03 23.05-7.11 22z" fill="#d27878"/><path d="m159.56 89.24c-6.08-19.63-30.9-13.48-32-13.2l-.75-2.91c.29-.07 28.65-7.15 35.58 15.23z" fill="#362c4d"/><path d="m174.75 93.15c-24.2-6.48-54.21-1.24-54.51-1.19l-.52-2.96c1.25-.23 31-5.41 55.81 1.24z" fill="#362c4d"/><path d="m134.34 109.87-2.12-2.12c15.08-15.07 41.34-7 42.45-6.7l-.89 2.87c-.26-.09-25.66-7.82-39.44 5.95z" fill="#362c4d"/><path d="m130.56 115.86s-56.21 91.83-92.38 94.37c-22.17 1.56-44.12-3.18-36-37.14 5.02-20.85 122.58-86.09 125.82-81.39s2.56 24.16 2.56 24.16z" fill="#d27878"/><path d="m285.77 225.64s80.92-67.52 91.77-62.7 35.53 22.55 28.22 37.6-61.68 84.8-76.15 80.27-49.77-49.4-43.84-55.17z" fill="#d27878"/><path d="m282.45 114.08s56.2 91.84 92.38 94.38c22.17 1.56 42-3.36 33.85-37.32-5-20.85-119.71-83.41-122.91-78.67s-3.32 21.61-3.32 21.61z" fill="#d27878"/><path d="m175.09 232.94s-56.42-27.86-66.37-21.21-66 41.92-60.59 59.1 50.38 53.88 60.91 59.5 68.01-83.83 66.05-97.39z" fill="#7b5673"/><path d="m252.48 232.74s48.81-34.29 58.76-27.65 71.14 41.57 65.71 58.75-50.08 60.87-60.61 66.49-65.81-84.03-63.86-97.59z" fill="#7b5673"/><g fill="#362c4d"><path d="m244.46 86.24-1.46-2.6c13.83-8 34.5-5.42 35.37-5.31l-.38 3c-.23-.05-20.58-2.54-33.53 4.91z"/><path d="m282.58 101.34c-16.05-12.32-38.78-2.18-39-2.08l-1.25-2.73c1-.46 24.61-11 42.09 2.43z"/><path d="m336.49 98.55c-6.08 0-10.89-4.46-15.59-8.82-1.52-1.4-3.06-2.83-4.68-4.16-8.7-7.11-17.74-1.79-18.12-1.56l-1.56-2.56c.11-.07 11.2-6.67 21.58 1.8 1.68 1.37 3.28 2.85 4.82 4.28 7.42 6.88 13.3 12.32 24 3.06l2 2.27c-4.77 4.14-8.83 5.69-12.45 5.69z"/><path d="m274.45 41.56-2.63-1.43c.06-.12 6.39-11.4 19.61-9.2 2.12.35 4.23.83 6.3 1.31 9.88 2.27 17.68 4 22.36-9.32l2.84 1c-5.58 15.92-15.9 13.55-25.87 11.26-2-.47-4.05-.94-6.12-1.28-11.2-1.9-16.43 7.57-16.49 7.66z"/><path d="m391.18 74.12c-6.33 0-11.09-4.79-15.73-9.47-1.46-1.46-2.94-3-4.5-4.35-8.45-7.51-17.94-2.37-18-2.32l-1.46-2.62c.11-.07 11.47-6.21 21.48 2.7 1.61 1.43 3.14 3 4.64 4.47 7.13 7.19 12.77 12.87 23.88 4.06l1.83 2.41c-4.69 3.67-8.65 5.12-12.14 5.12z"/><path d="m2.69 65.26-2.69-1.32c7.46-15.13 17.41-11.53 27-8 2 .66 4 1.37 6 1.96 10.86 3.18 17.23-5.53 17.29-5.62l2.4 1.72c-.07.11-7.7 10.52-20.57 6.75-2.12-.58-4.12-1.32-6.12-2.04-9.52-3.44-17-6.15-23.31 6.55z"/><path d="m45.46 105.15c-3.62 0-7.68-1.57-12.44-5.69l2-2.27c10.72 9.26 16.6 3.83 24-3.06 1.54-1.42 3.13-2.9 4.81-4.27 10.37-8.49 21.46-1.86 21.58-1.8l-1.57 2.56c-.38-.23-9.41-5.56-18.12 1.56-1.62 1.33-3.16 2.75-4.67 4.16-4.71 4.36-9.52 8.81-15.59 8.81z"/><path d="m117.77 40.44c-.21-.38-5.37-9.52-16.49-7.67-2.06.34-4.11.81-6.12 1.28-10 2.28-20.29 4.65-25.86-11.26l2.83-1c4.68 13.37 12.48 11.58 22.36 9.32 2.05-.47 4.16-1 6.31-1.31 13.2-2.2 19.54 9.08 19.6 9.2z"/><path d="m187 63c-11.47-4.71-17.74-11-18.66-18.78-1.85-15.79 19.46-31.33 20.37-32l1.75 2.43c-.2.16-20.79 15.18-19.13 29.22.77 6.58 6.43 12.07 16.81 16.34z"/><path d="m210.27 285.27c-35.18 0-48.22-34.12-48.35-34.47l2.82-1.05c.52 1.43 13.35 34.88 49.19 32.39 35.6-2.45 37.45-37.54 37.51-39l3 .12c0 .39-2 39.27-40.31 41.9-1.31.06-2.61.11-3.86.11z"/><path d="m334.53 317.86c-6-25.91-20.27-46.15-20.41-46.35l2.45-1.74c.14.21 14.71 20.93 20.89 47.41z"/><path d="m96.4 322.89-3-.23c.07-.92 1.8-22.75 9.75-40.35l2.74 1.24c-7.74 17.12-9.48 39.11-9.49 39.34z"/></g><path d="m195.35 178.27s5.86-17.5 17.81-8.7 8.48 14-2.07 16.6-17.96-3.28-15.74-7.9z" fill="#f7ece9"/></svg>