<svg viewBox="0 0 563.57 786.21" xmlns="http://www.w3.org/2000/svg"><path d="m483.65 151.71s-8.38 59-17.61 54.21-34.62-23.58-38.72-14.41-28.43 54-31.18 47.68 11-89 17.83-86.82 41.32 25.13 44.74 20.26 24.06-58.39 24.94-20.92z" fill="#e9ba78"/><path d="m558.61 344.76s-39.7 44.44-44.73 35.33-15.72-38.82-24.22-33.47-53.59 29.13-52.38 22.38 58.48-67.94 63-62.35 20.44 43.83 26 41.68 52.39-35.24 32.33-3.57z" fill="#e9ba78"/><path d="m8.71 372.51s52.55-28.11 54.13-17.83 1.44 41.86 11.27 39.75 60.33-8.95 56.88-3-78.26 43.73-80.58 36.93-4.14-48.18-10.09-48.06-61.32 15.07-31.61-7.79z" fill="#e9ba78"/><path d="m57.56 161.9s59.57-1.92 56.43 8-17.24 38.17-7.5 40.63 58.06 18.69 52.34 22.47-89.52 4.55-88.59-2.58 17.62-45 12.23-47.55-61.67-13.63-24.91-20.97z" fill="#e9ba78"/><path d="m237.71 9.85s-21.58 55.55-11.17 55.88 41.73-3.61 40.81 6.4-1.62 61 3.84 56.83 34-83 27-84.43-48.33 1.69-48.93-4.23 7.57-62.7-11.55-30.45z" fill="#e9ba78"/><circle cx="289.61" cy="198.54" fill="#362c4d" r="46.61"/><path d="m330.66 231.77s20.46 5.62 33.82 39.09c10.14 25.4 3.78 46.41 28.65 75.55s24.65 71.41-26.79 74.29c-31.93 1.79-47.38 25.43-75.46 18.56s-28.15-10.78-55.2-10.05c-31.62.86-46.9-6.13-56.79-27.22-16.46-35.1 13.82-52.13 13.76-83.4-.07-32.71 22.74-125.04 138.01-86.82z" fill="#362c4d"/><path d="m312 347.18s-1.29 83.48 0 95.13 76.14 6 98.9 27.32-53.68 84.14-100.14 111.22c-35.67 20.76-157.1-115.85-128.02-116.85s77-9.87 75.69-31.2-2.08-40.74-2.08-40.74 51.37-41.63 55.65-44.88z" fill="#d27878"/><path d="m338.26 286.45s19.11 129.1-54.08 133.79c-50.35 3.22-76.11-80.9-64.14-121.33s87.1-42.76 118.22-12.46z" fill="#d27878"/><path d="m229.56 348.89s-9.79-23.68-19.92-12.47 3.64 39.52 14 38.74 11.42-16.69 5.92-26.27z" fill="#d27878"/><path d="m336.48 348.83s2.08-22.17 13.52-12.3-1.95 38.56-12.31 39.07-5.49-16.6-1.21-26.77z" fill="#d27878"/><path d="m284.19 373.24c5 .87 9.88 5.33 14.48 13.31l-3.46 2c-4.45-7.73-9-11.7-13.23-11.45-5.89.34-10.76 8.75-12.14 12l-3.67-1.58c.25-.56 6.05-13.81 15.58-14.36a11.07 11.07 0 0 1 2.44.08z" fill="#2f1f35"/><path d="m322.85 240.35s36.89 18.58 36.1 60.86c-.31 16.46-58.14 20.36-68.09 7.23s-10.65-49.44-10.65-49.44.07 43.44-16.54 54.68-61.49 5.74-57.52.52 10.13-69.42 50-82.61 66.7 8.76 66.7 8.76z" fill="#362c4d"/><circle cx="315.65" cy="373.09" fill="#cb5d6d" r="13.16"/><circle cx="245.64" cy="373.09" fill="#cb5d6d" r="13.16"/><g fill="#443a65"><path d="m320.35 308.08c-13.27-14-17.09-66.23-17.25-68.44l4-.28c0 .53 3.86 53 16.16 66z"/><path d="m246.83 298c-.11-.38-2.8-9.37.28-21.76 2.82-11.33 11.21-27.76 35.2-41.76l2 3.44c-43.41 25.34-33.78 58.57-33.67 58.91z"/><path d="m213.14 296.85-3.78-1.27c.78-2.32 19.57-56.75 60.92-63.49l.64 3.94c-38.92 6.35-57.59 60.28-57.78 60.82z"/><path d="m341.26 301.86-3.86-1c.08-.34 8.39-34.2-14.53-59.17l2.94-2.7c24.42 26.61 15.83 61.4 15.45 62.87z"/><path d="m382.92 393.09c-.06-30.91-16.26-51-16.43-51.16l3.08-2.53c.71.85 17.27 21.36 17.34 53.69z"/><path d="m348.2 411.09-2.2-3.32c.13-.09 13.22-9.41 7.8-39.2l3.93-.71c5.91 32.6-8.9 42.81-9.53 43.23z"/><path d="m226.54 421.37c-.6-.43-14.66-11-11.93-42.73l4 .34c-2.51 29.3 10.18 39.07 10.31 39.16z"/><path d="m201.9 411.91c-.89-.33-21.61-8.67-4.71-57l3.76 1.32c-15.62 44.64 2.16 51.85 2.34 51.91z"/><path d="m297.32 215.44 1.34-3.32c5-12.41-7.44-38.68-7.57-38.94l3.6-1.72c.51 1 11.39 24.06 8.67 38.63 4.21-1.27 11.42-4.25 14.17-10.19 2.15-4.64 1.23-10.43-2.75-17.21l3.45-2c4.68 8 5.66 15 2.91 20.92-4.87 10.48-19.67 13.13-20.29 13.24z"/><path d="m281.32 214.7a14.92 14.92 0 0 1 -8.28-8.56c-5.4-13.52 4.24-35.9 4.66-36.85l3.65 1.6c-.09.22-9.38 21.8-4.6 33.78a11 11 0 0 0 6.12 6.36z"/></g><path d="m242.79 358.84-.64-3.13c2.25-.46 8.61-2.16 11-4.52l2.23 2.29c-3.56 3.52-12.23 5.29-12.59 5.36z" fill="#2f1f35"/><path d="m319.43 356.81a40.61 40.61 0 0 1 -10.64-1.93l1-3c2.18.72 8.54 2.41 11.82 1.55l.8 3.1a12.22 12.22 0 0 1 -2.98.28z" fill="#2f1f35"/><circle cx="245.64" cy="343.81" fill="#2f1f35" r="6.62"/><circle cx="317.18" cy="342.25" fill="#2f1f35" r="6.62"/><path d="m284.26 423.91a38.8 38.8 0 0 1 -17.26-4.12l1.19-4.14c.11 0 .36.15.72.33 7.56 3.79 23 8 41.63-6.41l2.61 3.36c-10.82 8.35-20.71 10.98-28.89 10.98z" fill="#cb5d6d"/><path d="m223.62 364.23-4.09-1.23c1.55-5.35-4.31-12.12-6.7-14.28l2.85-3.16c.44.44 10.54 9.69 7.94 18.67z" fill="#cb5d6d"/><path d="m283.09 337.17s9.92 25.41 5.28 26.47-16 1.93-17.45 0 7.42-34.16 12.17-26.47z" fill="#c74b66"/><path d="m203 427.64c-.37-.05-36.89-6.11-36.17-49 .44-26.2 11.4-41.49 20.21-53.77 5.29-7.37 9.46-13.2 9.83-19.32l4.25.26c-.44 7.35-5.16 13.92-10.62 21.54-8.46 11.8-19 26.49-19.41 51.36-.66 39.13 31.2 44.54 32.55 44.76z" fill="#362c4d"/><path d="m396 414-.36-4.24a20.76 20.76 0 0 0 13.36-7.76c4.87-6.42 6.18-15.93 3.9-28.27-3.41-18.57-12-25.73-22-34-8.82-7.33-18.81-15.64-25.91-33.21l4-1.6c6.7 16.58 15.84 24.18 24.68 31.53 10.17 8.46 19.78 16.44 23.47 36.53 2.51 13.61.91 24.27-4.75 31.68a24.7 24.7 0 0 1 -16.39 9.34z" fill="#362c4d"/><path d="m364.26 376.52a2.64 2.64 0 0 1 -.6-.08c-2.49-.63-4.64-1.18 6.38-74.89 3.46-23.19-.91-41.18-13-53.48-24.25-24.67-72-18.7-72.46-18.64l-.55-4.22c2-.27 50.28-6.31 76 19.87 13.08 13.3 17.85 32.51 14.18 57.1-9.15 61.19-8.68 69.93-8.31 71.16a1.79 1.79 0 0 0 -1.42-1.06 2 2 0 0 0 -1.16.17l3.74 1.36c-.77 2.19-1.93 2.71-2.8 2.71z" fill="#362c4d"/><path d="m196.88 306.1c-5.94-27.63-2.13-48.77 11.33-62.85 25.14-26.31 74.38-18.38 76.46-18l-.71 4.2c-.48-.07-49.11-7.89-72.69 16.78-12.41 13-15.85 32.84-10.22 59z" fill="#362c4d"/><path d="m336.22 448s-6.52 63.8-50.34 61.29-44.75-62.78-54.8-59.75-82.34 1.75-106 49.72-28.75 146.74-24.71 265.24c.88 25.84 347.9 31.25 348.91 1.7 2.48-72.63.39-287.8-29-301.11s-84.06-17.09-84.06-17.09z" fill="#7b5673"/><path d="m404.9 628s-10.63-72.76 5.1-76 68.93-26.18 78.62-6.67 14.87 100.11-4.94 123.29c-7.57 8.8-78.78-40.62-78.78-40.62z" fill="#d27878"/><path d="m395.79 583s86.19 10 101.4 5.62c0 0 9.63-148.11-161-140.65.03.03 42.07 129.25 59.6 135.03z" fill="#7b5673"/><path d="m128.34 659.84s-42.65-14.19-55.51-82.65c-2.75-14.64 1.17-139.49 145.17-128.52 0 0-72.13 205.39-89.66 211.17z" fill="#7b5673"/><path d="m153 565-79 18c-1.28 54.51 25.09 112.7 94.89 90 18.82-6.08 32.76-87.11-15.89-108z" fill="#d27878"/><path d="m486 639.41s33 45.74-46.32 72.63-239.08-82-272.63-71.69-38.05-35.45 26.7-46.21 231.08-10.56 292.25 45.27z" fill="#d27878"/><path d="m450.11 623.8c-5.92-7.25-48-19.37-63.73-23.42l1.07-4.13c5.92 1.53 58.08 15.21 66 24.86z" fill="#cb5d6d"/><path d="m106.67 665.72s60.26 46.32 90.26-30.86c22.85-58.79 55-217.44 51.45-229.19s-22.65-43-24.6-53.34-7.32 9.54-.15 22.83c0 0-4.52-30.26-5.18-35.76s-14.58 14-4.19 36.21c0 0 .7-41.75-4.62-39.19s-12.6 27.33-11.23 42.22 20 30.5 15.85 39.09-103.26 142.84-107.17 177.96-.42 70.03-.42 70.03z" fill="#d27878"/><path d="m250.82 408.8-4.26-.1a35.31 35.31 0 0 0 -5.86-18.46c-6.6-9.79-23.93-38.6-24.82-54.13l4.25-.25c.83 14.5 18.11 43.12 24.1 52a39 39 0 0 1 6.59 20.94z" fill="#cb5d6d"/><path d="m98.51 580.75h27.72v4.26h-27.72z" fill="#cb5d6d" transform="matrix(.38074763 -.924679 .924679 .38074763 -469.38 464.82)"/><path d="m339.47 360.14-4.24-.43c.94-9.13 6.42-12.39 6.66-12.52l2.12 3.69-1.01-1.88 1.08 1.83c-.2.17-3.91 2.47-4.61 9.31z" fill="#cb5d6d"/><path d="m288.77 521.61c-31.76 0-44.38-19.88-44.94-20.79l3.62-2.24c.56.89 14 21.88 49 18.39 20.91-2.08 37.85-27.61 38-27.87l3.56 2.33c-.74 1.12-18.24 27.5-41.16 29.77a78.73 78.73 0 0 1 -8.08.41z" fill="#362c4d"/><path d="m403.76 593.33-4.26-.17c.94-22.49-9.8-45.13-9.91-45.36l3.84-1.84c.46.96 11.3 23.83 10.33 47.37z" fill="#362c4d"/></svg>