<svg viewBox="0 0 704.67 871.77" xmlns="http://www.w3.org/2000/svg"><path d="m610.82 205.53c59.18 82.32 91.18 164.39 93.65 242.18 2.77 77.8-23.92 151.56-59.16 227.59-35.25 75.78-79.31 153.82-138.47 164.14-59.16 10.07-133.43-47.33-214.49-79.8-81.35-32.23-169.43-39.28-224.35-87.86-54.85-48.84-76.25-139.22-65.17-227.34 11.33-88.11 55.64-174 123.61-254.52 68.23-80.81 160.62-156.34 249.74-152.82 89.37 3.53 175.72 86.1 234.64 168.43z" fill="#f8f8f8"/><path d="m459.63 549.89c18.13 50.67 25.57 282.54 25.57 321.88h-93.82l-39.05-88 67.78-246.39z" fill="#56cad8"/><path d="m426.42 556.34c-5.12 33.88-50.69 288.55-60.86 315.43h-135.56c-5.76-19.2-27.52-245.08 0-328.26s196.42 12.83 196.42 12.83z" fill="#74d5de"/><path d="m449.93 421.7c8.63-1.7 126.07-55.27 152.67-78.07s-5.18-40.41-15.2-34.54-114.33 50.78-135.75 57.34-1.72 55.27-1.72 55.27z" fill="#de8e68"/><path d="m550.67 181.79h85.67v165.52h-85.67z" fill="#dedede" transform="matrix(.99697187 -.0777631 .0777631 .99697187 -18.79 47)"/><path d="m507.71 216.72 44.67 90.83" fill="none" stroke="#000" stroke-linecap="round" stroke-linejoin="round" stroke-width="8"/><ellipse cx="324.77" cy="115.28" fill="#de8e68" rx="44.3" ry="64.28" transform="matrix(.99407532 -.10869338 .10869338 .99407532 -10.6 35.96)"/><path d="m316 189.34c148 0 154.9 360.5 148.4 367s-157 37-239 3c-20.01-87-6.4-370 90.6-370z" fill="#fed385"/><path d="m550.19 264.16c0-8.44-9-26-22.21-22.88-9.09 2.14-21.59 20.37-27 28.11-18.31 12.61-134.17 108.44-143.08 117.72-.37-7.74-7.8-23.23-16.72-37.56l-75.45 48.79c7.81 21.69 56.49 79 75.45 79 49.77 0 150.4-135.23 175.9-171.5 11.92-8.29 33.12-24.84 33.11-41.68z" fill="#de8e68"/><path d="m248.76 84c0-18.77 15.23-29.75 20.18-34.88 10-10.4 16-38.13 37.13-38.13 6 0 15.32 3.49 21.18 3.49 7.33-.03 21.92-14.48 36.63-14.48 24.64 0 30.12 22.68 30.12 29.65 0 25.52-31.78 44.78-36 47.08-1.79-2.93-10-13.89-12.73-15.55-3.27 6.82-25.34 18.17-42.02 28.34-9.34 5.7-15.22 49.94-15.08 53.43-15.58.05-39.41-23.59-39.41-58.95z" fill="#fd8369"/><circle cx="285.72" cy="126.15" fill="#de8e68" r="12.55"/><path d="m337 213.25c1 6.27-38.31 4.68-38.77-2l-4.33-62.84 35.6-3.89s6.56 62.48 7.5 68.73z" fill="#de8e68"/><path d="m237.68 243.34c-44.19 24.07-4.68 149.08 23.23 161.88 31.53 0 95.16-45.65 95.16-61.06s-61.07-132.02-118.39-100.82z" fill="#fed892"/><path d="m606.87 252.58c0 20.75 24.67 31.7 28.26 31.7 7.52 0 7.52-22.71 7.52-28.59 0-13.4-13.07-23.21-23-23.21s-12.78 8.34-12.78 20.1z" fill="#de8e68"/></svg>