<svg viewBox="0 0 128.34 218.37" xmlns="http://www.w3.org/2000/svg"><path d="m0 15.51h128.33v187.31h-128.33z" fill="#b2bbc4"/><path d="m.05 15.49v101.58l16.8 1.89v-51.24z" fill="#939598"/><path d="m128.19 15.49v101.58l-16.8 1.89v-51.24z" fill="#939598"/><path d="m9.28 41.3h5.58v74.75h-5.58z" fill="#e7e7e8"/><path d="m14.86 41.3h10.63v74.75h-10.63z" fill="#d6d7d8"/><path d="m9.28 0h5.58v41.3h-5.58z" fill="#ef7a2c"/><path d="m14.86 0h10.63v41.3h-10.63z" fill="#df7227"/><path d="m14.86 29.27h10.63v5.23h-10.63z" fill="#eec755"/><path d="m9.28 29.27h5.58v5.23h-5.58z" fill="#ffd45e"/><path d="m21.72 113.13a3.13 3.13 0 0 0 1.65.59c1.27.13 2.45 1.14 2.25 2.21s-1.79 1.8-3.08 1.56c-1.68-.32-4.73 1.66-6.75.64a3.19 3.19 0 0 0 -2.36-.31c-3.63 1.1-5.64-1.93-3.3-2.93a2.07 2.07 0 0 0 1.2-1.21c.27-.86 1.52-1.62 4-.81 2.14.7 3.88-1.78 6.39.26z" fill="#a3a2a2"/><path d="m28.1 48.26h5.58v74.75h-5.58z" fill="#e7e7e8"/><path d="m33.68 48.26h10.62v74.75h-10.62z" fill="#d6d7d8"/><path d="m28.1 6.97h5.58v41.29h-5.58z" fill="#ef7a2c"/><path d="m33.68 6.97h10.62v41.29h-10.62z" fill="#df7227"/><path d="m33.68 36.24h10.62v5.23h-10.62z" fill="#eec755"/><path d="m28.1 36.24h5.58v5.23h-5.58z" fill="#ffd45e"/><path d="m40.53 120.1a3.16 3.16 0 0 0 1.66.59c1.27.13 2.45 1.14 2.25 2.21s-1.79 1.8-3.08 1.56c-1.68-.32-4.73 1.66-6.75.64a3.19 3.19 0 0 0 -2.36-.31c-3.63 1.1-5.64-1.94-3.3-2.93a2.07 2.07 0 0 0 1.2-1.21c.26-.86 1.52-1.63 4-.81 2.13.7 3.85-1.78 6.38.26z" fill="#a3a2a2"/><path d="m46.92 55.23h5.58v74.75h-5.58z" fill="#e7e7e8"/><path d="m52.5 55.23h10.62v74.75h-10.62z" fill="#d6d7d8"/><path d="m46.92 13.94h5.58v41.29h-5.58z" fill="#ef7a2c"/><path d="m52.5 13.94h10.62v41.29h-10.62z" fill="#df7227"/><path d="m52.5 43.21h10.62v5.23h-10.62z" fill="#eec755"/><path d="m46.92 43.21h5.58v5.23h-5.58z" fill="#ffd45e"/><path d="m59.35 127.07a3.16 3.16 0 0 0 1.65.59c1.28.13 2.45 1.14 2.26 2.21s-1.79 1.8-3.09 1.56c-1.68-.32-4.72 1.66-6.75.64a3.16 3.16 0 0 0 -2.35-.31c-3.64 1.1-5.65-1.94-3.31-2.93a2.07 2.07 0 0 0 1.2-1.21c.27-.87 1.52-1.63 4-.81 2.14.7 3.89-1.81 6.39.26z" fill="#a3a2a2"/><path d="m65.73 62.2h5.58v74.75h-5.58z" fill="#e7e7e8"/><path d="m71.31 62.2h10.62v74.75h-10.62z" fill="#d6d7d8"/><path d="m65.73 20.91h5.58v41.29h-5.58z" fill="#ef7a2c"/><path d="m71.31 20.91h10.62v41.29h-10.62z" fill="#df7227"/><path d="m71.31 50.18h10.62v5.23h-10.62z" fill="#eec755"/><path d="m65.73 50.18h5.58v5.23h-5.58z" fill="#ffd45e"/><path d="m78.17 134a3.16 3.16 0 0 0 1.65.59c1.28.13 2.45 1.14 2.25 2.21s-1.79 1.8-3.08 1.56c-1.68-.32-4.72 1.66-6.75.63a3.23 3.23 0 0 0 -2.36-.3c-3.63 1.1-5.64-1.94-3.3-2.93a2.1 2.1 0 0 0 1.2-1.21c.27-.87 1.52-1.63 4-.81 2.14.74 3.88-1.74 6.39.26z" fill="#a3a2a2"/><path d="m84.55 69.17h5.58v74.75h-5.58z" fill="#e7e7e8"/><path d="m90.13 69.17h10.62v74.75h-10.62z" fill="#d6d7d8"/><path d="m84.55 27.88h5.58v41.29h-5.58z" fill="#ef7a2c"/><path d="m90.13 27.88h10.62v41.29h-10.62z" fill="#df7227"/><path d="m90.13 57.15h10.62v5.23h-10.62z" fill="#eec755"/><path d="m84.55 57.15h5.58v5.23h-5.58z" fill="#ffd45e"/><path d="m97 141a3.21 3.21 0 0 0 1.65.59c1.27.13 2.45 1.14 2.25 2.21s-1.79 1.8-3.08 1.56c-1.68-.32-4.72 1.66-6.75.63a3.24 3.24 0 0 0 -2.36-.3c-3.63 1.1-5.64-1.94-3.3-2.93a2.1 2.1 0 0 0 1.2-1.21c.27-.87 1.52-1.63 4-.81 2.13.71 3.87-1.74 6.39.26z" fill="#a3a2a2"/><path d="m104.91 70.06h5.58v74.75h-5.58z" fill="#e7e7e8"/><path d="m110.49 70.06h10.62v74.75h-10.62z" fill="#d6d7d8"/><path d="m104.91 28.76h5.58v41.29h-5.58z" fill="#ef7a2c"/><path d="m110.49 28.76h10.62v41.29h-10.62z" fill="#df7227"/><path d="m110.49 58.04h10.62v5.23h-10.62z" fill="#eec755"/><path d="m104.91 58.04h5.58v5.23h-5.58z" fill="#ffd45e"/><path d="m117.35 141.89a3 3 0 0 0 1.65.59c1.27.14 2.45 1.15 2.25 2.21s-1.79 1.8-3.08 1.56c-1.68-.32-4.73 1.67-6.75.64a3.24 3.24 0 0 0 -2.36-.31c-3.63 1.1-5.64-1.93-3.3-2.93a2 2 0 0 0 1.2-1.21c.27-.86 1.52-1.62 4-.8 2.13.69 3.88-1.79 6.39.25z" fill="#a3a2a2"/><path d="m106 45v20.51a7.17 7.17 0 0 1 -7.17 7.17h-69.33a7.17 7.17 0 0 1 -7.18-7.17v-20.51a7.17 7.17 0 0 0 -7.17-7.17h-11.15a.8.8 0 0 0 -.8.8v145.86a7.17 7.17 0 0 0 7.18 7.17h107.62a7.17 7.17 0 0 0 7.17-7.17v-146.49a.2.2 0 0 0 -.2-.2h-11.78a7.18 7.18 0 0 0 -7.19 7.2z" fill="#cad1d8"/><path d="m112.39 90.04h-96.44l-15.95-25.51v153.84h128.33v-153.84z" fill="#dce8ef"/><path d="m0 200.43h128.34v2.39 3.2h-128.34z" fill="#fecc3f"/><path d="m0 190.27h128.34v2.39 3.19h-128.34z" fill="#fecc3f"/><path d="m125.14 69.63v-31a.79.79 0 0 0 -.79-.8h-11.16a7.18 7.18 0 0 0 -7.19 7.17v20.51a7.17 7.17 0 0 1 -7.17 7.17h-36.19v145.69h65.69v-153.84z" fill="#e7e7e8"/><path d="m15.82 105.5h93.57v69.4h-93.57z" fill="#bcbdbf"/></svg>