<svg viewBox="0 0 214.6 224.12" xmlns="http://www.w3.org/2000/svg"><path d="m16.54 36.53a5.9 5.9 0 1 1 -5.9-5.9 5.91 5.91 0 0 1 5.9 5.9z" fill="#1ab1bf"/><path d="m138.69 36.53a5.91 5.91 0 1 0 11.81 0c0-3.26-3-2.57-6.26-2.57s-5.55-.69-5.55 2.57z" fill="#1ab1bf"/><path d="m22.28 155.52-9.08 28.94 8 3.8c4.64-10 6.73-22.1 7.14-33.46-2.53-.73-5.34-1.07-6.06.72z" fill="#3bb9c4"/><path d="m31.44 155.9a30.66 30.66 0 0 0 -3.1-1.1c-.41 11.36-2.5 23.48-7.14 33.46l2.7 1.29 13.32-25.85c1.07-2.6-3.22-6.7-5.78-7.8z" fill="#1ab1bf"/><path d="m118 163.7c-1.07-2.6 3.18-6.72 5.78-7.8s8.09-3 9.16-.38l9.06 28.94-10.7 5.09z" fill="#1ab1bf"/><path d="m150.4 115.69a72.71 72.71 0 1 1 -72.79-73 73 73 0 0 1 72.79 73z" fill="#3bb9c4"/><path d="m47.28 36.94a62.07 62.07 0 0 0 -24.5 11.24 67.79 67.79 0 0 0 -19.33 23 30.05 30.05 0 0 1 -3.45-15.72c.75-13.17 9.63-23.85 21.17-26.75a26.21 26.21 0 0 1 26.11 8.23z" fill="#3bb9c4"/><path d="m33.42 173.59a73 73 0 0 1 -1.72-114.48c-11.24 28.64-16.55 67.71 1.72 114.48z" fill="#5bc0ca"/><path d="m135.88 115.69a58.41 58.41 0 1 1 -37.88-54.69 58.44 58.44 0 0 1 37.88 54.69z" fill="#e2d28c"/><path d="m135.88 115.69a58.17 58.17 0 0 1 -82.88 52.94 58.87 58.87 0 0 1 -7-6.63 60.52 60.52 0 0 1 51-101.15l1 .15a58.47 58.47 0 0 1 37.88 54.69z" fill="#f5e9bd"/><path d="m117.34 105.11a58.07 58.07 0 0 1 -71.34 56.89 60.52 60.52 0 0 1 51-101.15 58.21 58.21 0 0 1 20.34 44.26z" fill="#f4e6a2"/><path d="m49.19 39.17c-18.75 3.98-34.75 16.73-43.82 34.23a28.39 28.39 0 0 0 4.47 6.28c8.83-17.63 24.64-30.6 43.27-34.9a28.63 28.63 0 0 0 -3.92-5.61z" fill="#1ab1bf"/><path d="m13.2 184.46-2.86 9.13a5.13 5.13 0 0 0 2.78 6.68h.07a44.23 44.23 0 0 0 8-12z" fill="#63c0ba"/><path d="m13.19 200.3a5.14 5.14 0 0 0 6.62-2.8l4.09-7.95-2.7-1.29a44.23 44.23 0 0 1 -8.01 12.04z" fill="#3bb9c4"/><path d="m77.62 0c-13.05.15-24.71 2.14-34.75 5.92-9.55 3.61-12.6 13.27-15.56 22.62-.75 2.37-1.52 4.83-2.38 7.08l4.78 1.83c.91-2.39 1.71-4.92 2.49-7.37 2.7-8.56 5.25-16.64 12.48-19.37 9.47-3.57 20.52-5.44 32.94-5.59z" fill="#3bb9c4"/><path d="m151.79 71.16a68.24 68.24 0 0 0 -13-17.52 63.09 63.09 0 0 0 -30.79-16.7 26.2 26.2 0 0 1 36.87-2.66 29.7 29.7 0 0 1 10.35 21.18 30.14 30.14 0 0 1 -3.43 15.7z" fill="#3bb9c4"/><path d="m106 39.17c18.75 4 34.75 16.73 43.83 34.23a28.72 28.72 0 0 1 -4.47 6.28c-8.84-17.63-24.65-30.6-43.28-34.9a29.07 29.07 0 0 1 3.92-5.61z" fill="#1ab1bf"/><path d="m142 184.46 2.86 9.13a5.12 5.12 0 0 1 -9.47 3.91l-4.09-7.95z" fill="#3bb9c4"/><path d="m77.62 0c13 .15 24.7 2.14 34.74 5.92 9.56 3.61 12.61 13.27 15.56 22.62.75 2.37 1.52 4.83 2.39 7.08l-4.79 1.83c-.91-2.39-1.71-4.92-2.48-7.37-2.71-8.56-5.26-16.64-12.49-19.37-9.46-3.57-20.55-5.44-32.93-5.59z" fill="#3bb9c4"/><path d="m22.78 48.18a67.79 67.79 0 0 0 -19.33 23 30.05 30.05 0 0 1 -3.45-15.72c.75-13.17 9.63-23.85 21.17-26.75 1.83 4.43 3.19 10.95 1.61 19.47z" fill="#5bc0ca"/><path d="m144.83 34.28c0 5.48-1.43 12.09-6 19.36a63.09 63.09 0 0 0 -30.83-16.7 26.2 26.2 0 0 1 36.87-2.66z" fill="#5bc0ca"/><path d="m71.42 137.1a50.54 50.54 0 0 1 -13.42 15.71 47.95 47.95 0 0 1 19-35.6 50.46 50.46 0 0 1 -5.58 19.89z" fill="#626669"/><path d="m70 136.32a31.62 31.62 0 0 1 -8.38 9.84 30.08 30.08 0 0 1 11.85-22.3 31.81 31.81 0 0 1 -3.47 12.46z" fill="#3bb9c4"/><path d="m78.45 113.54a156.33 156.33 0 0 0 -7.21-21.44 152.85 152.85 0 0 0 -14.64-26.74 152 152 0 0 0 9 29.14 157.1 157.1 0 0 0 11.5 22c.45-.98.9-1.97 1.35-2.96z" fill="#626669"/><g fill="#e73653"><path d="m101.28 125-66.92-30a.93.93 0 0 0 -1.23.46 1 1 0 0 0 .47 1.23l66.92 30a.92.92 0 0 0 .76-1.68z"/><path d="m28.4 110.79a4.13 4.13 0 1 0 4.12 4.12 4.12 4.12 0 0 0 -4.12-4.12z"/><path d="m33.77 137.52a2.56 2.56 0 1 0 3.5.93 2.56 2.56 0 0 0 -3.5-.93z"/><path d="m54.5 155.69a2.56 2.56 0 1 0 .94 3.49 2.56 2.56 0 0 0 -.94-3.49z"/><path d="m51.94 69.7a2.56 2.56 0 1 0 3.5.94 2.58 2.58 0 0 0 -3.5-.94z"/><path d="m36.33 87.87a2.56 2.56 0 1 0 .94 3.5 2.58 2.58 0 0 0 -.94-3.5z"/><path d="m126.83 110.79a4.13 4.13 0 1 0 4.13 4.12 4.11 4.11 0 0 0 -4.13-4.12z"/><path d="m121.46 137.52a2.56 2.56 0 1 0 .94 3.49 2.56 2.56 0 0 0 -.94-3.49z"/><path d="m100.73 155.69a2.56 2.56 0 1 0 3.5.93 2.55 2.55 0 0 0 -3.5-.93z"/><path d="m77.62 61.14a4.13 4.13 0 1 0 4.12 4.13 4.34 4.34 0 0 0 -4.12-4.13z"/><path d="m77.62 160.43a4.13 4.13 0 1 0 4.12 4.12 4.33 4.33 0 0 0 -4.12-4.12z"/><path d="m103.29 69.7a2.56 2.56 0 1 0 .94 3.5 2.58 2.58 0 0 0 -.94-3.5z"/><path d="m121.46 92.31a2.56 2.56 0 1 0 -3.5-.94 2.56 2.56 0 0 0 3.5.94z"/><path d="m77.62 110.79a4.13 4.13 0 1 0 4.12 4.12 4.33 4.33 0 0 0 -4.12-4.12z"/></g><path d="m77.62 113a1.95 1.95 0 1 0 1.94 1.94 2 2 0 0 0 -1.94-1.94z" fill="#626669"/><path d="m178.41 54.48c-8.54-6.22-19.32-9-30.23-9.1-16 .17-31.63 6-40.42 20-5.41 8.62-3.76 24.77-2.52 34.53s6.6 16.72 9.72 25.73c.8 2.32 1.58 4.52 2.38 6.67 4.52-37.05 22.98-69.41 61.07-77.83z" fill="#a7a9ab"/><path d="m178.41 54.48c-38.09 8.42-56.55 40.78-61.07 77.83a77.85 77.85 0 0 0 9 17.7 33.1 33.1 0 0 0 5.26 6.4c4 3.51 9.39 4.21 14.65 3.77a24.49 24.49 0 0 1 3.83 0c5.26.44 10.59-.26 14.65-3.77a33.1 33.1 0 0 0 5.27-6.41c5.55-8 8.28-15.39 11.39-24.37s8.41-15.84 9.72-25.73 2.89-25.9-2.52-34.52a39.12 39.12 0 0 0 -10.18-10.9z" fill="#939598"/><path d="m148.36 116c1.51-.08 11.6 12.91.63 13.43s-2.14-13.33-.63-13.43z" fill="#595a5b"/><path d="m107.73 205.08a23.6 23.6 0 0 1 4.13-2.17c27.58-12.49 42.47-17.74 42.47-17.74 6.65-2.34 13.17-5 19.73-7.49q6.18-2.37 12.33-4.75c2.89-1.11 6.93-3.57 10.18-2.18s6.87 5.28 11.06 5.08c7.92-.37 8.59-7.47 4.51-11.72-1.67-1.74-3.62-3.36-4.66-5.42-1.31-2.6-1-5.55-1.46-8.35s-2.23-5.85-5.55-6.42a8 8 0 0 0 -6.74 2.38 16.94 16.94 0 0 0 -3.35 5.74 17 17 0 0 1 -3 5.4c-4.7 5.05-28 13.18-40.16 18-23.91 9.53-38.23 18.63-47.52 17-3.87-.67-5.75-.39-9.48-.62-3.17-.19-6.57.07-9.15 1.65s-3.9 4.82-2.1 7c1.14 1.36 3.18 2 4.51 3.23 2.12 2 2 4.93 2.27 7.58s1.6 5.73 4.73 6.24c2.92.54 5.52-1.52 7.52-3.42 3.05-2.84 6-6.47 9.73-9.02z" fill="#939598"/><path d="m103.27 167.8a24.33 24.33 0 0 1 4.38 1.68c27.14 12.36 40.28 19.86 40.28 19.86 5.86 3.36 12 6.46 18 9.65q5.64 3 11.29 6c2.65 1.4 7.26 2.86 7.57 5.91s-1.72 7.74.69 10.56c4.54 5.34 12.07 1.86 14.22-3.35.88-2.14 1.48-4.41 3-6.28 1.94-2.36 5.09-3.78 7.68-5.66s4.73-4.81 3.56-7.46c-.88-2-3.43-3.16-6-3.39a25.49 25.49 0 0 0 -7.56.84 25.61 25.61 0 0 1 -7.05.9c-7.58-.49-28-12.24-39.38-18.08-22.22-11.44-39-16.4-42.24-23.79-1.36-3.08-2.63-4.25-4.37-7a12.29 12.29 0 0 0 -6.48-5.49c-3-.93-6.93-.05-8.15 2.41-.78 1.56-.35 3.34-.89 4.95-.87 2.58-3.93 4.14-6.47 5.8s-5 4.31-3.82 6.78 4.54 3 7.5 3.37c4.48.55 9.73.62 14.24 1.79z" fill="#939598"/><path d="m123.08 116.88a18 18 0 0 0 7.16 1.43c4.35-.09 7.82-2.89 9.93-6.11 1.92-2.94 4.16-8.5 2.37-11.79a6.3 6.3 0 0 0 -4.2-3 12.39 12.39 0 0 0 -5.37.39c-3.36.79-6.83 1.49-10.08 2.57-5.28 1.76-6.5 6.31-5.28 11.13.61 2.44 2.82 4.25 5.47 5.38z" fill="#595a5b"/><path d="m173.47 116.88a18 18 0 0 1 -7.16 1.43c-4.34-.09-7.82-2.89-9.92-6.11-1.93-2.94-4.17-8.5-2.38-11.79a6.33 6.33 0 0 1 4.2-3 12.39 12.39 0 0 1 5.37.39c3.37.79 6.84 1.49 10.08 2.57 5.28 1.76 6.5 6.31 5.29 11.13-.61 2.44-2.82 4.25-5.48 5.38z" fill="#595a5b"/></svg>