<svg viewBox="0 0 71.27 254.12" xmlns="http://www.w3.org/2000/svg"><path d="m52.19 82.66a17.77 17.77 0 1 1 -17.76-17.76 17.76 17.76 0 0 1 17.76 17.76z" fill="#adadad"/><path d="m48.83 82.66a14.41 14.41 0 1 1 -14.4-14.4 14.41 14.41 0 0 1 14.4 14.4z" fill="#939598"/><path d="m29.85 73-21.91 3.47a5.56 5.56 0 0 0 -4.68 5.53v2l41-4.53c-3.04-5.05-8.26-7.47-14.41-6.47z" fill="#235566"/><path d="m47.07 96.31-.28-3.19c.51-5.64-.51-10.25-2.55-13.67l-40.98 4.55v1.79a2.29 2.29 0 0 0 2.28 2.29h5.9a2.37 2.37 0 0 1 2.38 1.92 2.29 2.29 0 0 1 -2.26 2.67h-6a2.29 2.29 0 0 0 -2.28 2.3v1.03a2.28 2.28 0 0 0 2.28 2.29h5.9a2.37 2.37 0 0 1 2.38 1.91 2.29 2.29 0 0 1 -2.26 2.67h-6a2.28 2.28 0 0 0 -2.28 2.29v2.84h65.52v-11.8z" fill="#14404c"/><path d="m3.26 108v135.66a10.46 10.46 0 0 0 10.46 10.46h24v-146.12z" fill="#e7323d"/><path d="m37.7 108v146.12h23.11a10.46 10.46 0 0 0 10.46-10.46v-135.66z" fill="#dd1d3b"/><path d="m64.38 91-11.3.87a4.58 4.58 0 0 0 -4.22 4.91 4.16 4.16 0 0 0 4.45 3.82l14.78-1.13a2.84 2.84 0 0 0 2.61-3 5.9 5.9 0 0 0 -6.32-5.47z" fill="#1f3547"/><path d="m24.18 99.78h19.95v4.9h-19.95z" fill="#939598"/><path d="m37.26 86.37a3.93 3.93 0 1 1 -3.92-3.92 3.91 3.91 0 0 1 3.92 3.92z" fill="#1f3547"/><path d="m25.52 49.23c-1.2 2.87-11.35 19.49-8.95 21.89-22.68-22.7-18.46-31.68-8.67-48.84 4.51-7.89 5.28-13 5.85-22.28 23.17 29.85 18.25 33.59 11.77 49.23z" fill="#ef7a2c"/><path d="m21.36 44.51c-2 3.82-9.27 14.15-6.15 18.69-23.4-34.08-2.35-25.66 1.16-50.49 13.19 20.08 9.9 22.21 4.99 31.8z" fill="#ffd45e"/></svg>