<svg viewBox="0 0 160.11 230.59" xmlns="http://www.w3.org/2000/svg"><path d="m39.49 113.59s2.67-6.09 2-8a3 3 0 0 0 -2.13-1.83 1.11 1.11 0 0 0 -1.34.65l-3.28 8.12-7.33 2.22.65 9.61 11.44 7.64s5.74-6 5.64-6.45-6.69-9.19-6.69-9.19z" fill="#e7b088"/><path d="m34.94 103.88s2.32-1.24 3 2.19-5 13.24-5 13.24-4.9-1.63-5.14-1.86 7.14-13.57 7.14-13.57z" fill="#e7b088"/><path d="m65.93 131a15.75 15.75 0 0 0 -2.9-5.42l-.15-.17-.15-.17-.15-.17-.32-.33-.17-.17-.35-.32c-.06 0-.11-.11-.18-.16l-.31-.26-.25-.19-.38-.28a10.3 10.3 0 0 0 -1.33-.78 9.16 9.16 0 0 0 -1.2-.5l-.32-.11a12 12 0 0 0 -1.69-.38 36 36 0 0 1 -8.34-2.16c-2.67-1.94-5.46-3.71-8.07-5.75a44.93 44.93 0 0 1 -3.58-3.18c-.79-.77-1.63-1.51-2.79-.89-1.88 1-2.24 2.58-1.33 3.64s8.27 9 9 10.38c0 0 0 .11.08.16l.07.16a.08.08 0 0 0 0 0l.06.17c0 .06.05.13.07.2l.06.23v.21a1.55 1.55 0 0 1 .05.23v.22s0 0 0 0c.18 1.43-.2 3-2.08 2.8a21.63 21.63 0 0 1 -5.49-1.93 35.26 35.26 0 0 0 -4.28 7.26 15.63 15.63 0 0 0 12.15 5.23l6.37-.2c1.84 0 4.55.6 5.27 2.3l4.92 11.77 14.78-6.55c-3.12-6.64-7.07-14.89-7.07-14.89z" fill="#f2c4a5"/><path d="m50.47 99.76a1 1 0 0 0 .15-1.7 4.37 4.37 0 0 0 -3.85-.94 15.53 15.53 0 0 0 -2.05.65l4.29 3c.45-.39.99-.71 1.46-1.01z" fill="#341d12"/><path d="m44.69 97.74a23 23 0 0 0 -6.17 3.84c-5.83 4.84-6.75 12.66-11.87 17.38a2.31 2.31 0 0 1 -3.85-1.73v-3.2h-22.58c-.87 0 1.06 12.3 1.58 13.46a11.87 11.87 0 0 0 10.73 7.18c8.73.29 14.1-1.09 20.24-10.89 1.77-2.83 4.35-9.16 6.16-11.87 3-4.45 5.92-8.42 10-11.24z" fill="#7c5336"/><path d="m22.76 114c0 .92-5.08 1.68-11.31 1.68s-11.28-.68-11.28-1.68 5.05-1.68 11.28-1.68 11.31.78 11.31 1.68z" fill="#603d25"/><path d="m18.34 114c0 .56-3.09 1-6.88 1s-6.86-.46-6.86-1 3.07-1 6.86-1 6.88.46 6.88 1z" fill="#341d12"/><path d="m16 114c0 .26-2 .47-4.56.47s-4.54-.21-4.54-.47 2-.48 4.54-.48 4.56.25 4.56.48z" fill="#ef7a2c"/><path d="m.17 114s0 0 0 0c-.83.16 1.07 12.29 1.59 13.44a11.87 11.87 0 0 0 10.73 7.18 32.58 32.58 0 0 0 7.09-.38c-5.49-5.7-8.42-14-9-22-5.79.18-10.41.9-10.41 1.76z" fill="#939598"/><path d="m32 113.28c.91 1.07 8.27 9 9 10.38 0 0 0 .11.08.16l.07.16a.08.08 0 0 0 0 0l.06.17a1.59 1.59 0 0 0 .07.2l.06.23v.21a1.89 1.89 0 0 1 .05.23v.22s0 0 0 0c6.25 4.07 13.71 3.71 20.48.78.36-.16.73-.32 1.09-.5l-.15-.17-.15-.17-.15-.17-.32-.33-.17-.17-.35-.32c-.06 0-.11-.11-.18-.16l-.31-.26-.25-.19-.38-.28a10.3 10.3 0 0 0 -1.33-.78 9.16 9.16 0 0 0 -1.2-.5l-.32-.11a12 12 0 0 0 -1.69-.38 36 36 0 0 1 -8.34-2.16c-2.67-1.94-5.47-4.24-8.07-6.28a43.75 43.75 0 0 1 -3.49-3.32 2.09 2.09 0 0 0 -2.88-.22c-2.09 1.59-2.17 2.67-1.23 3.73z" fill="#f2c4a5"/><path d="m35.11 110 1.46 1.7a2.13 2.13 0 0 1 0 2.8 2.07 2.07 0 0 1 -3.1 0l-1.47-1.85a.9.9 0 0 1 .1-1.27l1.77-1.51a.89.89 0 0 1 1.24.13z" fill="#ead4c1"/><path d="m67.61 131.76-10.76 7.28-5.32 3.28 9.46 15.74 5.47-2.94 12.77-6.87z" fill="#e7e8e9"/><path d="m29.84 124a3.81 3.81 0 0 1 -1.72-3c.41-3.43.92-10.91-.4-13.71a1.46 1.46 0 0 0 -.74-.69 8.57 8.57 0 0 0 -1-.34 1.12 1.12 0 0 0 -.48 0h-.09a1.35 1.35 0 0 0 -1.1 1.22l-.31 3.82-.09 1.12-1.36 10.36 1.25 3.47 5.36 6.6c.16.2.34.37.51.56a35.26 35.26 0 0 1 4.28-7.26 31 31 0 0 1 -4.11-2.15z" fill="#f2c4a5"/><path d="m23.94 111.65a1.82 1.82 0 0 0 1-.18c.08-.11.2-.28.32-.48 1-1.77.4-4 .13-4.83a1.35 1.35 0 0 0 -1.1 1.22l-.29 3.92c-.06.12-.06.24-.06.35z" fill="#ead4c1"/><path d="m90.82 85s6.5 12 11.08 14.79 29.69-4.41 29.69-4.41-9.07-19.43-7.87-22.5-6.34-5.76-6.34-5.76z" fill="#e7b088"/><path d="m117.06 72.13c-2.47 1.91-4 5-6.93 6.42-2.63 1.25-4 4.49-12.44 6.71-10.44 2.74-17.82 5.53-19.69 1.66-.55-1.16.59-2.61-.5-3.8a19.54 19.54 0 0 1 -1.47-1.4c-1.57-2.21 3.1-3.1 1.45-5.16-1-1.31-2.86.24-3.23-1.78a7 7 0 0 0 -.46-2.46c-1.69-2.73-8.7.08-1.35-8.3 4.25-4.87 2.21-4.83 1.38-7.68-.51-1.73.43-3.34.6-5 1.12-11.22 6.29-17.78 15.49-21.59 9.56-4 21.21-2.73 30.44 1.51a23.66 23.66 0 0 1 7.56 5.06 17.68 17.68 0 0 1 3.49 5.78 22.06 22.06 0 0 1 .7 14.3 22.29 22.29 0 0 1 -9.1 12.03c-2 1.27-4.13 2.29-5.94 3.7z" fill="#f2c4a5"/><path d="m125.93 76.47a26 26 0 0 0 2.07-3.33 104.48 104.48 0 0 0 4.69-13.81c1.48-4.93 2.77-9.26 2-14.51a22.82 22.82 0 0 0 -10.69-16.94c-7.7-4.8-18.85-5.05-27.43-3.2-4.59 1-8.19 3.34-12.55 4.85-.54.19-6.67 2.24-6.59 1.35a5.41 5.41 0 0 0 1.5 3.93 16.27 16.27 0 0 0 3.4 2.65c1.92 1.23 4.34 2.35 6 3.86 1.23 1.09 1.85 2.76 3.15 3.85 3.31 2.81 4.1 7.29 4.76 11.4.35 2.18 1.37 4.37 1.53 6.54.09 1.35-.93 3.13.87 4 .8.39 4-.64 4-1a19 19 0 0 1 .73-5.81 7.91 7.91 0 0 1 4-4.66 6.56 6.56 0 0 1 6.55.41c2 1.61 1.86 4.31 1.41 6.62-.65 3.33-2.78 7.07-7.2 7.75a4.76 4.76 0 0 1 3.24 3.3 1.53 1.53 0 0 0 .62.92 2.09 2.09 0 0 0 1 .14c5.62-.12 7.87 1.4 11.42 4.77a10.22 10.22 0 0 1 1.52-3.08z" fill="#393b42"/><path d="m95.31 93.38c-1 2.38-2.36 6-3.85 10.41a170.91 170.91 0 0 0 -7.76 33 152.4 152.4 0 0 0 -1.15 16.87c14.46-16 27.55-24.69 34.77-32.74 9.38-10.45 15.67-19.1 16.3-22s-.1-5.85-3.58-8.63c-8.73-7-27.86 5.55-27.86 5.55z" fill="#bdbec0"/><path d="m125.88 81.86-30.57 11.52 6.05 11.11 30.23-12.72z" fill="#e7e8e9"/><path d="m80.62 230.59h76.3c4.7-33 5-67.64-4.37-99.23-2.47-8.37-5.54-17.2-10-24.74-1-1.62-10.62-15-10.95-14.85l-15.91 6.69c-8.26 5.4-20.06 14.54-28.5 28.37-11.12 18.24-9.64 33.54-9.39 82.11.02 5.41 1.51 12.93 2.82 21.65z" fill="#1d4354"/><path d="m128.1 85.28s-32.24 24.29-44.29 46.9c21.15-17.58 29.64-17.62 29.64-17.62v-12.38l8.83 6.28 9.31-16.69z" fill="#305565"/><path d="m90.82 220.43h28.02v8.19h-28.02z" fill="#17405e"/><path d="m146.8 126.88c-.55-10.69-8.49-19.62-19.62-19.62a19.34 19.34 0 0 0 -19.63 19.62c.31 11.24 5.45 38.15 5.8 50.36l-42.35-47.19-19.52 18.14s56.71 65.88 56.82 66c8 7.89 31.58 7.87 33.15-3.47 2.92-21.13 7.55-40.43 5.35-83.84z" fill="#305565"/><path d="m23.19 64.08c-6.21-.45-11-6.14-12.52-12.19s-.41-12.4.68-18.53c.84-4.75 2.8-8.85-.77-12.63-2.38-2.52-16.52-11.58 1.61-19.14 9.06-3.78 13.16-.05 13.7 3.24.41 2.54-1.2 5.17-.46 7.63 1.25 4.1 7.4 4 10.21 7.23 7.41 8.55-12.47 18.58-6.37 27.53 2.61 3.82 8.3 3.36 12.79 2.28s9.94-2.1 13.14 1.24c4.06 4.24 1.59 11.55 2.6 16.77.53 2.75 2.76 4.76 4.67 6.68 1.54 1.55 5.43 6.18 7.67 6.42a29.64 29.64 0 0 1 -18.79-9.71c-2.17-2.42-3.49-5.21-6.31-7-3-1.87-5.9-1.31-9.25-1.09-4.1.29-8.5 1.57-12.6 1.27z" fill="#b2bbc4"/><path d="m5.79 98.82c-1-1.55-2.08-3.22-1.95-5 0 .17-.67.79-.78 1a4.89 4.89 0 0 0 .12 4.28c2.58 3.78 1.47 2.8.94 6.6a5.6 5.6 0 0 0 3.88 6c-.9-.26-1.06-4-1.09-4.74-.13-2.84 1.97-3.33-1.12-8.14z" fill="#939598"/><g fill="#393b42"><path d="m74.63 55.72c.06 0 .62 1.3.68 1.4 1 1.61 1.48.53 4.4-.36a9.05 9.05 0 0 1 5.29-.33c-2.38-2.43-10.35-.71-10.37-.71z"/><path d="m79.76 76.71c4.43 5.43-3.6 8-2.53 11.11 1 2.82 6.51 2.22 8.54 1.06 5-2.87 2.58-9.06-.43-12.48-3.55-4-9.64-4.83-11-3.82-.52.38-1.12 2.38-.76 2.94.59.92 1.69 0 2.57-.24a3.44 3.44 0 0 1 3.61 1.43z"/></g></svg>