<svg viewBox="0 0 168.14 242.69" xmlns="http://www.w3.org/2000/svg"><path d="m99.51 112.13a12.61 12.61 0 0 1 1.31-1.22l-2.18 2.18z" fill="#dba290"/><path d="m105 121.59a23.22 23.22 0 0 1 -1.09-7v-6c-1 .73-2.08 1.44-3 2.24l-2.21 2.21a39.68 39.68 0 0 1 -3.38 3.36 17.3 17.3 0 0 1 -3.35 2.35c-1.91 1-4.56 1-7 .88v7.1l-.14 13h.14a28 28 0 0 0 21.9-11.27l.16-.3a68.55 68.55 0 0 0 -2.03-6.57z" fill="#e0a679"/><path d="m84.9 126.79v-7.1h-.92c-.32 0-.64 0-1 0s-.72 0-1.08 0a6.78 6.78 0 0 1 -.78 0c-.41 0-.8-.12-1.2-.19-.18 0-.38 0-.55-.09a7.69 7.69 0 0 1 -1.57-.57c-3.17-1.64-5.31-4.15-7.61-6.68-1.58-1.74-3.69-2.94-5.58-4.36l-.21 8.2a15.67 15.67 0 0 1 -.54 3.6c-.83 3-2.39 8.62-2.21 8.57a28 28 0 0 0 11.52 9.23 27.31 27.31 0 0 0 8.83 2.28c.69 0 1.38.1 2.07.1h.67l.14-13z" fill="#eab081"/><path d="m60.55 106.61a6.59 6.59 0 0 0 2.1 4l10.05 9.09c-2.25-10.06-7.81-18.26-14-26.92z" fill="#f0b885"/><path d="m109.23 96.93 1.77-13.93c0-5.57.16-11.17-.07-16.74-.14-3.29-1.18-5.17-4.25-7-3.75-2.22-6.63-1.09-10 .06a29.67 29.67 0 0 1 -3.48 1c-3.56.75-7.48 1.42-10.89-.12-5.59-2.54-11-6.68-17.69-6.31a8.51 8.51 0 0 0 -3.42.82 8.64 8.64 0 0 0 -4.05 5.54c-1.59 5.42.81 10 .21 15.56 0 2.52.08 5 .13 7.54l1.24 9.4c6.15 8.66 11.71 16.86 14 26.92l2.41 2.17a6.09 6.09 0 0 0 4.12 1.57h5.14 5.15a6.07 6.07 0 0 0 4.08-1.62l3.58-3.3c.12-9.18 3.36-18.28 12.02-21.56z" fill="#fac08f"/><path d="m109.23 96.93c-8.66 3.28-11.9 12.38-12 21.5l9.45-8.73a4.23 4.23 0 0 0 1.33-2.6z" fill="#f0b885"/><path d="m60.76 83.23c-.38-2.48-.67-4.46-.84-5s-.44-1.14-1-1.27c-.32-.06-.68.31-1 .15-2.15-1.26-3.49.19-4.17 2.2a6.66 6.66 0 0 0 .55 6c1.28 2.43 2.09 5.11 3.16 7.64.28.65 1.45 4.35 2.42 4.34h4.69c-1.57-.04-2.93-8.38-3.81-14.06z" fill="#fac08f"/><path d="m107.69 82.89a17.66 17.66 0 0 1 1.63-5.48c.47-.93 1.49-2 2.49-1.54a7 7 0 0 1 2.88 3.57c.88 2 0 3.1-.82 5-.54 1.26-4.36 12.41-5.19 12.42l-4.68.14c1-3 2.48-6.19 3-9.32.34-1.75.47-3.29.69-4.79z" fill="#fac08f"/><path d="m59.73 87.84c-.46-4.26-.79-8.55-1.59-12.76-1.08-5.59 2-11.39 5.31-16.19a4.18 4.18 0 0 1 2.16-1.89c1.32-.38 2.67.37 3.81 1.07 3.81 2.35 12.44 5.35 12.44 5.35s9 .29 13.3-.65c3-.64 7-2.78 10-1.05 2.45 1.41 3.11 5.79 4.12 8.36l.17 21.17 2.77-8.46c2.21-7.45 2.78-24.62 2.78-24.62s-12-12.17-19-10.82c2.48-.46 7 .22 9.51-.25-9.45-2.9-17.23-5.65-25-4.36a48.48 48.48 0 0 0 -21.13 9.26c-2.7 2-6.8 7.2-6.8 7.2s.06 18.45 7.15 28.64z" fill="#393b42"/><path d="m84.58 242.69v-50c-3.83-10.31-14.58-39.36-14.58-39.36l-6.76-28s-.25.11-.7.28c-.86.33-25.23 10.4-41.51 17.14-8.86 3.67-13.78 11.41-14.63 20.95-1.91 21.52-7 55.5-6.35 79z" fill="#94a9af"/><path d="m84.58 134.78c-4.2.2-9.71 8.52-12.55 11.16-4.85 4.5-7.15 9.38-8.76 15a62.85 62.85 0 0 1 7.56 11.14 89.5 89.5 0 0 1 5.89 15.07c.85 2.68 1.6 6.81 4.76 7.15a4.44 4.44 0 0 0 3.1-1.07z" fill="#cbdae0"/><path d="m84.58 134.78c4.21.2 9.71 8.52 12.56 11.16 4.84 4.5 7.15 9.38 8.76 15a62.88 62.88 0 0 0 -7.57 11.14 90.36 90.36 0 0 0 -5.89 15.07c-.85 2.68-1.6 6.81-4.76 7.15a4.44 4.44 0 0 1 -3.1-1.07z" fill="#cbdae0"/><path d="m88.73 149.22 4.3-6.65c.1-.24-4.56-6.94-7.94-8.86a5.28 5.28 0 0 1 -1.72.41 1 1 0 0 1 -.91-.45 2.29 2.29 0 0 0 -.45.81c-.36 1-4.94 6.3-6 7.3-.25.25.41 1.61.54 1.95l2.93 5.49a4.76 4.76 0 0 1 .44 3.27l-5.45 24.76c2.36 1.12 5.06 32.67 7.58 33.29 5.95 1.46 9.13-31.69 10.95-36.48l-4.75-21.57a4.77 4.77 0 0 1 .48-3.27z" fill="#22414f"/><path d="m84.4 133.83c-.16 0-19.83-17.92-19.83-17.92l-5.2 13.94 6.63 27.93z" fill="#e4f4fe"/><path d="m84.58 133.9c.17 0 19.55-18 19.55-18l5.21 13.94-6.61 27.93z" fill="#e4f4fe"/><path d="m84.58 192.81-23.51-68.75c-1.65.61-4.29 2.85-9.62 7.41-3.13 2.67-3.29 7.52-4 9.44l11.91 5-10.79 5.29a149.59 149.59 0 0 1 22.17 40.16c4.71 13 12.14 35 13.84 40.12z" fill="#79919e"/><path d="m166.71 242.69c2.78-23.5 1.1-70.52-1.56-82.4a23.29 23.29 0 0 0 -13.5-16.29l-43.21-18.68-9.27 28s-10.77 29-14.59 39.37v50z" fill="#79919e"/><path d="m84.58 192.81 22.83-68.75c1.65.61 5 2.85 10.31 7.41 3.13 2.67 3.28 7.52 4 9.44l-11.92 5 10.81 5.27a149.61 149.61 0 0 0 -22.16 40.16c-4.72 13-12.14 35-13.85 40.12z" fill="#94a9af"/><path d="m92.68 107.78a23.47 23.47 0 0 1 -8.86 1.92 19.49 19.49 0 0 1 -8.35-1.92 19.4 19.4 0 0 1 8.11-1.72 28 28 0 0 1 9.1 1.72z" fill="#f0b885"/><path d="m53.71 108c-.78-1.39-4.81-2.74-5.77-.44-.28.69-3.52 15.37-5 22.15 2.6-1.14 5.26-2.49 8-3.65 1.21-6.23 2.93-15.3 2.77-18.06z" fill="#e7b088"/><path d="m48.54 107.09a4 4 0 0 1 5 1l-.18 1.15c-.68 4.31-6.64 4.19-4.82-2.15z" fill="#f2c4a5"/><path d="m27.21 122.94h27.47v2.05h-27.47z" fill="#e7e7e8" transform="matrix(.91010597 -.41437558 .41437558 .91010597 -47.69 28.11)"/><path d="m28.44 124.73h27.47v3.91h-27.47z" fill="#d6d7d8" transform="matrix(.91017828 -.41421673 .41421673 .91017828 -48.69 28.85)"/><path d="m52.76 114.11h15.18v2.05h-15.18z" fill="#ef7a2c" transform="matrix(.91010597 -.41437558 .41437558 .91010597 -42.29 35.36)"/><path d="m54 115.89h15.18v3.91h-15.18z" fill="#df7227" transform="matrix(.91003363 -.41453442 .41453442 .91003363 -43.31 36.14)"/><path d="m56.87 117.6h1.92v3.9h-1.92z" fill="#eec755" transform="matrix(.91017828 -.41421673 .41421673 .91017828 -44.33 34.7)"/><path d="m55.63 115.82h1.92v2.05h-1.92z" fill="#ffd45e" transform="matrix(.91010597 -.41437558 .41437558 .91010597 -43.33 33.95)"/><path d="m30.89 132.44a1.22 1.22 0 0 0 .05.65c.15.44 0 1-.4 1.09s-.87-.33-1-.8-1.28-1.32-1.25-2.16a1.14 1.14 0 0 0 -.25-.83c-.92-1-.22-2.18.47-1.56a.75.75 0 0 0 .59.22c.33 0 .78.26.88 1.22s1.21 1.02.91 2.17z" fill="#a3a2a2"/><path d="m34.34 108.5a5.15 5.15 0 0 1 .66 6.73c-1.25 1.68-2.73 2.06-4.2 3.5s-2.37 5.62-2.37 5.62-1.24-4.44-.09-6.68c2.33-4.56 7.37-4.2 6-9.17z" fill="#bcbdbf"/><path d="m62.62 135.67c-.56-1.61-3.26-1.95-4.56-1.11-.46.3-1.27 3.24-1.73 3.45.43-1.89 2.15-10.17.53-11.86a3.38 3.38 0 0 0 -4.38-.6c-.84.62-5.36 19.83-1.57.55-2.71 1.16-5.37 2.51-8 3.65-.43 2-.71 3.26-.73 3.38-.1.49-.55 1-.61 1.44-1.16-2.14 3.86-18.82 3.36-20.07a4.11 4.11 0 0 0 -5.08-1.82c-1.55.58-1.29 1-1.77 3.22-4.74 21.39-4.77 23.86-6.55 28.78-1.85-5.28-.47-4.77-.49-7.05 0-3.34-1.48-4.64-3.65-5.45-2.75-1-1.91 2.3-2 3.91a29.28 29.28 0 0 1 -1 4.79c-1.91 9.82 3.05 14.55 5.77 20.53 1.26 2.77 2.13 5.21 5.4 5.83 3.6.67 7 1.95 10.64 2.71 1.73.37 1.62-.29 3.35.07l1.71.36a6.15 6.15 0 0 0 .91.19c.07 0 4.21-10.26 4.72-11.22a38.31 38.31 0 0 0 3.26-8.85c1.04-3.73 3.85-10.96 2.47-14.83z" fill="#f0b885"/><path d="m39.7 113.23a4 4 0 0 1 5 1.06l-.16 1.11c-.63 4.16-6.54 3.96-4.84-2.17z" fill="#f2c4a5"/><path d="m52.82 181.85 1.86-12.17-18.72-3.65-6.78-1.33-4.73 18.97z" fill="#fff"/><path d="m20.55 242.69 16.59-71.22-11.64-2.23-22.77 73.45z" fill="#9eb1b6"/><path d="m40.63 242.69 15.81-67.53-19.3-3.69-19.5 71.22z" fill="#8ba3ab"/><path d="m111.51 69.65c-.3.37-.59.74-.89 1.14-3.33 4.46-5.17 9.79-9 14-7 7.81-13 12.8-11.54 24.2-1-7.61 11-12.68 16.43-15 6.19-2.57 12.27-1.62 18.51-3.23 13.82-3.58 13.34-20.92 14.28-32.23.57-6.8 1.31-14.48 5.9-20 5-6 11.89-8.69 15.53-16.4 2.6-5.52 2.8-12.63-1.15-17.29s-11.11-5.54-17.23-4.39a34.56 34.56 0 0 0 -21.6 13.81c-4.75 6.74-6.17 14.74-7.15 22.79-.9 7.36 2.79 13.26 3.2 20.48.33 5.88-2.25 8.29-5.29 12.12z" fill="#94a9af" opacity=".56"/></svg>