<svg viewBox="0 0 265.45 221.82" xmlns="http://www.w3.org/2000/svg"><path d="m136.54 69.91s.16-68.44-.13-69.76 9 6.16 10.15 23.27c1.25 19.13.74 50.73.74 50.73z" fill="#aeadad"/><path d="m82.42 73.9 4.15 3 7.84 5.66.08.14.22.38a60.11 60.11 0 0 0 3.51 5.38c.38.51.77 1 1.19 1.57.2.27.41.52.62.78 4.64 5.69 11.43 11.5 17.58 7a10.25 10.25 0 0 0 1.31-1.13c-2.77-4.12-5.2-8.31-6.75-11.1-1.13-2-1.8-3.34-1.8-3.34s-2.71-3.14-6.13-6.42c-3.94-3.76-8.83-7.67-11.62-7.13a1.66 1.66 0 0 0 -.38.11 59 59 0 0 0 -9.82 5.1z" fill="#f2c4a5"/><path d="m116.77 63.28s7.82 18.43-29 13.76c-9.43-6.54-6.23-12.92-6.23-12.92z" fill="#f2c4a5"/><path d="m43.56 102.8.81 2.57 5.56 15.25 3.5 6.74a15.18 15.18 0 0 1 .74 1.64 19 19 0 0 1 -3.5 19.94l-27.08 28.88 1.58 1.55 24.22 23.63 2.46 2.4c5.1-6.61 16.74-19.49 21.74-26.17q6.55-8.78 13-17.66c4.18-5.81 9.21-11.67 12.45-18.05a32.43 32.43 0 0 0 3.23-10.52 45.4 45.4 0 0 0 -.87-15.61c-1-4.44-4.53-12.52-6.31-16.77l.46-3-9.71-7.36 7.26-14.52-2.4-9-1.28.33-20 5.12-2.42 2.94z" fill="#f2c4a5"/><path d="m83.09 84.38s-2.77 19.87-9.72 19.39-13-13.88-13-13.88l6.63-14.75 23.65-10.07v8.13a18.34 18.34 0 0 0 -7.56 11.18z" fill="#e7b088"/><path d="m95.59 101.8-.42-.49c-2.77 4.19-5.39 9.15-4.27 11.79 2.22 5.22 8.18 15.79.86 29.27 2.43-4.48 5.16-7.39 5.81-12.82.35-2.91-.26-19.27-.71-24.72z" fill="#e7b088"/><path d="m87.35 40.74h62.95v4.7h-62.95z" fill="#e7e7e8" transform="matrix(.76255543 -.64692288 .64692288 .76255543 .34 87.09)"/><path d="m91.77 43.81h62.95v8.95h-62.95z" fill="#d6d7d8" transform="matrix(.76255543 -.64692288 .64692288 .76255543 -1.98 91.19)"/><path d="m64.18 72.34h34.78v4.7h-34.78z" fill="#ef7a2c" transform="matrix(.76255543 -.64692288 .64692288 .76255543 -28.95 70.49)"/><path d="m68.59 75.42h34.78v8.95h-34.78z" fill="#df7227" transform="matrix(.76255543 -.64692288 .64692288 .76255543 -31.27 74.59)"/><path d="m90.99 69.3h4.4v8.95h-4.4z" fill="#eec755" transform="matrix(.76255543 -.64692288 .64692288 .76255543 -25.6 77.8)"/><path d="m86.58 66.22h4.4v4.7h-4.4z" fill="#ffd45e" transform="matrix(.76255543 -.64692288 .64692288 .76255543 -23.28 73.71)"/><path d="m146.21 30.51a2.66 2.66 0 0 1 1.28.74c.78.74 2.07 1 2.65.24s.18-2.13-.68-2.83c-1.12-.9-1.5-3.94-3.27-4.68a2.72 2.72 0 0 1 -1.48-1.35c-1.27-2.93-4.31-2.57-3.68-.52a1.72 1.72 0 0 1 -.13 1.43c-.4.64-.21 1.86 1.68 3 1.6 1 .96 3.46 3.63 3.97z" fill="#a3a2a2"/><path d="m64.79 115.61s-2.6 57.86 26.34 27.39l.57-1.41s6.59-9.51 2.39-20c-2.85-7.1-.62-14.13 1.89-20.94 1.15-3.15 2-6.38 3-9.54.13-.36.24-.7.37-1 1.16-3.29 4-7 3.78-10.68-.3-4.07-2.55-6.49-6.48-7.25-5-1-8 1.35-10.14 4.8s-3.47 8-5.23 11.46l-5.23 13.34z" fill="#f2c4a5"/><path d="m53.33 69.11-10.75 23.89a7.86 7.86 0 0 0 -.39 5.38l1.37 4.4.81 2.57 9.07-5.67 9.77-8.5 3.79-16.05s13.38-3.76 22.41-8c1.2-.57 2.33-1.14 3.34-1.72 6.71-3.84 4-9.8 2.53-12.18a9.92 9.92 0 0 0 -.73-1.07l-12.45 3.74-20.92 6.32a12.61 12.61 0 0 0 -7.85 6.89z" fill="#f2c4a5"/><path d="m101.93 78.2c.37 2.45-1.75 5.07-3.12 7.79a5.63 5.63 0 0 1 -7.06 2.49c-3.41-1.26-5.08-4.87-3.7-7.62 1.11-2.23 2.21-6.78 4.89-7.78 2.91-1.08 8.54 2.11 8.99 5.12z" fill="#ead4c1"/><path d="m82.1 55.9a14 14 0 0 0 13.19-2.69 9.92 9.92 0 0 0 -.73-1.07z" fill="#ead4c1"/><path d="m110.5 88 7.11 9.81a10.25 10.25 0 0 0 1.31-1.13c-2.77-4.12-5.2-8.31-6.75-11.1-.94 1.23-1.67 2.42-1.67 2.42z" fill="#ead4c1"/><path d="m49.39 203 2.46 2.4c5.1-6.61 16.74-19.49 21.74-26.17q6.55-8.78 13-17.66c4.18-5.81 9.21-11.67 12.45-18.05a32.43 32.43 0 0 0 3.23-10.52 128.38 128.38 0 0 1 -10.09 17c-6.72 9.76-32.61 40.28-42.79 53z" fill="#e7b088"/><path d="m70.99 157.37-33.29 34.24-13.03 13.41-24.67-26.27 46.82-42.56z" fill="#17405e"/><path d="m86.66 171.1-45.22 50.72-16.77-16.8 13.03-13.41 33.29-34.24.01.03 9.19 8.06 2.2 1.91z" fill="#1e4e6c"/><path d="m174.6 114.18c7.26 6.06 22 5.41 24.84-3.91a25.73 25.73 0 0 0 1.29-8.07c-.57-.45-1.16-.88-1.72-1.33a2.42 2.42 0 0 0 -1.65-.74c-.82.09-1.1.9-1.68 1.35a10.8 10.8 0 0 1 -1.94 1 25.24 25.24 0 0 1 -4.92 1.35c-10.31 2.35-15.49-1-19.7-5.06a17.88 17.88 0 0 0 5.48 15.41z" fill="#f2c4a5"/><path d="m253.36 176.55a166.64 166.64 0 0 1 -15.06 17.38 168.94 168.94 0 0 1 -13.53 12.23c-1 .8-2 1.57-2.91 2.3 0 0-28.49-32.07-43.85-42.68-9.73-3.91-18.58-11.11-24.65-16.88-3.45-3.28-6-6.1-7.28-7.58-.62-.7-1-1.1-1-1.1-.72-.89-.27-4.89-.33-6l-.21-3.66c-.05-1-.11-2-.17-3-.14-2.45-.28-4.89-.41-7.35a41.4 41.4 0 0 0 -.52-4.35c-.18-1.17-.43-2.36-.67-3.56-1-4.59-2.27-9.37-2.86-13.51-.05-.38-.09-.76-.14-1.14 0-.08-1.12-.56-1.3-.71a7.73 7.73 0 0 1 2.74.48l.6.16c.73.19 2.5.93 3.17.35 1-.88-.67-2.58-1.32-3.29-3.22-3.52-7.14-5.84-10.93-8.62-3.1-2.28-8.43-5.64-8.26-9.87a6.13 6.13 0 0 1 4-5.11c2.34-1 6.29.64 8.07 2.2a56.89 56.89 0 0 0 6.94 4.89c6.87 4.44 13 9.85 19.46 14.89 2.13 1.66 4 3.81 6.08 5.81a17.87 17.87 0 0 0 5.48 15.4c7.26 6.06 22 5.41 24.84-3.91a26 26 0 0 0 1.3-8.06 14.76 14.76 0 0 1 2.75 2.6 39.71 39.71 0 0 1 2.74 4.27q1.74 3 3.46 5.94a18 18 0 0 1 2.41 6.93l2 16.74a10.85 10.85 0 0 0 3.76 7c4.29 3.52 31.36 27.26 35.6 30.81z" fill="#f2c4a5"/><path d="m224.77 206.16c-1 .8-2 1.57-2.91 2.3 0 0-28.49-32.07-43.85-42.68-9.73-3.91-18.58-11.11-24.65-16.88-3.45-3.28-6-6.1-7.28-7.58.67.78 2.67 1.32 3.59 2a31.69 31.69 0 0 1 3.45 2.77c2.37 2.16 4.54 4.52 6.91 6.66a41.6 41.6 0 0 0 9.3 6.43c5.91 2.92 11.5 4 18 2.31-.68.17-1.19 2.45-1.21 3a8.11 8.11 0 0 0 1.85 5c3.28 3.51 33.57 28.91 36.8 36.67z" fill="#e7b088"/><path d="m166.71 106.88a12.44 12.44 0 0 1 1.64 7.21c-.36 2.39-1.1 3.87.33 6.14 2.2 3.49 4 8.58 1.19 12.36 2 2.63.35 7.83-2 9.79-3.8 3.19-10.59.67-14.53 6.52a105.71 105.71 0 0 1 -8.23-8.68c-.72-.89-.27-4.89-.33-6l-.21-3.66a4.43 4.43 0 0 1 3.61-.45c3.81 1.08 7.36 1.92 10.68 2.56a144 144 0 0 1 -14.46-5.15l-1-.43c-2.66-1.13-4.15-4.7-3.19-7.74a5.26 5.26 0 0 1 3.27-3.53 4.28 4.28 0 0 1 3.18.12c1.26.55 2.51 1 3.78 1.55q-3.93-2.52-7.63-5.23-2-1.49-3.94-3c-2.65-2.08-2.46-6.42-.45-8.87.48-.58 1-1.11 1.53-1.64s.89-.88 1.31-1.37l.36-.46a18.49 18.49 0 0 1 2.09-2.33 15.79 15.79 0 0 1 1.78-1.47 9 9 0 0 1 5.6-1.82c2.52.14 4.73 1.67 6.61 3.35a34.61 34.61 0 0 1 6.67 8.14c.76 1.27 1.63 2.65 2.34 4.09z" fill="#e7b088"/><path d="m185.55 135.75c-1.43-12.53 4.35-16.7 5.78-22-11.8 10.4-5.78 22-5.78 22z" fill="#e7b088"/><path d="m149.85 89.4-2.55-15.25-10.76-4.24s.52 9.34 1.2 21.69c-13.24 18.86-5.51 43.46 1.36 49.89s17.9 6.51 25.35-9.36c11.66-28.33-14.6-42.73-14.6-42.73zm2 47.74c-6.51 1.79-13.33-5.45-15.23-16.18s1.84-20.87 8.36-22.67 13.33 5.44 15.23 16.17-1.84 20.88-8.36 22.68z" fill="#dd1d3b"/><path d="m170 129.18a4.46 4.46 0 0 1 -.11.46c-.74 2.87-3.29 4.78-6 4.14a143.58 143.58 0 0 1 -23.36-7.78c-2.66-1.14-4.15-4.7-3.19-7.74a6 6 0 0 1 .46-1.1 4.69 4.69 0 0 1 6-2.31 133.2 133.2 0 0 0 22.52 7.52c2.68.69 4.28 3.63 3.68 6.81z" fill="#e7b088"/><path d="m170 129.18a4.46 4.46 0 0 1 -.11.46 4.88 4.88 0 0 1 -5.43 2.74 144.39 144.39 0 0 1 -23.4-7.73c-2.58-1.11-4.06-4.48-3.28-7.45a4.69 4.69 0 0 1 6-2.31 133.2 133.2 0 0 0 22.52 7.52c2.7.65 4.3 3.59 3.7 6.77z" fill="#f2c4a5"/><path d="m169.78 138.32c-.22 2.61-1.85 4.8-3.82 4.87a111.7 111.7 0 0 1 -20.57-1.43c-2.53-.37-4.92-2.76-5.7-5.64a6.43 6.43 0 0 1 -.28-1.79c-.09-3.84 2.74-6.17 5.91-5.27a106.89 106.89 0 0 0 21.41 4 2.93 2.93 0 0 1 2.27 1.54 6.05 6.05 0 0 1 .78 3.72z" fill="#e7b088"/><path d="m169 134.6a6.71 6.71 0 0 1 .14 2.08c-.22 2.61-1.86 4.82-3.82 4.88a111.86 111.86 0 0 1 -20.58-1.43 7.33 7.33 0 0 1 -5.06-4 6.43 6.43 0 0 1 -.28-1.79c-.09-3.84 2.74-6.17 5.91-5.27a106.89 106.89 0 0 0 21.41 4 2.93 2.93 0 0 1 2.28 1.53z" fill="#f2c4a5"/><path d="m193.11 106.67a5.73 5.73 0 0 0 -5.77.34 26 26 0 0 1 -3.05 2.28c-.29.17-2.94 1.82-2.78 2.06a10.56 10.56 0 0 0 3.26 3.05 8.22 8.22 0 0 0 5.73 1.14 5.8 5.8 0 0 0 4.39-3.64 4.53 4.53 0 0 0 -1.78-5.23z" fill="#e7b088"/><path d="m176.69 82.5-20.23-19.19-6.59 8.26s11.51 9.39 18 17.94c-4.65 16.74 8.8 29.42 17.74 30.52s20.15-3.42 18.9-18.64c-3.24-23.08-27.82-18.89-27.82-18.89zm18.07 28.56c-5.22 3.13-12.78 1.62-16.89-3.36s-3.25-11.61 2-14.68 12.84-1.62 16.89 3.36 3.24 11.55-2 14.68z" fill="#dd1d3b"/><path d="m198 100.06c1.86 10.73-6.19 12.22-6.19 12.22l-2.38-2.2-.43-.9s-8.05 7.58-16.42-2a1 1 0 0 1 -.19-.32 1 1 0 0 1 .34-1.2 112.4 112.4 0 0 1 11-6.64c3.25-1.83 4.05-2.23 4.16-2.32 1.31-.7 5.76-.15 10.11 3.36z" fill="#f2c4a5"/><path d="m156.46 63.32-6.59 8.25s-7.39-11.78-13.3-11.51c-15.42-17.51-33.46-30.87-32.77-45.69l.36.28c12 9.91 32.53 29.47 44 40.53 5.01 4.91 8.3 8.14 8.3 8.14z" fill="#a3a3a2"/><path d="m147.24 56.3a3.7 3.7 0 1 1 -4.87-1.92 3.7 3.7 0 0 1 4.87 1.92z" fill="#939599"/><path d="m166.73 117.59a7.11 7.11 0 0 1 -.85 1.93c-1.87 3-5.63 4.27-8.45 2.75a148.84 148.84 0 0 1 -21.43-14.07c-2.08-1.64-2.57-5-1.15-7.75.11-.21.23-.41.36-.61 1.88-2.86 5.31-3.65 7.54-1.93a137.69 137.69 0 0 0 21.57 13.59 5.09 5.09 0 0 1 2.41 6.09z" fill="#e7b088"/><path d="m166.73 117.59c-.09.18-.2.36-.31.54-1.86 3-5.62 4.27-8.44 2.75a148.84 148.84 0 0 1 -21.44-14.07 6.06 6.06 0 0 1 -1.7-6.36c.11-.21.23-.41.36-.61 1.88-2.86 5.31-3.65 7.54-1.93a137.69 137.69 0 0 0 21.57 13.59 5.09 5.09 0 0 1 2.42 6.09z" fill="#f2c4a5"/><g fill="#ead4c1"><path d="m165.8 115.26-4.65-2.33a3.63 3.63 0 0 0 -3.21 6.42l4.64 2.33a10.68 10.68 0 0 0 2.33-3.27 10.86 10.86 0 0 0 .89-3.15z"/><path d="m168.62 124.55-5.62-1.1a3.55 3.55 0 0 0 -1.36 7l5.62 1.1a7.77 7.77 0 0 0 1.51-3.26 7.86 7.86 0 0 0 -.15-3.74z"/><path d="m168.05 135.31-4.42-.87a3 3 0 0 0 -1.13 5.77l4.42.87a7.68 7.68 0 0 0 1.15-2.85 7.48 7.48 0 0 0 -.02-2.92z"/><path d="m183.08 99.29c-3.6 2-8 4.63-10.34 6.33.29.4.6.79.92 1.18a5.76 5.76 0 0 0 2.67.62 11.39 11.39 0 0 0 4.4-1.54c3.98-2.43 3.57-4.69 2.35-6.59z"/></g><path d="m148.12 55.18c-26.25-17.68-39.82-34.77-44-40.53 12.09 9.91 32.57 29.47 44 40.53z" fill="#b2bbc4"/><path d="m265.45 179.92-16.12 17.53-7.28-7.44-38.28-39.23 10.95-9.39 6.07-5.2z" fill="#1e4e6c"/><path d="m249.33 197.45-20.78 22.63-48.46-48.07 2.81-2.52 3.44-3.1 17.43-15.61 38.28 39.23z" fill="#17405e"/></svg>