<svg viewBox="0 0 119.94 191.43" xmlns="http://www.w3.org/2000/svg"><path d="m56 45.44c-11.06.29-22.66 0-31.79 6.25-22.48 15.31-19.45 51.65-2.62 60.66 14.81 7.93 34.2 8.1 50.19 4.32-3.73-24.25-6.72-48.54-15.78-71.23z" fill="#f39eaf"/><path d="m28.71 26.71a57.15 57.15 0 0 0 -8.51 18.71c8.69-.74 19.19-.82 27.25 1.71 1.91-9.88 11.33-13.13 21.24-14.75a84 84 0 0 0 -39.98-5.67z" fill="#235566"/><path d="m5.34 31.79a58.63 58.63 0 0 0 -.12 9.46c.15 2 .52 4 .87 6 2.81-.51 8-1.36 14.11-1.88a57.15 57.15 0 0 1 8.51-18.71 100.71 100.71 0 0 0 -23.37 5.13z" fill="#167cab"/><path d="m47.45 47.13c4.46 1.4 8.17 3.59 10.39 6.91a177.65 177.65 0 0 0 19.54-17.19 52 52 0 0 0 -8.69-4.47c-9.91 1.62-19.33 4.87-21.24 14.75z" fill="#167cab"/><path d="m86.89 20.32 4.55-8.46-11.6-7.86-6.54 9.41a40.13 40.13 0 0 0 -5.4-1.12l-1.58-12.29-14.02.35.19 12.54a50.5 50.5 0 0 0 -8.91 2.78l-6.4-9.61-12.41 6.54 5.62 10.93c-26.2 22.45 3 59.87 3 59.87a95.92 95.92 0 0 0 16.47 5.38c-7.66-11.66-13.27-23.78-12.32-38.39-1-18.34 16.94-34.06 35.15-23.92 20.81 11.11 19.23 31.82 12.59 52a50.06 50.06 0 0 0 9.72 2.82c6.28-16.55 10-46.11-8.11-60.97z" fill="#e7323d"/><path d="m72.69 26.47c-18.21-10.14-36.13 5.58-35.15 23.92-.95 14.61 4.66 26.73 12.32 38.39 6.23 1.27 12 1.23 13-3-18-26.82-27.65-50.3-4.23-54.38 31.48-5.78 20.52 43.08 20.52 43.08s1.17 2 6.1 4c6.67-20.19 8.25-40.9-12.56-52.01z" fill="#cd1b2f"/><path d="m82.64 53.59a122.53 122.53 0 0 0 -24.64-8.21c-.7 0-1.34 0-2 .06 9 22.69 1.37 49.67 15.76 71.23 9.16-2.17 17.51-5.89 23.72-11.06-12.48-15.37-21.48-33.69-12.84-52.02z" fill="#d97c95"/><path d="m82.64 53.59c-8.6 18.33.36 36.65 12.86 52a38.2 38.2 0 0 0 2.87-2.59c11.83-23.66 5.63-39.16-15.73-49.41z" fill="#eb8ca1"/><path d="m118.43 36.83c-.6-1.56-1.42-3.51-2.51-5.93-54.77-19.3-83.09 48.89-83.09 48.89s1.07 3.2 8.86 6.35c12.87-29.93 44.87-47.35 76.74-49.31z" fill="#167cab"/><path d="m41.69 86.14c4.47 1.81 11.12 3.6 21.06 4.75-3.07-43.89 55.88-48.39 55.88-48.39s3.08 2.82-.2-5.67c-31.87 1.96-63.87 19.38-76.74 49.31z" fill="#235566"/><path d="m56.35 136.27c17.25-15.78 22.78-36.22 18.65-55.53-5.73-1.67-11.1-3.12-15.28-4.59-6.52-2.29-13.14-4.6-20-5-30.32-1.68-54.72 35.6-28.72 77.5 15.42 3.14 34.14-2.12 45.35-12.38z" fill="#dd1d3b"/><path d="m114.29 106.59c-3.91-14.46-23.09-21.1-39.29-25.85 4.13 19.31-1.4 39.75-18.65 55.53-11.21 10.26-29.93 15.52-45.35 12.38a113.11 113.11 0 0 0 19.57 23.35c7.51 6.94 12.17 18.14 23.58 19.34 18.3 1.92 30.81-16.56 37.22-25.49 11.15-15.58 28.52-38.58 22.92-59.26z" fill="#c71439"/><g fill="#595a5b"><path d="m17.42 112c0 .06-.05.12-.07.17a2.68 2.68 0 0 0 -4.15-3 .86.86 0 0 0 .14-.13c-2.09.78-2.19 3.78-.52 5s4.5.22 4.6-2.04z"/><path d="m16.27 125.2a3.52 3.52 0 1 0 -2.94 4 3.58 3.58 0 0 0 2.94-4z"/><path d="m24.35 128.67c-4.14.64-3.16 7.08 1 6.44s3.15-7.11-1-6.44z"/><path d="m20.77 141.44a3.37 3.37 0 1 0 3.84 2.81 3.4 3.4 0 0 0 -3.84-2.81z"/><path d="m31.69 156.25a2.91 2.91 0 1 0 3.31 2.43 2.94 2.94 0 0 0 -3.31-2.43z"/><path d="m39.62 169.55a3.24 3.24 0 1 0 4 5.13 3.31 3.31 0 0 0 .47-4.56 3.24 3.24 0 0 0 -4.47-.57z"/><path d="m49.83 161.33a3.14 3.14 0 1 0 -2.63 3.58 3.18 3.18 0 0 0 2.63-3.58z"/><path d="m51.22 181.3-.15.25a1.63 1.63 0 0 0 2.63 1.92l.2-.21c1.44-1.59-1.6-3.82-2.68-1.96z"/><path d="m68.82 177.14a2.8 2.8 0 1 0 3.2 2.34 2.83 2.83 0 0 0 -3.2-2.34z"/><path d="m65.42 167.09c-2.91.45-2.21 5 .7 4.51s2.21-4.96-.7-4.51z"/><path d="m81 159.9c-5 .78-3.85 8.63 1.21 7.85s3.79-8.63-1.21-7.85z"/><path d="m83.56 148.77c-3.82.59-2.91 6.52.91 5.93s2.91-6.52-.91-5.93z"/><path d="m93.76 147c-4.11.64-3.13 7 1 6.38s3.11-7.05-1-6.38z"/><path d="m94.86 130.14c-3.34.51-2.54 5.71.8 5.19s2.55-5.71-.8-5.19z"/><path d="m105.33 130.09a3.51 3.51 0 1 0 4 2.94 3.56 3.56 0 0 0 -4-2.94z"/><path d="m103.11 111.67c-4 .62-3.07 6.89 1 6.26s3.04-6.93-1-6.26z"/><path d="m111 115.12c-2.8.44-2.13 4.78.67 4.35s2.17-4.78-.67-4.35z"/><path d="m15.6 99.93a3.57 3.57 0 1 0 -4.08-3 3.61 3.61 0 0 0 4.08 3z"/><path d="m26.05 103.73c3.59-.55 2.74-6.14-.86-5.58s-2.74 6.14.86 5.58z"/><path d="m96.55 97.15c-4.18.64-3.18 7.14 1 6.49s3.19-7.14-1-6.49z"/></g><path d="m42.23 80.63c-12.5-6.92-26.84 6.94-31.09 17.9-8.16 21 10.06 36.71 11.75 17.2.37-4.29 1.05-8.38 3.34-12.12 4.21-6.92 12.24-7.23 17.31-12.8 2.73-3.01 2.46-8.08-1.31-10.18z" fill="#e7e7e8"/></svg>