<svg viewBox="0 0 135.45 150.13" xmlns="http://www.w3.org/2000/svg"><path d="m68.46 10.53v74.55c-12-.22-24.14 4.3-27.35 25.26-1 6.42-1.28 13.53-.28 36 .09 2.93-3.84 4.4-6 2.25-12.43-12.68-22.38-29.43-20.61-46.59.13-1.22.22-2.4.29-3.52 1.12-18.39-5.51-25.69-10.17-34.74-3.25-6.3-5.55-13.5-3.65-25.88 1.84-11.86 7.63-28.43 18.52-33.1 14.54-6.22 27.11-4.76 37.46 2.47a19.64 19.64 0 0 0 11.79 3.3z" fill="#e7e7e8"/><path d="m130.5 67.83c-14.68 27.07-1 35.19-15.78 62.22 0 1-6.8 10.18-6.8 10.29-31.3 39.76 10.7-54.46-39.46-55.26v-74.55a19.22 19.22 0 0 0 10.39-3.3c10.41-7.29 25.07-10.64 37.49-2.47 18.83 12.4 24.14 45.24 14.16 63.07z" fill="#dcddde"/><path d="m68.46 50v35.08c-12-.22-24.14 4.3-27.35 25.26-1 6.42-1.28 13.53-.28 36 .09 2.93-3.84 4.4-6 2.25-12.43-12.68-22.38-29.43-20.61-46.59.13-1.22.22-2.4.29-3.52 1.12-18.39-5.51-25.69-10.17-34.74 2.55-8.74 9.14-17.31 14.87-23.58 7.05-7.76 23.74-3.58 31.6 1.16 7.19 4.36 9.67 8.11 17.65 8.68z" fill="#d6d7d8"/><path d="m133.9 59.16a36.4 36.4 0 0 1 -3.4 8.67c-14.68 27.07-1 35.19-15.78 62.22 0 1-6.8 10.17-6.8 10.29-31.28 39.73 10.71-54.46-39.46-55.26v-35.08c9.41.61 12.88-4.21 20.24-8.64 7.86-4.74 24.55-8.92 31.6-1.16 4.7 5.14 11.29 11.85 13.6 18.96z" fill="#cccdce"/><g fill="#808285"><path d="m28.29 8.78c-6.4 0-6.41 9.94 0 9.94s6.41-9.94 0-9.94z"/><path d="m39.45 19.2a6 6 0 1 0 12 0c-.39-8.45-12.33-7.3-12 0z"/><path d="m55.42 34.8c.41 9 13.14 7.78 12.8 0-.41-9.02-13.15-7.8-12.8 0z"/><path d="m82.87 14.73c-8.22 0-7.68 12.07 0 12.07a6 6 0 0 0 0-12.07z"/><path d="m91.45 29.86c-6.35 0-6.36 9.87 0 9.87s6.36-9.87 0-9.87z"/><path d="m104.7 7.23c-7.38 0-7.39 11.48 0 11.48s7.4-11.48 0-11.48z"/><path d="m110.2 28.56a4.64 4.64 0 1 0 9.28 0c0-6.13-9.28-6.1-9.28 0z"/><path d="m27.51 28c-5.87 0-5.88 8.92 0 8.92a4.46 4.46 0 0 0 0-8.92z"/><path d="m12.7 28.88c-4.61 0-4.62 7.16 0 7.16s4.61-7.16 0-7.16z"/><path d="m58.59 20c.3 6.77 9.84 5.83 9.58 0-.31-6.77-9.84-5.85-9.58 0z"/></g><path d="m68.83 61.62c-20 .53-26-15.48-37.72-6-7 5.62-1.37 9.87.18 16.18 3.71 14.9-16.29 34.2 2.99 62.49-2.7-5.39.13-19.77.23-25.94.15-8.61 1.84-15.87 7-23.1 6-8.35 16.43-12.84 27.34-14.14z" fill="#e7323d"/><path d="m68.83 61.62c20 .53 26-15.48 37.73-6 7 5.62 1.37 9.87-.18 16.18-3.66 14.94 16.34 34.27-3 62.53 2.69-5.39-.14-19.77-.24-25.94-.15-8.61-1.84-15.87-7-23.1-6-8.35-16.42-12.84-27.35-14.14z" fill="#dd1d3b"/></svg>