<svg viewBox="0 0 216.22 216.22" xmlns="http://www.w3.org/2000/svg"><path d="m38.65 121.52h101.41v7.57h-101.41z" fill="#e7e7e8" transform="matrix(.75022648 -.66118094 .66118094 .75022648 -60.53 90.38)"/><path d="m45.92 126.34h101.41v14.41h-101.41z" fill="#d6d7d8" transform="matrix(.75022648 -.66118094 .66118094 .75022648 -64.17 97.24)"/><path d="m120.39 69.47h56.02v7.57h-56.02z" fill="#ef7a2c" transform="matrix(.75022648 -.66118094 .66118094 .75022648 -11.36 116.43)"/><path d="m127.66 74.29h56.02v14.41h-56.02z" fill="#df7227" transform="matrix(.75011107 -.66131187 .66131187 .75011107 -15 123.3)"/><path d="m140.69 84.38h7.09v14.41h-7.09z" fill="#eec755" transform="matrix(.75022648 -.66118094 .66118094 .75022648 -24.53 118.25)"/><path d="m133.42 79.55h7.09v7.57h-7.09z" fill="#ffd45e" transform="matrix(.75011107 -.66131187 .66131187 .75011107 -20.89 111.4)"/><path d="m62.93 166a4.19 4.19 0 0 0 .89 2.21c1 1.42 1 3.52-.24 4.28s-3.43-.21-4.34-1.74c-1.19-2-5.94-3.31-6.71-6.3a4.36 4.36 0 0 0 -1.8-2.67c-4.38-2.71-3.1-7.48 0-6a2.81 2.81 0 0 0 2.31.13c1.11-.5 3 .1 4.42 3.37 1.21 2.82 5.31 2.37 5.47 6.72z" fill="#a3a2a2"/><path d="m83.14 44.18c11.3 6.68 15.58 22.93 9.7 34.67-5 10-12.43 13.34-18.8 22.22-6.18 8.6-7.22 31.71-7.22 31.71s-10.57-22.15-6.64-34.94c8.01-26.09 34.75-28.84 22.96-53.66z" fill="#bcbdbf"/><path d="m43.85 105.89c-2.22 4.7-6 9.3-7.58 14.13-3.81 11.4-.52 20.81 7.89 29.22a22 22 0 0 1 -1.37-17.14c1.89-6 5.21-11.48 7-17.52 2.77-9.46 3.89-18.89-2.57-26.11 2.54 6.36-.44 11.23-3.37 17.42z" fill="#bcbdbf"/><path d="m108.11 0a108.11 108.11 0 1 0 108.11 108.11 108.24 108.24 0 0 0 -108.11-108.11zm0 13.67a94.4 94.4 0 0 1 75.75 150.78l-146-119.37a94.22 94.22 0 0 1 70.25-31.41zm0 188.88a94.38 94.38 0 0 1 -78.64-146.66l145.44 118.91a94.14 94.14 0 0 1 -66.8 27.75z" fill="#e7323d"/></svg>