<svg viewBox="0 0 186.98 163.86" xmlns="http://www.w3.org/2000/svg"><path d="m5.04 98.54h129.2v9.64h-129.2z" fill="#e7e7e8" transform="matrix(.75022648 -.66118094 .66118094 .75022648 -50.95 71.87)"/><path d="m14.3 104.68h129.2v18.36h-129.2z" fill="#d6d7d8" transform="matrix(.75022648 -.66118094 .66118094 .75022648 -55.58 80.62)"/><path d="m109.18 32.22h71.38v9.64h-71.38z" fill="#ef7a2c" transform="matrix(.75022648 -.66118094 .66118094 .75022648 11.7 105.05)"/><path d="m118.44 38.37h71.38v18.36h-71.38z" fill="#df7227" transform="matrix(.75022648 -.66118094 .66118094 .75022648 7.07 113.8)"/><path d="m135.04 51.21h9.03v18.36h-9.03z" fill="#eec755" transform="matrix(.75011107 -.66131187 .66131187 .75011107 -5.07 107.37)"/><path d="m125.78 45.07h9.04v9.64h-9.04z" fill="#ffd45e" transform="matrix(.75011107 -.66131187 .66131187 .75011107 -.43 98.63)"/><path d="m36 155.25a5.43 5.43 0 0 0 1.12 2.82c1.28 1.8 1.32 4.48-.29 5.44s-4.38-.26-5.54-2.21c-1.51-2.54-7.56-4.22-8.54-8a5.58 5.58 0 0 0 -2.3-3.41c-5.58-3.45-3.94-9.53 0-7.63a3.61 3.61 0 0 0 2.95.17c1.42-.64 3.84.11 5.63 4.29 1.52 3.52 6.73 2.95 6.97 8.53z" fill="#a3a2a2"/><g fill="#bcbdbf"><path d="m61.73 0c14.39 8.51 19.84 29.22 12.35 44.17-6.36 12.71-15.84 17-23.95 28.31-7.87 11-9.2 40.41-9.2 40.41s-13.46-28.23-8.46-44.52c10.2-33.25 44.27-36.78 29.26-68.37z"/><path d="m11.67 78.63c-2.83 6-7.61 11.84-9.67 18-4.85 14.52-.65 26.52 10.06 37.23-3.51-7.26-4.17-14.15-1.75-21.86s6.69-14.61 8.89-22.3c3.53-12.06 5-24.07-3.27-33.27 3.26 8.1-.53 14.3-4.26 22.2z"/></g></svg>