<svg viewBox="0 0 272.06 178.14" xmlns="http://www.w3.org/2000/svg"><path d="m26.94 118 3.1-6.91v-18.75a29.56 29.56 0 0 1 5.75-17.51l20.3-27.6 23.19-15.46 5.92 52.5-3.88 29.26-18.22 19.86z" fill="#f2c4a5"/><path d="m73.22 0 93.41 109.52h35.15v-109.52z" fill="#686969"/><path d="m64.52 0v109.52h102.11l-93.41-109.52z" fill="#595a5b"/><path d="m187.89 80.07v.16c-.07 1-.2 1.86-.34 2.81a31.81 31.81 0 0 1 -4.38 12 6.83 6.83 0 0 1 -.71 1 13 13 0 0 1 -9.44 4.86 8.48 8.48 0 0 1 -.86.06c-3.9.07-7.11.1-9.91-.06-5.27-.36-9-1.5-12.93-4.93-.79-.72-1.58-1.43-2.33-2.15-4.68-4.44-7.83-8.35-9.88-12.36-.34-.72-.68-1.4-1-2.12s-.45-1.14-.65-1.73-.34-1.14-.52-1.73c-.3-1.17-.54-2.38-.75-3.59-.07-.62-.17-1.2-.24-1.82-.14-1.24-.2-2.48-.24-3.75 0-1.08 0-2.19 0-3.3 0-.52 0-1.11 0-1.66 0-.94.06-1.92.13-2.93s.14-2.25.24-3.4c.14-1.63.28-3.36.45-5.18.55-6.17-.93-14.84 1.06-20.65a7.6 7.6 0 0 1 3.11-3.91 10.74 10.74 0 0 1 11.4.31c17.9 11.48 28.59 23.48 33.9 34.79.07.13.14.29.21.43a39.56 39.56 0 0 1 3.68 18.85z" fill="#e7e7e8"/><path d="m145.31 45.18a5 5 0 0 1 1.33 5.2 13.49 13.49 0 0 0 .26 7.35c1 3.75 2.67 7.12 2.23 11.1a18.5 18.5 0 0 1 -4.39 9.47.14.14 0 0 0 .2.19 14.65 14.65 0 0 0 6.81-10.76c.57-4.43-2.35-9.52-2.34-14a1.4 1.4 0 0 1 2.59-.73c2.92 4.27 5.12 8.93 5.42 14.18s-.71 10.85 2 15.59c3.5 6.22 13.06 7.83 12.87 16.12 0 .14.24.18.26 0 .84-5.64-3.46-8.63-7-12.45-6.28-6.73-3.62-14.59-4.73-22.66a23.62 23.62 0 0 0 -1.48-5.45c5.68 1.3 6.83 9.21 10 13.22 2.94 3.72 6.44 4.77 11 5.64a.16.16 0 0 0 .08-.31c-7.43-2.59-9.64-9.28-13-15.23a12.44 12.44 0 0 0 -6.83-6.07 8.17 8.17 0 0 1 -4.59-3.27c-2.05-3.16-3.15-4.25 1.29-4.18 2.26 0 4.51.23 6.75.39 3.77.27 7.75 1 10.28 3.93.24.28.67-.09.51-.38-2.69-4.79-7.9-6.2-13.62-6.87-.77-.09-1.54-.12-2.32-.16a33.72 33.72 0 0 1 -11-2.63c-.57-.56-1.14-1.13-1.73-1.69-2.69-2.6-5-5.86-8-8.15a19.53 19.53 0 0 0 -.79 3.93c1.77 2.91 5.26 6.13 7.94 8.68z" fill="#939598"/><path d="m117.21 92.92c-.93.84-1.89 1.73-2.84 2.57a20.25 20.25 0 0 1 -13.92 5.42h-9.71a12.27 12.27 0 0 1 -10.26-5.19 2.37 2.37 0 0 1 -.28-.39c-.24-.39-.44-.78-.65-1.17a.15.15 0 0 1 0-.07 21.69 21.69 0 0 1 -1.27-2.44 34 34 0 0 1 -1.84-5.06c-.21-.72-.38-1.44-.52-2.15s-.3-1.57-.41-2.35a22.21 22.21 0 0 1 -.3-3 38.48 38.48 0 0 1 .13-5.25 31 31 0 0 1 .55-3.56 18.27 18.27 0 0 1 .41-1.79c.21-.79.44-1.57.72-2.35a9.6 9.6 0 0 1 .41-1.21c.2-.55.44-1.14.68-1.69s.62-1.34.92-2c7-14.54 20.29-26.31 33.83-35 3.45-2.25 8.1-2.68 11.56-.46a7.31 7.31 0 0 1 3.11 3.91c2 5.81.51 14.48 1.06 20.65.17 1.79.31 3.52.44 5.18 1.2 14.93.86 25.72-11.82 37.4z" fill="#e7e7e8"/><path d="m117.85 45.18a5 5 0 0 0 -1.33 5.2 13.49 13.49 0 0 1 -.27 7.35c-1 3.75-2.66 7.12-2.23 11.1a18.6 18.6 0 0 0 4.4 9.47.14.14 0 0 1 -.2.19 14.69 14.69 0 0 1 -6.82-10.76c-.56-4.43 2.36-9.52 2.35-14a1.4 1.4 0 0 0 -2.57-.66c-2.91 4.27-5.11 8.93-5.41 14.18s.71 10.85-2 15.59c-3.5 6.22-13.06 7.83-12.87 16.12 0 .14-.23.18-.25 0-.84-5.64 3.46-8.63 7-12.45 6.28-6.73 3.62-14.59 4.72-22.66a24.15 24.15 0 0 1 1.49-5.45c-5.68 1.3-6.83 9.21-10 13.22-2.94 3.72-6.44 4.77-11 5.64a.16.16 0 0 1 -.07-.31c7.43-2.59 9.64-9.28 13-15.23a12.41 12.41 0 0 1 6.83-6.07 8.17 8.17 0 0 0 4.44-3.35c2.05-3.16 3.15-4.25-1.29-4.18-2.26 0-4.51.23-6.75.39-3.77.27-7.75 1-10.28 3.93-.24.28-.67-.09-.51-.38 2.69-4.79 7.9-6.2 13.61-6.87.78-.09 1.55-.12 2.33-.16a33.78 33.78 0 0 0 11-2.63c.56-.56 1.14-1.13 1.73-1.69 2.69-2.6 5-5.86 8-8.15a19.53 19.53 0 0 1 .8 3.93c-1.7 2.92-5.17 6.14-7.85 8.69z" fill="#939598"/><path d="m187.89 80.07v.16c-.07 1-.2 1.86-.34 2.81a34.8 34.8 0 0 1 -5.09 13 13 13 0 0 1 -9.44 4.86h-10.77c-5.27-.36-9-1.5-12.93-4.93-.79-.72-1.58-1.43-2.33-2.15-.34-.29-.68-.59-1-.91a38.17 38.17 0 0 1 -8.85-11.45c-.34-.72-.68-1.4-1-2.12s-.45-1.14-.65-1.73-.34-1.14-.52-1.73c-.3-1.17-.54-2.38-.75-3.59-.07-.62-.17-1.2-.24-1.82-.14-1.24-.2-2.48-.24-3.75 0-1.08 0-2.19 0-3.3 0-.52 0-1.11 0-1.66 0-.94.06-1.92.13-2.93s.14-2.25.24-3.4h46.79c1.1 1.78 2.1 3.57 3.1 5.36.07.13.14.29.21.43.3.65.65 1.3.92 2a35.22 35.22 0 0 1 2.76 16.85z" fill="#c2c1c1"/><path d="m117.21 92.92c-.93.84-1.89 1.73-2.84 2.57a20.25 20.25 0 0 1 -13.92 5.42h-9.71a12.27 12.27 0 0 1 -10.26-5.19 12.12 12.12 0 0 1 -.93-1.56.15.15 0 0 1 0-.07 21.69 21.69 0 0 1 -1.27-2.44 34 34 0 0 1 -1.84-5.06c-.21-.72-.38-1.44-.52-2.15s-.3-1.57-.41-2.35a22.21 22.21 0 0 1 -.3-3 29.79 29.79 0 0 1 .13-5.25 31 31 0 0 1 .55-3.56 18.27 18.27 0 0 1 .41-1.79c.21-.79.44-1.57.72-2.35a9.6 9.6 0 0 1 .41-1.21c.2-.55.44-1.14.68-1.69s.62-1.34.92-2c1-2 2.09-3.88 3.25-5.74h46.72c1.23 14.95.89 25.74-11.79 37.42z" fill="#c2c1c1"/><path d="m137.58 19.13c-.39-2.69-.61-5.38-.72-7.91a18.93 18.93 0 0 0 -10.28.15 66.89 66.89 0 0 1 -.8 8 19.71 19.71 0 0 1 5.64-1 19.26 19.26 0 0 1 6.16.76z" fill="#b9b9ba"/><path d="m136.77 5.23h-10.15c0 1.87.06 3.94 0 6.14a18.93 18.93 0 0 1 10.28-.15c-.14-2.13-.16-4.16-.13-5.99z" fill="#adadad"/><path d="m139.46 27.49a50.67 50.67 0 0 1 -1.88-8.36 19.26 19.26 0 0 0 -6.16-.83 19.71 19.71 0 0 0 -5.64 1 46.84 46.84 0 0 1 -2.18 8.57 20.08 20.08 0 0 1 7.82-1.87 19.76 19.76 0 0 1 8.04 1.49z" fill="#adadad"/><path d="m139.46 27.49a19.76 19.76 0 0 0 -8-1.48 20.08 20.08 0 0 0 -7.82 1.88 29.39 29.39 0 0 1 -6.25 10.44l5.12 4.27c1.14-3.52 1.93-7.41 9.11-8 5.52.39 7.62 3.41 9.11 8l5.11-4.27a24.79 24.79 0 0 1 -6.38-10.84z" fill="#b9b9ba"/><path d="m91.13 78.23a1.09 1.09 0 0 0 0 .18v.34a5.87 5.87 0 0 1 -.81 2.36 24.5 24.5 0 0 1 -4.19-.59c-7.88-2.54-6.69-7.14-6.22-8.36l9.09 1.52a6.71 6.71 0 0 1 2.13 4.55z" fill="#f2c4a5"/><path d="m91.13 78.23a1.09 1.09 0 0 0 0 .18 5.44 5.44 0 0 1 0 .57 5.56 5.56 0 0 1 -1 2.44l-.19.27a6.88 6.88 0 0 1 -4.74 2.58h-16.71l-6.29 25.64 1.8 9.77 6.09-1.23-17.26 7.33-12.61-15.06 7.78-41.51h14.2l15.8 2.64 1.83.31 9.17 1.52a6.71 6.71 0 0 1 2.13 4.55z" fill="#f2c4a5"/><path d="m22.31 122.52 4.63-10.08 37.58 20.95-6.23 11.61z" fill="#fff"/><path d="m47.53 132.52-18.9 36.83-28.63-15.2 21.32-36.27z" fill="#1ab1bf"/><path d="m63.26 141.31-18.04 36.83-16.59-8.79 18.9-36.83z" fill="#3bb9c4"/><path d="m238.74 112.28c-.09.32-.92.83-1.15 1l-2.23 2c-2.25 2-1.17 2.61-3.42 4.63-4.68 4.19-10 7.63-14.55 11.93-4.15 3.91-8.62 2.45-14 1.16-8.75-2.1-19.68-1.89-27.09-7.42-2.93-2.18-6.45-4.44-8.93-7.1-2.08-2.23-3.61-4.71-6.08-6.66s-8.08-4.34-3.84-7.06a11.2 11.2 0 0 1 4.28-1.74c2.41-.15 5.46 1.22 7.39 2.63 1.56 1.15 2.44 2.87 4 4a26 26 0 0 0 6.89 3.08 105.63 105.63 0 0 0 -11.32-13.48l-10.11-11.25-14.44-16-.09-.1c-.91-1-2-2-2.79-3.11a2.34 2.34 0 0 1 -.4-1.47 3 3 0 0 1 0-.43v-.06a8.73 8.73 0 0 1 .17-.94 6.65 6.65 0 0 1 5.65-5.18 7.34 7.34 0 0 1 .92-.09 4 4 0 0 1 1.11.13 2.52 2.52 0 0 1 1.1.66c.54.56 1 1.14 1.55 1.72 3.29 3.66 6.55 7.36 9.83 11 2.24 2.51 4.38 5.16 6.75 7.55 2.13 2.14 5.5 5.6 7.07 5.87-.56-.54-.91-1.76-1.53-2.44l-2-2.15c-1.15-1.27-3-2.8-3.61-4.45-1.08-2.91 2.09-6.53 4.9-6.93s5.36 2.32 7.33 4.06c.58.51 3.17 2.1 2.76.91-.78-2.29-3.32-5.73-3.41-7.33-.16-3 2.57-5.32 5.39-5.61 4.1-.42 7.46 4.37 9.81 7.06.16-.88-1.57-2.87-1.55-3.84a5.68 5.68 0 0 1 2.11-3.92c4.65-3.67 8.5 2.3 11.56 5.11a108 108 0 0 1 14.85 16.74 68.52 68.52 0 0 1 6 9.21c1.41 2.83 1.26 6.26 3 9 1.39 2.25 3.72 4.24 5.48 6.21l2 2.23c.31.28.73.59.64.87z" fill="#f2c4a5"/><path d="m151.58 69.8c-1.63 2-4.93 1.6-7.33-.79l-2-2a4.88 4.88 0 0 1 -.48-.53 9.2 9.2 0 0 1 .17-.94 6.63 6.63 0 0 1 5.65-5.17 7.34 7.34 0 0 1 .92-.09h.05l1.6 1.6c2.4 2.4 3.03 5.96 1.42 7.92z" fill="#ebd4c2"/><path d="m235.24 106.56-30.46 27.57 8.37 7.29 29.14-28.19z" fill="#fff"/><path d="m272.06 132.75-24.4 26.31-28.4-25.87 24.17-24.02z" fill="#3bb9c4"/><path d="m247.66 159.06-9.55 10.29-29.16-25.91 10.31-10.25z" fill="#1ab1bf"/></svg>