<svg viewBox="0 0 131.56 244.74" xmlns="http://www.w3.org/2000/svg"><path d="m19.72 77.75c-.56-2.17 3-8 2.93-10.1 0-1.83-1.07-2.5-2.57-.5a26.12 26.12 0 0 0 -1.84 3.52c-1 1.86-1.94 3.73-2.92 5.59s-.3 4 1.07 6.06a9.32 9.32 0 0 0 3.33-4.57z" fill="#f2c4a5"/><path d="m13.26 59.18h1.98v26.58h-1.98z" fill="#e7e7e8" transform="matrix(.09480332 -.99549602 .99549602 .09480332 -59.24 79.78)"/><path d="m12.09 62.05h3.78v26.58h-3.78z" fill="#d6d7d8" transform="matrix(.09549829 -.99542959 .99542959 .09549829 -62.35 82.06)"/><path d="m33.8 67.08h1.98v14.68h-1.98z" fill="#ef7a2c" transform="matrix(.09497707 -.99547946 .99547946 .09497707 -42.6 101.99)"/><path d="m32.63 69.95h3.78v14.68h-3.78z" fill="#df7227" transform="matrix(.1 -1 1 .1 -45.72 104.28)"/><path d="m28.65 75.98h3.78v1.86h-3.78z" fill="#eec755" transform="matrix(.09462958 -.99551255 .99551255 .09462958 -48.92 100.03)"/><path d="m29.82 73.12h1.98v1.86h-1.98z" fill="#ffd45e" transform="matrix(.09462958 -.99551255 .99551255 .09462958 -45.82 97.72)"/><path d="m1.73 74.72a1.08 1.08 0 0 0 -.26.56c-.1.45-.49.83-.87.73s-.6-.7-.44-1.15-.43-1.73 0-2.41a1.15 1.15 0 0 0 .19-.82c-.27-1.32.87-1.93 1.14-1.07a.74.74 0 0 0 .4.46c.29.13.52.6.14 1.45s.51 1.43-.3 2.25z" fill="#a3a2a2"/><path d="m29 164c2.17 1.33 4.16 2.57 6 3.59 7.09 3.91 12.18 4.63 18.2-4.73l.3-.47c1.31-2.1 10-17.46 15.47-24.06 1.73-2.06 3.13-3.27 3.91-2.95 2.42 1 14.79-30.55 15-31.13-.23.51-3-.16-5.59-.89-2-.58-3.92-1.19-4.32-1.29l-.61-.15c-4.26-1-9.27-1.49-13.41.14-7.55 3-10.39 13.81-13.27 20.55-6.32 14.79-10.78 29.15-21.68 41.39z" fill="#e7b088"/><path d="m30.86 166.38c-.16-.56-.32-1.11-.47-1.67.15.56.3 1.11.47 1.67z" fill="#e9afa7"/><path d="m37.18 99.27c-.39-3.75.5-7.84-.11-11.4s-4.07-5.81-6.64-8.22c-.91-.86-2.19-1.37-3.06-2.06-1.48-2.12 2.91-4 2.86-5.56 0-1.09-1.08-1.48-1-2.63.13-1.67.37-2.81-2.77-2-2.62.76-5.46 9.39-6.46 10.83a1.26 1.26 0 0 1 -.23-.48 9.32 9.32 0 0 1 -3.33 4.57c2.18 3.19 6 6.2 7.17 8.26 2.13 3.68 1.35 10 1.46 14.11.46 17.66-5.92 24.18-.42 51.45.62 3.06 1.44 7.08 3 9.8a5.8 5.8 0 0 0 3.21 2.8c2.67.83 6.84-2.63 8.09-4.87 1.83-3.29 2.06-7.11 2.76-10.68 4.39-22.72-3-39.04-4.53-53.92z" fill="#f2c4a5"/><path d="m47.78 222.67c3.58 4.43 8.71 7.13 8.87 13.19.07 2.9-.08 5.88-.27 8.88h53.5c.89-3.66 1.63-6.92 1.63-6.92s10-19.32 10.31-26.09a48.29 48.29 0 0 0 -16.55-38.81c-6.76-5.81-9-14.25-8.84-22.92 3.77-4.95 6.24-10.86 8.15-16.82 2.51-7.82 6.65-18.7 3.93-26.74a57.07 57.07 0 0 0 -11.22-19.81c-5.55-6-4.19-15.79-3-23.14-3.06 4.81-7.29 9.87-13.06 11.31-5.35 1-10.55 1.51-15.86 2.74a12 12 0 0 1 5.71 7.46 13 13 0 0 1 -3.08 11.63c-3 3.1-6.77 5.31-9.59 8.51a110.76 110.76 0 0 1 -10.25 10c-1.9 1.64-8 5.16-7.7 8.22a23.11 23.11 0 0 0 5 12.63c1.77 2.2 8.27 5.42 8.68 8 .28 1.83-5.89 5.68-7.25 7.1a77.93 77.93 0 0 0 -9.2 10.76 39.43 39.43 0 0 0 -5.35 33.68c2.95 10.1 8.87 18.99 15.44 27.14z" fill="#e7b088"/><path d="m56.35 244.74h68.93c0-35.62.8-48.49-17.77-73.56-10.37-14-8.64-20.17-2.93-38 2.51-7.82 6.65-18.7 3.93-26.74a58.94 58.94 0 0 0 -9.91-18.29c-13 1.89-25.82 17.12-39.71 16.48-13.64 14.37-18.89 15.04-18.46 18.68a23.11 23.11 0 0 0 5 12.63c1.77 2.2 8.27 5.42 8.68 8 .28 1.83-5.89 5.68-7.25 7.1-5.24 5.43-21.47 20.56-14.55 44.43 7.19 24.7 25.84 31 24.04 49.27z" fill="#2f6c7d"/><path d="m82.24 133c7 7.3 12.93 15.48 19.28 23.37 1.93 2.4 10.07 9.56 9.71 12.67-4 9.81-11 18.58-17.5 26.78-3.36 4.25-15.53 25.51-23.45 21-2.75-1.58-4.13-4.19-7.45-5.15-6.52-1.88 1.37 1.68-11.77-4.56-4 5.24 8.12 6.69 7.1 11.69-.83 4-9.62-.21-10.74-2.38-2.91-5.67-10-8.93-10-6.36 0 1.66 2.55 3.68 6.18 9.8 8.94 8.77 9 8.76 21.83 9.28 7.66.31 12.37-.17 38.89-22 5.51-5.93 10.93-12 16.2-18.12 10.72-12.54 14.62-14.05 7.1-31.42-18.33-42.43-25.92-52.82-37.77-56-15.97-4.3-22.71 15.74-7.61 31.4z" fill="#f2c4a5"/><path d="m105.71 58.82a24.25 24.25 0 0 0 -.71-25.82 26.37 26.37 0 0 0 -4.15-4.91c-7.87-7.31-20.2-10.52-31.1-6.75-2.81 1-5.79 3.64-8.14 5.41-3.53 2.66-3.63 5.42-4.65 9.37-.95 3.71-2.57 7.21-3.79 10.83-1.69 5-1 11 .38 16.05 1.1 3.93 1.39 10.68 4.69 13.6 3.56 3.16 11.5 2.87 16 3 5.26.2 9.88-2.26 14.49-4.75a44.5 44.5 0 0 0 16.98-16.03z" fill="#f2c4a5"/><path d="m67.36 67.78s-6.87-6.53-11.69-2.92c1.38 6.01 11.69 2.92 11.69 2.92z" fill="#e7b088"/><path d="m122.26 97.13c-1.31-3.87-2.82-7.8-4.39-11.93-4-10.52-5.53-21.74-6.22-32.91-.68-11 0-17.85-7.57-26.43-.26-.29-.52-.58-.8-.86a29.2 29.2 0 0 0 -28-8.68c-4 .95-8.08 2.11-11.49 4.55-3.07 2.19-3.88 6.65-5.29 10l7.42-5.17c-.14.1 5.59 4.57 6 4.89a36 36 0 0 1 7.08 8.72c6 10.39 3.74 21.71 3.67 33a86 86 0 0 0 1.94 17.88c2.1 9.83 7 18.87 10 28.42a46 46 0 0 1 -.4 28.78c.38-1.09 1.75-2.3 2.37-3.33a27.56 27.56 0 0 0 2.11-4.25 28.91 28.91 0 0 0 2-9.21c.33-6.37-1.67-12.63-4.77-18.19a76.68 76.68 0 0 1 -6.92-17.41c-2.48-9.16-4.81-21.23-1.26-30.64-1.48 13.64-.03 33.64 13.63 55.71 4.31 8.46 22.29 39.92 5.24 46.43a35.53 35.53 0 0 0 19.8-19.12c7.24-17.11 1.39-33.94-4.15-50.25z" fill="#734551"/><path d="m44.76 45.13c-3.17-1.06-11.15-4.26-6.5-8.68 1.25-1.18 3.28-1.77 3.31-3.79 0-1.7-1.18-2-2.43-2.75-10.06-5.77-1.46-9-1-11.37 1-5.47-10.87-2.95-10-9.83s18.57-13.15 27.38-4.42c4.06 4-.46 9.19-3.57 12.33-11.9 12 8.14 6.5 5.4 15.16-1.22 3.86-9.06 2.66-7.74 7.35 1 3.39 5.65 4.38 6.93 7.49 1.58 3.82-1 7.63-1 11.57 0 3.46.71 7.47 4.63 8.38-4.88-1.13-8.77-3.49-9.71-8.65-.82-4.66-.11-10.92-5.7-12.79z" fill="#caccce"/></svg>