<svg viewBox="0 0 211.9 173.93" xmlns="http://www.w3.org/2000/svg"><path d="m128.92 0c11.75 6.94 16.2 23.85 10.09 36.06-5.2 10.37-12.93 13.87-19.56 23.1-6.42 9-7.5 33-7.5 33s-11-23-6.91-36.34c8.32-27.15 36.14-30.03 23.88-55.82z" fill="#bcbdbf"/><path d="m84.33 66.67c-2.31 4.89-6.21 9.66-7.89 14.69-4 11.85-.53 21.65 8.21 30.39a22.89 22.89 0 0 1 -1.43-17.83c2-6.24 5.42-11.94 7.26-18.22 2.88-9.84 4-19.65-2.67-27.15 2.66 6.61-.43 11.67-3.48 18.12z" fill="#bcbdbf"/><path d="m96.27 157.16c-51.47 0-93.51-7.46-96.16-16.85h-.11v16.77h.11c2.65 9.39 44.69 16.85 96.16 16.85s93.56-7.46 96.17-16.85h.14v-16.77h-.14c-2.61 9.39-44.66 16.85-96.17 16.85z" fill="#1ab1bf"/><path d="m192.57 125.7c0 7.55-43.11 13.67-96.29 13.67s-96.21-6.1-96.28-13.64v14.58h.11c2.65 9.39 44.69 16.85 96.16 16.85s93.56-7.46 96.17-16.85h.14v-14.61z" fill="#38b9c3"/><path d="m96.28 139.38c53.18 0 96.29-6.12 96.29-13.67 0-7.54-43.14-13.65-96.29-13.65s-96.28 6.1-96.28 13.65c.07 7.56 43.15 13.67 96.28 13.67zm0-22h4.63c4 0 7.94 0 11.77.15 7.79.11 15.14.37 21.85.7 22.66 1.16 37.86 3.32 37.86 5.78 0 3-21.58 5.44-51.58 6.3-7.27.22-15 .37-23.07.37h-1.47c-3.54 0-7 0-10.39-.07-37.09-.45-65.68-3.21-65.68-6.6 0-3.68 34.07-6.66 76.07-6.66z" fill="#5bc0ca"/><path d="m85.88 130.62c3.39 0 6.85.07 10.39.07h1.46c8 0 15.8-.15 23.07-.37 30-.86 51.58-3.35 51.58-6.3 0-2.46-15.2-4.62-37.86-5.78-6.71-.33-14.06-.59-21.85-.7-3.83-.12-7.75-.15-11.77-.15-1.53 0-3.06 0-4.63 0-42 0-76.07 3-76.07 6.67 0 3.35 28.59 6.11 65.68 6.56z" fill="#06979e"/><path d="m158.29 77.28-45.62 40.26-14.94 13.15h-1.46c-3.54 0-7 0-10.39-.07l15-13.23 52.18-46z" fill="#e7e7e8"/><path d="m168.21 88.54-33.69 29.7-13.72 12.08c-7.27.22-15 .37-23.07.37l14.94-13.15 45.62-40.26z" fill="#d6d7d8"/><path d="m148.4 51.15h58.26v7.87h-58.26z" fill="#ef7a2c" transform="matrix(.75022648 -.66118094 .66118094 .75022648 7.93 131.15)"/><path d="m155.96 56.16h58.26v14.99h-58.26z" fill="#df7227" transform="matrix(.75022648 -.66118094 .66118094 .75022648 4.15 138.3)"/><path d="m169.51 66.65h7.38v14.99h-7.38z" fill="#eec755" transform="matrix(.75022648 -.66118094 .66118094 .75022648 -5.76 133.04)"/><path d="m161.95 61.63h7.37v7.87h-7.37z" fill="#ffd45e" transform="matrix(.75011107 -.66131187 .66131187 .75011107 -1.98 125.91)"/><path d="m70.69 130.69s-7.38 2.95-12.27 8.35a9.59 9.59 0 0 1 -1.6 4.07 11.86 11.86 0 0 1 -.73 1.12 12.86 12.86 0 0 1 -10.47 5.63c-8.85-1-11.8-13.77-11.8-13.77l12.65-5.28 2.6-1.09h.12z" fill="#5bc0ca"/><path d="m70.74 130.78c-2.95 2-11.23 7.66-11.23 7.66s-1.59 2.9-2.69 4.67c-7.51-.62-10-12.71-9.74-16.3 20.59-.12 24.52-1 24.76 2.38.04.6-.42 1.13-1.1 1.59z" fill="#06979e"/></svg>