<svg viewBox="0 0 174.38 162.6" xmlns="http://www.w3.org/2000/svg"><path d="m75.77 47.07 53.57-1.97.29 9.1-53.57 1.97z" fill="#e7e7e8"/><path d="m129.63 54.2.55 17.33-53.58 1.97-.54-17.33z" fill="#d6d7d8"/><path d="m19.8 47.96h56.12v9.11h-56.12z" fill="#ef7a2c" transform="matrix(.99950106 -.03158521 .03158521 .99950106 -1.63 1.54)"/><path d="m20.22 57.06h56.12v17.34h-56.12z" fill="#df7227" transform="matrix(1 -.03 .03 1 -2.05 1.56)"/><path d="m60 56.57h7.1v17.34h-7.1z" fill="#eec755" transform="matrix(1 -.03 .03 1 -2.03 2.04)"/><path d="m59.58 47.47h7.1v9.11h-7.1z" fill="#ffd45e" transform="matrix(.99950656 -.03141076 .03141076 .99950656 -1.61 2.01)"/><path d="m125.43 66.08a5.83 5.83 0 0 1 .88 2.67c.25 2.07 1.68 3.94 3.12 3.57s2.35-3 2-5.09c-.52-2.73 2-7.78.52-11a6.14 6.14 0 0 1 -.54-3.83c1.31-6-2.92-9.12-4.15-5.26a3.15 3.15 0 0 1 -1.59 2c-1.15.47-2.12 2.55-.88 6.59 1.01 3.39-2.27 6.35.64 10.35z" fill="#595a5b"/><path d="m68.58 83.62-64.33-2.44-.31 9.1 64.33 2.44z" fill="#e7e7e8"/><path d="m3.94 90.28-.58 17.33 64.33 2.44.58-17.33z" fill="#d6d7d8"/><path d="m97.55 55.6h9.11v67.39h-9.11z" fill="#ef7a2c" transform="matrix(.03350405 -.99943858 .99943858 .03350405 9.42 188.35)"/><path d="m92.99 68.82h17.34v67.39h-17.34z" fill="#df7227" transform="matrix(.03350405 -.99943858 .99943858 .03350405 -4.21 200.68)"/><path d="m74.66 97.63h17.34v8.53h-17.34z" fill="#eec755" transform="matrix(.03367848 -.99943272 .99943272 .03367848 -21.32 181.75)"/><path d="m79.22 84.42h9.11v8.53h-9.11z" fill="#ffd45e" transform="matrix(.03350405 -.99943858 .99943858 .03350405 -7.67 169.43)"/><path d="m8.39 101.55a5 5 0 0 0 -1.05 2.66c-.29 2.07-2 3.93-3.73 3.55s-2.84-3-2.37-5.11c.61-2.73-2.46-7.8-.67-11.05a5.24 5.24 0 0 0 .63-3.83c-1.6-6 3.46-9.09 5-5.22a3.4 3.4 0 0 0 1.92 2c1.39.49 2.56 2.57 1.09 6.6-1.3 3.44 2.65 6.42-.82 10.4z" fill="#595a5b"/><path d="m90.91 116.3-29.81 9.61-32.96 4.68 2.06 8.87 33.49-.45 29.28-13.84z" fill="#e7e7e8"/><path d="m30.2 139.46 3.93 16.89 29.91-4.98 32.86-9.32-3.93-16.88-31.52 9.25z" fill="#d6d7d8"/><path d="m91.07 108.55h67.39v9.11h-67.39z" fill="#ef7a2c" transform="matrix(.97405502 -.22631131 .22631131 .97405502 -22.36 31.17)"/><path d="m94.06 117.32h67.39v17.34h-67.39z" fill="#df7227" transform="matrix(.97405502 -.22631131 .22631131 .97405502 -25.19 32.18)"/><path d="m105.63 121.47h8.53v17.34h-8.53z" fill="#eec755" transform="matrix(.97405502 -.22631131 .22631131 .97405502 -26.6 28.24)"/><path d="m102.63 112.7h8.53v9.11h-8.53z" fill="#ffd45e" transform="matrix(.97 -.23 .23 .97 -23.76 27.23)"/><path d="m36.7 148.81a5.09 5.09 0 0 0 -.33 2.84c.26 2.07-.91 4.31-2.68 4.39s-3.52-2.17-3.61-4.32c-.12-2.79-4.4-6.89-3.51-10.49a5.27 5.27 0 0 0 -.38-3.86c-3.1-5.37 1-9.68 3.43-6.34a3.35 3.35 0 0 0 2.38 1.46c1.47.11 3.15 1.82 2.77 6.1-.33 3.62 4.23 5.48 1.93 10.22z" fill="#595a5b"/><path d="m167.93 74.91v.48l-.57 21.34a50.22 50.22 0 0 1 -3.37 16.6c-2.5 6.42-2 8.8 1.84 19.34 3.28 9.05-1 14.64-7 26.64l-15.83-1.31-14.35-1.14c15.08-25 12.64-18.86 7.65-33.82-2.6-7.75 2.8-10.6 3.24-30.16.16-7.12.41-14.23.41-21.34z" fill="#e7e7e8"/><path d="m164 113.33c-2.5 6.42-2 8.8 1.84 19.34 3.28 9.05-1 14.64-7 26.64l-15.84-1.31c14.42-23.88 12-18.07 7.05-32.86-2.57-7.75 2.83-10.58 3.24-30.14.16-7.11.45-14.22.45-21.33l14.22 1.68-.57 21.34a50.22 50.22 0 0 1 -3.39 16.64z" fill="#d6d7d8"/><path d="m155.75.87-9.78-.87-6.45 72.38 9.77.87 4.02.36 7.06-72.33z" fill="#ef7a2c"/><path d="m174.38 2.53-14.01-1.25-7.06 72.33 14.61 1.3z" fill="#df7227"/><path d="m151.17 52.18-9.77-.87-.82 9.16 9.78.87 4.11.37.89-9.16z" fill="#ffd45e"/><path d="m169.8 53.84-14.44-1.29-.89 9.16 14.51 1.29z" fill="#eec755"/><path d="m151.55 155.31a10.39 10.39 0 0 1 4.19-.11c2.93.77 4.66 3.27 1.57 5-2.76 1.58-6.06 1.46-9.12 1.87-2.9.39-6.49 1.26-9-.88a5.69 5.69 0 0 0 -3.9-1.5c-3.12.18-9.14-2.84-4.24-5.57 2.13-1.18 5.4-1.6 7.82-1.86 4-.42 5.1 1.84 8.49 3a8.63 8.63 0 0 0 4.19.05z" fill="#595a5b"/></svg>