<svg viewBox="0 0 119.41 247.36" xmlns="http://www.w3.org/2000/svg"><path d="m59.61 40c-2.61-3.09-13.33-4.64-14.69 1.57-.4 1.85-1.83 40.21-2.46 57.94 6-4.06 12.07-8.66 18.36-12.81.24-16.34.45-39.9-1.21-46.7z" fill="#e7b088"/><path d="m46.19 40a10.11 10.11 0 0 1 13 .27l.07 3c.29 11.08-14.75 13.49-13.07-3.27z" fill="#f2c4a5"/><path d="m40.96 54.14h70.16v5.24h-70.16z" fill="#e7e7e8" transform="matrix(.92427977 -.38171574 .38171574 .92427977 -15.91 33.33)"/><path d="m43.86 58.8h70.16v9.97h-70.16z" fill="#d6d7d8" transform="matrix(.92427977 -.38171574 .38171574 .92427977 -18.37 34.97)"/><path d="m6.32 74.93h38.76v5.24h-38.76z" fill="#ef7a2c" transform="matrix(.92427977 -.38171574 .38171574 .92427977 -27.66 15.69)"/><path d="m9.23 79.6h38.76v9.97h-38.76z" fill="#df7227" transform="matrix(.92427977 -.38171574 .38171574 .92427977 -30.13 17.33)"/><path d="m35.91 75.57h4.91v9.97h-4.91z" fill="#eec755" transform="matrix(.92427977 -.38171574 .38171574 .92427977 -27.84 20.74)"/><path d="m33 70.91h4.91v5.24h-4.91z" fill="#ffd45e" transform="matrix(.92421313 -.38187705 .38187705 .92421313 -25.39 19.11)"/><path d="m109.4 52.78a3 3 0 0 1 1.1 1.22c.57 1.06 1.87 1.72 2.73 1.17s.92-2.2.24-3.24c-.87-1.34-.24-4.69-1.86-6.08a3 3 0 0 1 -1.11-1.94c-.35-3.54-3.7-4.2-3.73-1.81a1.91 1.91 0 0 1 -.62 1.47c-.65.54-.86 1.9.74 3.78 1.36 1.59-.16 3.99 2.51 5.43z" fill="#a3a2a2"/><path d="m109.51 0c-5.59 2.91-8.05 10.59-5.53 16.36 2.13 4.91 5.61 6.71 8.43 11.13s2.65 15.37 2.65 15.37 5.63-10.34 4.08-16.56c-3.14-12.71-15.91-14.72-9.63-26.3z" fill="#bcbdbf"/><path d="m94.6 105.4c-2.12-3.79-9.06-3.41-11.95-.71-1 1-1.72 8.73-2.79 9.46.24-4.94.78-26.55-4.08-30.05-3.33-2.41-8.35-2.68-11.28.49-1.81 2-4.42 52.28-3.68 2.11-6.29 4.15-12.34 8.75-18.36 12.81-.18 5.12-.3 8.52-.31 8.82 0 1.27-.91 2.83-.86 3.9-3.88-4.86 1.11-49.06-.7-52s-8.14-5.67-13.59-2.23c-3.62 2.15-2.76 3.14-3 8.89-2.15 55.94-1.1 62.13-3.34 75.31-7-12.42-3.35-11.77-4.44-17.47-1.6-8.39-5.83-11-11.66-12-7.37-1.33-3.74 6.64-3.13 10.72.65 4.31-.26 8.26-.32 12.48-.31 25.54 14.3 35.17 23.86 49 4.43 6.31 7.75 12.07 16.25 12.07 9.34.06 18.6 1.7 28 2 4.51.13 3.93-1.48 8.46-1.36l4.47.13a14.36 14.36 0 0 0 2.36.05c.17 0 5.89-27.71 6.75-30.33 2.54-7.75 3.53-15.52 4.14-23.73.68-9.76 4.31-29.24-.8-38.36z" fill="#e7b088"/><path d="m26.78 59.48a10.35 10.35 0 0 1 13 .37l.1 2.88c.37 10.73-14.61 12.93-13.1-3.25z" fill="#f2c4a5"/><path d="m90.17 194.5-48.71-.65-17.64-.23.55 46.55 17.09-.22 49.96-.63z" fill="#fff"/><path d="m38.02 206.9-21.39-.21.67 40.67 20.72-.19h.17v-40.27z" fill="#14404c"/><path d="m97.1 207.47-58.91-.57v40.27l60.43-.55z" fill="#235566"/></svg>