<svg viewBox="0 0 170.55 232.83" xmlns="http://www.w3.org/2000/svg"><path d="m79.46 181.51a37.85 37.85 0 0 1 -.82 6.3c-.44 1.78-1.8 3.24-2.07 5.06a29.61 29.61 0 0 0 .07 4.8v1.72s.09.53-.07.64a3.28 3.28 0 0 1 -.89 0h-1.73c-1.75 0-1.5.7-3.25.75-3.63.09-7.25-.4-10.87-.21-3.3.16-4.72-2.16-6.59-4.74-3.05-4.21-8-8.23-9.13-13.44a39.33 39.33 0 0 1 -1.22-6.39c-.07-1.37.08-2.66 0-4a8.51 8.51 0 0 0 -.15-1.21c-.23-1.16-1.06-3.09-.6-4 .2-.42.67-.65 1.56-.52a6.16 6.16 0 0 1 2.54.84 7.43 7.43 0 0 1 2.24 3.89c.26 1.08 0 2.18.26 3.25a15 15 0 0 0 1.87 3.94 60.6 60.6 0 0 0 .08-10.19c-.07-2.93-.14-5.85-.23-8.77-.1-4.17.26-12.54.26-12.58a3.68 3.68 0 0 1 .09-1.44c.34-1.06.48-2.2 1.56-2.72a3.85 3.85 0 0 1 3 .05c1.29.56 1.3 1.8 1.33 3 .07 2.86.12 5.71.18 8.55 0 1.94 0 3.93.13 5.85.14 1.74.33 4.53.91 5.24.23-.15.26-1.11.25-1.64s0-1.13-.06-1.7c0-1-.39-22.71 0-23.67.62-1.69 3.37-2.09 4.76-1.21s1.6 23.4 1.82 24.91c.06.44.6 2.11.87 1.44.51-1.31-.13-22.55.44-23.28a3.33 3.33 0 0 1 4.48-.45c2 1.35 1.65 25.48 2.47 25.56.5.14.47-15.85.85-16.28.54-.61 1.77-.6 2.58-.64 3.5-.2 2.61 17.93 2.9 20.3a62.3 62.3 0 0 1 .18 12.99z" fill="#fac08f"/><path d="m78.46 196.15-24.99.73.06 5.59 24.98-.72z" fill="#d1e9f5"/><path d="m44 171.09c-.06.52-.51.79-1.15.88a8.51 8.51 0 0 0 -.15-1.21c-.23-1.16-1.06-3.09-.6-4 .51.56 2.1 2.59 1.9 4.33z" fill="#f2c4a5"/><path d="m58.82 229.63-.34-28.43-9.6.11.34 28.32z" fill="#17405e"/><path d="m82.72 229.63-.34-28.72-23.9.29.34 28.43z" fill="#1e4e6c"/><path d="m121.74 117.47a38.93 38.93 0 0 1 -.82 6.3c-.44 1.78-1.8 3.24-2.08 5.07a28.42 28.42 0 0 0 .08 4.79v1.73s.09.52-.07.63-.71 0-.89 0h-1.73c-1.76 0-1.5.7-3.25.75-3.63.09-7.25-.4-10.87-.21-3.3.16-4.72-2.16-6.59-4.74-3-4.21-8-8.23-9.13-13.43a39.65 39.65 0 0 1 -1.26-6.48c-.07-1.37.08-2.66 0-4a10.25 10.25 0 0 0 -.15-1.21c-.23-1.16-1.06-3.09-.6-4 .2-.42.67-.65 1.56-.52a6.07 6.07 0 0 1 2.53.84 7.38 7.38 0 0 1 2.29 4.01c.26 1.09 0 2.18.26 3.26a14.93 14.93 0 0 0 1.87 3.93 60.6 60.6 0 0 0 .11-10.19q-.1-4.39-.23-8.77c-.13-4.23.23-12.57.23-12.61a3.89 3.89 0 0 1 .1-1.44c.34-1.06.48-2.2 1.56-2.71a3.81 3.81 0 0 1 3 0c1.29.56 1.29 1.8 1.33 3 .07 2.86.12 5.71.18 8.56 0 1.94 0 3.92.13 5.85.14 1.73.32 4.52.91 5.23.23-.15.26-1.11.24-1.64s0-1.13 0-1.69c0-1-.39-22.72 0-23.68.62-1.69 3.37-2.09 4.76-1.2s1.6 23.39 1.82 24.9c.06.44.59 2.11.86 1.44.52-1.31-.12-22.55.44-23.28a3.33 3.33 0 0 1 4.48-.45c2 1.36 1.66 25.48 2.48 25.56.5.14.47-15.85.84-16.28.55-.61 1.78-.6 2.59-.64 3.5-.2 2.61 17.93 2.9 20.31a62.19 62.19 0 0 1 .12 13.01z" fill="#fac08f"/><path d="m120.73 132.11-24.98.73.06 5.6 24.98-.73z" fill="#d1e9f5"/><path d="m86.29 107.05c-.05.53-.5.79-1.14.88a10.25 10.25 0 0 0 -.15-1.21c-.23-1.16-1.06-3.09-.6-4 .49.56 2.07 2.59 1.89 4.33z" fill="#f2c4a5"/><path d="m101.86 229.63-1.1-92.47-9.6.11 1.1 92.36z" fill="#a2a3a4"/><path d="m125.76 229.63-1.1-92.75-23.9.28 1.1 92.47z" fill="#b3b6b7"/><path d="m167.08 164.07a37.86 37.86 0 0 1 -.83 6.3c-.43 1.77-1.79 3.23-2.07 5.06a28.41 28.41 0 0 0 .08 4.79v1.73s.09.53-.07.64a3.29 3.29 0 0 1 -.89 0h-1.73c-1.76 0-1.5.7-3.25.75-3.63.09-7.25-.4-10.88-.21-3.29.16-4.72-2.16-6.58-4.74-3.06-4.21-8-8.23-9.13-13.44a39.36 39.36 0 0 1 -1.27-6.47c-.06-1.37.09-2.66 0-4a10.25 10.25 0 0 0 -.15-1.21c-.24-1.17-1.06-3.09-.61-4 .21-.42.68-.65 1.57-.53a6.47 6.47 0 0 1 2.53.84 7.51 7.51 0 0 1 2.27 3.94c.26 1.08 0 2.18.25 3.25a15.34 15.34 0 0 0 1.88 3.94 61.68 61.68 0 0 0 .08-10.17c-.08-2.93-.15-5.86-.23-8.77-.11-4.17.25-12.54.25-12.58a3.49 3.49 0 0 1 .1-1.44c.34-1.06.48-2.2 1.55-2.72a3.88 3.88 0 0 1 3 0c1.29.56 1.29 1.8 1.32 3 .08 2.86.13 5.71.18 8.55.06 1.94 0 3.92.14 5.85.14 1.74.32 4.53.9 5.24.23-.15.27-1.11.25-1.64l-.06-1.7c0-1-.38-22.71 0-23.67.62-1.69 3.37-2.09 4.76-1.21s1.6 23.4 1.81 24.91c.07.44.6 2.11.87 1.44.52-1.31-.12-22.55.44-23.28a3.33 3.33 0 0 1 4.48-.45c2 1.35 1.66 25.48 2.48 25.56.5.14.46-15.85.84-16.28.55-.61 1.78-.6 2.59-.64 3.5-.2 2.6 17.93 2.9 20.3a62.3 62.3 0 0 1 .23 13.06z" fill="#fac08f"/><path d="m166.07 178.71-24.98.73.06 5.59 24.98-.72z" fill="#d1e9f5"/><path d="m131.63 153.65c0 .52-.51.79-1.14.88a10.25 10.25 0 0 0 -.15-1.21c-.24-1.17-1.06-3.09-.61-4 .5.56 2.08 2.59 1.9 4.33z" fill="#f2c4a5"/><path d="m146.64 229.63-.55-45.87-9.59.11.54 45.76z" fill="#1db1bf"/><path d="m170.54 229.63-.54-46.16-23.91.29.55 45.87z" fill="#3cbac5"/><path d="m7.72 119.86a24.55 24.55 0 0 0 0-4.2c-.37-3.66-.79-6.89-2.72-10.14-1.5-2.54-3.3-5-4-7.87a11.72 11.72 0 0 1 -.19-3.65c0-.74-.17-1.7 0-2.41.3-1.6 2.65-1.66 3.94-1.46a10.85 10.85 0 0 1 3.82 1.7 46.85 46.85 0 0 1 6.51 5.17 10 10 0 0 1 2.26 2.87 17.74 17.74 0 0 0 2 2.46 13.57 13.57 0 0 1 2.57 6.39c.07.55 0 1.13.06 1.66a8.59 8.59 0 0 0 .82 1.9c.59 1.32 1.17 2.64 1.78 4a52.93 52.93 0 0 0 3 5.73c.54.83 3.82 3.86 3.82 4.57 0 1 .07 2.5.11 4.4l-24.76 2.08c.33-4.41.67-8.81.98-13.2z" fill="#f2c4a5"/><path d="m26.74 131.3 4.77-.42c0-1.89-.07-3.45-.1-4.4a24.18 24.18 0 0 1 -5.41-7.33 88.11 88.11 0 0 1 .7 10.26c.03.44.04 1.08.04 1.89z" fill="#edb792"/><path d="m42.53 70.37c.36-1.45.86-3.73.44-5.17-.33-1.14-2-1.86-3.13-2h-.28a3.54 3.54 0 0 0 -3 1.67l-6.62 10.45-21.33-4.6-6.34 18.5 1.86 7.37a28.69 28.69 0 0 1 3.7.3 2.82 2.82 0 0 0 -.23.44c-.8 1.75-2.41 2.71-.63 4 2.41 1.81 5.43 2.18 7.85 2.84 1.41.38 2.56 1.47 3.86 2.16a6.7 6.7 0 0 1 2.49 2 19.53 19.53 0 0 1 1.4 3.13c.95 2.21 1.88 4.44 2.95 6.6a25.55 25.55 0 0 0 5.89 8.33c-.16-7.07.17-14.17 2.66-20.49q2.32-5.88 4.64-11.77c1.21-3.09.57-8.21.79-11.49.29-3.99 2.04-8.29 3.03-12.27z" fill="#edb792"/><path d="m8.81 33.39h86.67v59.38h-86.67z" fill="#235566" transform="matrix(.01378766 -.99990495 .99990495 .01378766 -11.65 114.34)"/><path d="m23.08 19.32-.65 47 7.75.98.33-23.7z" fill="#14404c"/><path d="m82.36 20.14-.65 47-7.78.77.32-23.71z" fill="#14404c"/><path d="m10.94 35.12h34.59v2.58h-34.59z" fill="#e7e7e8" transform="matrix(.01378766 -.99990495 .99990495 .01378766 -8.57 64.14)"/><path d="m14.69 34.01h34.59v4.92h-34.59z" fill="#d6d7d8" transform="matrix(.01361315 -.99990734 .99990734 .01361315 -4.92 67.95)"/><path d="m19.05 8.28h19.11v2.58h-19.11z" fill="#ef7a2c" transform="matrix(.01378766 -.99990495 .99990495 .01378766 18.64 38.04)"/><path d="m22.8 7.16h19.11v4.92h-19.11z" fill="#df7227" transform="matrix(.01361315 -.99990734 .99990734 .01361315 22.29 41.84)"/><path d="m31.07 12.36h2.42v4.92h-2.42z" fill="#eec755" transform="matrix(.01396218 -.99990252 .99990252 .01396218 17.01 46.89)"/><path d="m27.32 13.48h2.42v2.58h-2.42z" fill="#ffd45e" transform="matrix(.0141367 -.99990007 .99990007 .0141367 13.36 43.09)"/><path d="m32.48 52.42a1.35 1.35 0 0 0 .76.28c.58.07 1.12.55 1 1s-.84.82-1.43.7c-.78-.16-2.2.74-3.13.25a1.48 1.48 0 0 0 -1.09-.15c-1.69.48-2.6-.94-1.51-1.38a1 1 0 0 0 .57-.56c.12-.39.71-.74 1.86-.34.99.37 1.82-.76 2.97.2z" fill="#a3a2a2"/><path d="m19.6 50.69h34.58v2.58h-34.58z" fill="#e7e7e8" transform="matrix(.01378766 -.99990495 .99990495 .01378766 -15.59 88.15)"/><path d="m23.35 49.57h34.58v4.92h-34.58z" fill="#d6d7d8" transform="matrix(.01396218 -.99990252 .99990252 .01396218 -11.95 91.94)"/><path d="m27.71 23.84h19.11v2.58h-19.11z" fill="#ef7a2c" transform="matrix(.01396218 -.99990252 .99990252 .01396218 11.62 62.05)"/><path d="m31.46 22.73h19.11v4.92h-19.11z" fill="#df7227" transform="matrix(.01361315 -.99990734 .99990734 .01361315 15.27 65.85)"/><path d="m39.73 27.93h2.42v4.92h-2.42z" fill="#eec755" transform="matrix(.01396218 -.99990252 .99990252 .01396218 9.99 70.9)"/><path d="m35.98 29.04h2.42v2.58h-2.42z" fill="#ffd45e" transform="matrix(.01361315 -.99990734 .99990734 .01361315 6.36 67.11)"/><path d="m41.14 68a1.37 1.37 0 0 0 .76.28c.59.07 1.12.55 1 1s-.84.82-1.43.7c-.78-.15-2.2.74-3.13.25a1.48 1.48 0 0 0 -1.09-.15c-1.68.48-2.59-.93-1.51-1.38a1 1 0 0 0 .57-.55c.13-.4.71-.74 1.86-.35 1 .36 1.83-.8 2.97.2z" fill="#a3a2a2"/><path d="m28.26 54.03h34.59v2.58h-34.59z" fill="#e7e7e8" transform="matrix(.01378766 -.99990495 .99990495 .01378766 -10.39 100.1)"/><path d="m32.01 52.92h34.59v4.92h-34.59z" fill="#d6d7d8" transform="matrix(.01396218 -.99990252 .99990252 .01396218 -6.75 103.9)"/><path d="m36.37 27.19h19.11v2.58h-19.11z" fill="#ef7a2c" transform="matrix(.01 -1 1 .01 16.82 74.01)"/><path d="m40.12 26.07h19.11v4.92h-19.11z" fill="#df7227" transform="matrix(.01396218 -.99990252 .99990252 .01396218 20.45 77.8)"/><path d="m48.39 31.27h2.42v4.92h-2.42z" fill="#eec755" transform="matrix(.01361315 -.99990734 .99990734 .01361315 15.2 82.87)"/><path d="m44.65 32.39h2.42v2.58h-2.42z" fill="#ffd45e" transform="matrix(.0141367 -.99990007 .99990007 .0141367 11.53 79.05)"/><path d="m49.8 71.33a1.46 1.46 0 0 0 .76.28c.59.07 1.12.54 1 1a1.24 1.24 0 0 1 -1.44.7c-.78-.16-2.2.74-3.13.25a1.53 1.53 0 0 0 -1.09-.16c-1.68.49-2.59-.93-1.51-1.37a1 1 0 0 0 .57-.56c.13-.39.71-.74 1.86-.34 1.01.37 1.83-.76 2.98.2z" fill="#a3a2a2"/><path d="m36.92 57.38h34.59v2.58h-34.59z" fill="#e7e7e8" transform="matrix(.01378766 -.99990495 .99990495 .01378766 -5.2 112.07)"/><path d="m40.67 56.26h34.59v4.92h-34.59z" fill="#d6d7d8" transform="matrix(.01361315 -.99990734 .99990734 .01361315 -1.54 115.88)"/><path d="m45.03 30.53h19.11v2.58h-19.11z" fill="#ef7a2c" transform="matrix(.01378766 -.99990495 .99990495 .01378766 22.01 85.97)"/><path d="m48.78 29.42h19.11v4.92h-19.11z" fill="#df7227" transform="matrix(.01361315 -.99990734 .99990734 .01361315 25.67 89.77)"/><path d="m57.06 34.62h2.42v4.92h-2.42z" fill="#eec755" transform="matrix(.01396218 -.99990252 .99990252 .01396218 20.38 94.82)"/><path d="m53.31 35.73h2.42v2.58h-2.42z" fill="#ffd45e" transform="matrix(.01361315 -.99990734 .99990734 .01361315 16.75 91.03)"/><path d="m58.46 74.67a1.37 1.37 0 0 0 .76.28c.59.07 1.12.55 1 1a1.24 1.24 0 0 1 -1.44.7c-.77-.16-2.2.74-3.13.25a1.47 1.47 0 0 0 -1.09-.15c-1.68.49-2.59-.93-1.5-1.38a1 1 0 0 0 .56-.55c.13-.4.71-.74 1.86-.35 1.01.38 1.83-.76 2.98.2z" fill="#a3a2a2"/><path d="m45.59 60.72h34.59v2.58h-34.59z" fill="#e7e7e8" transform="matrix(.01378766 -.99990495 .99990495 .01378766 0 124.03)"/><path d="m49.33 59.61h34.59v4.92h-34.59z" fill="#d6d7d8" transform="matrix(.01396218 -.99990252 .99990252 .01396218 3.64 127.82)"/><path d="m53.7 33.88h19.11v2.58h-19.11z" fill="#ef7a2c" transform="matrix(.01396218 -.99990252 .99990252 .01396218 27.21 97.92)"/><path d="m57.44 32.76h19.11v4.92h-19.11z" fill="#df7227" transform="matrix(.01396218 -.99990252 .99990252 .01396218 30.85 101.72)"/><path d="m65.72 37.96h2.42v4.92h-2.42z" fill="#eec755" transform="matrix(.01361315 -.99990734 .99990734 .01361315 25.6 106.79)"/><path d="m61.97 39.08h2.42v2.58h-2.42z" fill="#ffd45e" transform="matrix(.0141367 -.99990007 .99990007 .0141367 21.92 102.97)"/><path d="m67.12 78a1.49 1.49 0 0 0 .76.28c.59.07 1.13.54 1 1s-.84.82-1.44.7c-.77-.16-2.19.74-3.13.25a1.51 1.51 0 0 0 -1.08-.16c-1.69.49-2.6-.93-1.51-1.37a1 1 0 0 0 .56-.56c.13-.39.71-.74 1.86-.34 1.01.39 1.86-.75 2.98.2z" fill="#a3a2a2"/><path d="m55 61.26h34.58v2.58h-34.58z" fill="#e7e7e8" transform="matrix(.01378766 -.99990495 .99990495 .01378766 8.75 133.97)"/><path d="m58.75 60.15h34.58v4.92h-34.58z" fill="#d6d7d8" transform="matrix(.01396218 -.99990252 .99990252 .01396218 12.38 137.76)"/><path d="m63.11 34.42h19.11v2.58h-19.11z" fill="#ef7a2c" transform="matrix(.01378766 -.99990495 .99990495 .01378766 35.95 107.87)"/><path d="m66.86 33.3h19.11v4.92h-19.11z" fill="#df7227" transform="matrix(.01361315 -.99990734 .99990734 .01361315 39.61 111.68)"/><path d="m75.13 38.5h2.42v4.92h-2.42z" fill="#eec755" transform="matrix(.01396218 -.99990252 .99990252 .01396218 34.32 116.72)"/><path d="m71.38 39.62h2.42v2.58h-2.42z" fill="#ffd45e" transform="matrix(.0141367 -.99990007 .99990007 .0141367 30.66 112.91)"/><path d="m76.53 78.56a1.49 1.49 0 0 0 .76.28c.59.07 1.13.54 1 1s-.84.82-1.43.7c-.78-.16-2.2.74-3.13.25a1.53 1.53 0 0 0 -1.09-.16c-1.69.49-2.6-.93-1.51-1.37a.94.94 0 0 0 .56-.56c.13-.39.72-.74 1.87-.34 1 .37 1.83-.77 2.97.2z" fill="#a3a2a2"/><path d="m75.28 30.39a3.32 3.32 0 0 0 -3.37 3.27l-.13 9.48a3.33 3.33 0 0 1 -3.37 3.28l-32.08-.42a3.31 3.31 0 0 1 -3.27-3.36l.13-9.49a3.31 3.31 0 0 0 -3.27-3.36l-5.17-.07a.36.36 0 0 0 -.37.36l-.93 67.48a3.32 3.32 0 0 0 3.27 3.37l49.78.69a3.33 3.33 0 0 0 3.37-3.28l.93-67.76c0-.05 0-.09-.09-.09z" fill="#cad1d8"/><path d="m74.57 54.53-44.62-.61-7.21-11.91-.99 71.18 59.38.82.98-71.17z" fill="#2f6c7d"/><path d="m21.87 104.89 59.37.82-.01 1.1-.02 1.48-59.38-.82z" fill="#fecc3f"/><path d="m21.93 100.19 59.38.82-.02 1.1-.02 1.48-59.37-.82z" fill="#fecc3f"/><path d="m35.17 55.78h32.11v43.29h-32.11z" fill="#e7e7e8" transform="matrix(.01378766 -.99990495 .99990495 .01378766 -26.91 127.57)"/><path d="m80.6 45.18.2-14.35a.37.37 0 0 0 -.36-.37l-5.16-.07a3.32 3.32 0 0 0 -3.37 3.27l-.13 9.48a3.33 3.33 0 0 1 -3.37 3.28l-16.74-.23-.94 67.4 30.4.42 1-71.17z" fill="#e7e7e8"/><path d="m4.7 69.17c2.06-2.15 6.66-3.11 7.3-3a60.27 60.27 0 0 1 7.18.86 58.85 58.85 0 0 1 10.28 2.84 2.74 2.74 0 0 1 1.63 1.26 3.34 3.34 0 0 1 .3 2.29 2.88 2.88 0 0 1 -3.2 2.46 64.58 64.58 0 0 1 -8.13-1.08c-3.11-.62-4.87-1-7.4-1.68l-5.78 2.65a1.9 1.9 0 0 1 -2.78-.77c-.58-1.52-.75-4.42.6-5.83z" fill="#f2c4a5"/><path d="m30.41 74.54a1.82 1.82 0 0 1 -2 1l-2.63-.54a2.48 2.48 0 1 1 1-4.84l2.62.54a1.82 1.82 0 0 1 1.46 1.7v.61a4.56 4.56 0 0 1 -.45 1.53z" fill="#ead4c1"/><path d="m.62 81.05a5.17 5.17 0 0 1 3.68-4.47 30 30 0 0 1 7.45-1.68c1-.09 4.16-.3 4.16-.3a2.35 2.35 0 0 1 1.48-.08c2.22.35 4.63.83 7.16 1.49a72.28 72.28 0 0 1 11.17 3.93 3 3 0 0 1 1.6 1.6 4.35 4.35 0 0 1 0 2.75c-.57 1.95-2.26 3.19-3.75 2.75a37 37 0 0 0 -3.84-.51c-1.51-.25-3-.58-4.48-1-2.81-.76-5.89-2.19-8.86-2a22 22 0 0 0 -2.69.67 48.92 48.92 0 0 1 -6.56.8 17.8 17.8 0 0 1 -4.45-.28 2.08 2.08 0 0 1 -1.43-1 5.27 5.27 0 0 1 -.64-2.67z" fill="#f2c4a5"/><path d="m36.33 85.23a2 2 0 0 1 -2.2 1.06l-2.58-.53a2.81 2.81 0 0 1 1.13-5.5l2.58.53a2 2 0 0 1 1.6 1.83 5.68 5.68 0 0 1 -.11 1.38 5.37 5.37 0 0 1 -.42 1.23z" fill="#ead4c1"/><path d="m0 89.06a4 4 0 0 1 .23-1.13 5 5 0 0 1 4.7-3.23s13.65-.49 14.27-.3a52.61 52.61 0 0 1 9 1.87 54.6 54.6 0 0 1 5.42 1.94c1.27.54 3.37 1 3.85 2.47a3.75 3.75 0 0 1 .13 1.63c-.11.92-.42 2.55-1.34 3a7.39 7.39 0 0 1 -3.32.4 42 42 0 0 1 -7.64-2c-2.46-.77-5-.92-7-1.61-3.1.76-12.2 2.9-14.67 2.51-2.99-.5-3.73-3.24-3.63-5.55z" fill="#f2c4a5"/><path d="m36.09 94.22a1.5 1.5 0 0 1 -1.67.83l-2.73-.56a2.76 2.76 0 0 1 1.11-5.4l2.73.56a1.52 1.52 0 0 1 1.21 1.44 6.37 6.37 0 0 1 -.1 1.34 6.52 6.52 0 0 1 -.55 1.79z" fill="#ead4c1"/><path d="m14.45 93.43c2.35-.37 5.9-1.26 6.63-.57a44.88 44.88 0 0 1 5.92 1.2 46.5 46.5 0 0 1 8.33 3.19 2.3 2.3 0 0 1 1.27 1.2 3 3 0 0 1 .11 2 2.39 2.39 0 0 1 -2.81 1.89c-2.11-.65-4.46-.72-6.61-1.34a38.41 38.41 0 0 0 -4.51-.94c-2-.32-4.69.29-6.68.75-2.43.55-5 1.35-7.47.9-1.83-.33-4.42-1.21-4.95-3.25-1.1-4.11 4.23-3.97 10.77-5.03z" fill="#f2c4a5"/><path d="m35 100.88a1.56 1.56 0 0 1 -1.89.71l-1.82-.59a2.18 2.18 0 0 1 1.41-4.12l1.81.62a1.59 1.59 0 0 1 1.06 1.73 5.55 5.55 0 0 1 -.22.87 5.06 5.06 0 0 1 -.35.78z" fill="#ead4c1"/><path d="m5.4 113.89v6.87l28.62-.45v-6.88z" fill="#d1e9f5"/><path d="m13.75 232.83-1.08-113.42-9.43.14 1.08 113.28z" fill="#de5315"/><path d="m37.24 232.83-1.08-113.77-23.49.35 1.08 113.42z" fill="#ed6b30"/></svg>